<?xml version="1.0" encoding="UTF-8" standalone="no"?><!DOCTYPE svg PUBLIC "-//W3C//DTD SVG 1.1//EN" "http://www.w3.org/Graphics/SVG/1.1/DTD/svg11.dtd"><svg width="100%" height="100%" viewBox="0 0 155 60" version="1.1" xmlns="http://www.w3.org/2000/svg" xmlns:xlink="http://www.w3.org/1999/xlink" xml:space="preserve" xmlns:serif="http://www.serif.com/" style="fill-rule:evenodd;clip-rule:evenodd;stroke-linejoin:round;stroke-miterlimit:1.41421;"><g><path d="M155,60l-155,0l0,-60l155,0l0,60Zm-145,-14.999c0,2.749 2.25,5 5,5l125,0c2.75,0 5,-2.251 5,-5l0,-30.001c0,-2.75 -2.25,-5 -5,-5l-125,0c-2.75,0 -5,2.25 -5,5l0,30" style="fill:#fff;fill-rule:nonzero;"/><path d="M140,50l-125,0c-2.75,0 -5,-2.25 -5,-5l0,-30c0,-2.75 2.25,-5 5,-5l125,0c2.75,0 5,2.25 5,5l0,30c0,2.75 -2.25,5 -5,5Z" style="fill-rule:nonzero;"/><path d="M140,10.001l-125,0c-2.75,0 -5,2.25 -5,4.999l0,30.001c0,2.749 2.25,5 5,5l125,0c2.75,0 5,-2.251 5,-5l0,-30.001c0,-2.749 -2.25,-4.999 -5,-4.999Zm0,0.799c2.316,0 4.2,1.885 4.2,4.2l0,30.001c0,2.315 -1.884,4.2 -4.2,4.2l-125,0c-2.316,0 -4.2,-1.885 -4.2,-4.2l0,-30.001c0,-2.315 1.884,-4.2 4.2,-4.2l125,0Z" style="fill:#a6a6a6;fill-rule:nonzero;"/><path d="M116.936,40.001l1.866,0l0,-12.502l-1.866,0l0,12.502Zm16.807,-7.999l-2.139,5.42l-0.064,0l-2.22,-5.42l-2.01,0l3.329,7.576l-1.898,4.213l1.947,0l5.13,-11.789l-2.075,0Zm-10.582,6.578c-0.612,0 -1.464,-0.305 -1.464,-1.061c0,-0.965 1.062,-1.335 1.978,-1.335c0.821,0 1.206,0.177 1.705,0.418c-0.145,1.158 -1.142,1.978 -2.219,1.978Zm0.225,-6.851c-1.351,0 -2.75,0.595 -3.329,1.914l1.656,0.692c0.354,-0.692 1.013,-0.917 1.705,-0.917c0.965,0 1.946,0.579 1.962,1.608l0,0.129c-0.338,-0.193 -1.061,-0.483 -1.946,-0.483c-1.785,0 -3.603,0.981 -3.603,2.815c0,1.672 1.464,2.75 3.104,2.75c1.255,0 1.946,-0.563 2.381,-1.222l0.064,0l0,0.965l1.801,0l0,-4.793c0,-2.22 -1.656,-3.458 -3.795,-3.458Zm-11.532,1.795l-2.654,0l0,-4.285l2.654,0c1.395,0 2.187,1.155 2.187,2.143c0,0.969 -0.792,2.142 -2.187,2.142Zm-0.048,-6.025l-4.471,0l0,12.502l1.865,0l0,-4.737l2.606,0c2.068,0 4.101,-1.497 4.101,-3.882c0,-2.386 -2.033,-3.883 -4.101,-3.883Zm-24.382,11.084c-1.288,0 -2.368,-1.08 -2.368,-2.562c0,-1.498 1.08,-2.593 2.368,-2.593c1.273,0 2.272,1.095 2.272,2.593c0,1.482 -0.999,2.562 -2.272,2.562Zm2.143,-5.88l-0.064,0c-0.419,-0.5 -1.225,-0.951 -2.24,-0.951c-2.126,0 -4.076,1.869 -4.076,4.269c0,2.385 1.95,4.237 4.076,4.237c1.015,0 1.821,-0.451 2.24,-0.966l0.064,0l0,0.612c0,1.627 -0.87,2.497 -2.272,2.497c-1.143,0 -1.852,-0.822 -2.142,-1.514l-1.627,0.676c0.467,1.128 1.707,2.514 3.769,2.514c2.192,0 4.044,-1.289 4.044,-4.431l0,-7.636l-1.772,0l0,0.693Zm3.061,7.298l1.869,0l0,-12.502l-1.869,0l0,12.502Zm4.624,-4.125c-0.049,-1.643 1.273,-2.481 2.223,-2.481c0.742,0 1.37,0.371 1.579,0.903l-3.802,1.578Zm5.8,-1.417c-0.354,-0.951 -1.434,-2.707 -3.641,-2.707c-2.191,0 -4.012,1.724 -4.012,4.253c0,2.385 1.804,4.253 4.221,4.253c1.95,0 3.078,-1.192 3.545,-1.885l-1.45,-0.966c-0.483,0.709 -1.144,1.176 -2.095,1.176c-0.951,0 -1.627,-0.435 -2.062,-1.289l5.687,-2.352l-0.193,-0.483Zm-45.309,-1.402l0,1.804l4.318,0c-0.129,1.015 -0.467,1.756 -0.983,2.272c-0.628,0.628 -1.611,1.321 -3.335,1.321c-2.658,0 -4.736,-2.143 -4.736,-4.801c0,-2.658 2.078,-4.801 4.736,-4.801c1.434,0 2.481,0.564 3.255,1.289l1.272,-1.273c-1.079,-1.031 -2.513,-1.82 -4.527,-1.82c-3.641,0 -6.702,2.964 -6.702,6.605c0,3.641 3.061,6.605 6.702,6.605c1.966,0 3.448,-0.644 4.608,-1.852c1.192,-1.193 1.563,-2.868 1.563,-4.221c0,-0.419 -0.033,-0.806 -0.097,-1.128l-6.074,0Zm11.079,5.526c-1.289,0 -2.4,-1.063 -2.4,-2.578c0,-1.53 1.111,-2.577 2.4,-2.577c1.289,0 2.4,1.047 2.4,2.577c0,1.515 -1.111,2.578 -2.4,2.578Zm0,-6.831c-2.352,0 -4.269,1.788 -4.269,4.253c0,2.449 1.917,4.253 4.269,4.253c2.352,0 4.269,-1.804 4.269,-4.253c0,-2.465 -1.917,-4.253 -4.269,-4.253Zm9.313,6.831c-1.288,0 -2.4,-1.063 -2.4,-2.578c0,-1.53 1.112,-2.577 2.4,-2.577c1.289,0 2.401,1.047 2.401,2.577c0,1.515 -1.112,2.578 -2.401,2.578Zm0,-6.831c-2.352,0 -4.269,1.788 -4.269,4.253c0,2.449 1.917,4.253 4.269,4.253c2.353,0 4.27,-1.804 4.27,-4.253c0,-2.465 -1.917,-4.253 -4.27,-4.253Z" style="fill:#fff;fill-rule:nonzero;"/><path d="M20.509,42.39l-0.074,-0.071c-0.291,-0.308 -0.463,-0.786 -0.463,-1.405l0,0.145l0,-22.116c0,-0.001 0,-0.003 0,-0.005l0,0.152c0,-0.67 0.201,-1.176 0.536,-1.478l12.39,12.389l-12.389,12.389Zm-0.537,-23.453c0,-0.055 0.002,-0.109 0.004,-0.161c-0.002,0.052 -0.004,0.106 -0.004,0.161Zm0.005,-0.164c0,0 0,-0.001 0,-0.002c0,0.001 0,0.002 0,0.002Zm0,-0.007l0,-0.001l0,0.001Z" style="fill:url(#_Linear1);"/><path d="M37.027,34.279l0.094,-0.054l4.893,-2.78c0.467,-0.265 0.778,-0.586 0.933,-0.927c-0.155,0.341 -0.466,0.662 -0.933,0.928l-4.893,2.78l-0.094,0.053Zm0.001,-0.147l-4.13,-4.131l4.13,-4.13l4.986,2.833c0.634,0.359 0.989,0.823 1.048,1.297c0,0 0,0.001 0,0.002c-0.059,0.472 -0.414,0.936 -1.048,1.296l-4.986,2.833Z" style="fill:url(#_Linear2);"/><path d="M21.392,42.862c-0.346,0 -0.647,-0.113 -0.883,-0.325l0,-0.001c0.236,0.213 0.538,0.326 0.884,0.326c0.03,0 0.061,-0.001 0.092,-0.003c-0.031,0.002 -0.062,0.003 -0.093,0.003Zm0.001,-0.147c-0.346,0.001 -0.648,-0.112 -0.884,-0.325l12.389,-12.389l4.13,4.131l-14.515,8.248c-0.401,0.228 -0.782,0.335 -1.12,0.335Zm-0.887,-0.181c-0.022,-0.02 -0.044,-0.041 -0.065,-0.063l0.065,0.063Z" style="fill:url(#_Linear3);"/><path d="M32.898,30.001l-12.39,-12.389c0.236,-0.212 0.537,-0.325 0.883,-0.325c0.339,0 0.72,0.108 1.122,0.337l14.515,8.247l-4.13,4.13Zm4.223,-4.223l-14.608,-8.3c-0.402,-0.229 -0.783,-0.337 -1.122,-0.337c-0.001,0 -0.003,0 -0.004,0c0.001,0 0.003,0 0.005,0c0.339,0 0.719,0.108 1.121,0.336l14.608,8.3l0,0.001Z" style="fill:url(#_Linear4);"/><path d="M21.485,42.859c0.314,-0.018 0.662,-0.126 1.028,-0.333l14.514,-8.247l-14.514,8.247c-0.366,0.208 -0.714,0.316 -1.028,0.333Zm-0.976,-0.322l-0.003,-0.003c0.001,0.001 0.002,0.002 0.003,0.003Zm-0.068,-0.066l-0.006,-0.006c0.002,0.002 0.004,0.004 0.006,0.006Z" style="fill-rule:nonzero;"/><path d="M37.027,34.279l0.094,-0.054l-0.094,0.054Z" style="fill:url(#_Linear5);"/><path d="M21.393,42.862c-0.346,0 -0.648,-0.113 -0.884,-0.326l0,0.001c-0.001,-0.001 -0.002,-0.002 -0.003,-0.003l-0.065,-0.063c-0.002,-0.002 -0.004,-0.004 -0.006,-0.006l0.074,-0.075c0.236,0.213 0.538,0.326 0.884,0.325c0.338,0 0.719,-0.107 1.12,-0.335l14.515,-8.248l0.093,0.093l-0.094,0.054l-14.514,8.247c-0.366,0.207 -0.714,0.315 -1.028,0.333c-0.031,0.002 -0.062,0.003 -0.092,0.003Z" style="fill:url(#_Linear6);"/><path d="M20.435,42.465c-0.291,-0.308 -0.463,-0.786 -0.463,-1.405l0,-0.001c0,0.62 0.172,1.098 0.463,1.405l0,0.001Z" style="fill-rule:nonzero;"/><path d="M20.435,42.464c-0.291,-0.307 -0.463,-0.785 -0.463,-1.405l0,-0.145c0,0.619 0.172,1.097 0.463,1.405l0.074,0.071l-0.074,0.074Z" style="fill:url(#_Linear7);"/><path d="M20.435,42.465l0,-0.001l0.074,-0.074l-0.074,0.075Z" style="fill:url(#_Linear8);"/><path d="M42.947,30.518c0.077,-0.168 0.115,-0.342 0.115,-0.515c0,-0.001 0.001,-0.001 0.001,-0.001c0,0.174 -0.039,0.347 -0.116,0.516Z" style="fill-rule:nonzero;"/><path d="M37.121,34.225l-0.093,-0.093l4.986,-2.833c0.634,-0.36 0.989,-0.824 1.048,-1.296c0,0.173 -0.038,0.347 -0.115,0.515c-0.155,0.341 -0.466,0.662 -0.933,0.927l-4.893,2.78Z" style="fill:url(#_Linear9);"/><path d="M43.063,30.001l-0.001,0c0,-0.523 -0.349,-1.046 -1.048,-1.443l-4.893,-2.78l0,-0.001l4.893,2.781c0.699,0.397 1.049,0.92 1.049,1.443Z" style="fill:#404040;fill-rule:nonzero;"/><path d="M43.062,30.001c-0.059,-0.474 -0.414,-0.938 -1.048,-1.297l-4.986,-2.833l0.093,-0.093l4.893,2.78c0.699,0.397 1.048,0.92 1.048,1.443Z" style="fill:url(#_Linear10);"/><path d="M19.972,18.938l0,-0.001l0,0.001Zm0.004,-0.162c0.001,-0.001 0.001,-0.002 0.001,-0.003c0,0.001 0,0.002 -0.001,0.003Zm0.001,-0.005c0,-0.001 0,-0.003 0,-0.005c0,0.002 0,0.004 0,0.005Zm0,-0.006c0.058,-1.027 0.616,-1.62 1.406,-1.624c-0.342,0.002 -0.64,0.114 -0.874,0.325l-0.003,0.003c-0.024,0.022 -0.048,0.045 -0.071,0.069c-0.262,0.278 -0.428,0.694 -0.458,1.227Z" style="fill:#404040;fill-rule:nonzero;"/><path d="M19.972,19.09l0,-0.146c0,-0.002 0,-0.004 0,-0.006l0,-0.001c0,-0.055 0.002,-0.109 0.004,-0.161c0.001,-0.001 0.001,-0.002 0.001,-0.003c0,0 0,-0.001 0,-0.002c0,-0.001 0,-0.003 0,-0.005l0,-0.001c0.03,-0.533 0.196,-0.949 0.458,-1.227l0.073,0.074c-0.335,0.302 -0.536,0.808 -0.536,1.478Zm0.534,-1.621l0.003,-0.003c-0.001,0.001 -0.002,0.002 -0.003,0.003Z" style="fill:url(#_Linear11);"/><path d="M21.383,17.141c0.001,0 0.002,0 0.004,0c-0.002,0 -0.003,0 -0.004,0Z" style="fill:#404040;fill-rule:nonzero;"/><path d="M37.028,25.871l-14.515,-8.247c-0.402,-0.229 -0.783,-0.337 -1.122,-0.337c-0.346,0 -0.647,0.113 -0.883,0.325l-0.073,-0.074c0.023,-0.024 0.047,-0.047 0.071,-0.069c0.001,-0.001 0.002,-0.002 0.003,-0.003c0.234,-0.211 0.532,-0.323 0.874,-0.325l0.008,0c0.339,0 0.72,0.108 1.122,0.337l14.608,8.3l-0.093,0.093Z" style="fill:url(#_Linear12);"/><path d="M51.929,22.098l1.08,0c0.702,0 1.259,-0.201 1.67,-0.603c0.411,-0.403 0.616,-0.966 0.616,-1.692c0,-0.72 -0.205,-1.282 -0.616,-1.687c-0.411,-0.405 -0.968,-0.608 -1.67,-0.608l-1.08,0l0,4.59Zm-0.782,0.748l0,-6.086l1.862,0c0.934,0 1.682,0.282 2.244,0.846c0.561,0.564 0.841,1.296 0.841,2.197c0,0.901 -0.28,1.634 -0.841,2.197c-0.562,0.564 -1.31,0.846 -2.244,0.846l-1.862,0Z" style="fill:#fff;fill-rule:nonzero;"/><path d="M51.929,22.098l0,0.1l1.08,0c0.72,0.001 1.308,-0.209 1.74,-0.632c0.434,-0.424 0.647,-1.019 0.646,-1.763c0.001,-0.738 -0.213,-1.332 -0.646,-1.759c-0.432,-0.425 -1.02,-0.637 -1.74,-0.636l-1.08,0l-0.1,0l0,4.79l0.1,0l0,-0.1l0.1,0l0,-4.49l0.98,0c0.684,0.001 1.209,0.195 1.6,0.579c0.388,0.384 0.585,0.915 0.586,1.616c-0.001,0.708 -0.198,1.239 -0.586,1.62c-0.391,0.381 -0.916,0.574 -1.6,0.575l-1.08,0l0,0.1l0.1,0l-0.1,0Zm-0.782,0.748l0.1,0l0,-5.986l1.762,0c0.915,0.001 1.631,0.274 2.173,0.817l0,-0.001c0.541,0.546 0.811,1.246 0.812,2.127c-0.001,0.881 -0.271,1.582 -0.812,2.127c-0.542,0.543 -1.258,0.815 -2.173,0.816l-1.862,0l0,0.1l0.1,0l-0.1,0l0,0.1l1.862,0c0.954,0.001 1.734,-0.29 2.315,-0.875c0.58,-0.582 0.871,-1.347 0.87,-2.268c0.001,-0.921 -0.29,-1.685 -0.87,-2.268l-0.001,-0.001l0.001,0.001c-0.581,-0.584 -1.361,-0.876 -2.315,-0.875l-1.962,0l0,6.286l0.1,0l0,-0.1Z" style="fill:#fff;fill-rule:nonzero;"/><rect x="57.177" y="16.76" width="0.781" height="6.086" style="fill:#fff;fill-rule:nonzero;"/><path d="M57.177,22.846l0.1,0l0,-5.986l0.581,0l0,5.886l-0.681,0l0,0.1l0.1,0l-0.1,0l0,0.1l0.881,0l0,-6.286l-0.881,0l-0.1,0l0,6.286l0.1,0l0,-0.1Z" style="fill:#fff;fill-rule:nonzero;"/><path d="M61.069,22.982c-0.442,0 -0.874,-0.145 -1.296,-0.434c-0.422,-0.288 -0.699,-0.694 -0.829,-1.215l0.714,-0.289c0.085,0.334 0.26,0.617 0.523,0.846c0.263,0.23 0.559,0.344 0.888,0.344c0.34,0 0.63,-0.089 0.871,-0.268c0.242,-0.178 0.362,-0.421 0.362,-0.726c0,-0.34 -0.12,-0.602 -0.362,-0.786c-0.241,-0.185 -0.622,-0.356 -1.143,-0.515c-0.538,-0.17 -0.946,-0.39 -1.224,-0.658c-0.277,-0.27 -0.417,-0.614 -0.417,-1.033c0,-0.437 0.173,-0.816 0.519,-1.139c0.346,-0.323 0.797,-0.485 1.351,-0.485c0.516,0 0.936,0.129 1.259,0.387c0.322,0.258 0.532,0.54 0.629,0.846l-0.714,0.297c-0.052,-0.193 -0.178,-0.371 -0.379,-0.535c-0.201,-0.164 -0.46,-0.247 -0.777,-0.247c-0.301,0 -0.557,0.084 -0.77,0.251c-0.212,0.167 -0.318,0.375 -0.318,0.625c0,0.226 0.098,0.417 0.293,0.574c0.195,0.155 0.483,0.296 0.862,0.42c0.301,0.096 0.552,0.19 0.753,0.281c0.201,0.09 0.406,0.211 0.612,0.361c0.207,0.15 0.363,0.337 0.467,0.561c0.105,0.224 0.158,0.483 0.158,0.778c0,0.294 -0.061,0.558 -0.183,0.79c-0.122,0.233 -0.283,0.417 -0.484,0.553c-0.202,0.136 -0.418,0.239 -0.651,0.31c-0.232,0.071 -0.47,0.106 -0.714,0.106Z" style="fill:#fff;fill-rule:nonzero;"/><path d="M61.069,22.982l0,-0.1c-0.42,0 -0.83,-0.136 -1.239,-0.416c-0.403,-0.276 -0.663,-0.656 -0.789,-1.157l-0.097,0.024l0.038,0.093l0.714,-0.289l-0.038,-0.093l-0.097,0.025c0.09,0.353 0.277,0.655 0.554,0.896l0.001,0.001l-0.001,0c0.279,0.243 0.602,0.369 0.954,0.368c0.357,0 0.672,-0.095 0.931,-0.287c0.265,-0.194 0.404,-0.475 0.402,-0.807c0.002,-0.363 -0.134,-0.664 -0.401,-0.866c-0.258,-0.197 -0.647,-0.369 -1.175,-0.531l0.001,0.001c-0.529,-0.167 -0.923,-0.382 -1.184,-0.635c-0.258,-0.252 -0.386,-0.564 -0.387,-0.961c0.001,-0.41 0.158,-0.758 0.487,-1.066c0.326,-0.304 0.747,-0.457 1.283,-0.458c0.5,0.001 0.894,0.124 1.197,0.365c0.311,0.249 0.506,0.515 0.596,0.798l0.095,-0.03l-0.038,-0.092l-0.714,0.297l0.038,0.092l0.097,-0.026c-0.059,-0.218 -0.2,-0.413 -0.412,-0.587c-0.222,-0.181 -0.507,-0.269 -0.841,-0.269c-0.319,0 -0.601,0.09 -0.831,0.272c-0.233,0.181 -0.359,0.426 -0.357,0.704c-0.001,0.256 0.116,0.482 0.331,0.652c0.21,0.167 0.507,0.31 0.893,0.437l0.001,0c0.298,0.096 0.546,0.188 0.742,0.277c0.194,0.087 0.392,0.204 0.594,0.351c0.194,0.141 0.338,0.314 0.436,0.522c0.097,0.209 0.148,0.453 0.148,0.736c0,0.28 -0.058,0.527 -0.172,0.744c-0.115,0.219 -0.265,0.389 -0.451,0.516c-0.193,0.13 -0.401,0.229 -0.624,0.297c-0.223,0.068 -0.451,0.102 -0.685,0.102l0,0.2c0.253,0 0.502,-0.037 0.743,-0.11c0.242,-0.074 0.468,-0.182 0.678,-0.323c0.215,-0.146 0.388,-0.344 0.517,-0.589c0.13,-0.248 0.194,-0.529 0.194,-0.837c0,-0.307 -0.055,-0.581 -0.167,-0.82c-0.112,-0.24 -0.28,-0.441 -0.5,-0.6l0.001,0c-0.211,-0.153 -0.421,-0.278 -0.63,-0.371c-0.206,-0.093 -0.46,-0.188 -0.763,-0.285l0.001,0c-0.372,-0.122 -0.651,-0.259 -0.832,-0.404l0.001,0.001c-0.177,-0.144 -0.254,-0.3 -0.256,-0.496c0.002,-0.221 0.087,-0.393 0.28,-0.546c0.195,-0.153 0.425,-0.229 0.708,-0.23c0.301,0 0.533,0.077 0.714,0.224c0.19,0.156 0.301,0.316 0.346,0.484l0.029,0.11l0.82,-0.341l0.084,-0.035l-0.028,-0.087c-0.104,-0.33 -0.328,-0.627 -0.661,-0.894c-0.344,-0.275 -0.79,-0.409 -1.322,-0.409c-0.573,0 -1.054,0.169 -1.419,0.512c-0.363,0.337 -0.552,0.748 -0.551,1.212c-0.001,0.441 0.151,0.817 0.448,1.104l0,0.001c0.293,0.283 0.715,0.508 1.263,0.681l0.001,0.001c0.515,0.156 0.887,0.326 1.112,0.498c0.215,0.167 0.32,0.39 0.322,0.707c-0.002,0.279 -0.103,0.482 -0.321,0.646c-0.223,0.165 -0.489,0.247 -0.812,0.248c-0.305,-0.001 -0.574,-0.104 -0.823,-0.319c-0.248,-0.218 -0.41,-0.48 -0.491,-0.795l-0.028,-0.111l-0.82,0.332l-0.081,0.032l0.021,0.085c0.135,0.541 0.427,0.972 0.87,1.273c0.435,0.298 0.888,0.451 1.352,0.451l0,-0.1Z" style="fill:#fff;fill-rule:nonzero;"/><path d="M64.978,19.633l1.31,0c0.328,0 0.592,-0.11 0.79,-0.331c0.198,-0.221 0.298,-0.465 0.298,-0.731c0,-0.267 -0.1,-0.51 -0.298,-0.732c-0.198,-0.22 -0.462,-0.331 -0.79,-0.331l-1.31,0l0,2.125Zm0,3.213l-0.781,0l0,-6.086l2.074,0c0.515,0 0.961,0.172 1.338,0.514c0.377,0.344 0.566,0.775 0.566,1.297c0,0.521 -0.189,0.953 -0.566,1.296c-0.377,0.343 -0.823,0.514 -1.338,0.514l-1.293,0l0,2.465Z" style="fill:#fff;fill-rule:nonzero;"/><path d="M64.978,19.633l0,0.1l1.31,0c0.35,0.002 0.648,-0.122 0.865,-0.365c0.211,-0.235 0.324,-0.505 0.323,-0.797c0.001,-0.292 -0.112,-0.563 -0.323,-0.798l0,-0.001c-0.217,-0.242 -0.515,-0.365 -0.865,-0.364l-1.31,0l-0.1,0l0,2.325l0.1,0l0,-0.1l0.101,0l0,-2.025l1.209,0c0.306,0.002 0.536,0.099 0.716,0.298c0.184,0.208 0.271,0.424 0.272,0.665c-0.001,0.241 -0.088,0.457 -0.272,0.664c-0.181,0.199 -0.41,0.297 -0.716,0.298l-1.31,0l0,0.1l0.101,0l-0.101,0Zm0,3.213l0,-0.1l-0.681,0l0,-5.886l1.974,0c0.493,0.001 0.911,0.162 1.271,0.488c0.357,0.327 0.532,0.725 0.533,1.223c-0.001,0.497 -0.176,0.895 -0.533,1.222c-0.361,0.327 -0.778,0.488 -1.271,0.488l-1.293,0l-0.1,0l0,2.565l0.1,0l0,-0.1l0,0.1l0.101,0l0,-2.365l1.192,0c0.537,0.001 1.012,-0.181 1.406,-0.54c0.396,-0.359 0.599,-0.825 0.598,-1.37c0.001,-0.546 -0.202,-1.011 -0.598,-1.371c-0.394,-0.358 -0.869,-0.541 -1.406,-0.54l-2.174,0l0,6.286l0.982,0l0,-0.1l-0.101,0Z" style="fill:#fff;fill-rule:nonzero;"/><path d="M70.3,21.55c0.451,0.456 1.002,0.684 1.653,0.684c0.652,0 1.203,-0.228 1.653,-0.684c0.451,-0.456 0.676,-1.038 0.676,-1.747c0,-0.708 -0.225,-1.29 -0.676,-1.747c-0.45,-0.456 -1.001,-0.684 -1.653,-0.684c-0.651,0 -1.202,0.228 -1.653,0.684c-0.45,0.457 -0.676,1.039 -0.676,1.747c0,0.709 0.226,1.291 0.676,1.747Zm3.885,0.51c-0.598,0.615 -1.342,0.922 -2.232,0.922c-0.889,0 -1.634,-0.307 -2.231,-0.922c-0.598,-0.615 -0.897,-1.367 -0.897,-2.257c0,-0.889 0.299,-1.641 0.897,-2.257c0.597,-0.614 1.342,-0.922 2.231,-0.922c0.884,0 1.626,0.309 2.228,0.927c0.6,0.617 0.9,1.368 0.9,2.252c0,0.89 -0.299,1.642 -0.896,2.257Z" style="fill:#fff;fill-rule:nonzero;"/><path d="M70.3,21.55l-0.071,0.071c0.467,0.474 1.05,0.714 1.724,0.713c0.675,0.001 1.258,-0.239 1.725,-0.713c0.469,-0.475 0.705,-1.088 0.704,-1.818c0.001,-0.729 -0.235,-1.342 -0.704,-1.817c-0.467,-0.474 -1.05,-0.715 -1.725,-0.714c-0.675,-0.001 -1.257,0.24 -1.724,0.714c-0.47,0.475 -0.706,1.088 -0.705,1.817c-0.001,0.73 0.235,1.343 0.705,1.817l0,0.001l0.071,-0.071l0.071,-0.07c-0.431,-0.438 -0.646,-0.989 -0.647,-1.677c0.001,-0.687 0.216,-1.238 0.647,-1.677c0.435,-0.438 0.954,-0.653 1.582,-0.654c0.628,0.001 1.149,0.216 1.582,0.654c0.431,0.439 0.646,0.99 0.647,1.677c-0.001,0.688 -0.216,1.239 -0.647,1.677c-0.433,0.438 -0.954,0.653 -1.582,0.654c-0.628,-0.001 -1.147,-0.216 -1.582,-0.654l-0.071,0.07Zm3.885,0.51l-0.072,-0.07c-0.581,0.596 -1.293,0.891 -2.16,0.892c-0.867,-0.001 -1.579,-0.296 -2.16,-0.892c-0.58,-0.598 -0.867,-1.319 -0.868,-2.187c0.001,-0.867 0.288,-1.589 0.868,-2.187c0.581,-0.596 1.293,-0.89 2.16,-0.892c0.861,0.002 1.571,0.297 2.156,0.897c0.583,0.6 0.871,1.321 0.872,2.182c-0.001,0.868 -0.288,1.589 -0.868,2.187l0.072,0.07l0.071,0.07c0.616,-0.632 0.926,-1.415 0.925,-2.327c0.001,-0.906 -0.311,-1.688 -0.929,-2.322c-0.618,-0.636 -1.392,-0.958 -2.299,-0.957c-0.912,-0.001 -1.689,0.319 -2.303,0.953c-0.615,0.632 -0.926,1.414 -0.925,2.326c-0.001,0.912 0.31,1.695 0.925,2.327c0.614,0.633 1.391,0.953 2.303,0.952c0.913,0.001 1.689,-0.319 2.303,-0.952l-0.071,-0.07Z" style="fill:#fff;fill-rule:nonzero;"/><path d="M76.151,22.846l0,-6.086l0.953,0l2.958,4.735l0.033,0l-0.033,-1.173l0,-3.562l0.781,0l0,6.086l-0.816,0l-3.094,-4.964l-0.034,0l0.034,1.173l0,3.791l-0.782,0Z" style="fill:#fff;fill-rule:nonzero;"/><path d="M76.151,22.846l0.1,0l0,-5.986l0.797,0l2.959,4.735l0.191,0l-0.036,-1.275l0,-3.46l0.581,0l0,5.886l-0.661,0l-3.094,-4.964l-0.089,0l-0.102,0l0.036,1.275l0,3.689l-0.682,0l0,0.1l0.1,0l-0.1,0l0,0.1l0.882,0l0,-3.892l-0.034,-1.175l-0.1,0.003l0,0.1l0.034,0l0,-0.1l-0.085,0.053l3.123,5.011l0.972,0l0,-6.286l-0.881,0l-0.1,0l0,3.663l0.033,1.174l0.1,-0.002l0,-0.1l-0.033,0l0,0.1l0.085,-0.053l-2.988,-4.782l-1.008,0l-0.1,0l0,6.286l0.1,0l0,-0.1Z" style="fill:#fff;fill-rule:nonzero;"/><rect x="82.242" y="16.76" width="0.781" height="6.086" style="fill:#fff;fill-rule:nonzero;"/><path d="M82.242,22.846l0.1,0l0,-5.986l0.581,0l0,5.886l-0.681,0l0,0.1l0.1,0l-0.1,0l0,0.1l0.881,0l0,-6.286l-0.881,0l-0.1,0l0,6.286l0.1,0l0,-0.1Z" style="fill:#fff;fill-rule:nonzero;"/><path d="M85.201,22.098l1.574,0c0.299,0 0.543,-0.104 0.73,-0.314c0.188,-0.21 0.28,-0.439 0.28,-0.689c0,-0.249 -0.096,-0.477 -0.287,-0.684c-0.194,-0.207 -0.446,-0.31 -0.758,-0.31l-1.539,0l0,1.997Zm0,-2.728l1.42,0c0.295,0 0.531,-0.098 0.711,-0.293c0.177,-0.196 0.267,-0.41 0.267,-0.642c0,-0.232 -0.088,-0.445 -0.26,-0.638c-0.173,-0.193 -0.4,-0.289 -0.683,-0.289l-1.455,0l0,1.862Zm-0.782,3.476l0,-6.086l2.202,0c0.476,0 0.888,0.157 1.236,0.472c0.35,0.314 0.523,0.71 0.523,1.185c0,0.29 -0.074,0.544 -0.224,0.766c-0.151,0.221 -0.35,0.388 -0.6,0.501l0,0.034c0.301,0.102 0.547,0.278 0.74,0.527c0.192,0.25 0.289,0.539 0.289,0.867c0,0.499 -0.183,0.913 -0.548,1.241c-0.366,0.329 -0.799,0.493 -1.297,0.493l-2.321,0Z" style="fill:#fff;fill-rule:nonzero;"/><path d="M85.201,22.098l0,0.1l1.574,0c0.322,0.001 0.6,-0.117 0.805,-0.348c0.201,-0.223 0.305,-0.48 0.305,-0.755c0,-0.275 -0.109,-0.531 -0.314,-0.752l0,-0.001c-0.212,-0.227 -0.497,-0.343 -0.831,-0.341l-1.639,0l0,2.197l0.1,0l0,-0.1l0.1,0l0,-1.897l1.439,0c0.291,0.001 0.509,0.092 0.685,0.278l-0.001,-0.001c0.178,0.194 0.26,0.394 0.261,0.617c-0.001,0.225 -0.08,0.427 -0.254,0.622c-0.17,0.189 -0.38,0.28 -0.656,0.281l-1.574,0l0,0.1l0.1,0l-0.1,0Zm0,-2.728l0,0.1l1.42,0c0.316,0.001 0.586,-0.109 0.784,-0.326l0.001,0c0.191,-0.21 0.294,-0.451 0.293,-0.709c0.001,-0.258 -0.1,-0.498 -0.285,-0.704l0,-0.001c-0.192,-0.214 -0.453,-0.323 -0.758,-0.322l-1.555,0l0,2.062l0.1,0l0,-0.1l0.1,0l0,-1.762l1.355,0c0.261,0.002 0.453,0.085 0.609,0.256c0.158,0.178 0.234,0.364 0.234,0.571c0,0.206 -0.077,0.392 -0.241,0.574c-0.162,0.174 -0.364,0.259 -0.637,0.261l-1.42,0l0,0.1l0.1,0l-0.1,0Zm-0.782,3.476l0.1,0l0,-5.986l2.102,0c0.454,0.001 0.838,0.148 1.169,0.446c0.33,0.299 0.489,0.66 0.49,1.111c0,0.273 -0.068,0.505 -0.207,0.709c-0.141,0.207 -0.324,0.36 -0.558,0.467l-0.059,0.027l0,0.17l0.068,0.023c0.283,0.096 0.511,0.259 0.693,0.493c0.178,0.233 0.268,0.497 0.268,0.806c-0.001,0.474 -0.17,0.854 -0.515,1.167l-0.003,0.002l0.003,-0.002c-0.349,0.313 -0.754,0.466 -1.23,0.467l-2.321,0l0,0.1l0.1,0l-0.1,0l0,0.1l2.321,0c0.52,0.001 0.982,-0.174 1.364,-0.519l-0.001,0c0.385,-0.344 0.584,-0.792 0.582,-1.315c0.001,-0.348 -0.105,-0.662 -0.309,-0.928l-0.001,0c-0.204,-0.264 -0.469,-0.453 -0.787,-0.56l-0.032,0.094l0.1,0l0,-0.034l-0.1,0l0.041,0.091c0.266,-0.12 0.481,-0.3 0.641,-0.536c0.163,-0.238 0.243,-0.516 0.242,-0.822c0.002,-0.5 -0.187,-0.929 -0.556,-1.259c-0.364,-0.331 -0.805,-0.499 -1.303,-0.498l-2.302,0l0,6.286l0.1,0l0,-0.1Z" style="fill:#fff;fill-rule:nonzero;"/><path d="M89.679,22.846l0,-6.086l0.781,0l0,5.338l2.635,0l0,0.748l-3.416,0Z" style="fill:#fff;fill-rule:nonzero;"/><path d="M89.679,22.846l0.1,0l0,-5.986l0.581,0l0,5.338l2.635,0l0,0.548l-3.316,0l0,0.1l0.1,0l-0.1,0l0,0.1l3.516,0l0,-0.848l0,-0.1l-2.635,0l0,-5.338l-0.881,0l-0.1,0l0,6.286l0.1,0l0,-0.1Z" style="fill:#fff;fill-rule:nonzero;"/><path d="M97.5,17.508l-2.772,0l0,1.93l2.5,0l0,0.73l-2.5,0l0,1.93l2.772,0l0,0.748l-3.553,0l0,-6.086l3.553,0l0,0.748Z" style="fill:#fff;fill-rule:nonzero;"/><path d="M97.5,17.508l0,-0.1l-2.872,0l0,2.13l2.5,0l0,0.53l-2.5,0l0,2.13l2.772,0l0,0.548l-3.353,0l0,-5.886l3.353,0l0,0.648l0.1,0l0,-0.1l0,0.1l0.1,0l0,-0.748l0,-0.1l-3.753,0l0,6.286l3.753,0l0,-0.848l0,-0.1l-2.772,0l0,-1.73l2.5,0l0,-0.83l0,-0.1l-2.5,0l0,-1.73l2.772,0l0,-0.1l-0.1,0Z" style="fill:#fff;fill-rule:nonzero;"/><path d="M101.641,20.466l2.023,0l-0.994,-2.745l-0.035,0l-0.994,2.745Zm-1.727,2.38l2.297,-6.086l0.883,0l2.295,6.086l-0.868,0l-0.585,-1.649l-2.559,0l-0.596,1.649l-0.867,0Z" style="fill:#fff;fill-rule:nonzero;"/><path d="M101.641,20.466l0,0.1l2.166,0l-1.067,-2.945l-0.105,0l-0.07,0l-1.067,2.945l0.143,0l0,-0.1l0.094,0.034l0.994,-2.745l-0.094,-0.034l0,0.1l0.035,0l0,-0.1l-0.094,0.034l0.945,2.611l-1.88,0l0,0.1l0.094,0.034l-0.094,-0.034Zm-1.727,2.38l0.094,0.035l2.272,-6.021l0.745,0l2.219,5.886l-0.652,0l-0.586,-1.649l-2.699,0l-0.596,1.649l-0.797,0l0,0.1l0.094,0.035l-0.094,-0.035l0,0.1l0.937,0l0.596,-1.649l2.418,0l0.586,1.649l1.082,0l-2.37,-6.286l-0.952,0l-0.069,0l-2.373,6.286l0.145,0l0,-0.1Z" style="fill:#fff;fill-rule:nonzero;"/></g><defs><linearGradient id="_Linear1" x1="0" y1="0" x2="1" y2="0" gradientUnits="userSpaceOnUse" gradientTransform="matrix(-16.7825,-16.7825,-16.7825,16.7825,31.7998,18.7097)"><stop offset="0" style="stop-color:#00a0ff;stop-opacity:1"/><stop offset="1" style="stop-color:#00e2ff;stop-opacity:1"/></linearGradient><linearGradient id="_Linear2" x1="0" y1="0" x2="1" y2="0" gradientUnits="userSpaceOnUse" gradientTransform="matrix(-24.197,2.17272e-09,2.17272e-09,24.197,43.8344,30.0014)"><stop offset="0" style="stop-color:#ffdf00;stop-opacity:1"/><stop offset="1" style="stop-color:#ff9c00;stop-opacity:1"/></linearGradient><linearGradient id="_Linear3" x1="0" y1="0" x2="1" y2="0" gradientUnits="userSpaceOnUse" gradientTransform="matrix(-22.7583,-22.7583,-22.7583,22.7583,34.827,32.2961)"><stop offset="0" style="stop-color:#ff3a44;stop-opacity:1"/><stop offset="1" style="stop-color:#c31162;stop-opacity:1"/></linearGradient><linearGradient id="_Linear4" x1="0" y1="0" x2="1" y2="0" gradientUnits="userSpaceOnUse" gradientTransform="matrix(10.1625,-10.1625,-10.1625,-10.1625,17.2973,10.1762)"><stop offset="0" style="stop-color:#31a070;stop-opacity:1"/><stop offset="1" style="stop-color:#00ef75;stop-opacity:1"/></linearGradient><linearGradient id="_Linear5" x1="0" y1="0" x2="1" y2="0" gradientUnits="userSpaceOnUse" gradientTransform="matrix(-24.197,2.17272e-09,2.17272e-09,24.197,43.8344,30.0014)"><stop offset="0" style="stop-color:#ccb300;stop-opacity:1"/><stop offset="1" style="stop-color:#cc7c00;stop-opacity:1"/></linearGradient><linearGradient id="_Linear6" x1="0" y1="0" x2="1" y2="0" gradientUnits="userSpaceOnUse" gradientTransform="matrix(-22.7583,-22.7583,-22.7583,22.7583,34.827,32.2961)"><stop offset="0" style="stop-color:#cc2d36;stop-opacity:1"/><stop offset="1" style="stop-color:#9c0e4d;stop-opacity:1"/></linearGradient><linearGradient id="_Linear7" x1="0" y1="0" x2="1" y2="0" gradientUnits="userSpaceOnUse" gradientTransform="matrix(-16.7825,-16.7825,-16.7825,16.7825,31.7998,18.7097)"><stop offset="0" style="stop-color:#008cdf;stop-opacity:1"/><stop offset="1" style="stop-color:#00c6df;stop-opacity:1"/></linearGradient><linearGradient id="_Linear8" x1="0" y1="0" x2="1" y2="0" gradientUnits="userSpaceOnUse" gradientTransform="matrix(-22.7583,-22.7583,-22.7583,22.7583,34.827,32.2961)"><stop offset="0" style="stop-color:#df333b;stop-opacity:1"/><stop offset="1" style="stop-color:#aa0e56;stop-opacity:1"/></linearGradient><linearGradient id="_Linear9" x1="0" y1="0" x2="1" y2="0" gradientUnits="userSpaceOnUse" gradientTransform="matrix(-24.197,2.17272e-09,2.17272e-09,24.197,43.8344,30.0014)"><stop offset="0" style="stop-color:#dfc400;stop-opacity:1"/><stop offset="1" style="stop-color:#df8900;stop-opacity:1"/></linearGradient><linearGradient id="_Linear10" x1="0" y1="0" x2="1" y2="0" gradientUnits="userSpaceOnUse" gradientTransform="matrix(-24.197,2.17272e-09,2.17272e-09,24.197,43.8344,30.0014)"><stop offset="0" style="stop-color:#ffe83f;stop-opacity:1"/><stop offset="1" style="stop-color:#ffb53f;stop-opacity:1"/></linearGradient><linearGradient id="_Linear11" x1="0" y1="0" x2="1" y2="0" gradientUnits="userSpaceOnUse" gradientTransform="matrix(-16.7825,-16.7825,-16.7825,16.7825,31.7998,18.7097)"><stop offset="0" style="stop-color:#3fb8ff;stop-opacity:1"/><stop offset="1" style="stop-color:#3fe9ff;stop-opacity:1"/></linearGradient><linearGradient id="_Linear12" x1="0" y1="0" x2="1" y2="0" gradientUnits="userSpaceOnUse" gradientTransform="matrix(10.1625,-10.1625,-10.1625,-10.1625,17.2973,10.1762)"><stop offset="0" style="stop-color:#64b895;stop-opacity:1"/><stop offset="1" style="stop-color:#3ff497;stop-opacity:1"/></linearGradient></defs></svg>