<?xml version="1.0" encoding="UTF-8" standalone="no"?><!DOCTYPE svg PUBLIC "-//W3C//DTD SVG 1.1//EN" "http://www.w3.org/Graphics/SVG/1.1/DTD/svg11.dtd"><svg width="100%" height="100%" viewBox="0 0 135 40" version="1.1" xmlns="http://www.w3.org/2000/svg" xmlns:xlink="http://www.w3.org/1999/xlink" xml:space="preserve" xmlns:serif="http://www.serif.com/" style="fill-rule:evenodd;clip-rule:evenodd;stroke-linejoin:round;stroke-miterlimit:1.41421;"><g><g><g><path d="M124.355,0l-113.497,0c-0.414,0 -0.823,0 -1.235,0.002c-0.346,0.002 -0.689,0.008 -1.037,0.013c-0.758,0.008 -1.514,0.067 -2.261,0.176c-0.746,0.113 -1.469,0.324 -2.145,0.627c-0.674,0.306 -1.29,0.704 -1.826,1.179c-0.538,0.474 -0.987,1.021 -1.329,1.621c-0.343,0.599 -0.581,1.241 -0.705,1.903c-0.126,0.662 -0.193,1.332 -0.202,2.002c-0.011,0.307 -0.012,0.615 -0.017,0.921l0,23.115c0.005,0.31 0.006,0.611 0.017,0.921c0.009,0.671 0.076,1.341 0.202,2.002c0.124,0.663 0.362,1.306 0.705,1.905c0.342,0.598 0.791,1.143 1.329,1.614c0.534,0.477 1.15,0.875 1.826,1.179c0.676,0.304 1.398,0.517 2.145,0.63c0.748,0.109 1.503,0.168 2.261,0.177c0.348,0.007 0.691,0.011 1.037,0.011c0.412,0.002 0.821,0.002 1.235,0.002l113.497,0c0.406,0 0.818,0 1.223,-0.002c0.344,0 0.697,-0.004 1.041,-0.011c0.756,-0.008 1.51,-0.067 2.256,-0.177c0.749,-0.114 1.474,-0.327 2.153,-0.63c0.675,-0.304 1.291,-0.702 1.824,-1.179c0.538,-0.473 0.987,-1.018 1.333,-1.614c0.341,-0.6 0.577,-1.242 0.699,-1.905c0.126,-0.661 0.196,-1.331 0.209,-2.002c0.005,-0.31 0.005,-0.611 0.005,-0.921c0.009,-0.364 0.009,-0.725 0.009,-1.094l0,-20.929c0,-0.366 0,-0.729 -0.009,-1.092c0,-0.306 0,-0.614 -0.005,-0.921c-0.013,-0.671 -0.083,-1.34 -0.209,-2.002c-0.123,-0.662 -0.358,-1.304 -0.699,-1.903c-0.696,-1.203 -1.8,-2.182 -3.157,-2.8c-0.679,-0.302 -1.404,-0.514 -2.153,-0.627c-0.746,-0.11 -1.5,-0.169 -2.256,-0.176c-0.344,-0.005 -0.697,-0.011 -1.041,-0.013c-0.405,-0.002 -0.817,-0.002 -1.223,-0.002l0,0Z" style="fill:#a6a6a6;fill-rule:nonzero;"/><path d="M9.628,39.125c-0.344,0 -0.679,-0.004 -1.02,-0.011c-0.707,-0.008 -1.412,-0.062 -2.109,-0.163c-0.65,-0.099 -1.28,-0.284 -1.869,-0.548c-0.584,-0.261 -1.116,-0.605 -1.576,-1.016c-0.467,-0.407 -0.856,-0.879 -1.152,-1.397c-0.298,-0.521 -0.505,-1.08 -0.612,-1.657c-0.116,-0.62 -0.179,-1.247 -0.188,-1.875c-0.007,-0.211 -0.017,-0.913 -0.017,-0.913l0,-23.101c0,0 0.01,-0.691 0.017,-0.894c0.009,-0.628 0.071,-1.253 0.187,-1.872c0.107,-0.579 0.314,-1.139 0.613,-1.662c0.294,-0.518 0.681,-0.99 1.145,-1.398c0.464,-0.412 0.998,-0.757 1.582,-1.023c0.588,-0.263 1.217,-0.446 1.866,-0.544c0.699,-0.101 1.407,-0.156 2.116,-0.164l1.018,-0.012l115.944,0l1.03,0.013c0.703,0.007 1.403,0.061 2.097,0.162c0.655,0.099 1.291,0.284 1.885,0.548c1.171,0.535 2.124,1.381 2.725,2.42c0.293,0.52 0.497,1.076 0.603,1.649c0.117,0.624 0.183,1.255 0.196,1.887c0.004,0.283 0.004,0.588 0.004,0.89c0.009,0.375 0.009,0.732 0.009,1.092l0,20.929c0,0.363 0,0.718 -0.009,1.075c0,0.325 0,0.623 -0.005,0.93c-0.013,0.621 -0.077,1.24 -0.193,1.853c-0.105,0.581 -0.31,1.145 -0.609,1.67c-0.297,0.513 -0.684,0.98 -1.146,1.386c-0.46,0.414 -0.994,0.759 -1.578,1.022c-0.593,0.266 -1.227,0.452 -1.882,0.55c-0.698,0.101 -1.403,0.156 -2.109,0.163c-0.331,0.007 -0.677,0.011 -1.013,0.011l-1.223,0.002l-114.727,-0.002Z" style="fill-rule:nonzero;"/></g><g id="_Group_"><g id="_Group_3_" serif:id="_Group_3"><path id="_Path_" d="M32.437,20.301c0.022,-1.695 0.913,-3.265 2.356,-4.152c-0.915,-1.307 -2.396,-2.108 -3.991,-2.158c-1.679,-0.176 -3.307,1.005 -4.163,1.005c-0.872,0 -2.189,-0.988 -3.608,-0.958c-1.865,0.06 -3.566,1.097 -4.473,2.727c-1.934,3.349 -0.491,8.27 1.361,10.977c0.927,1.325 2.01,2.805 3.428,2.753c1.387,-0.058 1.905,-0.885 3.579,-0.885c1.659,0 2.145,0.885 3.591,0.852c1.489,-0.025 2.426,-1.332 3.321,-2.67c0.666,-0.944 1.178,-1.988 1.518,-3.092c-1.764,-0.746 -2.917,-2.484 -2.919,-4.399Z" style="fill:#fff;fill-rule:nonzero;"/><path id="_Path_2_" serif:id="_Path_2" d="M29.705,12.211c0.811,-0.974 1.212,-2.227 1.115,-3.491c-1.24,0.13 -2.386,0.723 -3.208,1.66c-0.812,0.924 -1.223,2.134 -1.144,3.361c1.256,0.013 2.45,-0.552 3.237,-1.53Z" style="fill:#fff;fill-rule:nonzero;"/></g><g><path d="M49.97,27.14l-4.733,0l-1.137,3.356l-2.005,0l4.484,-12.418l2.083,0l4.483,12.418l-2.039,0l-1.136,-3.356Zm-4.243,-1.549l3.752,0l-1.85,-5.447l-0.051,0l-1.851,5.447Z" style="fill:#fff;fill-rule:nonzero;"/><path d="M62.828,25.97c0,2.813 -1.506,4.621 -3.779,4.621c-1.172,0.061 -2.282,-0.556 -2.848,-1.584l-0.043,0l0,4.484l-1.859,0l0,-12.049l1.799,0l0,1.506l0.034,0c0.592,-1.022 1.702,-1.638 2.883,-1.6c2.298,0 3.813,1.816 3.813,4.622Zm-1.911,0c0,-1.833 -0.947,-3.038 -2.392,-3.038c-1.42,0 -2.375,1.23 -2.375,3.038c0,1.824 0.955,3.046 2.375,3.046c1.445,0 2.392,-1.197 2.392,-3.046Z" style="fill:#fff;fill-rule:nonzero;"/><path d="M72.792,25.97c0,2.813 -1.505,4.621 -3.778,4.621c-1.173,0.061 -2.282,-0.556 -2.848,-1.584l-0.043,0l0,4.484l-1.859,0l0,-12.049l1.799,0l0,1.506l0.034,0c0.592,-1.022 1.702,-1.638 2.883,-1.6c2.298,0 3.812,1.816 3.812,4.622Zm-1.91,0c0,-1.833 -0.947,-3.038 -2.392,-3.038c-1.42,0 -2.375,1.23 -2.375,3.038c0,1.824 0.955,3.046 2.375,3.046c1.445,0 2.392,-1.197 2.392,-3.046l0,0Z" style="fill:#fff;fill-rule:nonzero;"/><path d="M79.378,27.036c0.138,1.232 1.334,2.04 2.969,2.04c1.567,0 2.694,-0.808 2.694,-1.919c0,-0.964 -0.68,-1.541 -2.29,-1.936l-1.609,-0.388c-2.28,-0.551 -3.339,-1.617 -3.339,-3.348c0,-2.142 1.867,-3.614 4.519,-3.614c2.624,0 4.423,1.472 4.483,3.614l-1.876,0c-0.112,-1.239 -1.137,-1.987 -2.634,-1.987c-1.497,0 -2.521,0.757 -2.521,1.858c0,0.878 0.654,1.395 2.255,1.79l1.368,0.336c2.548,0.603 3.606,1.626 3.606,3.443c0,2.323 -1.85,3.778 -4.794,3.778c-2.753,0 -4.613,-1.421 -4.733,-3.667l1.902,0Z" style="fill:#fff;fill-rule:nonzero;"/><path d="M91.014,19.3l0,2.142l1.722,0l0,1.472l-1.722,0l0,4.991c0,0.776 0.345,1.137 1.102,1.137c0.204,-0.004 0.408,-0.018 0.611,-0.043l0,1.463c-0.34,0.063 -0.686,0.092 -1.032,0.086c-1.833,0 -2.548,-0.689 -2.548,-2.445l0,-5.189l-1.316,0l0,-1.472l1.316,0l0,-2.142l1.867,0Z" style="fill:#fff;fill-rule:nonzero;"/><path d="M93.733,25.97c0,-2.849 1.678,-4.639 4.294,-4.639c2.625,0 4.295,1.79 4.295,4.639c0,2.856 -1.661,4.638 -4.295,4.638c-2.633,0 -4.294,-1.782 -4.294,-4.638Zm6.695,0c0,-1.954 -0.895,-3.108 -2.401,-3.108c-1.506,0 -2.4,1.162 -2.4,3.108c0,1.962 0.894,3.106 2.4,3.106c1.506,0 2.401,-1.144 2.401,-3.106l0,0Z" style="fill:#fff;fill-rule:nonzero;"/><path d="M103.854,21.442l1.772,0l0,1.541l0.043,0c0.247,-0.988 1.16,-1.674 2.178,-1.635c0.214,-0.001 0.428,0.022 0.637,0.069l0,1.738c-0.27,-0.082 -0.552,-0.12 -0.835,-0.112c-0.025,-0.001 -0.051,-0.002 -0.076,-0.002c-1.027,0 -1.873,0.846 -1.873,1.873c0,0.071 0.004,0.142 0.012,0.212l0,5.37l-1.858,0l0,-9.054Z" style="fill:#fff;fill-rule:nonzero;"/><path d="M117.052,27.837c-0.25,1.643 -1.85,2.771 -3.898,2.771c-2.634,0 -4.269,-1.764 -4.269,-4.595c0,-2.84 1.644,-4.682 4.191,-4.682c2.505,0 4.08,1.721 4.08,4.466l0,0.637l-6.395,0l0,0.112c-0.006,0.069 -0.009,0.138 -0.009,0.208c0,1.293 1.064,2.358 2.358,2.358c0.029,0 0.058,-0.001 0.087,-0.002c0.899,0.085 1.753,-0.435 2.091,-1.273l1.764,0Zm-6.282,-2.702l4.526,0c0.003,-0.041 0.004,-0.081 0.004,-0.121c0,-1.195 -0.983,-2.178 -2.178,-2.178c-0.015,0 -0.031,0.001 -0.046,0.001c-0.005,0 -0.009,0 -0.014,0c-1.257,0 -2.292,1.035 -2.292,2.292c0,0.002 0,0.004 0,0.006l0,0Z" style="fill:#fff;fill-rule:nonzero;"/></g></g></g><g id="_Group_4_" serif:id="_Group_4"><path d="M47.061,14.698l-3.722,0l0,-5.967l0.927,0l0,5.115l2.795,0l0,0.852Z" style="fill:#fff;fill-rule:nonzero;"/><path d="M47.997,13.424c0,-0.81 0.604,-1.278 1.675,-1.344l1.22,-0.07l0,-0.389c0,-0.475 -0.315,-0.744 -0.922,-0.744c-0.496,0 -0.84,0.182 -0.939,0.5l-0.86,0c0.091,-0.773 0.818,-1.269 1.84,-1.269c1.129,0 1.765,0.562 1.765,1.513l0,3.077l-0.855,0l0,-0.633l-0.07,0c-0.291,0.461 -0.808,0.732 -1.353,0.707c-0.047,0.005 -0.094,0.007 -0.141,0.007c-0.744,0 -1.357,-0.61 -1.36,-1.355Zm2.895,-0.384l0,-0.377l-1.1,0.07c-0.62,0.042 -0.901,0.253 -0.901,0.65c0,0.405 0.351,0.641 0.835,0.641c0.035,0.004 0.071,0.005 0.107,0.005c0.555,0 1.021,-0.435 1.059,-0.989Z" style="fill:#fff;fill-rule:nonzero;"/><path d="M52.944,12.444c0,-1.423 0.732,-2.324 1.869,-2.324c0.574,-0.026 1.113,0.282 1.381,0.79l0.067,0l0,-2.473l0.888,0l0,6.261l-0.851,0l0,-0.712l-0.07,0c-0.289,0.504 -0.835,0.807 -1.415,0.786c-1.145,0 -1.869,-0.901 -1.869,-2.328Zm0.918,0c0,0.955 0.451,1.53 1.203,1.53c0.749,0 1.212,-0.583 1.212,-1.526c0,-0.938 -0.467,-1.53 -1.212,-1.53c-0.748,0 -1.203,0.579 -1.203,1.526l0,0Z" style="fill:#fff;fill-rule:nonzero;"/><path d="M62.415,13.482c-0.248,0.846 -1.075,1.398 -1.951,1.303c-0.018,0 -0.036,0 -0.054,0c-1.122,0 -2.045,-0.923 -2.045,-2.045c0,-0.093 0.006,-0.187 0.019,-0.28c-0.012,-0.091 -0.019,-0.183 -0.019,-0.275c0,-1.14 0.938,-2.077 2.077,-2.077c0.006,0 0.012,0 0.018,0c1.253,0 2.009,0.856 2.009,2.27l0,0.31l-3.18,0l0,0.05c-0.003,0.033 -0.004,0.066 -0.004,0.1c0,0.653 0.537,1.19 1.19,1.19c0.004,0 0.009,0 0.013,0c0.434,0.052 0.859,-0.164 1.072,-0.546l0.855,0Zm-3.126,-1.451l2.274,0c0.002,-0.027 0.003,-0.054 0.003,-0.081c0,-0.596 -0.49,-1.086 -1.086,-1.086c-0.008,0 -0.017,0 -0.025,0c-0.005,0 -0.01,0 -0.014,0c-0.632,0 -1.152,0.52 -1.152,1.152c0,0.005 0,0.01 0,0.015l0,0Z" style="fill:#fff;fill-rule:nonzero;"/><path d="M63.662,10.195l0.856,0l0,0.715l0.066,0c0.23,-0.525 0.772,-0.849 1.344,-0.802c0.036,-0.003 0.073,-0.004 0.11,-0.004c0.803,0 1.464,0.661 1.464,1.464c0,0.072 -0.005,0.144 -0.016,0.215l0,2.915l-0.888,0l0,-2.692c0,-0.724 -0.315,-1.084 -0.972,-1.084c-0.016,0 -0.032,-0.001 -0.048,-0.001c-0.567,0 -1.033,0.467 -1.033,1.033c0,0.037 0.002,0.073 0.006,0.109l0,2.635l-0.889,0l0,-4.503Z" style="fill:#fff;fill-rule:nonzero;"/><path d="M71.188,8.863c-0.001,-0.011 -0.002,-0.023 -0.002,-0.034c0,-0.316 0.26,-0.576 0.576,-0.576c0.316,0 0.576,0.26 0.576,0.576c0,0.316 -0.26,0.576 -0.575,0.576c-0.01,0 -0.019,0 -0.028,0c-0.298,0 -0.545,-0.243 -0.547,-0.542Zm0.132,1.332l0.885,0l0,4.503l-0.885,0l0,-4.503Z" style="fill:#fff;fill-rule:nonzero;"/><path d="M73.639,10.195l0.856,0l0,0.723l0.066,0c0.218,-0.492 0.708,-0.81 1.247,-0.81c0.538,0 1.028,0.318 1.246,0.81l0.071,0c0.256,-0.515 0.793,-0.833 1.369,-0.81c0.036,-0.003 0.072,-0.005 0.109,-0.005c0.734,0 1.338,0.605 1.338,1.339c0,0.051 -0.003,0.103 -0.009,0.154l0,3.102l-0.889,0l0,-2.87c0,-0.608 -0.29,-0.906 -0.873,-0.906c-0.013,0 -0.026,0 -0.039,0c-0.5,0 -0.911,0.411 -0.911,0.911c0,0.011 0,0.022 0,0.032l0,2.833l-0.873,0l0,-2.957c0.001,-0.013 0.001,-0.026 0.001,-0.039c0,-0.43 -0.354,-0.784 -0.784,-0.784c-0.029,0 -0.057,0.001 -0.085,0.004c-0.525,0.009 -0.953,0.443 -0.953,0.969c0,0.017 0.001,0.035 0.002,0.053l0,2.754l-0.889,0l0,-4.503Z" style="fill:#fff;fill-rule:nonzero;"/></g></g></svg>