<?xml version="1.0" encoding="UTF-8" standalone="no"?><!DOCTYPE svg PUBLIC "-//W3C//DTD SVG 1.1//EN" "http://www.w3.org/Graphics/SVG/1.1/DTD/svg11.dtd"><svg width="100%" height="100%" viewBox="0 0 155 60" version="1.1" xmlns="http://www.w3.org/2000/svg" xmlns:xlink="http://www.w3.org/1999/xlink" xml:space="preserve" xmlns:serif="http://www.serif.com/" style="fill-rule:evenodd;clip-rule:evenodd;stroke-linejoin:round;stroke-miterlimit:1.41421;"><g><path d="M155,60l-155,0l0,-60l155,0l0,60Zm-145,-14.999c0,2.749 2.25,5 5,5l125,0c2.75,0 5,-2.251 5,-5l0,-30.001c0,-2.75 -2.25,-5 -5,-5l-125,0c-2.75,0 -5,2.25 -5,5l0,30" style="fill:#fff;fill-rule:nonzero;"/><path d="M140,50l-125,0c-2.75,0 -5,-2.25 -5,-5l0,-30c0,-2.75 2.25,-5 5,-5l125,0c2.75,0 5,2.25 5,5l0,30c0,2.75 -2.25,5 -5,5Z" style="fill-rule:nonzero;"/><path d="M140,10.001l-125,0c-2.75,0 -5,2.25 -5,4.999l0,30.001c0,2.749 2.25,5 5,5l125,0c2.75,0 5,-2.251 5,-5l0,-30.001c0,-2.749 -2.25,-4.999 -5,-4.999Zm0,0.799c2.316,0 4.2,1.885 4.2,4.2l0,30.001c0,2.315 -1.884,4.2 -4.2,4.2l-125,0c-2.316,0 -4.2,-1.885 -4.2,-4.2l0,-30.001c0,-2.315 1.884,-4.2 4.2,-4.2l125,0Z" style="fill:#a6a6a6;fill-rule:nonzero;"/><path d="M116.936,40.001l1.866,0l0,-12.502l-1.866,0l0,12.502Zm16.807,-7.999l-2.139,5.42l-0.064,0l-2.22,-5.42l-2.01,0l3.329,7.576l-1.898,4.213l1.947,0l5.13,-11.789l-2.075,0Zm-10.582,6.578c-0.612,0 -1.464,-0.305 -1.464,-1.061c0,-0.965 1.062,-1.335 1.978,-1.335c0.821,0 1.206,0.177 1.705,0.418c-0.145,1.158 -1.142,1.978 -2.219,1.978Zm0.225,-6.851c-1.351,0 -2.75,0.595 -3.329,1.914l1.656,0.692c0.354,-0.692 1.013,-0.917 1.705,-0.917c0.965,0 1.946,0.579 1.962,1.608l0,0.129c-0.338,-0.193 -1.061,-0.483 -1.946,-0.483c-1.785,0 -3.603,0.981 -3.603,2.815c0,1.672 1.464,2.75 3.104,2.75c1.255,0 1.946,-0.563 2.381,-1.222l0.064,0l0,0.965l1.801,0l0,-4.793c0,-2.22 -1.656,-3.458 -3.795,-3.458Zm-11.532,1.795l-2.654,0l0,-4.285l2.654,0c1.395,0 2.187,1.155 2.187,2.143c0,0.969 -0.792,2.142 -2.187,2.142Zm-0.048,-6.025l-4.471,0l0,12.502l1.865,0l0,-4.737l2.606,0c2.068,0 4.101,-1.497 4.101,-3.882c0,-2.386 -2.033,-3.883 -4.101,-3.883Zm-24.382,11.084c-1.288,0 -2.368,-1.08 -2.368,-2.562c0,-1.498 1.08,-2.593 2.368,-2.593c1.273,0 2.272,1.095 2.272,2.593c0,1.482 -0.999,2.562 -2.272,2.562Zm2.143,-5.88l-0.064,0c-0.419,-0.5 -1.225,-0.951 -2.24,-0.951c-2.126,0 -4.076,1.869 -4.076,4.269c0,2.385 1.95,4.237 4.076,4.237c1.015,0 1.821,-0.451 2.24,-0.966l0.064,0l0,0.612c0,1.627 -0.87,2.497 -2.272,2.497c-1.143,0 -1.852,-0.822 -2.142,-1.514l-1.627,0.676c0.467,1.128 1.707,2.514 3.769,2.514c2.192,0 4.044,-1.289 4.044,-4.431l0,-7.636l-1.772,0l0,0.693Zm3.061,7.298l1.869,0l0,-12.502l-1.869,0l0,12.502Zm4.624,-4.125c-0.049,-1.643 1.273,-2.481 2.223,-2.481c0.742,0 1.37,0.371 1.579,0.903l-3.802,1.578Zm5.8,-1.417c-0.354,-0.951 -1.434,-2.707 -3.641,-2.707c-2.191,0 -4.012,1.724 -4.012,4.253c0,2.385 1.804,4.253 4.221,4.253c1.95,0 3.078,-1.192 3.545,-1.885l-1.45,-0.966c-0.483,0.709 -1.144,1.176 -2.095,1.176c-0.951,0 -1.627,-0.435 -2.062,-1.289l5.687,-2.352l-0.193,-0.483Zm-45.309,-1.402l0,1.804l4.318,0c-0.129,1.015 -0.467,1.756 -0.983,2.272c-0.628,0.628 -1.611,1.321 -3.335,1.321c-2.658,0 -4.736,-2.143 -4.736,-4.801c0,-2.658 2.078,-4.801 4.736,-4.801c1.434,0 2.481,0.564 3.255,1.289l1.272,-1.273c-1.079,-1.031 -2.513,-1.82 -4.527,-1.82c-3.641,0 -6.702,2.964 -6.702,6.605c0,3.641 3.061,6.605 6.702,6.605c1.966,0 3.448,-0.644 4.608,-1.852c1.192,-1.193 1.563,-2.868 1.563,-4.221c0,-0.419 -0.033,-0.806 -0.097,-1.128l-6.074,0Zm11.079,5.526c-1.289,0 -2.4,-1.063 -2.4,-2.578c0,-1.53 1.111,-2.577 2.4,-2.577c1.289,0 2.4,1.047 2.4,2.577c0,1.515 -1.111,2.578 -2.4,2.578Zm0,-6.831c-2.352,0 -4.269,1.788 -4.269,4.253c0,2.449 1.917,4.253 4.269,4.253c2.352,0 4.269,-1.804 4.269,-4.253c0,-2.465 -1.917,-4.253 -4.269,-4.253Zm9.313,6.831c-1.288,0 -2.4,-1.063 -2.4,-2.578c0,-1.53 1.112,-2.577 2.4,-2.577c1.289,0 2.401,1.047 2.401,2.577c0,1.515 -1.112,2.578 -2.401,2.578Zm0,-6.831c-2.352,0 -4.269,1.788 -4.269,4.253c0,2.449 1.917,4.253 4.269,4.253c2.353,0 4.27,-1.804 4.27,-4.253c0,-2.465 -1.917,-4.253 -4.27,-4.253Z" style="fill:#fff;fill-rule:nonzero;"/><path d="M20.509,42.39l-0.074,-0.071c-0.291,-0.308 -0.463,-0.786 -0.463,-1.405l0,0.145l0,-22.116c0,-0.001 0,-0.003 0,-0.005l0,0.152c0,-0.67 0.201,-1.176 0.536,-1.478l12.39,12.389l-12.389,12.389Zm-0.537,-23.453c0,-0.055 0.002,-0.109 0.004,-0.161c-0.002,0.052 -0.004,0.106 -0.004,0.161Zm0.005,-0.164c0,0 0,-0.001 0,-0.002c0,0.001 0,0.002 0,0.002Zm0,-0.007l0,-0.001l0,0.001Z" style="fill:url(#_Linear1);"/><path d="M37.027,34.279l0.094,-0.054l4.893,-2.78c0.467,-0.265 0.778,-0.586 0.933,-0.927c-0.155,0.341 -0.466,0.662 -0.933,0.928l-4.893,2.78l-0.094,0.053Zm0.001,-0.147l-4.13,-4.131l4.13,-4.13l4.986,2.833c0.634,0.359 0.989,0.823 1.048,1.297c0,0 0,0.001 0,0.002c-0.059,0.472 -0.414,0.936 -1.048,1.296l-4.986,2.833Z" style="fill:url(#_Linear2);"/><path d="M21.392,42.862c-0.346,0 -0.647,-0.113 -0.883,-0.325l0,-0.001c0.236,0.213 0.538,0.326 0.884,0.326c0.03,0 0.061,-0.001 0.092,-0.003c-0.031,0.002 -0.062,0.003 -0.093,0.003Zm0.001,-0.147c-0.346,0.001 -0.648,-0.112 -0.884,-0.325l12.389,-12.389l4.13,4.131l-14.515,8.248c-0.401,0.228 -0.782,0.335 -1.12,0.335Zm-0.887,-0.181c-0.022,-0.02 -0.044,-0.041 -0.065,-0.063l0.065,0.063Z" style="fill:url(#_Linear3);"/><path d="M32.898,30.001l-12.39,-12.389c0.236,-0.212 0.537,-0.325 0.883,-0.325c0.339,0 0.72,0.108 1.122,0.337l14.515,8.247l-4.13,4.13Zm4.223,-4.223l-14.608,-8.3c-0.402,-0.229 -0.783,-0.337 -1.122,-0.337c-0.001,0 -0.003,0 -0.004,0c0.001,0 0.003,0 0.005,0c0.339,0 0.719,0.108 1.121,0.336l14.608,8.3l0,0.001Z" style="fill:url(#_Linear4);"/><path d="M21.485,42.859c0.314,-0.018 0.662,-0.126 1.028,-0.333l14.514,-8.247l-14.514,8.247c-0.366,0.208 -0.714,0.316 -1.028,0.333Zm-0.976,-0.322l-0.003,-0.003c0.001,0.001 0.002,0.002 0.003,0.003Zm-0.068,-0.066l-0.006,-0.006c0.002,0.002 0.004,0.004 0.006,0.006Z" style="fill-rule:nonzero;"/><path d="M37.027,34.279l0.094,-0.054l-0.094,0.054Z" style="fill:url(#_Linear5);"/><path d="M21.393,42.862c-0.346,0 -0.648,-0.113 -0.884,-0.326l0,0.001c-0.001,-0.001 -0.002,-0.002 -0.003,-0.003l-0.065,-0.063c-0.002,-0.002 -0.004,-0.004 -0.006,-0.006l0.074,-0.075c0.236,0.213 0.538,0.326 0.884,0.325c0.338,0 0.719,-0.107 1.12,-0.335l14.515,-8.248l0.093,0.093l-0.094,0.054l-14.514,8.247c-0.366,0.207 -0.714,0.315 -1.028,0.333c-0.031,0.002 -0.062,0.003 -0.092,0.003Z" style="fill:url(#_Linear6);"/><path d="M20.435,42.465c-0.291,-0.308 -0.463,-0.786 -0.463,-1.405l0,-0.001c0,0.62 0.172,1.098 0.463,1.405l0,0.001Z" style="fill-rule:nonzero;"/><path d="M20.435,42.464c-0.291,-0.307 -0.463,-0.785 -0.463,-1.405l0,-0.145c0,0.619 0.172,1.097 0.463,1.405l0.074,0.071l-0.074,0.074Z" style="fill:url(#_Linear7);"/><path d="M20.435,42.465l0,-0.001l0.074,-0.074l-0.074,0.075Z" style="fill:url(#_Linear8);"/><path d="M42.947,30.518c0.077,-0.168 0.115,-0.342 0.115,-0.515c0,-0.001 0.001,-0.001 0.001,-0.001c0,0.174 -0.039,0.347 -0.116,0.516Z" style="fill-rule:nonzero;"/><path d="M37.121,34.225l-0.093,-0.093l4.986,-2.833c0.634,-0.36 0.989,-0.824 1.048,-1.296c0,0.173 -0.038,0.347 -0.115,0.515c-0.155,0.341 -0.466,0.662 -0.933,0.927l-4.893,2.78Z" style="fill:url(#_Linear9);"/><path d="M43.063,30.001l-0.001,0c0,-0.523 -0.349,-1.046 -1.048,-1.443l-4.893,-2.78l0,-0.001l4.893,2.781c0.699,0.397 1.049,0.92 1.049,1.443Z" style="fill:#404040;fill-rule:nonzero;"/><path d="M43.062,30.001c-0.059,-0.474 -0.414,-0.938 -1.048,-1.297l-4.986,-2.833l0.093,-0.093l4.893,2.78c0.699,0.397 1.048,0.92 1.048,1.443Z" style="fill:url(#_Linear10);"/><path d="M19.972,18.938l0,-0.001l0,0.001Zm0.004,-0.162c0.001,-0.001 0.001,-0.002 0.001,-0.003c0,0.001 0,0.002 -0.001,0.003Zm0.001,-0.005c0,-0.001 0,-0.003 0,-0.005c0,0.002 0,0.004 0,0.005Zm0,-0.006c0.058,-1.027 0.616,-1.62 1.406,-1.624c-0.342,0.002 -0.64,0.114 -0.874,0.325l-0.003,0.003c-0.024,0.022 -0.048,0.045 -0.071,0.069c-0.262,0.278 -0.428,0.694 -0.458,1.227Z" style="fill:#404040;fill-rule:nonzero;"/><path d="M19.972,19.09l0,-0.146c0,-0.002 0,-0.004 0,-0.006l0,-0.001c0,-0.055 0.002,-0.109 0.004,-0.161c0.001,-0.001 0.001,-0.002 0.001,-0.003c0,0 0,-0.001 0,-0.002c0,-0.001 0,-0.003 0,-0.005l0,-0.001c0.03,-0.533 0.196,-0.949 0.458,-1.227l0.073,0.074c-0.335,0.302 -0.536,0.808 -0.536,1.478Zm0.534,-1.621l0.003,-0.003c-0.001,0.001 -0.002,0.002 -0.003,0.003Z" style="fill:url(#_Linear11);"/><path d="M21.383,17.141c0.001,0 0.002,0 0.004,0c-0.002,0 -0.003,0 -0.004,0Z" style="fill:#404040;fill-rule:nonzero;"/><path d="M37.028,25.871l-14.515,-8.247c-0.402,-0.229 -0.783,-0.337 -1.122,-0.337c-0.346,0 -0.647,0.113 -0.883,0.325l-0.073,-0.074c0.023,-0.024 0.047,-0.047 0.071,-0.069c0.001,-0.001 0.002,-0.002 0.003,-0.003c0.234,-0.211 0.532,-0.323 0.874,-0.325l0.008,0c0.339,0 0.72,0.108 1.122,0.337l14.608,8.3l-0.093,0.093Z" style="fill:url(#_Linear12);"/><path d="M53.011,23.134c-0.437,0 -0.808,-0.121 -1.115,-0.364c-0.307,-0.243 -0.526,-0.585 -0.654,-1.026l0.704,-0.294c0.179,0.632 0.545,0.947 1.098,0.947c0.357,0 0.633,-0.116 0.825,-0.348c0.193,-0.231 0.289,-0.546 0.289,-0.942l0,-4.107l0.772,0l0,4.09c0,0.654 -0.181,1.158 -0.541,1.513c-0.361,0.354 -0.82,0.531 -1.378,0.531Z" style="fill:#fff;fill-rule:nonzero;"/><path d="M53.011,23.134l0,-0.1c-0.419,0 -0.764,-0.114 -1.053,-0.342c-0.289,-0.23 -0.496,-0.551 -0.62,-0.976l-0.096,0.028l0.039,0.092l0.704,-0.294l-0.039,-0.092l-0.096,0.027c0.179,0.657 0.598,1.026 1.194,1.02c0.378,0.001 0.69,-0.127 0.902,-0.384c0.211,-0.253 0.313,-0.594 0.312,-1.006l0,-4.007l0.572,0l0,3.99c-0.001,0.636 -0.174,1.108 -0.511,1.441c-0.343,0.336 -0.77,0.502 -1.308,0.503l0,0.2c0.579,0.001 1.069,-0.186 1.448,-0.56c0.383,-0.377 0.571,-0.913 0.571,-1.584l0,-4.19l-0.872,0l-0.1,0l0,4.207c0,0.381 -0.092,0.669 -0.266,0.878c-0.173,0.207 -0.411,0.311 -0.748,0.312c-0.51,-0.006 -0.823,-0.268 -1.001,-0.874l-0.031,-0.108l-0.808,0.336l-0.083,0.035l0.025,0.085c0.132,0.458 0.363,0.82 0.687,1.077l0.001,0c0.325,0.258 0.722,0.387 1.177,0.386l0,-0.1Z" style="fill:#fff;fill-rule:nonzero;"/><path d="M59.706,17.738l-2.732,0l0,1.902l2.464,0l0,0.721l-2.464,0l0,1.902l2.732,0l0,0.737l-3.503,0l0,-6l3.503,0l0,0.738Z" style="fill:#fff;fill-rule:nonzero;"/><path d="M59.706,17.738l0,-0.1l-2.832,0l0,2.102l2.464,0l0,0.521l-2.464,0l0,2.102l2.732,0l0,0.537l-3.303,0l0,-5.8l3.303,0l0,0.638l0.1,0l0,-0.1l0,0.1l0.1,0l0,-0.738l0,-0.1l-3.703,0l0,6.2l3.703,0l0,-0.837l0,-0.1l-2.732,0l0,-1.702l2.464,0l0,-0.821l0,-0.1l-2.464,0l0,-1.702l2.732,0l0,-0.1l-0.1,0Z" style="fill:#fff;fill-rule:nonzero;"/><path d="M62.957,23l-0.771,0l0,-5.262l-1.676,0l0,-0.738l4.123,0l0,0.738l-1.676,0l0,5.262Z" style="fill:#fff;fill-rule:nonzero;"/><path d="M62.957,23l0,-0.1l-0.671,0l0,-5.262l-1.676,0l0,-0.538l3.923,0l0,0.538l-1.676,0l0,5.362l0.1,0l0,-0.1l0,0.1l0.1,0l0,-5.162l1.676,0l0,-0.838l0,-0.1l-4.323,0l0,0.938l1.676,0l0,5.262l0.971,0l0,-0.1l-0.1,0Z" style="fill:#fff;fill-rule:nonzero;"/><path d="M65.271,23l0,-0.804l3.192,-4.458l-3.059,0l0,-0.738l3.955,0l0,0.805l-3.192,4.458l3.227,0l0,0.737l-4.123,0Z" style="fill:#fff;fill-rule:nonzero;"/><path d="M65.271,23l0.1,0l0,-0.772l3.287,-4.59l-3.154,0l0,-0.538l3.755,0l0,0.673l-3.287,4.59l3.322,0l0,0.537l-4.023,0l0,0.1l0.1,0l-0.1,0l0,0.1l4.223,0l0,-0.837l0,-0.1l-3.132,0l3.097,-4.326l0,-0.837l0,-0.1l-4.155,0l0,0.938l2.964,0l-3.098,4.326l0,0.936l0.101,0l0,-0.1Z" style="fill:#fff;fill-rule:nonzero;"/><path d="M72.544,23l-0.772,0l0,-5.262l-1.675,0l0,-0.738l4.123,0l0,0.738l-1.676,0l0,5.262Z" style="fill:#fff;fill-rule:nonzero;"/><path d="M72.544,23l0,-0.1l-0.672,0l0,-5.262l-1.675,0l0,-0.538l3.923,0l0,0.538l-1.676,0l0,5.362l0.1,0l0,-0.1l0,0.1l0.1,0l0,-5.162l1.676,0l0,-0.838l0,-0.1l-4.323,0l0,0.938l1.675,0l0,5.262l0.972,0l0,-0.1l-0.1,0Z" style="fill:#fff;fill-rule:nonzero;"/><path d="M77.975,22.263l1.55,0c0.296,0 0.536,-0.103 0.721,-0.31c0.184,-0.206 0.276,-0.433 0.276,-0.679c0,-0.246 -0.095,-0.47 -0.285,-0.674c-0.19,-0.204 -0.439,-0.307 -0.746,-0.307l-1.516,0l0,1.97Zm0,-2.69l1.399,0c0.291,0 0.524,-0.096 0.7,-0.289c0.176,-0.193 0.263,-0.404 0.263,-0.633c0,-0.229 -0.085,-0.439 -0.255,-0.628c-0.17,-0.19 -0.395,-0.285 -0.674,-0.285l-1.433,0l0,1.835Zm-0.771,3.427l0,-6l2.17,0c0.469,0 0.876,0.156 1.219,0.465c0.344,0.311 0.516,0.7 0.516,1.169c0,0.285 -0.074,0.537 -0.223,0.755c-0.147,0.218 -0.344,0.382 -0.591,0.494l0,0.033c0.296,0.101 0.54,0.274 0.73,0.52c0.189,0.246 0.285,0.531 0.285,0.855c0,0.492 -0.181,0.899 -0.541,1.223c-0.36,0.324 -0.786,0.486 -1.278,0.486l-2.287,0Z" style="fill:#fff;fill-rule:nonzero;"/><path d="M77.975,22.263l0,0.1l1.55,0c0.319,0.001 0.594,-0.116 0.795,-0.344c0.198,-0.22 0.303,-0.474 0.302,-0.745c0.001,-0.272 -0.108,-0.525 -0.312,-0.743c-0.207,-0.224 -0.49,-0.339 -0.819,-0.338l-1.616,0l0,2.17l0.1,0l0,-0.1l0.1,0l0,-1.87l1.416,0c0.286,0.002 0.501,0.092 0.673,0.275c0.176,0.19 0.257,0.387 0.258,0.606c-0.001,0.221 -0.08,0.42 -0.251,0.612c-0.167,0.186 -0.373,0.276 -0.646,0.277l-1.55,0l0,0.1l0.1,0l-0.1,0Zm0,-2.69l0,0.1l1.399,0c0.312,0.001 0.58,-0.107 0.774,-0.322c0.189,-0.206 0.29,-0.444 0.289,-0.7c0.001,-0.254 -0.096,-0.491 -0.281,-0.695c-0.188,-0.211 -0.447,-0.32 -0.748,-0.318l-1.533,0l0,2.035l0.1,0l0,-0.1l0.1,0l0,-1.735l1.333,0c0.257,0.001 0.447,0.083 0.599,0.252c0.157,0.175 0.23,0.358 0.23,0.561c0,0.203 -0.075,0.387 -0.237,0.565c-0.158,0.172 -0.357,0.255 -0.626,0.257l-1.399,0l0,0.1l0.1,0l-0.1,0Zm-0.771,3.427l0.1,0l0,-5.9l2.07,0c0.447,0.001 0.825,0.146 1.152,0.44l0,-0.001c0.324,0.295 0.482,0.651 0.483,1.095c0,0.268 -0.069,0.497 -0.205,0.698l-0.001,0.001c-0.137,0.203 -0.318,0.354 -0.549,0.459l-0.059,0.027l0,0.169l0.068,0.023c0.279,0.095 0.504,0.255 0.683,0.486c0.176,0.23 0.264,0.49 0.264,0.794c-0.001,0.467 -0.167,0.841 -0.508,1.149c-0.344,0.308 -0.741,0.46 -1.211,0.46l-2.287,0l0,0.1l0.1,0l-0.1,0l0,0.1l2.287,0c0.514,0.001 0.968,-0.172 1.345,-0.512c0.38,-0.339 0.575,-0.781 0.574,-1.297c0.001,-0.343 -0.103,-0.653 -0.306,-0.916c-0.202,-0.261 -0.463,-0.447 -0.776,-0.553l-0.033,0.094l0.1,0l0,-0.033l-0.1,0l0.042,0.091c0.261,-0.118 0.475,-0.296 0.632,-0.529c0.16,-0.235 0.24,-0.508 0.24,-0.811c0.001,-0.493 -0.185,-0.916 -0.549,-1.243l-0.002,-0.002l0.002,0.002c-0.36,-0.325 -0.795,-0.491 -1.286,-0.491l-2.27,0l0,6.2l0.1,0l0,-0.1Z" style="fill:#fff;fill-rule:nonzero;"/><path d="M85.851,17.738l-2.732,0l0,1.902l2.464,0l0,0.721l-2.464,0l0,1.902l2.732,0l0,0.737l-3.503,0l0,-6l3.503,0l0,0.738Z" style="fill:#fff;fill-rule:nonzero;"/><path d="M85.851,17.738l0,-0.1l-2.832,0l0,2.102l2.464,0l0,0.521l-2.464,0l0,2.102l2.732,0l0,0.537l-3.303,0l0,-5.8l3.303,0l0,0.638l0.1,0l0,-0.1l0,0.1l0.1,0l0,-0.738l0,-0.1l-3.703,0l0,6.2l3.703,0l0,-0.837l0,-0.1l-2.732,0l0,-1.702l2.464,0l0,-0.821l0,-0.1l-2.464,0l0,-1.702l2.732,0l0,-0.1l-0.1,0Z" style="fill:#fff;fill-rule:nonzero;"/><rect x="87.058" y="17" width="0.771" height="6" style="fill:#fff;fill-rule:nonzero;"/><path d="M87.058,23l0.1,0l0,-5.9l0.571,0l0,5.8l-0.671,0l0,0.1l0.1,0l-0.1,0l0,0.1l0.871,0l0,-6.2l-0.871,0l-0.1,0l0,6.2l0.1,0l0,-0.1Z" style="fill:#fff;fill-rule:nonzero;"/></g><defs><linearGradient id="_Linear1" x1="0" y1="0" x2="1" y2="0" gradientUnits="userSpaceOnUse" gradientTransform="matrix(-16.7825,-16.7825,-16.7825,16.7825,31.7998,18.7097)"><stop offset="0" style="stop-color:#00a0ff;stop-opacity:1"/><stop offset="1" style="stop-color:#00e2ff;stop-opacity:1"/></linearGradient><linearGradient id="_Linear2" x1="0" y1="0" x2="1" y2="0" gradientUnits="userSpaceOnUse" gradientTransform="matrix(-24.197,2.17272e-09,2.17272e-09,24.197,43.8344,30.0014)"><stop offset="0" style="stop-color:#ffdf00;stop-opacity:1"/><stop offset="1" style="stop-color:#ff9c00;stop-opacity:1"/></linearGradient><linearGradient id="_Linear3" x1="0" y1="0" x2="1" y2="0" gradientUnits="userSpaceOnUse" gradientTransform="matrix(-22.7583,-22.7583,-22.7583,22.7583,34.827,32.2961)"><stop offset="0" style="stop-color:#ff3a44;stop-opacity:1"/><stop offset="1" style="stop-color:#c31162;stop-opacity:1"/></linearGradient><linearGradient id="_Linear4" x1="0" y1="0" x2="1" y2="0" gradientUnits="userSpaceOnUse" gradientTransform="matrix(10.1625,-10.1625,-10.1625,-10.1625,17.2973,10.1762)"><stop offset="0" style="stop-color:#31a070;stop-opacity:1"/><stop offset="1" style="stop-color:#00ef75;stop-opacity:1"/></linearGradient><linearGradient id="_Linear5" x1="0" y1="0" x2="1" y2="0" gradientUnits="userSpaceOnUse" gradientTransform="matrix(-24.197,2.17272e-09,2.17272e-09,24.197,43.8344,30.0014)"><stop offset="0" style="stop-color:#ccb300;stop-opacity:1"/><stop offset="1" style="stop-color:#cc7c00;stop-opacity:1"/></linearGradient><linearGradient id="_Linear6" x1="0" y1="0" x2="1" y2="0" gradientUnits="userSpaceOnUse" gradientTransform="matrix(-22.7583,-22.7583,-22.7583,22.7583,34.827,32.2961)"><stop offset="0" style="stop-color:#cc2d36;stop-opacity:1"/><stop offset="1" style="stop-color:#9c0e4d;stop-opacity:1"/></linearGradient><linearGradient id="_Linear7" x1="0" y1="0" x2="1" y2="0" gradientUnits="userSpaceOnUse" gradientTransform="matrix(-16.7825,-16.7825,-16.7825,16.7825,31.7998,18.7097)"><stop offset="0" style="stop-color:#008cdf;stop-opacity:1"/><stop offset="1" style="stop-color:#00c6df;stop-opacity:1"/></linearGradient><linearGradient id="_Linear8" x1="0" y1="0" x2="1" y2="0" gradientUnits="userSpaceOnUse" gradientTransform="matrix(-22.7583,-22.7583,-22.7583,22.7583,34.827,32.2961)"><stop offset="0" style="stop-color:#df333b;stop-opacity:1"/><stop offset="1" style="stop-color:#aa0e56;stop-opacity:1"/></linearGradient><linearGradient id="_Linear9" x1="0" y1="0" x2="1" y2="0" gradientUnits="userSpaceOnUse" gradientTransform="matrix(-24.197,2.17272e-09,2.17272e-09,24.197,43.8344,30.0014)"><stop offset="0" style="stop-color:#dfc400;stop-opacity:1"/><stop offset="1" style="stop-color:#df8900;stop-opacity:1"/></linearGradient><linearGradient id="_Linear10" x1="0" y1="0" x2="1" y2="0" gradientUnits="userSpaceOnUse" gradientTransform="matrix(-24.197,2.17272e-09,2.17272e-09,24.197,43.8344,30.0014)"><stop offset="0" style="stop-color:#ffe83f;stop-opacity:1"/><stop offset="1" style="stop-color:#ffb53f;stop-opacity:1"/></linearGradient><linearGradient id="_Linear11" x1="0" y1="0" x2="1" y2="0" gradientUnits="userSpaceOnUse" gradientTransform="matrix(-16.7825,-16.7825,-16.7825,16.7825,31.7998,18.7097)"><stop offset="0" style="stop-color:#3fb8ff;stop-opacity:1"/><stop offset="1" style="stop-color:#3fe9ff;stop-opacity:1"/></linearGradient><linearGradient id="_Linear12" x1="0" y1="0" x2="1" y2="0" gradientUnits="userSpaceOnUse" gradientTransform="matrix(10.1625,-10.1625,-10.1625,-10.1625,17.2973,10.1762)"><stop offset="0" style="stop-color:#64b895;stop-opacity:1"/><stop offset="1" style="stop-color:#3ff497;stop-opacity:1"/></linearGradient></defs></svg>