<?xml version="1.0" encoding="utf-8"?>
<!-- Generator: Adobe Illustrator 16.0.0, SVG Export Plug-In . SVG Version: 6.00 Build 0)  -->
<!DOCTYPE svg PUBLIC "-//W3C//DTD SVG 1.1//EN" "http://www.w3.org/Graphics/SVG/1.1/DTD/svg11.dtd">
<svg version="1.1" id="Capa_1" xmlns="http://www.w3.org/2000/svg" xmlns:xlink="http://www.w3.org/1999/xlink" x="0px" y="0px"
	 width="6137.76px" height="2007.73px" viewBox="0 0 6137.76 2007.73" enable-background="new 0 0 6137.76 2007.73"
	 xml:space="preserve">
<g>
	<defs>
		<rect id="SVGID_1_" y="-0.002" width="6137.76" height="2007.732"/>
	</defs>
	<clipPath id="SVGID_2_">
		<use xlink:href="#SVGID_1_"  overflow="visible"/>
	</clipPath>
	<path clip-path="url(#SVGID_2_)" d="M6137.76,1736.386c0,149.832-121.451,271.344-271.26,271.344H271.32
		C121.5,2007.742,0,1886.23,0,1736.386V271.318C0,121.498,121.5-0.002,271.32-0.002h5595.168c149.808,0,271.26,121.5,271.26,271.32
		v1465.068H6137.76z"/>
	<path clip-path="url(#SVGID_2_)" fill="#FFFFFF" d="M1448.523,935.34c-1.341-148.992,121.995-221.477,127.635-224.852
		c-69.85-101.84-178.116-115.754-216.161-116.864c-90.93-9.569-179.133,54.41-225.453,54.41
		c-47.245,0-118.575-53.485-195.452-51.914c-98.927,1.526-191.475,58.802-242.233,147.744
		c-104.753,181.352-26.628,447.855,73.733,594.444c50.203,71.792,108.867,151.951,185.651,149.131
		c75.12-3.098,103.18-47.893,193.833-47.893c89.821,0,116.171,47.893,194.479,46.09c80.622-1.295,131.38-72.116,179.827-144.556
		c58.016-82.285,81.314-163.321,82.239-167.482C1604.727,1172.951,1450.048,1113.917,1448.523,935.34"/>
	<path clip-path="url(#SVGID_2_)" fill="#FFFFFF" d="M1300.594,497.193c40.403-50.527,68.047-119.268,60.374-189.026
		c-58.479,2.589-131.611,40.45-173.725,89.867c-37.259,43.547-70.543,114.923-61.945,182.045
		C1190.988,584.98,1258.434,546.934,1300.594,497.193"/>
	<path clip-path="url(#SVGID_2_)" fill="#FFFFFF" d="M2535.662,1477.129h-104.983l-57.508-180.704h-199.889l-54.78,180.704h-102.209
		l198.04-615.2h122.318L2535.662,1477.129z M2355.836,1220.612l-52.006-160.642c-5.501-16.41-15.81-55.058-31.019-115.894h-1.85
		c-6.055,26.165-15.809,64.813-29.215,115.894l-51.082,160.642H2355.836z"/>
	<path clip-path="url(#SVGID_2_)" fill="#FFFFFF" d="M3044.954,1249.874c0,75.444-20.387,135.078-61.159,178.856
		c-36.52,38.97-81.87,58.432-136.003,58.432c-58.432,0-100.407-20.988-125.971-62.963h-1.849v233.682h-98.557v-478.318
		c0-47.431-1.249-96.108-3.652-146.034h86.677l5.501,70.313h1.849c32.868-52.978,82.748-79.42,149.687-79.42
		c52.33,0,96.015,20.664,130.963,62.038C3027.479,1127.878,3044.954,1182.334,3044.954,1249.874 M2944.547,1253.48
		c0-43.178-9.708-78.772-29.216-106.786c-21.311-29.216-49.926-43.824-85.799-43.824c-24.316,0-46.413,8.136-66.152,24.177
		c-19.785,16.18-32.729,37.307-38.785,63.471c-3.051,12.204-4.577,22.189-4.577,30.049v73.964c0,32.267,9.893,59.496,29.679,81.73
		c19.785,22.236,45.488,33.33,77.108,33.33c37.121,0,66.013-14.33,86.677-42.898
		C2934.192,1338.077,2944.547,1300.355,2944.547,1253.48"/>
	<path clip-path="url(#SVGID_2_)" fill="#FFFFFF" d="M3555.17,1249.874c0,75.444-20.387,135.078-61.205,178.856
		c-36.474,38.97-81.823,58.432-135.957,58.432c-58.432,0-100.405-20.988-125.924-62.963h-1.85v233.682h-98.557v-478.318
		c0-47.431-1.248-96.108-3.653-146.034h86.678l5.501,70.313h1.85c32.821-52.978,82.701-79.42,149.686-79.42
		c52.283,0,95.968,20.664,131.009,62.038C3537.649,1127.878,3555.17,1182.334,3555.17,1249.874 M3454.764,1253.48
		c0-43.178-9.754-78.772-29.263-106.786c-21.311-29.216-49.834-43.824-85.753-43.824c-24.361,0-46.413,8.136-66.197,24.177
		c-19.786,16.18-32.684,37.307-38.739,63.471c-3.005,12.204-4.577,22.189-4.577,30.049v73.964c0,32.267,9.893,59.496,29.586,81.73
		c19.786,22.189,45.488,33.33,77.201,33.33c37.121,0,66.013-14.33,86.677-42.898
		C3444.408,1338.077,3454.764,1300.355,3454.764,1253.48"/>
	<path clip-path="url(#SVGID_2_)" fill="#FFFFFF" d="M4125.621,1304.608c0,52.33-18.167,94.905-54.641,127.773
		c-40.08,35.919-95.877,53.855-167.576,53.855c-66.197,0-119.268-12.759-159.439-38.323l22.837-82.146
		c43.269,26.164,90.745,39.294,142.474,39.294c37.121,0,66.014-8.413,86.77-25.148c20.664-16.734,30.973-39.201,30.973-67.215
		c0-24.963-8.506-45.997-25.564-63.055c-16.965-17.059-45.303-32.914-84.874-47.568c-107.711-40.172-161.52-99.021-161.52-176.406
		c0-50.573,18.86-92.039,56.629-124.306c37.63-32.313,87.833-48.447,150.61-48.447c55.981,0,102.486,9.754,139.607,29.216
		l-24.639,80.344c-34.671-18.861-73.872-28.291-117.742-28.291c-34.671,0-61.761,8.552-81.176,25.564
		c-16.411,15.209-24.641,33.746-24.641,55.704c0,24.316,9.386,44.425,28.246,60.235c16.411,14.607,46.229,30.418,89.497,47.476
		c52.931,21.311,91.809,46.229,116.817,74.796C4113.186,1226.437,4125.621,1262.078,4125.621,1304.608"/>
	<path clip-path="url(#SVGID_2_)" fill="#FFFFFF" d="M4451.48,1107.492h-108.635v215.375c0,54.78,19.139,82.147,57.508,82.147
		c17.612,0,32.221-1.525,43.777-4.576l2.727,74.842c-19.414,7.259-44.979,10.91-76.645,10.91c-38.924,0-69.342-11.88-91.301-35.595
		c-21.865-23.761-32.867-63.61-32.867-119.592v-223.604h-64.719v-73.964h64.719v-81.222l96.801-29.216v110.438h108.635V1107.492z"/>
	<path clip-path="url(#SVGID_2_)" fill="#FFFFFF" d="M4941.635,1251.676c0,68.187-19.508,124.168-58.433,167.946
		c-40.819,45.072-94.998,67.539-162.536,67.539c-65.089,0-116.91-21.589-155.557-64.766s-57.971-97.68-57.971-163.368
		c0-68.741,19.879-125.048,59.773-168.824c39.803-43.824,93.52-65.736,161.059-65.736c65.088,0,117.465,21.588,156.989,64.812
		C4922.773,1131.208,4941.635,1185.339,4941.635,1251.676 M4839.379,1254.867c0-40.912-8.738-75.999-26.443-105.262
		c-20.664-35.409-50.203-53.068-88.479-53.068c-39.618,0-69.712,17.705-90.375,53.068c-17.706,29.31-26.442,64.95-26.442,107.11
		c0,40.912,8.737,75.999,26.442,105.215c21.31,35.41,51.081,53.069,89.496,53.069c37.63,0,67.17-18.029,88.479-53.994
		C4830.225,1331.188,4839.379,1295.732,4839.379,1254.867"/>
	<path clip-path="url(#SVGID_2_)" fill="#FFFFFF" d="M5261.994,1120.205c-9.755-1.803-20.156-2.727-31.066-2.727
		c-34.67,0-61.482,13.082-80.344,39.293c-16.41,23.114-24.639,52.33-24.639,87.602v232.758h-98.512l0.925-303.902
		c0-51.128-1.248-97.679-3.698-139.654h85.846l3.605,84.874h2.727c10.401-29.169,26.813-52.653,49.279-70.266
		c21.958-15.856,45.674-23.761,71.237-23.761c9.106,0,17.335,0.646,24.64,1.803V1120.205z"/>
	<path clip-path="url(#SVGID_2_)" fill="#FFFFFF" d="M5702.775,1234.341c0,17.659-1.156,32.544-3.605,44.702h-295.674
		c1.155,43.824,15.439,77.34,42.9,100.453c24.916,20.664,57.137,31.019,96.707,31.019c43.779,0,83.719-6.979,119.638-20.986
		l15.44,68.416c-41.975,18.307-91.531,27.413-148.715,27.413c-68.787,0-122.781-20.248-162.074-60.696
		c-39.201-40.449-58.848-94.768-58.848-162.907c0-66.891,18.26-122.596,54.825-167.021c38.276-47.43,90.006-71.144,155.095-71.144
		c63.934,0,112.334,23.714,145.201,71.144C5689.693,1132.41,5702.775,1179.006,5702.775,1234.341 M5608.795,1208.777
		c0.646-29.216-5.779-54.455-19.139-75.767c-17.059-27.413-43.27-41.097-78.541-41.097c-32.221,0-58.432,13.359-78.449,40.172
		c-16.41,21.311-26.165,46.875-29.169,76.646h205.298V1208.777z"/>
	<path clip-path="url(#SVGID_2_)" fill="#FFFFFF" d="M2280.375,531.657c-2.493,34.425-15.199,61.523-38.123,81.299
		c-22.927,19.775-53.139,29.663-90.637,29.663c-41.016,0-73.279-13.805-96.789-41.418c-23.511-27.61-35.266-65.513-35.266-113.709
		v-19.556c0-30.761,5.417-57.86,16.259-81.299c10.839-23.434,26.33-41.417,46.473-53.942c20.139-12.524,43.54-18.787,70.202-18.787
		c36.914,0,66.65,9.888,89.209,29.663c22.556,19.775,35.596,47.537,39.111,83.276h-65.918c-1.613-20.654-7.36-35.629-17.248-44.933
		c-9.889-9.301-24.939-13.953-45.154-13.953c-21.973,0-38.418,7.876-49.328,23.621c-10.915,15.748-16.518,40.176-16.81,73.278v24.17
		c0,34.573,5.235,59.842,15.711,75.806c10.471,15.967,26.989,23.95,49.548,23.95c20.359,0,35.558-4.649,45.593-13.952
		c10.032-9.301,15.783-23.694,17.249-43.177H2280.375z"/>
	<path clip-path="url(#SVGID_2_)" fill="#FFFFFF" d="M2309.599,517.154c0-23.583,4.539-44.604,13.623-63.061
		c9.081-18.457,22.155-32.74,39.221-42.847c17.063-10.107,36.877-15.161,59.437-15.161c32.08,0,58.262,9.815,78.553,29.443
		c20.287,19.632,31.603,46.29,33.947,79.981l0.44,16.259c0,36.475-10.183,65.737-30.542,87.782
		c-20.363,22.048-47.681,33.068-81.958,33.068c-34.278,0-61.634-10.986-82.068-32.959c-20.436-21.973-30.652-51.855-30.652-89.648
		V517.154z M2373.1,521.663c0,22.595,4.247,39.87,12.744,51.825c8.494,11.958,20.654,17.935,36.475,17.935
		c15.381,0,27.39-5.906,36.035-17.715c8.643-11.811,12.964-30.697,12.964-56.666c0-22.151-4.321-39.317-12.964-51.495
		c-8.645-12.174-20.802-18.265-36.475-18.265c-15.528,0-27.541,6.053-36.035,18.155C2377.347,477.542,2373.1,496.285,2373.1,521.663
		"/>
	<path clip-path="url(#SVGID_2_)" fill="#FFFFFF" d="M2632.377,400.48l1.978,27.466c16.991-21.237,39.77-31.861,68.335-31.861
		c25.191,0,43.944,7.399,56.25,22.193c12.304,14.798,18.601,36.914,18.896,66.357v153.589h-63.501v-152.4
		c0-13.507-2.932-23.309-8.789-29.403c-5.86-6.09-15.601-9.139-29.224-9.139c-17.873,0-31.277,7.636-40.21,22.903v168.039h-63.501
		V400.48H2632.377z"/>
	<path clip-path="url(#SVGID_2_)" fill="#FFFFFF" d="M2954.716,572.526c0-7.763-3.845-13.877-11.536-18.347
		c-7.689-4.466-20.032-8.46-37.023-11.975c-56.545-11.866-84.814-35.888-84.814-72.071c0-21.093,8.751-38.706,26.257-52.843
		c17.503-14.135,40.393-21.204,68.665-21.204c30.175,0,54.306,7.107,72.4,21.313c18.09,14.21,27.136,32.667,27.136,55.371h-63.501
		c0-9.081-2.932-16.589-8.789-22.521c-5.86-5.933-15.017-8.9-27.466-8.9c-10.694,0-18.972,2.417-24.829,7.251
		c-5.86,4.834-8.789,10.987-8.789,18.457c0,7.031,3.33,12.71,9.998,17.03c6.664,4.322,17.907,8.057,33.728,11.206
		c15.82,3.151,29.147,6.701,39.99,10.656c33.542,12.305,50.317,33.618,50.317,63.94c0,21.681-9.304,39.222-27.905,52.625
		c-18.604,13.404-42.627,20.105-72.07,20.105c-19.923,0-37.611-3.553-53.064-10.656c-15.457-7.104-27.576-16.844-36.365-29.224
		c-8.789-12.377-13.184-25.742-13.184-40.101h60.205c0.584,11.283,4.759,19.923,12.524,25.928
		c7.763,6.009,18.161,9.009,31.201,9.009c12.157,0,21.348-2.307,27.576-6.921C2951.602,586.04,2954.716,579.997,2954.716,572.526"/>
	<path clip-path="url(#SVGID_2_)" fill="#FFFFFF" d="M3125.883,638.224h-63.501V400.48h63.501V638.224z M3107.206,304.02h69.214
		l-60.863,68.115h-51.637L3107.206,304.02z"/>
	<path clip-path="url(#SVGID_2_)" fill="#FFFFFF" d="M3171.366,517.594c0-36.474,8.679-65.841,26.037-88.11
		c17.358-22.265,40.76-33.398,70.203-33.398c26.071,0,46.362,8.936,60.864,26.806l2.637-22.412h57.568v229.834
		c0,20.799-4.725,38.892-14.172,54.273c-9.449,15.38-22.742,27.098-39.881,35.156c-17.139,8.055-37.21,12.085-60.205,12.085
		c-17.435,0-34.425-3.482-50.977-10.437c-16.555-6.959-29.08-15.93-37.573-26.917l28.125-38.672
		c15.82,17.723,35.009,26.587,57.568,26.587c16.843,0,29.955-4.504,39.331-13.512c9.372-9.009,14.063-21.791,14.063-38.343V617.79
		c-14.649,16.555-33.914,24.829-57.788,24.829c-28.564,0-51.674-11.168-69.323-33.508c-17.654-22.337-26.478-51.966-26.478-88.88
		V517.594z M3234.867,522.113c0,21.633,4.318,38.593,12.964,50.88c8.642,12.288,20.507,18.43,35.597,18.43
		c19.336,0,33.178-7.282,41.527-21.853V469.134c-8.497-14.567-22.191-21.852-41.089-21.852c-15.237,0-27.212,6.256-35.926,18.763
		C3239.224,478.555,3234.867,497.243,3234.867,522.113"/>
	<path clip-path="url(#SVGID_2_)" fill="#FFFFFF" d="M3579.838,614.054c-15.677,19.044-37.354,28.564-65.039,28.564
		c-25.488,0-44.935-7.323-58.338-21.972c-13.402-14.646-20.252-36.108-20.544-64.38V400.48h63.501v153.767
		c0,24.785,11.278,37.175,33.838,37.175c21.533,0,36.327-7.477,44.385-22.439V400.48h63.721v237.744h-59.766L3579.838,614.054z"/>
	<path clip-path="url(#SVGID_2_)" fill="#FFFFFF" d="M3798.686,642.619c-34.863,0-63.247-10.691-85.144-32.08
		c-21.901-21.386-32.85-49.878-32.85-85.474v-6.152c0-23.874,4.614-45.226,13.843-64.05c9.229-18.821,22.302-33.323,39.222-43.506
		c16.918-10.179,36.217-15.271,57.897-15.271c32.52,0,58.118,10.255,76.795,30.761c18.677,20.511,28.015,49.586,28.015,87.232
		v25.928h-151.392c2.049,15.528,8.239,27.981,18.567,37.353c10.326,9.376,23.4,14.063,39.221,14.063
		c24.462,0,43.578-8.862,57.349-26.587l31.201,34.936c-9.523,13.48-22.412,23.989-38.672,31.531
		C3836.479,638.846,3818.461,642.619,3798.686,642.619 M3791.435,447.282c-12.6,0-22.817,4.268-30.651,12.803
		c-7.839,8.535-12.854,20.747-15.052,36.635h88.33v-5.077c-0.295-14.125-4.103-25.049-11.426-32.774
		C3815.31,451.144,3804.91,447.282,3791.435,447.282"/>
	<rect x="3935.795" y="300.724" clip-path="url(#SVGID_2_)" fill="#FFFFFF" width="63.721" height="337.5"/>
	<path clip-path="url(#SVGID_2_)" fill="#FFFFFF" d="M4041.923,517.154c0-23.583,4.539-44.604,13.623-63.061
		c9.081-18.457,22.154-32.74,39.222-42.847c17.063-10.107,36.877-15.161,59.436-15.161c32.08,0,58.262,9.815,78.552,29.443
		c20.287,19.632,31.604,46.29,33.948,79.981l0.439,16.259c0,36.475-10.183,65.737-30.541,87.782
		c-20.363,22.048-47.682,33.068-81.959,33.068s-61.633-10.986-82.067-32.959c-20.435-21.973-30.652-51.855-30.652-89.648V517.154z
		 M4105.424,521.663c0,22.595,4.247,39.87,12.744,51.825c8.494,11.958,20.654,17.935,36.475,17.935
		c15.381,0,27.391-5.906,36.035-17.715c8.643-11.811,12.965-30.697,12.965-56.666c0-22.151-4.322-39.317-12.965-51.495
		c-8.645-12.174-20.802-18.265-36.475-18.265c-15.527,0-27.541,6.053-36.035,18.155
		C4109.671,477.542,4105.424,496.285,4105.424,521.663"/>
	<path clip-path="url(#SVGID_2_)" fill="#FFFFFF" d="M4527.738,642.619c-34.863,0-63.246-10.691-85.144-32.08
		c-21.901-21.386-32.849-49.878-32.849-85.474v-6.152c0-23.874,4.613-45.226,13.842-64.05c9.229-18.821,22.302-33.323,39.222-43.506
		c16.918-10.179,36.217-15.271,57.897-15.271c32.52,0,58.119,10.255,76.795,30.761c18.677,20.511,28.015,49.586,28.015,87.232
		v25.928h-151.392c2.049,15.528,8.24,27.981,18.567,37.353c10.326,9.376,23.4,14.063,39.222,14.063
		c24.461,0,43.578-8.862,57.348-26.587l31.201,34.936c-9.523,13.48-22.412,23.989-38.672,31.531
		C4565.531,638.846,4547.514,642.619,4527.738,642.619 M4520.488,447.282c-12.601,0-22.818,4.268-30.652,12.803
		c-7.838,8.535-12.854,20.747-15.051,36.635h88.33v-5.077c-0.296-14.125-4.104-25.049-11.427-32.774
		C4544.363,451.144,4533.963,447.282,4520.488,447.282"/>
	<path clip-path="url(#SVGID_2_)" fill="#FFFFFF" d="M4720,400.48l1.977,27.466c16.992-21.237,39.771-31.861,68.336-31.861
		c25.193,0,43.945,7.399,56.25,22.193c12.304,14.798,18.601,36.914,18.896,66.357v153.589h-63.502v-152.4
		c0-13.507-2.932-23.309-8.789-29.403c-5.859-6.09-15.601-9.139-29.224-9.139c-17.873,0-31.276,7.636-40.21,22.903v168.039h-63.501
		V400.48H4720z"/>
	<path clip-path="url(#SVGID_2_)" fill="#FFFFFF" d="M5135.063,642.619c-34.863,0-63.246-10.691-85.144-32.08
		c-21.901-21.386-32.849-49.878-32.849-85.474v-6.152c0-23.874,4.613-45.226,13.842-64.05c9.229-18.821,22.302-33.323,39.222-43.506
		c16.918-10.179,36.217-15.271,57.897-15.271c32.52,0,58.119,10.255,76.795,30.761c18.677,20.511,28.015,49.586,28.015,87.232
		v25.928h-151.392c2.049,15.528,8.24,27.981,18.567,37.353c10.326,9.376,23.4,14.063,39.222,14.063
		c24.461,0,43.578-8.862,57.348-26.587l31.201,34.936c-9.523,13.48-22.412,23.989-38.672,31.531
		C5172.855,638.846,5154.838,642.619,5135.063,642.619 M5127.813,447.282c-12.601,0-22.818,4.268-30.652,12.803
		c-7.838,8.535-12.854,20.747-15.051,36.635h88.33v-5.077c-0.296-14.125-4.104-25.049-11.427-32.774
		C5151.688,451.144,5141.287,447.282,5127.813,447.282"/>
	<rect x="5272.172" y="300.724" clip-path="url(#SVGID_2_)" fill="#FFFFFF" width="63.721" height="337.5"/>
</g>
</svg>
