<?xml version="1.0" encoding="utf-8"?>
<!-- Generator: Adobe Illustrator 16.0.0, SVG Export Plug-In . SVG Version: 6.00 Build 0)  -->
<!DOCTYPE svg PUBLIC "-//W3C//DTD SVG 1.1//EN" "http://www.w3.org/Graphics/SVG/1.1/DTD/svg11.dtd">
<svg version="1.1" id="Capa_1" xmlns="http://www.w3.org/2000/svg" xmlns:xlink="http://www.w3.org/1999/xlink" x="0px" y="0px"
	 width="6137.76px" height="2007.73px" viewBox="0 0 6137.76 2007.73" enable-background="new 0 0 6137.76 2007.73"
	 xml:space="preserve">
<g>
	<defs>
		<rect id="SVGID_1_" y="-0.002" width="6137.76" height="2007.732"/>
	</defs>
	<clipPath id="SVGID_2_">
		<use xlink:href="#SVGID_1_"  overflow="visible"/>
	</clipPath>
	<path clip-path="url(#SVGID_2_)" d="M6137.76,1736.386c0,149.832-121.451,271.344-271.26,271.344H271.32
		C121.5,2007.742,0,1886.23,0,1736.386V271.318C0,121.498,121.5-0.002,271.32-0.002h5595.168c149.808,0,271.26,121.5,271.26,271.32
		v1465.068H6137.76z"/>
</g>
<g>
	<defs>
		<path id="SVGID_3_" d="M460.38,443.471v622.871v635.339c0.323,14.424,6.891,24.238,17.009,27.62l668.599-662.947L482.966,408.926
			C469.905,412.584,460.764,424.214,460.38,443.471"/>
	</defs>
	<clipPath id="SVGID_4_">
		<use xlink:href="#SVGID_3_"  overflow="visible"/>
	</clipPath>
	
		<linearGradient id="SVGID_5_" gradientUnits="userSpaceOnUse" x1="0" y1="2007.729" x2="1" y2="2007.729" gradientTransform="matrix(1.000000e-007 1359.6361 -1359.6361 1.000000e-007 2730585.25 386.7297)">
		<stop  offset="0" style="stop-color:#257CB0"/>
		<stop  offset="0.2863" style="stop-color:#4A93B5"/>
		<stop  offset="0.767" style="stop-color:#78BCBB"/>
		<stop  offset="1" style="stop-color:#89CFBD"/>
	</linearGradient>
	<rect x="460.38" y="408.926" clip-path="url(#SVGID_4_)" fill="url(#SVGID_5_)" width="685.608" height="1320.375"/>
</g>
<g>
	<defs>
		<path id="SVGID_6_" d="M482.966,408.926l663.022,657.428l184.139-182.604l-276.755-159.779c0,0-7.993-4.616-22.027-12.719
			L518.25,414.999c-8.907-4.905-17.767-7.329-25.779-7.329C489.137,407.67,485.949,408.09,482.966,408.926"/>
	</defs>
	<clipPath id="SVGID_7_">
		<use xlink:href="#SVGID_6_"  overflow="visible"/>
	</clipPath>
	
		<linearGradient id="SVGID_8_" gradientUnits="userSpaceOnUse" x1="0" y1="2007.7456" x2="1" y2="2007.7456" gradientTransform="matrix(869.748 0 0 869.748 460.5 -1745495.5)">
		<stop  offset="0" style="stop-color:#52C1AD"/>
		<stop  offset="1" style="stop-color:#DEE89A"/>
	</linearGradient>
	<rect x="482.966" y="407.67" clip-path="url(#SVGID_7_)" fill="url(#SVGID_8_)" width="847.161" height="658.684"/>
</g>
<g>
	<defs>
		<path id="SVGID_9_" d="M477.389,1729.301c8.012,2.678,18.251,1.32,29.378-4.976l9.874-5.701
			c75.523-43.62,536.731-309.911,536.731-309.911l20.617-11.902l256.127-147.877l-184.128-182.58L477.389,1729.301z"/>
	</defs>
	<clipPath id="SVGID_10_">
		<use xlink:href="#SVGID_9_"  overflow="visible"/>
	</clipPath>
	
		<linearGradient id="SVGID_11_" gradientUnits="userSpaceOnUse" x1="0" y1="2007.7163" x2="1" y2="2007.7163" gradientTransform="matrix(0 684.756 -684.756 0 1375700.125 1066.23)">
		<stop  offset="0" style="stop-color:#EC413D"/>
		<stop  offset="0.1668" style="stop-color:#DA4452"/>
		<stop  offset="0.5748" style="stop-color:#B0487A"/>
		<stop  offset="0.8619" style="stop-color:#954A92"/>
		<stop  offset="1" style="stop-color:#8A4A9D"/>
	</linearGradient>
	<rect x="477.389" y="1066.354" clip-path="url(#SVGID_10_)" fill="url(#SVGID_11_)" width="852.727" height="665.625"/>
</g>
<g>
	<defs>
		<path id="SVGID_12_" d="M1145.988,1066.354l184.128,182.58l267.312-154.321c28.815-17.348,26.747-40.539,3.183-54.706
			l-1.892-1.093c-0.233-0.129-0.467-0.257-0.703-0.384c-26.328-14.196-267.888-154.679-267.888-154.679l-0.001-0.001
			L1145.988,1066.354z"/>
	</defs>
	<clipPath id="SVGID_13_">
		<use xlink:href="#SVGID_12_"  overflow="visible"/>
	</clipPath>
	
		<linearGradient id="SVGID_14_" gradientUnits="userSpaceOnUse" x1="0" y1="2007.7573" x2="1" y2="2007.7573" gradientTransform="matrix(0 365.184 -365.184 0 734587.125 883.73)">
		<stop  offset="0" style="stop-color:#F58879"/>
		<stop  offset="0.1194" style="stop-color:#F69079"/>
		<stop  offset="0.7128" style="stop-color:#FCB877"/>
		<stop  offset="1" style="stop-color:#FEC874"/>
	</linearGradient>
	<rect x="1145.988" y="883.75" clip-path="url(#SVGID_13_)" fill="url(#SVGID_14_)" width="480.255" height="365.184"/>
</g>
<g>
	<defs>
		<rect id="SVGID_15_" y="-0.002" width="6137.76" height="2007.732"/>
	</defs>
	<clipPath id="SVGID_16_">
		<use xlink:href="#SVGID_15_"  overflow="visible"/>
	</clipPath>
	<path clip-path="url(#SVGID_16_)" fill="#F9F9F9" d="M4776.695,1332.13c-25.752,0-49.248-4.753-70.523-14.244
		c-21.275-9.504-39.156-24.12-53.592-43.824h-4.32c2.881,23.088,4.32,44.976,4.32,65.652v162.707h-59.857V929.506h48.697l8.28,54.12
		h2.88c15.408-21.66,33.336-37.272,53.771-46.896s43.896-14.436,70.332-14.436c52.439,0,92.916,17.928,121.404,53.76
		c28.5,35.832,42.756,86.111,42.756,150.792c0,64.943-14.496,115.38-43.453,151.368
		C4868.412,1314.166,4828.188,1332.13,4776.695,1332.13 M4768.032,973.162c-40.404,0-69.624,11.196-87.66,33.553
		c-18.036,22.367-27.3,57.972-27.792,106.8v13.332c0,55.571,9.264,95.315,27.792,119.256c18.528,23.939,48.239,35.88,89.099,35.88
		c34.178,0,60.938-13.813,80.305-41.472c19.344-27.648,29.027-65.772,29.027-114.385c0-49.283-9.684-87.132-29.027-113.46
		C4830.42,986.314,4803.156,973.162,4768.032,973.162"/>
	<rect x="5019.637" y="763.546" clip-path="url(#SVGID_16_)" fill="#F9F9F9" width="59.879" height="561.36"/>
	<path clip-path="url(#SVGID_16_)" fill="#F9F9F9" d="M5423.832,1324.906l-11.916-56.28h-2.881
		c-19.728,24.792-39.383,41.58-58.991,50.328c-19.597,8.796-44.076,13.177-73.404,13.177c-39.204,0-69.924-10.104-92.185-30.301
		c-22.26-20.195-33.371-48.924-33.371-86.22c0-79.836,63.863-121.692,191.568-125.556l67.127-2.172v-24.528
		c0-31.032-6.684-53.952-20.041-68.724c-13.33-14.808-34.716-22.2-64.031-22.2c-32.965,0-70.248,10.104-111.84,30.3l-18.408-45.816
		c19.5-10.584,40.824-18.876,64.057-24.888c23.208-6.012,46.464-9.024,69.803-9.024c47.137,0,82.068,10.452,104.809,31.38
		c22.717,20.928,34.08,54.48,34.08,100.668v269.844h-44.375V1324.906z M5288.544,1282.714c37.26,0,66.54-10.225,87.84-30.66
		c21.264-20.437,31.933-49.068,31.933-85.885v-35.712l-59.916,2.509c-47.617,1.716-81.925,9.084-102.996,22.224
		c-21.037,13.104-31.561,33.492-31.561,61.152c0,21.636,6.54,38.124,19.668,49.403
		C5246.628,1277.062,5264.951,1282.714,5288.544,1282.714"/>
	<path clip-path="url(#SVGID_16_)" fill="#F9F9F9" d="M5502.972,929.506h64.2l86.592,225.492
		c18.996,51.48,30.792,88.633,35.376,111.492h2.88c3.132-12.288,9.695-33.252,19.656-62.988
		c9.984-29.712,42.647-121.02,97.943-273.996h64.248l-169.943,450.252c-16.824,44.495-36.492,76.067-59.004,94.739
		c-22.476,18.624-50.088,27.924-82.764,27.924c-18.289,0-36.324-2.039-54.145-6.119v-47.977c13.224,2.88,28.031,4.332,44.389,4.332
		c41.135,0,70.451-23.088,88.031-69.275l21.996-56.269L5502.972,929.506z"/>
	<path clip-path="url(#SVGID_16_)" fill="#F9F9F9" d="M3667.308,966.25c19.008,15.732,58.704,48.78,58.704,111.672
		c0,61.164-34.74,90.168-69.48,117.42c-10.752,10.739-23.159,22.355-23.159,40.571c0,18.156,12.396,28.093,21.527,35.545
		l29.784,23.111c36.385,30.612,69.432,58.752,69.432,115.836c0,77.736-75.264,156.276-217.487,156.276
		c-119.94,0-177.804-57.048-177.804-118.284c0-29.76,14.819-71.916,63.685-100.896c51.239-31.429,120.756-35.521,157.956-38.064
		c-11.616-14.868-24.816-30.588-24.816-56.184c0-14.04,4.152-22.32,8.269-32.292c-9.132,0.84-18.216,1.668-26.496,1.668
		c-87.636,0-137.256-65.34-137.256-129.816c0-38.052,17.388-80.256,52.907-110.82c47.16-38.868,103.393-45.504,148.093-45.504
		h170.327l-52.933,29.772h-51.252V966.25z M3608.568,1333.474c-6.612-0.864-10.765-0.864-18.996-0.864
		c-7.44,0-52.164,1.692-86.856,13.296c-18.192,6.564-71.136,26.412-71.136,85.164c0,58.692,57.096,100.933,145.596,100.933
		c79.344,0,121.572-38.124,121.572-89.353C3698.748,1400.386,3671.447,1378.15,3608.568,1333.474 M3632.568,1176.31
		c18.995-19.044,20.627-45.48,20.627-60.384c0-59.532-35.543-152.16-104.172-152.16c-21.527,0-44.664,10.74-57.899,27.3
		c-14.04,17.364-18.216,39.672-18.216,61.2c0,55.404,32.255,147.216,103.416,147.216
		C3597,1199.482,3619.283,1189.558,3632.568,1176.31"/>
	<path clip-path="url(#SVGID_16_)" fill="#F9F9F9" d="M3146.64,1320.238c-131.268,0-201.456-102.396-201.456-194.892
		c0-108.181,88.332-200.616,213.888-200.616c121.319,0,197.292,94.92,197.292,194.855
		C3356.376,1216.978,3281.268,1320.238,3146.64,1320.238 M3249.84,1253.362c19.848-26.448,24.805-59.46,24.805-91.692
		c0-72.684-34.681-211.379-137.076-211.379c-27.24,0-54.48,10.752-74.292,28.128c-32.208,28.86-38.016,65.208-38.016,100.751
		c0,81.685,40.464,216.24,140.4,216.24C3197.855,1295.41,3230.892,1279.75,3249.84,1253.362"/>
	<path clip-path="url(#SVGID_16_)" fill="#F9F9F9" d="M2699.1,1320.238c-131.292,0-201.492-102.396-201.492-194.892
		c0-108.181,88.368-200.616,213.888-200.616c121.355,0,197.315,94.92,197.315,194.855
		C2908.824,1216.978,2833.704,1320.238,2699.1,1320.238 M2802.324,1253.362c19.812-26.448,24.779-59.46,24.779-91.692
		c0-72.684-34.704-211.379-137.1-211.379c-27.228,0-54.492,10.752-74.292,28.128c-32.208,28.86-37.98,65.208-37.98,100.751
		c0,81.685,40.44,216.24,140.388,216.24C2750.328,1295.41,2783.34,1279.75,2802.324,1253.362"/>
	<path clip-path="url(#SVGID_16_)" fill="#F9F9F9" d="M2434.536,1307.29l-118.728,27.396c-48.168,7.488-91.32,14.076-136.956,14.076
		c-229.152,0-316.284-168.528-316.284-300.528c0-161.028,123.672-310.416,335.388-310.416c44.844,0,87.972,6.624,126.984,17.424
		c62.256,17.436,91.308,39,109.584,51.468l-68.928,65.58l-29.04,6.612l20.748-33.216c-28.212-27.372-79.728-78-177.647-78
		c-131.172,0-229.98,99.66-229.98,244.92c0,156.024,112.919,302.964,293.856,302.964c53.184,0,80.52-10.776,105.444-20.76v-133.62
		l-125.328,6.636l66.384-35.735h176.004l-21.564,20.747c-5.855,5.005-6.66,6.685-8.315,13.261
		c-0.864,7.487-1.645,31.584-1.645,39.876v101.315H2434.536z"/>
	<path clip-path="url(#SVGID_16_)" fill="#F9F9F9" d="M3929.688,1283.386c-27.408-2.496-33.144-7.452-33.144-39.864v-9.145V773.674
		c0.168-1.788,0.276-3.624,0.444-5.352c3.348-29.04,11.64-34.02,37.403-48.984H3815.64l-62.28,29.892h63.469v0.372l-0.049-0.3
		v485.088v27.42c0,16.572-3.275,19.092-22.392,43.968h146.952l30.72-18.216C3957.96,1285.846,3943.824,1285.042,3929.688,1283.386"
		/>
	<path clip-path="url(#SVGID_16_)" fill="#F9F9F9" d="M4267.488,1291.018c-9.037,4.956-18.108,10.752-27.145,14.844
		c-27.252,12.36-55.271,15.672-80.052,15.672c-26.315,0-67.572-1.704-109.656-32.172c-58.487-41.256-84.048-112.151-84.048-173.964
		c0-127.764,103.872-190.416,188.784-190.416c29.688,0,60.228,7.404,84.96,23.1c41.184,27.156,51.9,62.604,57.636,81.576
		l-193.692,78.349l-63.491,4.943c20.58,104.7,91.476,165.66,169.823,165.66c42.037,0,72.553-14.808,100.573-28.8L4267.488,1291.018z
		 M4190.016,1045.306c15.637-5.748,23.881-10.716,23.881-22.248c0-32.952-37.08-70.896-81.637-70.896
		c-33.013,0-94.8,25.572-94.8,114.587c0,14.017,1.656,28.849,2.508,43.74L4190.016,1045.306z"/>
	<polygon clip-path="url(#SVGID_16_)" fill="#F9F9F9" points="4347.061,930.622 4347.061,985.018 4340.447,985.018 
		4340.447,930.622 4322.447,930.622 4322.447,924.982 4365.048,924.982 4365.048,930.622 	"/>
	<polygon clip-path="url(#SVGID_16_)" fill="#F9F9F9" points="4421.22,985.018 4421.22,930.118 4420.92,930.118 4404.168,985.018 
		4398.996,985.018 4382.1,930.118 4381.885,930.118 4381.885,985.018 4375.885,985.018 4375.885,924.982 4386.168,924.982 
		4401.455,973.51 4401.672,973.51 4416.731,924.982 4427.16,924.982 4427.16,985.018 	"/>
	<path clip-path="url(#SVGID_16_)" fill="#FFFFFF" d="M1885.565,505.233V263.514h74.375c21.25,0,40.259,4.789,57.027,14.361
		c16.767,9.574,29.854,23.187,39.262,40.839c9.407,17.655,14.112,37.714,14.112,60.181v11.123c0,22.469-4.622,42.445-13.863,59.932
		c-9.242,17.489-22.274,31.045-39.096,40.674c-16.824,9.628-35.805,14.5-56.944,14.609H1885.565z M1935.371,303.856v161.367h24.072
		c19.479,0,34.366-6.363,44.658-19.092c10.293-12.726,15.549-30.933,15.772-54.619v-12.783c0-24.57-5.092-43.189-15.273-55.864
		c-10.184-12.672-25.069-19.009-44.659-19.009H1935.371z"/>
	<rect x="2109.686" y="263.514" clip-path="url(#SVGID_16_)" fill="#FFFFFF" width="49.805" height="241.719"/>
	<path clip-path="url(#SVGID_16_)" fill="#FFFFFF" d="M2330.985,441.815c0-9.406-3.32-16.627-9.961-21.665
		c-6.641-5.035-18.594-10.348-35.859-15.938c-17.266-5.587-30.936-11.094-41.006-16.518c-27.449-14.83-41.172-34.806-41.172-59.932
		c0-13.058,3.679-24.708,11.04-34.946c7.359-10.236,17.93-18.233,31.709-23.989c13.779-5.754,29.245-8.633,46.401-8.633
		c17.266,0,32.648,3.128,46.153,9.38c13.502,6.254,23.989,15.081,31.46,26.479c7.47,11.401,11.206,24.35,11.206,38.848h-49.805
		c0-11.066-3.486-19.673-10.459-25.815c-6.973-6.143-16.768-9.214-29.385-9.214c-12.176,0-21.638,2.573-28.388,7.719
		c-6.752,5.147-10.127,11.928-10.127,20.337c0,7.86,3.956,14.444,11.87,19.756c7.912,5.313,19.561,10.293,34.946,14.942
		c28.332,8.523,48.975,19.091,61.924,31.709c12.949,12.617,19.424,28.334,19.424,47.148c0,20.918-7.914,37.328-23.741,49.224
		c-15.828,11.897-37.132,17.846-63.916,17.846c-18.593,0-35.527-3.403-50.8-10.21c-15.274-6.806-26.923-16.129-34.947-27.973
		c-8.025-11.842-12.036-25.567-12.036-41.172h49.971c0,26.674,15.938,40.01,47.813,40.01c11.842,0,21.084-2.408,27.725-7.222
		C2327.666,457.171,2330.985,450.448,2330.985,441.815"/>
	<path clip-path="url(#SVGID_16_)" fill="#FFFFFF" d="M2464.462,420.067v85.166h-49.805V263.514h94.297
		c18.151,0,34.116,3.32,47.896,9.961c13.779,6.642,24.376,16.078,31.792,28.306c7.414,12.23,11.123,26.147,11.123,41.753
		c0,23.685-8.109,42.362-24.322,56.03c-16.214,13.67-38.655,20.503-67.319,20.503H2464.462z M2464.462,379.725h44.492
		c13.17,0,23.214-3.097,30.132-9.297c6.916-6.197,10.376-15.05,10.376-26.562c0-11.842-3.486-21.416-10.459-28.721
		c-6.973-7.305-16.602-11.066-28.887-11.289h-45.654V379.725z"/>
	<path clip-path="url(#SVGID_16_)" fill="#FFFFFF" d="M2832.519,389.852c0,23.797-4.207,44.658-12.617,62.588
		c-8.413,17.93-20.449,31.766-36.109,41.504c-15.662,9.74-33.618,14.609-53.872,14.609c-20.033,0-37.908-4.814-53.623-14.443
		c-15.717-9.629-27.891-23.38-36.523-41.255c-8.633-17.873-13.006-38.433-13.116-61.675v-11.953
		c0-23.795,4.288-44.741,12.867-62.837c8.576-18.096,20.695-31.984,36.357-41.67c15.66-9.683,33.562-14.526,53.706-14.526
		c20.143,0,38.044,4.843,53.706,14.526c15.66,9.686,27.779,23.574,36.358,41.67c8.576,18.096,12.866,38.988,12.866,62.671V389.852z
		 M2782.05,378.895c0-25.343-4.539-44.601-13.613-57.772c-9.076-13.17-22.026-19.756-38.848-19.756
		c-16.713,0-29.607,6.503-38.682,19.507c-9.076,13.006-13.67,32.069-13.779,57.192v11.787c0,24.682,4.537,43.828,13.613,57.441
		c9.075,13.614,22.135,20.42,39.18,20.42c16.711,0,29.551-6.557,38.516-19.672c8.965-13.116,13.502-32.233,13.613-57.359V378.895z"
		/>
	<polygon clip-path="url(#SVGID_16_)" fill="#FFFFFF" points="3065.272,505.233 3015.468,505.233 2918.515,346.19 2918.515,505.233 
		2868.711,505.233 2868.711,263.514 2918.515,263.514 3015.634,422.889 3015.634,263.514 3065.272,263.514 	"/>
	<rect x="3111.923" y="263.514" clip-path="url(#SVGID_16_)" fill="#FFFFFF" width="49.806" height="241.719"/>
	<path clip-path="url(#SVGID_16_)" fill="#FFFFFF" d="M3207.88,505.233V263.514h84.668c29.328,0,51.575,5.619,66.739,16.851
		c15.162,11.234,22.744,27.698,22.744,49.389c0,11.845-3.046,22.275-9.132,31.294c-6.088,9.022-14.555,15.634-25.4,19.839
		c12.395,3.1,22.163,9.354,29.302,18.76c7.139,9.408,10.708,20.918,10.708,34.531c0,23.242-7.416,40.84-22.246,52.793
		c-14.832,11.953-35.971,18.041-63.418,18.262H3207.88z M3257.685,364.784h36.855c25.124-0.441,37.686-10.459,37.686-30.049
		c0-10.957-3.183-18.843-9.546-23.657c-6.365-4.815-16.409-7.222-30.132-7.222h-34.863V364.784z M3257.685,399.979v65.244h42.666
		c11.73,0,20.89-2.794,27.476-8.384c6.584-5.587,9.879-13.307,9.879-23.159c0-22.135-11.456-33.369-34.366-33.701H3257.685z"/>
	<polygon clip-path="url(#SVGID_16_)" fill="#FFFFFF" points="3474.667,465.223 3580.419,465.223 3580.419,505.233 
		3424.862,505.233 3424.862,263.514 3474.667,263.514 	"/>
	<polygon clip-path="url(#SVGID_16_)" fill="#FFFFFF" points="3754.403,400.145 3658.778,400.145 3658.778,465.223 
		3771.006,465.223 3771.006,505.233 3608.974,505.233 3608.974,263.514 3770.674,263.514 3770.674,303.856 3658.778,303.856 
		3658.778,361.463 3754.403,361.463 	"/>
	<polygon clip-path="url(#SVGID_16_)" fill="#FFFFFF" points="4030.321,400.145 3934.696,400.145 3934.696,465.223 
		4046.924,465.223 4046.924,505.233 3884.892,505.233 3884.892,263.514 4046.592,263.514 4046.592,303.856 3934.696,303.856 
		3934.696,361.463 4030.321,361.463 	"/>
	<polygon clip-path="url(#SVGID_16_)" fill="#FFFFFF" points="4272.705,505.233 4222.899,505.233 4125.946,346.19 4125.946,505.233 
		4076.142,505.233 4076.142,263.514 4125.946,263.514 4223.065,422.889 4223.065,263.514 4272.705,263.514 	"/>
</g>
</svg>
