<?xml version="1.0" encoding="UTF-8" standalone="no"?><!DOCTYPE svg PUBLIC "-//W3C//DTD SVG 1.1//EN" "http://www.w3.org/Graphics/SVG/1.1/DTD/svg11.dtd"><svg width="100%" height="100%" viewBox="0 0 135 40" version="1.1" xmlns="http://www.w3.org/2000/svg" xmlns:xlink="http://www.w3.org/1999/xlink" xml:space="preserve" xmlns:serif="http://www.serif.com/" style="fill-rule:evenodd;clip-rule:evenodd;stroke-linejoin:round;stroke-miterlimit:1.41421;"><g><g><g><path d="M124.346,0l-113.621,0c-0.414,0 -0.824,0 -1.237,0.002c-0.345,0.002 -0.688,0.008 -1.038,0.013c-0.758,0.008 -1.515,0.067 -2.263,0.176c-0.747,0.113 -1.471,0.324 -2.147,0.627c-0.675,0.306 -1.292,0.704 -1.828,1.179c-0.539,0.474 -0.988,1.021 -1.331,1.621c-0.343,0.599 -0.581,1.241 -0.705,1.903c-0.126,0.662 -0.194,1.332 -0.203,2.002c-0.01,0.307 -0.011,0.615 -0.017,0.921l0,23.115c0.006,0.31 0.007,0.611 0.017,0.921c0.009,0.671 0.077,1.341 0.203,2.002c0.124,0.663 0.362,1.306 0.705,1.905c0.343,0.598 0.792,1.143 1.331,1.614c0.534,0.477 1.152,0.875 1.828,1.179c0.676,0.304 1.4,0.517 2.147,0.63c0.749,0.109 1.505,0.168 2.263,0.177c0.35,0.007 0.693,0.011 1.038,0.011c0.413,0.002 0.823,0.002 1.237,0.002l113.621,0c0.406,0 0.819,0 1.224,-0.002c0.345,0 0.698,-0.004 1.042,-0.011c0.757,-0.008 1.512,-0.067 2.259,-0.177c0.749,-0.114 1.476,-0.327 2.155,-0.63c0.676,-0.304 1.293,-0.702 1.826,-1.179c0.538,-0.473 0.988,-1.018 1.335,-1.614c0.341,-0.6 0.577,-1.242 0.699,-1.905c0.126,-0.661 0.196,-1.331 0.21,-2.002c0.004,-0.31 0.004,-0.611 0.004,-0.921c0.009,-0.364 0.009,-0.725 0.009,-1.094l0,-20.929c0,-0.366 0,-0.729 -0.009,-1.092c0,-0.306 0,-0.614 -0.004,-0.921c-0.014,-0.671 -0.084,-1.34 -0.21,-2.002c-0.123,-0.662 -0.358,-1.304 -0.699,-1.903c-0.697,-1.203 -1.803,-2.182 -3.161,-2.8c-0.679,-0.302 -1.406,-0.514 -2.155,-0.627c-0.747,-0.11 -1.502,-0.169 -2.259,-0.176c-0.344,-0.005 -0.697,-0.011 -1.042,-0.013c-0.405,-0.002 -0.818,-0.002 -1.224,-0.002l0,0Z" style="fill:#a6a6a6;fill-rule:nonzero;"/><path d="M9.494,39.125c-0.344,0 -0.68,-0.004 -1.021,-0.011c-0.708,-0.008 -1.413,-0.062 -2.112,-0.163c-0.651,-0.099 -1.281,-0.284 -1.871,-0.548c-0.584,-0.261 -1.117,-0.605 -1.578,-1.016c-0.467,-0.407 -0.857,-0.879 -1.152,-1.397c-0.299,-0.521 -0.506,-1.08 -0.613,-1.657c-0.117,-0.62 -0.179,-1.247 -0.188,-1.875c-0.008,-0.211 -0.017,-0.913 -0.017,-0.913l0,-23.101c0,0 0.01,-0.691 0.017,-0.894c0.008,-0.628 0.071,-1.253 0.187,-1.872c0.107,-0.579 0.314,-1.139 0.613,-1.662c0.295,-0.518 0.682,-0.99 1.147,-1.398c0.464,-0.412 0.999,-0.757 1.584,-1.023c0.588,-0.263 1.217,-0.446 1.867,-0.544c0.701,-0.101 1.409,-0.156 2.118,-0.164l1.019,-0.012l116.071,0l1.031,0.013c0.703,0.007 1.405,0.061 2.099,0.162c0.656,0.099 1.292,0.284 1.887,0.548c1.172,0.535 2.126,1.381 2.728,2.42c0.294,0.52 0.498,1.076 0.604,1.649c0.118,0.624 0.183,1.255 0.197,1.887c0.003,0.283 0.003,0.588 0.003,0.89c0.009,0.375 0.009,0.732 0.009,1.092l0,20.929c0,0.363 0,0.718 -0.009,1.075c0,0.325 0,0.623 -0.004,0.93c-0.014,0.621 -0.078,1.24 -0.193,1.853c-0.106,0.581 -0.312,1.145 -0.61,1.67c-0.298,0.513 -0.685,0.98 -1.147,1.386c-0.462,0.414 -0.996,0.759 -1.581,1.022c-0.593,0.266 -1.228,0.452 -1.884,0.55c-0.698,0.101 -1.404,0.156 -2.111,0.163c-0.331,0.007 -0.677,0.011 -1.014,0.011l-1.224,0.002l-114.852,-0.002Z" style="fill-rule:nonzero;"/></g><g id="_Group_"><g id="_Group_3_" serif:id="_Group_3"><path id="_Path_" d="M32.437,20.301c0.022,-1.695 0.913,-3.265 2.356,-4.152c-0.915,-1.307 -2.396,-2.108 -3.991,-2.158c-1.679,-0.176 -3.307,1.005 -4.163,1.005c-0.872,0 -2.189,-0.988 -3.608,-0.958c-1.865,0.06 -3.566,1.097 -4.473,2.727c-1.934,3.349 -0.491,8.27 1.361,10.977c0.927,1.325 2.01,2.805 3.428,2.753c1.387,-0.058 1.905,-0.885 3.579,-0.885c1.659,0 2.145,0.885 3.591,0.852c1.489,-0.025 2.426,-1.332 3.321,-2.67c0.666,-0.944 1.178,-1.988 1.518,-3.092c-1.764,-0.746 -2.917,-2.484 -2.919,-4.399Z" style="fill:#fff;fill-rule:nonzero;"/><path id="_Path_2_" serif:id="_Path_2" d="M29.705,12.211c0.811,-0.974 1.212,-2.227 1.115,-3.491c-1.24,0.13 -2.386,0.723 -3.208,1.66c-0.812,0.924 -1.223,2.134 -1.144,3.361c1.256,0.013 2.45,-0.552 3.237,-1.53Z" style="fill:#fff;fill-rule:nonzero;"/></g><g><path d="M49.97,27.14l-4.733,0l-1.137,3.356l-2.005,0l4.484,-12.418l2.083,0l4.483,12.418l-2.039,0l-1.136,-3.356Zm-4.243,-1.549l3.752,0l-1.85,-5.447l-0.051,0l-1.851,5.447Z" style="fill:#fff;fill-rule:nonzero;"/><path d="M62.828,25.97c0,2.813 -1.506,4.621 -3.779,4.621c-1.172,0.061 -2.282,-0.556 -2.848,-1.584l-0.043,0l0,4.484l-1.859,0l0,-12.049l1.799,0l0,1.506l0.034,0c0.592,-1.022 1.702,-1.638 2.883,-1.6c2.298,0 3.813,1.816 3.813,4.622Zm-1.911,0c0,-1.833 -0.947,-3.038 -2.392,-3.038c-1.42,0 -2.375,1.23 -2.375,3.038c0,1.824 0.955,3.046 2.375,3.046c1.445,0 2.392,-1.197 2.392,-3.046Z" style="fill:#fff;fill-rule:nonzero;"/><path d="M72.792,25.97c0,2.813 -1.505,4.621 -3.778,4.621c-1.173,0.061 -2.282,-0.556 -2.848,-1.584l-0.043,0l0,4.484l-1.859,0l0,-12.049l1.799,0l0,1.506l0.034,0c0.592,-1.022 1.702,-1.638 2.883,-1.6c2.298,0 3.812,1.816 3.812,4.622Zm-1.91,0c0,-1.833 -0.947,-3.038 -2.392,-3.038c-1.42,0 -2.375,1.23 -2.375,3.038c0,1.824 0.955,3.046 2.375,3.046c1.445,0 2.392,-1.197 2.392,-3.046l0,0Z" style="fill:#fff;fill-rule:nonzero;"/><path d="M79.378,27.036c0.138,1.232 1.334,2.04 2.969,2.04c1.567,0 2.694,-0.808 2.694,-1.919c0,-0.964 -0.68,-1.541 -2.29,-1.936l-1.609,-0.388c-2.28,-0.551 -3.339,-1.617 -3.339,-3.348c0,-2.142 1.867,-3.614 4.519,-3.614c2.624,0 4.423,1.472 4.483,3.614l-1.876,0c-0.112,-1.239 -1.137,-1.987 -2.634,-1.987c-1.497,0 -2.521,0.757 -2.521,1.858c0,0.878 0.654,1.395 2.255,1.79l1.368,0.336c2.548,0.603 3.606,1.626 3.606,3.443c0,2.323 -1.85,3.778 -4.794,3.778c-2.753,0 -4.613,-1.421 -4.733,-3.667l1.902,0Z" style="fill:#fff;fill-rule:nonzero;"/><path d="M91.014,19.3l0,2.142l1.722,0l0,1.472l-1.722,0l0,4.991c0,0.776 0.345,1.137 1.102,1.137c0.204,-0.004 0.408,-0.018 0.611,-0.043l0,1.463c-0.34,0.063 -0.686,0.092 -1.032,0.086c-1.833,0 -2.548,-0.689 -2.548,-2.445l0,-5.189l-1.316,0l0,-1.472l1.316,0l0,-2.142l1.867,0Z" style="fill:#fff;fill-rule:nonzero;"/><path d="M93.733,25.97c0,-2.849 1.678,-4.639 4.294,-4.639c2.625,0 4.295,1.79 4.295,4.639c0,2.856 -1.661,4.638 -4.295,4.638c-2.633,0 -4.294,-1.782 -4.294,-4.638Zm6.695,0c0,-1.954 -0.895,-3.108 -2.401,-3.108c-1.506,0 -2.4,1.162 -2.4,3.108c0,1.962 0.894,3.106 2.4,3.106c1.506,0 2.401,-1.144 2.401,-3.106l0,0Z" style="fill:#fff;fill-rule:nonzero;"/><path d="M103.854,21.442l1.772,0l0,1.541l0.043,0c0.247,-0.988 1.16,-1.674 2.178,-1.635c0.214,-0.001 0.428,0.022 0.637,0.069l0,1.738c-0.27,-0.082 -0.552,-0.12 -0.835,-0.112c-0.025,-0.001 -0.051,-0.002 -0.076,-0.002c-1.027,0 -1.873,0.846 -1.873,1.873c0,0.071 0.004,0.142 0.012,0.212l0,5.37l-1.858,0l0,-9.054Z" style="fill:#fff;fill-rule:nonzero;"/><path d="M117.052,27.837c-0.25,1.643 -1.85,2.771 -3.898,2.771c-2.634,0 -4.269,-1.764 -4.269,-4.595c0,-2.84 1.644,-4.682 4.191,-4.682c2.505,0 4.08,1.721 4.08,4.466l0,0.637l-6.395,0l0,0.112c-0.006,0.069 -0.009,0.138 -0.009,0.208c0,1.293 1.064,2.358 2.358,2.358c0.029,0 0.058,-0.001 0.087,-0.002c0.899,0.085 1.753,-0.435 2.091,-1.273l1.764,0Zm-6.282,-2.702l4.526,0c0.003,-0.041 0.004,-0.081 0.004,-0.121c0,-1.195 -0.983,-2.178 -2.178,-2.178c-0.015,0 -0.031,0.001 -0.046,0.001c-0.005,0 -0.009,0 -0.014,0c-1.257,0 -2.292,1.035 -2.292,2.292c0,0.002 0,0.004 0,0.006l0,0Z" style="fill:#fff;fill-rule:nonzero;"/></g></g></g><g id="_Group_4_" serif:id="_Group_4"><path d="M44.406,11.253l0.798,0c0.041,0.006 0.083,0.008 0.124,0.008c0.533,0 0.978,-0.426 1.001,-0.959c0,-0.55 -0.414,-0.906 -1.116,-0.906c-0.049,-0.006 -0.098,-0.01 -0.147,-0.01c-0.539,0 -0.997,0.41 -1.057,0.945l-0.876,0c0.058,-0.983 0.882,-1.761 1.867,-1.761c0.081,0 0.161,0.006 0.241,0.016c1.175,0 2.002,0.658 2.002,1.604c0.006,0.652 -0.448,1.223 -1.084,1.365l0,0.07c0.759,0.034 1.357,0.684 1.327,1.443c-0.104,1.012 -0.966,1.79 -1.982,1.79c-0.083,0 -0.165,-0.006 -0.246,-0.016c-0.089,0.012 -0.178,0.018 -0.268,0.018c-1.013,0 -1.871,-0.776 -1.973,-1.783l0.889,0c0.054,0.57 0.578,0.939 1.352,0.939c0.773,0 1.278,-0.414 1.278,-0.997c0,-0.591 -0.475,-0.955 -1.306,-0.955l-0.824,0l0,-0.811Z" style="fill:#fff;fill-rule:nonzero;"/><path d="M48.497,13.424c0,-0.81 0.605,-1.278 1.675,-1.344l1.22,-0.07l0,-0.389c0,-0.475 -0.314,-0.744 -0.922,-0.744c-0.496,0 -0.839,0.182 -0.939,0.5l-0.86,0c0.091,-0.773 0.819,-1.269 1.841,-1.269c1.129,0 1.765,0.562 1.765,1.513l0,3.077l-0.856,0l0,-0.633l-0.07,0c-0.291,0.461 -0.808,0.732 -1.353,0.707c-0.047,0.005 -0.094,0.007 -0.141,0.007c-0.744,0 -1.357,-0.61 -1.36,-1.355Zm2.895,-0.384l0,-0.377l-1.1,0.07c-0.62,0.042 -0.901,0.253 -0.901,0.65c0,0.405 0.351,0.641 0.835,0.641c0.035,0.004 0.071,0.005 0.107,0.005c0.555,0 1.021,-0.435 1.059,-0.989Z" style="fill:#fff;fill-rule:nonzero;"/><path d="M54.636,10.943l0,3.755l-0.889,0l0,-4.503l2.965,0l0,0.748l-2.076,0Z" style="fill:#fff;fill-rule:nonzero;"/><path d="M62.098,12.444c0,1.431 -0.724,2.328 -1.861,2.328c-0.568,0.039 -1.11,-0.257 -1.385,-0.756l-0.071,0l0,2.179l-0.888,0l0,-6l0.855,0l0,0.744l0.066,0c0.28,-0.516 0.828,-0.833 1.415,-0.819c1.145,0 1.869,0.893 1.869,2.324Zm-0.914,0c0,-0.951 -0.451,-1.526 -1.204,-1.526c-0.748,0 -1.215,0.587 -1.215,1.53c0,0.939 0.467,1.526 1.212,1.526c0.756,0 1.207,-0.575 1.207,-1.53Z" style="fill:#fff;fill-rule:nonzero;"/><path d="M63.281,16.311l0,-0.766c0.096,0.013 0.193,0.018 0.29,0.017c0.39,0.029 0.744,-0.244 0.815,-0.628l0.066,-0.22l-1.63,-4.519l0.968,0l1.129,3.576l0.07,0l1.125,-3.576l0.943,0l-1.679,4.689c-0.385,1.095 -0.811,1.447 -1.729,1.447c-0.074,0 -0.285,-0.008 -0.368,-0.02Z" style="fill:#fff;fill-rule:nonzero;"/><path d="M67.749,13.42l0.885,0c0.087,0.397 0.459,0.604 0.979,0.604c0.592,0 0.955,-0.261 0.955,-0.666c0,-0.434 -0.326,-0.641 -0.955,-0.641l-0.674,0l0,-0.691l0.663,0c0.537,0 0.81,-0.206 0.81,-0.583c0,-0.33 -0.265,-0.583 -0.81,-0.583c-0.497,0 -0.861,0.211 -0.918,0.567l-0.857,0c0.133,-0.845 0.928,-1.436 1.775,-1.319c1.07,0 1.682,0.484 1.682,1.245c0.01,0.435 -0.287,0.821 -0.711,0.921l0,0.071c0.506,0.065 0.887,0.503 0.881,1.013c0,0.856 -0.728,1.422 -1.841,1.422c-0.983,0 -1.782,-0.45 -1.864,-1.36Z" style="fill:#fff;fill-rule:nonzero;"/><path d="M72.734,14.698l0,-4.503l0.881,0l0,3.097l0.07,0l2.075,-3.097l0.881,0l0,4.503l-0.881,0l0,-3.114l-0.066,0l-2.079,3.114l-0.881,0Z" style="fill:#fff;fill-rule:nonzero;"/><path d="M81.494,10.943l-1.418,0l0,3.755l-0.89,0l0,-3.755l-1.418,0l0,-0.748l3.726,0l0,0.748Z" style="fill:#fff;fill-rule:nonzero;"/><path d="M86.281,13.482c-0.249,0.846 -1.076,1.397 -1.952,1.303c-0.018,0 -0.036,0 -0.054,0c-1.122,0 -2.046,-0.923 -2.046,-2.045c0,-0.093 0.007,-0.187 0.02,-0.28c-0.013,-0.091 -0.019,-0.183 -0.019,-0.275c0,-1.14 0.938,-2.077 2.077,-2.077c0.006,0 0.012,0 0.018,0c1.253,0 2.009,0.856 2.009,2.27l0,0.31l-3.179,0l0,0.05c-0.003,0.033 -0.004,0.067 -0.004,0.101c0,0.652 0.536,1.189 1.189,1.189c0.004,0 0.009,0 0.014,0c0.434,0.052 0.858,-0.165 1.07,-0.546l0.857,0Zm-3.126,-1.451l2.273,0c0.002,-0.027 0.003,-0.054 0.003,-0.081c0,-0.596 -0.49,-1.086 -1.086,-1.086c-0.008,0 -0.016,0 -0.024,0c-0.005,0 -0.011,0 -0.016,0c-0.631,0 -1.15,0.519 -1.15,1.151c0,0.005 0,0.01 0,0.016l0,0Z" style="fill:#fff;fill-rule:nonzero;"/><path d="M90.048,10.195l2.031,0c0.88,0 1.397,0.446 1.397,1.145c0.003,0.455 -0.316,0.854 -0.761,0.951l0,0.07c0.543,0.035 0.97,0.494 0.963,1.038c0,0.786 -0.591,1.299 -1.579,1.299l-2.051,0l0,-4.503Zm0.881,0.682l0,1.166l0.881,0c0.537,0 0.794,-0.207 0.794,-0.587c0,-0.352 -0.224,-0.579 -0.695,-0.579l-0.98,0Zm0,1.819l0,1.32l1.054,0c0.525,0 0.807,-0.232 0.807,-0.658c0,-0.451 -0.319,-0.662 -0.918,-0.662l-0.943,0Z" style="fill:#fff;fill-rule:nonzero;"/></g></g></svg>