<svg version="1" xmlns="http://www.w3.org/2000/svg" width="2048" height="2048" viewBox="0 0 1536.000000 1536.000000"><path d="M742.6 255.1c.3.5-1.9.9-4.8 1-2.9 0-7.3.2-9.8.4-2.5.2-8.1.7-12.4 1-4.4.3-8.2.8-8.5.9-.3.2-3.7.7-7.4 1.1-3.7.3-7.6.8-8.5.9-.9.2-4.8.9-8.7 1.5-19.4 3.4-34.8 6.8-52.5 11.7-10.7 3-20.4 5.8-21.5 6.3-1.1.5-7.4 2.8-14 5.1-18.8 6.6-29 11-51.5 21.9-16.5 8.1-25.3 12.8-39.5 21.4-9.6 5.8-35.2 22.8-39.1 26-1 .9-5.7 4.5-10.4 8.2-10.3 8-10.2 7.9-22 17.9-8.9 7.6-38.2 36.2-46.1 45.1-51.6 58.2-89.4 125.8-110.5 198-2 6.6-3.7 12.7-3.9 13.5-.2.8-1.3 5.5-2.5 10.5-1.2 4.9-2.4 10.1-2.6 11.5-.3 1.4-.7 3.3-1 4.3-.3 1-.7 3.1-.9 4.8-.3 1.7-.6 3.8-.9 4.8-.3.9-.8 3.6-1.1 6.1-.3 2.5-.8 5.2-1 6-.6 2-1.2 6.4-2 13-.3 3-.8 6.6-1 8-.9 6.1-2.3 22.5-2.6 30.7-.1 2.9-.5 5.1-.9 4.8-.4-.2-.7.2-.7 1s.4 1.2.9.9c.4-.3.8 0 .8.5 0 .6-.4 1.1-.8 1.1s-.8.9-.9 2c-.1 1.3.2 1.8 1 1.3.9-.5.9-.3 0 .8-1 1.2-1 1.8 0 2.9.9 1 .9 1.1 0 .6-.9-.5-1.2 3.2-1.1 16.1 0 9.2.3 17.2.6 17.7.7 1.2.9 4 1.7 19.1.3 6.6.7 12.7 1 13.5.2.8.6 4.4 1 8 .3 3.6.7 7.5.9 8.5.2 1.1.9 5.6 1.6 10 2.5 17.1 8.1 43.2 12.6 58.5 1.4 4.7 2.7 9.4 2.9 10.4 1.9 8.7 15.3 44.2 24.3 64.2 5.6 12.4 19.6 39.8 21.2 41.4.3.3 1.6 2.5 2.9 5 3.6 6.6 20.3 32.4 21.3 32.8.4.2.8.8.8 1.3 0 .6.5 1.5 1 2.2.6.7 4.9 6.4 9.6 12.7 21.1 28.2 47.7 56.8 73.4 78.9 12.8 11.1 13.2 11.4 17.5 14.6 2.2 1.7 4.2 3.2 4.5 3.5 1 1.1 9.1 7.2 15.2 11.5 33.4 23.5 66.8 42.3 100.7 56.5 13.8 5.8 32.5 12.9 35.6 13.6 1.1.2 3.1.8 4.5 1.3 7.4 2.8 30.9 9.4 45.5 12.6 7.8 1.8 24.9 5 32 6.1 1.7.3 5.5.9 8.5 1.4 3 .6 8.2 1.2 11.5 1.5 3.3.2 7.6.7 9.5.9 17.7 2.2 69.6 2.9 90 1.2 5.8-.5 12.1-1 14-1.1 1.9-.2 5.4-.6 7.8-.9 2.3-.3 5.9-.8 8-1.1 2.1-.3 4.7-.7 5.7-.9 1.1-.2 4.3-.7 7-1 7.5-1 37.8-7.3 48-10 9.8-2.6 29.1-8.3 31.5-9.3.8-.3 1.7-.7 2-.8 4.1-1 21.5-7.4 27.7-10.1 1.7-.8 3.4-1.4 3.7-1.4.3 0 3.3-1.3 6.6-2.9 3.3-1.6 6-2.7 6-2.5 0 .3 1.2-.2 2.8-1 1.5-.8 9-4.6 16.7-8.4 7.7-3.7 16.7-8.3 20-10.2 3.3-1.8 7.6-4.2 9.5-5.3 11.8-6.6 39.1-24.6 46.9-30.8l3.4-2.7 79.1 79.4c78.3 78.6 85.4 85.3 96.1 89.9 4.8 2 15.3 5.5 16.3 5.4.4-.1.9 0 1.2.1 2.2.8 5.7 1.3 12.9 1.7 6.8.4 8.2.2 7.5-.9-.5-.9-.2-.9 1.1.2 1 .8 1.6 1 1.2.4-.4-.7.4-1.1 2.2-1.2 7.1-.2 21.5-6 31.1-12.5 5.8-4 13.7-11.9 17.8-18 3.5-5 9.6-17.6 10.8-22.2 1-4.1 1.6-7.3 1.6-8.8-.1-.9.2-1.7.6-1.7.4 0 .8-3.3.9-7.3.4-17.8-7.8-39.4-19.6-51.8-.9-.9-36.3-36.5-78.8-79.2l-77.2-77.5 7.6-10.8c22.8-32.7 41.9-67.1 55-99.4 1.8-4.7 3.8-9.4 4.3-10.5.4-1.1 1.8-4.7 3-8s2.7-7.4 3.3-9c.7-1.7 1.2-3.3 1.3-3.8.1-.4.3-.9.4-1.2.1-.3.3-.8.5-1.3.1-.4.4-1.4.8-2.2 2.2-5.7 12-41.4 13.3-48.5.3-1.7 1-5 1.5-7.5 1.2-5.1 2.7-13.6 3.5-19.5.3-2.2.7-4.6 1-5.3.2-.8.7-3.7 1-6.5.3-2.9.8-6.3 1-7.7.2-1.4.7-5.2 1-8.5.3-3.3.7-7.1.9-8.4 2.5-14.7 2.5-71 0-95.1-.3-2.5-.7-7.2-1-10.5-.2-3.3-.6-6.9-.9-8-.2-1.1-.7-4.3-1-7-5.5-41.9-21.2-96.8-38.2-133.3-1.9-4-3.4-7.5-3.4-7.8 0-1.3-14.5-29.3-21.3-41-12.2-21.3-33-51.7-45.4-66.4-5.8-7-15.1-17.9-17.8-21-13-15.1-48.1-47.8-65.5-61-2.5-1.9-4.7-3.7-5-4-.3-.3-2.1-1.7-4-3s-3.7-2.7-4-3.1c-.6-.7-2-1.7-20.6-14-31.9-21.1-66.1-38.8-98.4-50.9-4.7-1.7-9.5-3.5-10.7-4-4.8-2-31-10.3-36.3-11.6-.8-.2-4.9-1.2-9-2.4-8.3-2.2-43.6-9.4-51.5-10.5-11.3-1.5-15.6-2-25-3-6-.6-18.8-1.6-23.2-1.9-1.7 0-3.5-.4-3.9-.8-.4-.4-1.3-.3-2 .3-.8.7-1.4.7-1.9-.1-.3-.5-1.1-1-1.6-1-.6 0-.7.5-.3 1.1.4.8.1.8-1.2.1-2.4-1.2-31.3-1.2-33.8 0-1.3.7-1.6.7-1.2-.1.4-.6.3-1.1-.3-1.1-.5 0-1.3.5-1.6 1-.4.6-1.2.7-1.8.3-1.8-1.1-3.8-1.2-3.1-.2zm48.9 148.3c12.6 1 19.8 1.7 22.5 2.2 1.4.3 4.2.7 6.4.9 3.4.4 10.6 1.6 17.6 3l10 2c.3.1 1.9.5 3.5.9 12.4 3.1 26.2 7 27 7.6.6.4 2.6 1.1 4.5 1.5 9.7 2.1 42.9 16.8 62.5 27.7 10.8 6.1 36.8 23.1 43.4 28.5 27 22.1 39.8 34.4 59.1 56.9 19.8 22.9 42.2 60 55.2 90.9 7.4 17.5 14.8 39.4 17.4 51 .1.5 1.1 5 2.3 9.8 2.3 9.7 2.4 10 4.5 23.7 1.6 9.6 2.1 13.8 3.5 28.5.8 7.9.6 55.2-.2 61-.3 1.6-.8 6.1-1.2 10-.4 3.8-.9 7.9-1.1 9-.3 1.1-.6 3.6-.9 5.5-.3 1.9-1.4 8-2.5 13.5-2.2 10.7-2.3 11-3.8 17-.6 2.2-1.3 5.1-1.6 6.5-1.2 6.2-9.7 31.7-14.1 42-5 12-6.6 15.5-12.6 27.5-5.6 11.1-16.1 29.4-19.5 34-1.4 1.9-4.6-1.1-66.4-63.1l-64.9-65.1-52.1 51.8c-34.8 34.7-51.9 52.3-51.4 53.1.4.7 29.4 30 64.3 65.1 35 35.1 63.7 64.2 63.9 64.6.7 2.1-31.4 19.8-56.9 31.4-5.1 2.3-29.8 11.6-32.4 12.1-.5.2-3 .9-5.5 1.6-2.5.7-4.9 1.5-5.5 1.6-.5.1-6.4 1.6-13 3.3-6.6 1.7-13.1 3.2-14.5 3.5-1.4.2-5.2.9-8.5 1.5-9.9 1.7-11.1 1.9-17.1 2.6-3.3.3-7.3.8-8.9 1-12.9 1.7-48.3 2.3-63 1.1-17.8-1.5-26-2.6-42.5-5.7-38.4-7.2-79.2-22.3-113.3-42-8.6-5-34.4-22-37.2-24.6-1.1-1-4.5-3.6-7.5-5.9-15.7-11.7-38.7-34.3-54.4-53.4-12-14.6-10.5-12.6-21.8-29-12.2-17.8-26.4-44-34.1-63-5-12.5-5-12.4-5.2-13.3-.2-.4-.4-.9-.5-1.2-.1-.3-.3-.8-.5-1.3-.1-.4-.4-1.4-.8-2.2-6.3-15.5-16.2-56.9-18.1-76-.2-2.5-.8-7.7-1.1-11.5-.4-3.9-.9-8.6-1.1-10.5-.5-5.3-.5-46.1 0-49 .3-1.4.8-5.7 1.1-9.5.3-3.9.7-8.4.9-10 1-8.5 1.8-14.2 2.2-15.6.3-1 .7-3 .9-4.5 2.5-17.2 12.4-51.4 20.2-70.4 10.9-26.4 22.6-48.3 37.1-69.5 6.7-9.6 16.6-23.1 18.2-24.5.3-.3 1.6-1.9 2.9-3.5 7.9-10.3 26.8-29.6 43.3-44 24.1-21.2 57.4-42.3 88.3-56 3.3-1.4 6.9-3 8-3.5 14.3-6.5 45.6-16.5 61-19.6 1.1-.2 2.9-.6 4-.8 6.1-1.3 13.4-2.7 16.5-3.2 1.9-.3 4.6-.7 6-.9 1.4-.2 5.2-.7 8.5-1 3.3-.4 7.1-.8 8.4-1 1.4-.3 6.8-.7 12-1.1 5.3-.3 9.7-.7 9.8-.8.4-.3 31.8.3 38.8.8z"/><path d="M805.2 804l-52.3 52.1 8.9 9.2c5 5.1 13.1 13.5 18.1 18.7 17.4 18.2 22 22.8 23 23.5.6.3 24.5-22.8 53.2-51.3l52.2-51.9-12.4-12.8c-6.8-7.1-18.2-18.9-25.4-26.2l-13-13.4-52.3 52.1z"/></svg>