<?xml version="1.0" encoding="utf-8"?>
<!-- Generator: Adobe Illustrator 19.0.0, SVG Export Plug-In . SVG Version: 6.00 Build 0)  -->
<svg version="1.1" id="Layer_1" xmlns="http://www.w3.org/2000/svg" xmlns:xlink="http://www.w3.org/1999/xlink" x="0px" y="0px"
	 viewBox="2072 -408 6144 2016" enable-background="new 2072 -408 6144 2016" xml:space="preserve">
<path d="M8212.6,1329.2c0,149.8-121.5,271.3-271.3,271.3H2346.2c-149.8,0-271.3-121.5-271.3-271.3V-135.9
	c0-149.8,121.5-271.3,271.3-271.3h5595.2c149.8,0,271.3,121.5,271.3,271.3L8212.6,1329.2L8212.6,1329.2z"/>
<g id="PLAY_2_">
	<g>
		<defs>
			<path id="SVGID_1_" d="M3405,476.6l-276.8-159.8c0,0-504.2-291.1-533.8-308.2c-29.6-17.1-59.2-6.7-59.2,29
				c0,59.6,0,621.6,0,621.6s0,607.4,0,634.2c0,26.8,21.1,38.4,46.9,23.5c25.7-14.9,546.1-315.3,546.1-315.3L3405,841.8
				c0,0,234.8-135.6,266-153.6c31.2-18,28.2-42.8,1.9-56.9C3646.5,617,3405,476.6,3405,476.6z"/>
		</defs>
		<clipPath id="SVGID_2_">
			<use xlink:href="#SVGID_1_"  overflow="visible"/>
		</clipPath>
		
			<linearGradient id="SVGID_3_" gradientUnits="userSpaceOnUse" x1="4038.2654" y1="1201.7891" x2="4038.2654" y2="1088.486" gradientTransform="matrix(12 0 0 -12 -45581.1406 14400.8145)">
			<stop  offset="0" style="stop-color:#257CB0"/>
			<stop  offset="0.2863" style="stop-color:#4A93B5"/>
			<stop  offset="0.767" style="stop-color:#78BCBB"/>
			<stop  offset="1" style="stop-color:#89CFBD"/>
		</linearGradient>
		<polygon clip-path="url(#SVGID_2_)" fill="url(#SVGID_3_)" points="2535.2,-20.7 2535.2,659.2 2535.2,1339 3220.8,659.2 		"/>
	</g>
	<g>
		<defs>
			<path id="SVGID_4_" d="M3405,476.6l-276.8-159.8c0,0-504.2-291.1-533.8-308.2c-29.6-17.1-59.2-6.7-59.2,29
				c0,59.6,0,621.6,0,621.6s0,607.4,0,634.2c0,26.8,21.1,38.4,46.9,23.5c25.7-14.9,546.1-315.3,546.1-315.3L3405,841.8
				c0,0,234.8-135.6,266-153.6c31.2-18,28.2-42.8,1.9-56.9C3646.5,617,3405,476.6,3405,476.6z"/>
		</defs>
		<clipPath id="SVGID_5_">
			<use xlink:href="#SVGID_4_"  overflow="visible"/>
		</clipPath>
		
			<linearGradient id="SVGID_6_" gradientUnits="userSpaceOnUse" x1="4009.6982" y1="1173.6689" x2="4082.1772" y2="1173.6689" gradientTransform="matrix(12 0 0 -12 -45581.1406 14400.8145)">
			<stop  offset="0" style="stop-color:#52C1AD"/>
			<stop  offset="1" style="stop-color:#DEE89A"/>
		</linearGradient>
		<polygon clip-path="url(#SVGID_5_)" fill="url(#SVGID_6_)" points="3405,476.6 3128.2,316.8 2535.2,-25.6 2535.2,-20.7 
			3220.8,659.2 		"/>
	</g>
	<g>
		<defs>
			<path id="SVGID_7_" d="M3405,476.6l-276.8-159.8c0,0-504.2-291.1-533.8-308.2c-29.6-17.1-59.2-6.7-59.2,29
				c0,59.6,0,621.6,0,621.6s0,607.4,0,634.2c0,26.8,21.1,38.4,46.9,23.5c25.7-14.9,546.1-315.3,546.1-315.3L3405,841.8
				c0,0,234.8-135.6,266-153.6c31.2-18,28.2-42.8,1.9-56.9C3646.5,617,3405,476.6,3405,476.6z"/>
		</defs>
		<clipPath id="SVGID_8_">
			<use xlink:href="#SVGID_7_"  overflow="visible"/>
		</clipPath>
		
			<linearGradient id="SVGID_9_" gradientUnits="userSpaceOnUse" x1="4045.9373" y1="1145.137" x2="4045.9373" y2="1088.074" gradientTransform="matrix(12 0 0 -12 -45581.1406 14400.8145)">
			<stop  offset="0" style="stop-color:#EC413D"/>
			<stop  offset="0.1668" style="stop-color:#DA4452"/>
			<stop  offset="0.5748" style="stop-color:#B0487A"/>
			<stop  offset="0.8619" style="stop-color:#954A92"/>
			<stop  offset="1" style="stop-color:#8A4A9D"/>
		</linearGradient>
		<polygon clip-path="url(#SVGID_8_)" fill="url(#SVGID_9_)" points="2535.2,1339 2535.2,1343.9 3128.2,1001.5 3405,841.8 
			3220.8,659.2 		"/>
	</g>
	<g>
		<defs>
			<path id="SVGID_10_" d="M3405,476.6l-276.8-159.8c0,0-504.2-291.1-533.8-308.2c-29.6-17.1-59.2-6.7-59.2,29
				c0,59.6,0,621.6,0,621.6s0,607.4,0,634.2c0,26.8,21.1,38.4,46.9,23.5c25.7-14.9,546.1-315.3,546.1-315.3L3405,841.8
				c0,0,234.8-135.6,266-153.6c31.2-18,28.2-42.8,1.9-56.9C3646.5,617,3405,476.6,3405,476.6z"/>
		</defs>
		<clipPath id="SVGID_11_">
			<use xlink:href="#SVGID_10_"  overflow="visible"/>
		</clipPath>
		
			<linearGradient id="SVGID_12_" gradientUnits="userSpaceOnUse" x1="4087.6829" y1="1160.354" x2="4087.6829" y2="1129.922" gradientTransform="matrix(12 0 0 -12 -45581.1406 14400.8145)">
			<stop  offset="0" style="stop-color:#F58879"/>
			<stop  offset="0.1194" style="stop-color:#F69079"/>
			<stop  offset="0.7128" style="stop-color:#FCB877"/>
			<stop  offset="1" style="stop-color:#FEC874"/>
		</linearGradient>
		<polygon clip-path="url(#SVGID_11_)" fill="url(#SVGID_12_)" points="3405,476.6 3220.8,659.2 3405,841.8 3721.3,659.2 		"/>
	</g>
</g>
<path fill="#F9F9F9" d="M6851.6,924.9c-25.8,0-49.2-4.8-70.5-14.2c-21.3-9.5-39.2-24.1-53.6-43.8h-4.3c2.9,23.1,4.3,45,4.3,65.7
	v162.7h-59.9V522.3h48.7l8.3,54.1h2.9c15.4-21.7,33.3-37.3,53.8-46.9c20.4-9.6,43.9-14.4,70.3-14.4c52.4,0,92.9,17.9,121.4,53.8
	c28.5,35.8,42.8,86.1,42.8,150.8c0,64.9-14.5,115.4-43.5,151.4C6943.3,907,6903,924.9,6851.6,924.9z M6842.9,566
	c-40.4,0-69.6,11.2-87.7,33.6c-18,22.4-27.3,58-27.8,106.8v13.3c0,55.6,9.3,95.3,27.8,119.3c18.5,23.9,48.2,35.9,89.1,35.9
	c34.2,0,60.9-13.8,80.3-41.5c19.3-27.6,29-65.8,29-114.4c0-49.3-9.7-87.1-29-113.5C6905.3,579.1,6878,566,6842.9,566z"/>
<path fill="#F9F9F9" d="M7154.4,917.7h-59.9V356.4h59.9V917.7z"/>
<path fill="#F9F9F9" d="M7498.7,917.7l-11.9-56.3h-2.9c-19.7,24.8-39.4,41.6-59,50.3c-19.6,8.8-44.1,13.2-73.4,13.2
	c-39.2,0-69.9-10.1-92.2-30.3s-33.4-48.9-33.4-86.2c0-79.8,63.9-121.7,191.6-125.6l67.1-2.2v-24.5c0-31-6.7-54-20-68.7
	c-13.3-14.8-34.7-22.2-64-22.2c-33,0-70.2,10.1-111.8,30.3l-18.4-45.8c19.5-10.6,40.8-18.9,64.1-24.9c23.2-6,46.5-9,69.8-9
	c47.1,0,82.1,10.5,104.8,31.4c22.7,20.9,34.1,54.5,34.1,100.7v269.8L7498.7,917.7L7498.7,917.7z M7363.4,875.5
	c37.3,0,66.5-10.2,87.8-30.7c21.3-20.4,31.9-49.1,31.9-85.9v-35.7l-59.9,2.5c-47.6,1.7-81.9,9.1-103,22.2
	c-21,13.1-31.6,33.5-31.6,61.2c0,21.6,6.5,38.1,19.7,49.4C7321.5,869.9,7339.8,875.5,7363.4,875.5z"/>
<path fill="#F9F9F9" d="M7577.8,522.3h64.2l86.6,225.5c19,51.5,30.8,88.6,35.4,111.5h2.9c3.1-12.3,9.7-33.3,19.7-63
	c10-29.7,42.6-121,97.9-274h64.2l-169.9,450.3c-16.8,44.5-36.5,76.1-59,94.7c-22.5,18.6-50.1,27.9-82.8,27.9
	c-18.3,0-36.3-2-54.1-6.1v-48c13.2,2.9,28,4.3,44.4,4.3c41.1,0,70.5-23.1,88-69.3l22-56.3L7577.8,522.3z"/>
<path fill="#F9F9F9" d="M5742.2,559.1c19,15.7,58.7,48.8,58.7,111.7c0,61.2-34.7,90.2-69.5,117.4c-10.8,10.7-23.2,22.4-23.2,40.6
	c0,18.2,12.4,28.1,21.5,35.5l29.8,23.1c36.4,30.6,69.4,58.8,69.4,115.8c0,77.7-75.3,156.3-217.5,156.3
	c-119.9,0-177.8-57-177.8-118.3c0-29.8,14.8-71.9,63.7-100.9c51.2-31.4,120.8-35.5,158-38.1c-11.6-14.9-24.8-30.6-24.8-56.2
	c0-14,4.2-22.3,8.3-32.3c-9.1,0.8-18.2,1.7-26.5,1.7c-87.6,0-137.3-65.3-137.3-129.8c0-38.1,17.4-80.3,52.9-110.8
	c47.2-38.9,103.4-45.5,148.1-45.5h170.3l-52.9,29.8L5742.2,559.1L5742.2,559.1z M5683.4,926.3c-6.6-0.9-10.8-0.9-19-0.9
	c-7.4,0-52.2,1.7-86.9,13.3c-18.2,6.6-71.1,26.4-71.1,85.2c0,58.7,57.1,100.9,145.6,100.9c79.3,0,121.6-38.1,121.6-89.4
	C5773.6,993.2,5746.3,971,5683.4,926.3z M5707.4,769.1c19-19,20.6-45.5,20.6-60.4c0-59.5-35.5-152.2-104.2-152.2
	c-21.5,0-44.7,10.7-57.9,27.3c-14,17.4-18.2,39.7-18.2,61.2c0,55.4,32.3,147.2,103.4,147.2C5671.9,792.3,5694.1,782.4,5707.4,769.1z
	"/>
<path fill="#F9F9F9" d="M5221.5,913.1c-131.3,0-201.5-102.4-201.5-194.9c0-108.2,88.3-200.6,213.9-200.6
	c121.3,0,197.3,94.9,197.3,194.9C5431.2,809.8,5356.1,913.1,5221.5,913.1z M5324.7,846.2c19.8-26.4,24.8-59.5,24.8-91.7
	c0-72.7-34.7-211.4-137.1-211.4c-27.2,0-54.5,10.8-74.3,28.1c-32.2,28.9-38,65.2-38,100.8c0,81.7,40.5,216.2,140.4,216.2
	C5272.7,888.2,5305.8,872.6,5324.7,846.2z"/>
<path fill="#F9F9F9" d="M4774,913.1c-131.3,0-201.5-102.4-201.5-194.9c0-108.2,88.4-200.6,213.9-200.6
	c121.4,0,197.3,94.9,197.3,194.9C4983.7,809.8,4908.6,913.1,4774,913.1z M4877.2,846.2c19.8-26.4,24.8-59.5,24.8-91.7
	c0-72.7-34.7-211.4-137.1-211.4c-27.2,0-54.5,10.8-74.3,28.1c-32.2,28.9-38,65.2-38,100.8c0,81.7,40.4,216.2,140.4,216.2
	C4825.2,888.2,4858.2,872.6,4877.2,846.2z"/>
<path fill="#F9F9F9" d="M4509.4,900.1l-118.7,27.4c-48.2,7.5-91.3,14.1-137,14.1c-229.2,0-316.3-168.5-316.3-300.5
	c0-161,123.7-310.4,335.4-310.4c44.8,0,88,6.6,127,17.4c62.3,17.4,91.3,39,109.6,51.5l-68.9,65.6l-29,6.6l20.7-33.2
	c-28.2-27.4-79.7-78-177.6-78c-131.2,0-230,99.7-230,244.9c0,156,112.9,303,293.9,303c53.2,0,80.5-10.8,105.4-20.8V754l-125.3,6.6
	l66.4-35.7h176l-21.6,20.7c-5.9,5-6.7,6.7-8.3,13.3c-0.9,7.5-1.6,31.6-1.6,39.9L4509.4,900.1L4509.4,900.1z"/>
<path fill="#F9F9F9" d="M6004.5,876.2c-27.4-2.5-33.1-7.5-33.1-39.9v-9.1V366.5c0.2-1.8,0.3-3.6,0.4-5.4c3.3-29,11.6-34,37.4-49
	h-118.8l-62.3,29.9h63.5v0.4l0-0.3v485.1v27.4c0,16.6-3.3,19.1-22.4,44h147l30.7-18.2C6032.8,878.7,6018.7,877.9,6004.5,876.2z"/>
<path fill="#F9F9F9" d="M6342.3,883.8c-9,5-18.1,10.8-27.1,14.8c-27.3,12.4-55.3,15.7-80.1,15.7c-26.3,0-67.6-1.7-109.7-32.2
	c-58.5-41.3-84-112.2-84-174c0-127.8,103.9-190.4,188.8-190.4c29.7,0,60.2,7.4,85,23.1c41.2,27.2,51.9,62.6,57.6,81.6l-193.7,78.3
	l-63.5,4.9c20.6,104.7,91.5,165.7,169.8,165.7c42,0,72.6-14.8,100.6-28.8L6342.3,883.8z M6264.9,638.1c15.6-5.7,23.9-10.7,23.9-22.2
	c0-33-37.1-70.9-81.6-70.9c-33,0-94.8,25.6-94.8,114.6c0,14,1.7,28.8,2.5,43.7L6264.9,638.1z"/>
<path fill="#F9F9F9" d="M6421.9,523.4v54.4h-6.6v-54.4h-18v-5.6h42.6v5.6H6421.9z"/>
<path fill="#F9F9F9" d="M6496.1,577.8v-54.9h-0.3l-16.8,54.9h-5.2l-16.9-54.9h-0.2v54.9h-6v-60h10.3l15.3,48.5h0.2l15.1-48.5h10.4
	v60H6496.1z"/>
<g>
	<path fill="#FFFFFF" d="M4096.9,48.2h-87.3L3993,98h-53l90-241.7h46.2L4166.6,98h-53L4096.9,48.2z M4023,7.9h60.4l-30.4-90.5
		L4023,7.9z"/>
	<path fill="#FFFFFF" d="M4385.8,98H4336l-97-159V98h-49.8v-241.7h49.8l97.1,159.4v-159.4h49.6V98z"/>
	<path fill="#FFFFFF" d="M4429.3,98v-241.7h74.4c16.3,0,31.2,2.8,44.7,8.4c13.6,5.6,25.2,13.4,34.9,23.6
		c9.7,10.1,17.2,22.3,22.7,36.4c5.4,14.2,8.1,29.9,8.1,47.1v11c0,17.3-2.7,33-8.1,47.1c-5.4,14.1-12.9,26.2-22.7,36.4
		s-21.5,18-35.1,23.5c-13.6,5.5-28.6,8.3-45,8.3H4429.3z M4479.1-103.3V58h24.1c19.7,0,34.7-6.5,45-19.5
		c10.3-13,15.4-31.6,15.4-55.7v-11.3c0-24.6-5.1-43.2-15.3-55.9c-10.2-12.7-25.1-19-44.7-19H4479.1z"/>
	<path fill="#FFFFFF" d="M4739.7,9.6H4700V98h-49.8v-241.7h89.8c13.9,0,26.5,1.6,37.5,4.7c11.1,3.2,20.4,7.8,28.1,13.9
		s13.5,13.8,17.6,22.8c4.1,9.1,6.1,19.6,6.1,31.5c0,8.9-1,16.8-3,23.8c-2,7-4.9,13.3-8.6,18.8c-3.8,5.5-8.3,10.3-13.6,14.4
		c-5.3,4.1-11.3,7.6-17.9,10.6l52.3,98.8V98H4785L4739.7,9.6z M4700-30.8h40.2c6.5,0,12.3-0.9,17.2-2.6c4.9-1.7,9-4.2,12.3-7.3
		c3.3-3.2,5.7-6.9,7.4-11.3c1.7-4.4,2.5-9.3,2.5-14.7c0-11.4-3.2-20.4-9.7-26.9c-6.5-6.5-16.4-9.8-29.8-9.8h-40V-30.8z"/>
	<path fill="#FFFFFF" d="M5065.8-17.3c0,18.5-2.5,35.1-7.5,49.7c-5,14.7-12,27.1-21,37.3c-9,10.2-19.8,18-32.5,23.5
		s-26.5,8.2-41.7,8.2c-15.2,0-29.1-2.7-41.7-8.2s-23.5-13.3-32.6-23.5c-9.1-10.2-16.2-22.6-21.3-37.3c-5.1-14.7-7.6-31.2-7.6-49.7
		V-28c0-18.4,2.5-34.9,7.6-49.6c5-14.7,12.1-27.2,21.2-37.5c9.1-10.3,19.9-18.2,32.5-23.7s26.5-8.2,41.7-8.2
		c15.2,0,29.1,2.7,41.7,8.2s23.5,13.4,32.5,23.7c9.1,10.3,16.1,22.8,21.2,37.5c5,14.7,7.6,31.3,7.6,49.6V-17.3z M5015.3-28.3
		c0-25.3-4.5-44.6-13.6-57.8c-9.1-13.2-22-19.8-38.8-19.8c-16.8,0-29.8,6.6-38.8,19.8c-9.1,13.2-13.6,32.4-13.6,57.8v11
		c0,12.6,1.2,23.8,3.6,33.5c2.4,9.7,5.8,17.8,10.3,24.4c4.5,6.6,10,11.6,16.5,14.9c6.5,3.4,14,5.1,22.4,5.1
		c16.8,0,29.7-6.6,38.7-19.9s13.4-32.6,13.4-57.9V-28.3z"/>
	<path fill="#FFFFFF" d="M5154.9,98h-49.8v-241.7h49.8V98z"/>
	<path fill="#FFFFFF" d="M5201.1,98v-241.7h74.4c16.3,0,31.2,2.8,44.7,8.4c13.6,5.6,25.2,13.4,34.9,23.6
		c9.7,10.1,17.2,22.3,22.7,36.4c5.4,14.2,8.1,29.9,8.1,47.1v11c0,17.3-2.7,33-8.1,47.1c-5.4,14.1-12.9,26.2-22.7,36.4
		s-21.5,18-35.1,23.5c-13.6,5.5-28.6,8.3-45,8.3H5201.1z M5250.9-103.3V58h24.1c19.7,0,34.7-6.5,45-19.5
		c10.3-13,15.4-31.6,15.4-55.7v-11.3c0-24.6-5.1-43.2-15.3-55.9c-10.2-12.7-25.1-19-44.7-19H5250.9z"/>
	<path fill="#FFFFFF" d="M5643.2,48.2h-87.3L5539.2,98h-53l90-241.7h46.2L5712.9,98h-53L5643.2,48.2z M5569.3,7.9h60.4l-30.4-90.5
		L5569.3,7.9z"/>
	<path fill="#FFFFFF" d="M5785.3,12.9V98h-49.8v-241.7h94.3c14.3,0,27,2,38.3,6c11.2,4,20.8,9.5,28.6,16.7s13.8,15.6,17.8,25.4
		c4.1,9.8,6.1,20.4,6.1,32c0,11.7-2,22.3-6.1,31.7c-4.1,9.4-10,17.4-17.8,24.1S5879.3,3.9,5868,7.5c-11.2,3.6-24,5.4-38.3,5.4
		H5785.3z M5785.3-27.5h44.5c7.1,0,13.2-0.9,18.3-2.7c5.1-1.8,9.4-4.2,12.6-7.4c3.3-3.2,5.7-6.9,7.2-11.4c1.5-4.4,2.3-9.2,2.3-14.4
		c0-5.2-0.8-10.2-2.3-15c-1.6-4.8-4-9.1-7.2-12.8c-3.3-3.7-7.5-6.7-12.6-8.9c-5.1-2.2-11.3-3.3-18.3-3.3h-44.5V-27.5z"/>
	<path fill="#FFFFFF" d="M6004.6,12.9V98h-49.8v-241.7h94.3c14.3,0,27,2,38.3,6c11.2,4,20.8,9.5,28.6,16.7s13.8,15.6,17.8,25.4
		c4.1,9.8,6.1,20.4,6.1,32c0,11.7-2,22.3-6.1,31.7c-4.1,9.4-10,17.4-17.8,24.1s-17.3,11.8-28.6,15.4c-11.2,3.6-24,5.4-38.3,5.4
		H6004.6z M6004.6-27.5h44.5c7.1,0,13.2-0.9,18.3-2.7c5.1-1.8,9.4-4.2,12.6-7.4c3.3-3.2,5.7-6.9,7.2-11.4c1.5-4.4,2.3-9.2,2.3-14.4
		c0-5.2-0.8-10.2-2.3-15c-1.6-4.8-4-9.1-7.2-12.8c-3.3-3.7-7.5-6.7-12.6-8.9c-5.1-2.2-11.3-3.3-18.3-3.3h-44.5V-27.5z"/>
	<path fill="#FFFFFF" d="M6457.3-17.3c0,18.5-2.5,35.1-7.5,49.7c-5,14.7-12,27.1-21,37.3c-9,10.2-19.8,18-32.5,23.5
		s-26.5,8.2-41.7,8.2c-15.2,0-29.1-2.7-41.7-8.2s-23.5-13.3-32.6-23.5c-9.1-10.2-16.2-22.6-21.3-37.3c-5.1-14.7-7.6-31.2-7.6-49.7
		V-28c0-18.4,2.5-34.9,7.6-49.6c5-14.7,12.1-27.2,21.2-37.5c9.1-10.3,19.9-18.2,32.5-23.7s26.5-8.2,41.7-8.2
		c15.2,0,29.1,2.7,41.7,8.2s23.5,13.4,32.5,23.7c9.1,10.3,16.1,22.8,21.2,37.5c5,14.7,7.6,31.3,7.6,49.6V-17.3z M6406.8-28.3
		c0-25.3-4.5-44.6-13.6-57.8c-9.1-13.2-22-19.8-38.8-19.8c-16.8,0-29.8,6.6-38.8,19.8c-9.1,13.2-13.6,32.4-13.6,57.8v11
		c0,12.6,1.2,23.8,3.6,33.5c2.4,9.7,5.8,17.8,10.3,24.4c4.5,6.6,10,11.6,16.5,14.9c6.5,3.4,14,5.1,22.4,5.1
		c16.8,0,29.7-6.6,38.7-19.9s13.4-32.6,13.4-57.9V-28.3z"/>
	<path fill="#FFFFFF" d="M6690.1,98h-49.8l-97-159V98h-49.8v-241.7h49.8l97.1,159.4v-159.4h49.6V98z"/>
</g>
</svg>
