<?xml version="1.0" encoding="UTF-8" standalone="no"?><!DOCTYPE svg PUBLIC "-//W3C//DTD SVG 1.1//EN" "http://www.w3.org/Graphics/SVG/1.1/DTD/svg11.dtd"><svg width="100%" height="100%" viewBox="0 0 135 40" version="1.1" xmlns="http://www.w3.org/2000/svg" xmlns:xlink="http://www.w3.org/1999/xlink" xml:space="preserve" xmlns:serif="http://www.serif.com/" style="fill-rule:evenodd;clip-rule:evenodd;stroke-linejoin:round;stroke-miterlimit:1.41421;"><g><path d="M130,40l-125,0c-2.75,0 -5,-2.25 -5,-5l0,-30c0,-2.75 2.25,-5 5,-5l125,0c2.75,0 5,2.25 5,5l0,30c0,2.75 -2.25,5 -5,5Z" style="fill-rule:nonzero;"/><path d="M130,0.001l-125,0c-2.75,0 -5,2.25 -5,4.999l0,30.001c0,2.749 2.25,5 5,5l125,0c2.75,0 5,-2.251 5,-5l0,-30.001c0,-2.749 -2.25,-4.999 -5,-4.999Zm0,0.799c2.316,0 4.2,1.885 4.2,4.2l0,30.001c0,2.315 -1.884,4.2 -4.2,4.2l-125,0c-2.316,0 -4.2,-1.885 -4.2,-4.2l0,-30.001c0,-2.315 1.884,-4.2 4.2,-4.2l125,0Z" style="fill:#a6a6a6;fill-rule:nonzero;"/><path d="M106.936,30.001l1.866,0l0,-12.502l-1.866,0l0,12.502Zm16.807,-7.999l-2.139,5.42l-0.064,0l-2.22,-5.42l-2.01,0l3.329,7.576l-1.898,4.213l1.947,0l5.13,-11.789l-2.075,0Zm-10.582,6.578c-0.612,0 -1.464,-0.305 -1.464,-1.061c0,-0.965 1.062,-1.335 1.978,-1.335c0.821,0 1.206,0.177 1.705,0.418c-0.145,1.158 -1.142,1.978 -2.219,1.978Zm0.225,-6.851c-1.351,0 -2.75,0.595 -3.329,1.914l1.656,0.692c0.354,-0.692 1.013,-0.917 1.705,-0.917c0.965,0 1.946,0.579 1.962,1.608l0,0.129c-0.338,-0.193 -1.061,-0.483 -1.946,-0.483c-1.785,0 -3.603,0.981 -3.603,2.815c0,1.672 1.464,2.75 3.104,2.75c1.255,0 1.946,-0.563 2.381,-1.222l0.064,0l0,0.965l1.801,0l0,-4.793c0,-2.22 -1.656,-3.458 -3.795,-3.458Zm-11.532,1.795l-2.654,0l0,-4.285l2.654,0c1.395,0 2.187,1.155 2.187,2.143c0,0.969 -0.792,2.142 -2.187,2.142Zm-0.048,-6.025l-4.471,0l0,12.502l1.865,0l0,-4.737l2.606,0c2.068,0 4.101,-1.497 4.101,-3.882c0,-2.386 -2.033,-3.883 -4.101,-3.883Zm-24.382,11.084c-1.288,0 -2.368,-1.08 -2.368,-2.562c0,-1.498 1.08,-2.593 2.368,-2.593c1.273,0 2.272,1.095 2.272,2.593c0,1.482 -0.999,2.562 -2.272,2.562Zm2.143,-5.88l-0.064,0c-0.419,-0.5 -1.225,-0.951 -2.24,-0.951c-2.126,0 -4.076,1.869 -4.076,4.269c0,2.385 1.95,4.237 4.076,4.237c1.015,0 1.821,-0.451 2.24,-0.966l0.064,0l0,0.612c0,1.627 -0.87,2.497 -2.272,2.497c-1.143,0 -1.852,-0.822 -2.142,-1.514l-1.627,0.676c0.467,1.128 1.707,2.514 3.769,2.514c2.192,0 4.044,-1.289 4.044,-4.431l0,-7.636l-1.772,0l0,0.693Zm3.061,7.298l1.869,0l0,-12.502l-1.869,0l0,12.502Zm4.624,-4.125c-0.049,-1.643 1.273,-2.481 2.223,-2.481c0.742,0 1.37,0.371 1.579,0.903l-3.802,1.578Zm5.8,-1.417c-0.354,-0.951 -1.434,-2.707 -3.641,-2.707c-2.191,0 -4.012,1.724 -4.012,4.253c0,2.385 1.804,4.253 4.221,4.253c1.95,0 3.078,-1.192 3.545,-1.885l-1.45,-0.966c-0.483,0.709 -1.144,1.176 -2.095,1.176c-0.951,0 -1.627,-0.435 -2.062,-1.289l5.687,-2.352l-0.193,-0.483Zm-45.309,-1.402l0,1.804l4.318,0c-0.129,1.015 -0.467,1.756 -0.983,2.272c-0.628,0.628 -1.611,1.321 -3.335,1.321c-2.658,0 -4.736,-2.143 -4.736,-4.801c0,-2.658 2.078,-4.801 4.736,-4.801c1.434,0 2.481,0.564 3.255,1.289l1.272,-1.273c-1.079,-1.031 -2.513,-1.82 -4.527,-1.82c-3.641,0 -6.702,2.964 -6.702,6.605c0,3.641 3.061,6.605 6.702,6.605c1.966,0 3.448,-0.644 4.608,-1.852c1.192,-1.193 1.563,-2.868 1.563,-4.221c0,-0.419 -0.033,-0.806 -0.097,-1.128l-6.074,0Zm11.079,5.526c-1.289,0 -2.4,-1.063 -2.4,-2.578c0,-1.53 1.111,-2.577 2.4,-2.577c1.289,0 2.4,1.047 2.4,2.577c0,1.515 -1.111,2.578 -2.4,2.578Zm0,-6.831c-2.352,0 -4.269,1.788 -4.269,4.253c0,2.449 1.917,4.253 4.269,4.253c2.352,0 4.269,-1.804 4.269,-4.253c0,-2.465 -1.917,-4.253 -4.269,-4.253Zm9.313,6.831c-1.288,0 -2.4,-1.063 -2.4,-2.578c0,-1.53 1.112,-2.577 2.4,-2.577c1.289,0 2.401,1.047 2.401,2.577c0,1.515 -1.112,2.578 -2.401,2.578Zm0,-6.831c-2.352,0 -4.269,1.788 -4.269,4.253c0,2.449 1.917,4.253 4.269,4.253c2.353,0 4.27,-1.804 4.27,-4.253c0,-2.465 -1.917,-4.253 -4.27,-4.253Z" style="fill:#fff;fill-rule:nonzero;"/><path d="M10.509,32.39l-0.074,-0.071c-0.291,-0.308 -0.463,-0.786 -0.463,-1.405l0,0.145l0,-22.116c0,-0.001 0,-0.003 0,-0.005l0,0.152c0,-0.67 0.201,-1.176 0.536,-1.478l12.39,12.389l-12.389,12.389Zm-0.537,-23.453c0,-0.055 0.002,-0.109 0.004,-0.161c-0.002,0.052 -0.004,0.106 -0.004,0.161Zm0.005,-0.164c0,0 0,-0.001 0,-0.002c0,0.001 0,0.002 0,0.002Zm0,-0.007l0,-0.001l0,0.001Z" style="fill:url(#_Linear1);"/><path d="M27.027,24.279l0.094,-0.054l4.893,-2.78c0.467,-0.265 0.778,-0.586 0.933,-0.927c-0.155,0.341 -0.466,0.662 -0.933,0.928l-4.893,2.78l-0.094,0.053Zm0.001,-0.147l-4.13,-4.131l4.13,-4.13l4.986,2.833c0.634,0.359 0.989,0.823 1.048,1.297c0,0 0,0.001 0,0.002c-0.059,0.472 -0.414,0.936 -1.048,1.296l-4.986,2.833Z" style="fill:url(#_Linear2);"/><path d="M11.392,32.862c-0.346,0 -0.647,-0.113 -0.883,-0.325l0,-0.001c0.236,0.213 0.538,0.326 0.884,0.326c0.03,0 0.061,-0.001 0.092,-0.003c-0.031,0.002 -0.062,0.003 -0.093,0.003Zm0.001,-0.147c-0.346,0.001 -0.648,-0.112 -0.884,-0.325l12.389,-12.389l4.13,4.131l-14.515,8.248c-0.401,0.228 -0.782,0.335 -1.12,0.335Zm-0.887,-0.181c-0.022,-0.02 -0.044,-0.041 -0.065,-0.063l0.065,0.063Z" style="fill:url(#_Linear3);"/><path d="M22.898,20.001l-12.39,-12.389c0.236,-0.212 0.537,-0.325 0.883,-0.325c0.339,0 0.72,0.108 1.122,0.337l14.515,8.247l-4.13,4.13Zm4.223,-4.223l-14.608,-8.3c-0.402,-0.229 -0.783,-0.337 -1.122,-0.337c-0.001,0 -0.003,0 -0.004,0c0.001,0 0.003,0 0.005,0c0.339,0 0.719,0.108 1.121,0.336l14.608,8.3l0,0.001Z" style="fill:url(#_Linear4);"/><path d="M11.485,32.859c0.314,-0.018 0.662,-0.126 1.028,-0.333l14.514,-8.247l-14.514,8.247c-0.366,0.208 -0.714,0.316 -1.028,0.333Zm-0.976,-0.322l-0.003,-0.003c0.001,0.001 0.002,0.002 0.003,0.003Zm-0.068,-0.066l-0.006,-0.006c0.002,0.002 0.004,0.004 0.006,0.006Z" style="fill-rule:nonzero;"/><path d="M27.027,24.279l0.094,-0.054l-0.094,0.054Z" style="fill:url(#_Linear5);"/><path d="M11.393,32.862c-0.346,0 -0.648,-0.113 -0.884,-0.326l0,0.001c-0.001,-0.001 -0.002,-0.002 -0.003,-0.003l-0.065,-0.063c-0.002,-0.002 -0.004,-0.004 -0.006,-0.006l0.074,-0.075c0.236,0.213 0.538,0.326 0.884,0.325c0.338,0 0.719,-0.107 1.12,-0.335l14.515,-8.248l0.093,0.093l-0.094,0.054l-14.514,8.247c-0.366,0.207 -0.714,0.315 -1.028,0.333c-0.031,0.002 -0.062,0.003 -0.092,0.003Z" style="fill:url(#_Linear6);"/><path d="M10.435,32.465c-0.291,-0.308 -0.463,-0.786 -0.463,-1.405l0,-0.001c0,0.62 0.172,1.098 0.463,1.405l0,0.001Z" style="fill-rule:nonzero;"/><path d="M10.435,32.464c-0.291,-0.307 -0.463,-0.785 -0.463,-1.405l0,-0.145c0,0.619 0.172,1.097 0.463,1.405l0.074,0.071l-0.074,0.074Z" style="fill:url(#_Linear7);"/><path d="M10.435,32.465l0,-0.001l0.074,-0.074l-0.074,0.075Z" style="fill:url(#_Linear8);"/><path d="M32.947,20.518c0.077,-0.168 0.115,-0.342 0.115,-0.515c0,-0.001 0.001,-0.001 0.001,-0.001c0,0.174 -0.039,0.347 -0.116,0.516Z" style="fill-rule:nonzero;"/><path d="M27.121,24.225l-0.093,-0.093l4.986,-2.833c0.634,-0.36 0.989,-0.824 1.048,-1.296c0,0.173 -0.038,0.347 -0.115,0.515c-0.155,0.341 -0.466,0.662 -0.933,0.927l-4.893,2.78Z" style="fill:url(#_Linear9);"/><path d="M33.063,20.001l-0.001,0c0,-0.523 -0.349,-1.046 -1.048,-1.443l-4.893,-2.78l0,-0.001l4.893,2.781c0.699,0.397 1.049,0.92 1.049,1.443Z" style="fill:#404040;fill-rule:nonzero;"/><path d="M33.062,20.001c-0.059,-0.474 -0.414,-0.938 -1.048,-1.297l-4.986,-2.833l0.093,-0.093l4.893,2.78c0.699,0.397 1.048,0.92 1.048,1.443Z" style="fill:url(#_Linear10);"/><path d="M9.972,8.938l0,-0.001l0,0.001Zm0.004,-0.162c0.001,-0.001 0.001,-0.002 0.001,-0.003c0,0.001 0,0.002 -0.001,0.003Zm0.001,-0.005c0,-0.001 0,-0.003 0,-0.005c0,0.002 0,0.004 0,0.005Zm0,-0.006c0.058,-1.027 0.616,-1.62 1.406,-1.624c-0.342,0.002 -0.64,0.114 -0.874,0.325l-0.003,0.003c-0.024,0.022 -0.048,0.045 -0.071,0.069c-0.262,0.278 -0.428,0.694 -0.458,1.227Z" style="fill:#404040;fill-rule:nonzero;"/><path d="M9.972,9.09l0,-0.146c0,-0.002 0,-0.004 0,-0.006l0,-0.001c0,-0.055 0.002,-0.109 0.004,-0.161c0.001,-0.001 0.001,-0.002 0.001,-0.003c0,0 0,-0.001 0,-0.002c0,-0.001 0,-0.003 0,-0.005l0,-0.001c0.03,-0.533 0.196,-0.949 0.458,-1.227l0.073,0.074c-0.335,0.302 -0.536,0.808 -0.536,1.478Zm0.534,-1.621l0.003,-0.003c-0.001,0.001 -0.002,0.002 -0.003,0.003Z" style="fill:url(#_Linear11);"/><path d="M11.383,7.141c0.001,0 0.002,0 0.004,0c-0.002,0 -0.003,0 -0.004,0Z" style="fill:#404040;fill-rule:nonzero;"/><path d="M27.028,15.871l-14.515,-8.247c-0.402,-0.229 -0.783,-0.337 -1.122,-0.337c-0.346,0 -0.647,0.113 -0.883,0.325l-0.073,-0.074c0.023,-0.024 0.047,-0.047 0.071,-0.069c0.001,-0.001 0.002,-0.002 0.003,-0.003c0.234,-0.211 0.532,-0.323 0.874,-0.325l0.008,0c0.339,0 0.72,0.108 1.122,0.337l14.608,8.3l-0.093,0.093Z" style="fill:url(#_Linear12);"/><path d="M42.037,12.263l1.064,0c0.692,0 1.241,-0.198 1.647,-0.595c0.405,-0.397 0.607,-0.953 0.607,-1.668c0,-0.709 -0.202,-1.263 -0.607,-1.663c-0.406,-0.399 -0.955,-0.599 -1.647,-0.599l-1.064,0l0,4.525Zm-0.771,0.737l0,-6l1.835,0c0.922,0 1.659,0.278 2.213,0.834c0.553,0.556 0.829,1.278 0.829,2.166c0,0.889 -0.276,1.611 -0.829,2.166c-0.554,0.557 -1.291,0.834 -2.213,0.834l-1.835,0Z" style="fill:#fff;fill-rule:nonzero;"/><path d="M42.037,12.263l0,0.1l1.064,0c0.711,0.001 1.291,-0.206 1.717,-0.624c0.428,-0.418 0.638,-1.006 0.637,-1.739c0.001,-0.727 -0.21,-1.313 -0.637,-1.734c-0.426,-0.42 -1.006,-0.629 -1.717,-0.628l-1.064,0l-0.1,0l0,4.725l0.1,0l0,-0.1l0.1,0l0,-4.425l0.964,0c0.674,0.001 1.192,0.192 1.576,0.57c0.383,0.379 0.577,0.901 0.578,1.592c-0.001,0.697 -0.195,1.222 -0.577,1.596c-0.385,0.376 -0.903,0.566 -1.577,0.567l-1.064,0l0,0.1l0.1,0l-0.1,0Zm-0.771,0.737l0.1,0l0,-5.9l1.735,0c0.903,0.001 1.608,0.27 2.142,0.805c0.533,0.537 0.799,1.227 0.8,2.095c-0.001,0.868 -0.267,1.559 -0.8,2.096c-0.534,0.535 -1.239,0.804 -2.142,0.804l-1.835,0l0,0.1l0.1,0l-0.1,0l0,0.1l1.835,0c0.941,0.001 1.71,-0.286 2.284,-0.863c0.573,-0.575 0.859,-1.328 0.858,-2.237c0.001,-0.908 -0.285,-1.662 -0.858,-2.236c-0.574,-0.577 -1.343,-0.864 -2.284,-0.864l-1.935,0l0,6.2l0.1,0l0,-0.1Z" style="fill:#fff;fill-rule:nonzero;"/><rect x="47.225" y="7" width="0.771" height="6" style="fill:#fff;"/><path d="M47.225,13l0.1,0l0,-5.9l0.571,0l0,5.8l-0.671,0l0,0.1l0.1,0l-0.1,0l0,0.1l0.871,0l0,-6.2l-0.871,0l-0.1,0l0,6.2l0.1,0l0,-0.1Z" style="fill:#fff;fill-rule:nonzero;"/><path d="M51.062,13.134c-0.435,0 -0.861,-0.142 -1.277,-0.427c-0.417,-0.285 -0.69,-0.684 -0.818,-1.198l0.704,-0.285c0.084,0.33 0.255,0.608 0.515,0.834c0.261,0.226 0.552,0.339 0.876,0.339c0.335,0 0.622,-0.088 0.859,-0.264c0.238,-0.176 0.356,-0.415 0.356,-0.717c0,-0.334 -0.118,-0.593 -0.356,-0.774c-0.237,-0.182 -0.613,-0.351 -1.127,-0.508c-0.531,-0.167 -0.933,-0.384 -1.207,-0.649c-0.273,-0.265 -0.411,-0.605 -0.411,-1.018c0,-0.43 0.171,-0.804 0.512,-1.123c0.341,-0.318 0.785,-0.478 1.332,-0.478c0.509,0 0.922,0.128 1.24,0.382c0.319,0.254 0.526,0.532 0.62,0.834l-0.703,0.292c-0.05,-0.189 -0.175,-0.365 -0.373,-0.527c-0.198,-0.162 -0.454,-0.243 -0.767,-0.243c-0.296,0 -0.549,0.082 -0.758,0.247c-0.21,0.165 -0.315,0.37 -0.315,0.616c0,0.223 0.097,0.412 0.289,0.566c0.194,0.153 0.477,0.292 0.851,0.414c0.296,0.095 0.543,0.187 0.742,0.277c0.198,0.089 0.4,0.208 0.603,0.356c0.204,0.148 0.357,0.333 0.461,0.553c0.103,0.221 0.155,0.476 0.155,0.767c0,0.29 -0.06,0.55 -0.18,0.779c-0.12,0.23 -0.28,0.411 -0.478,0.545c-0.198,0.134 -0.411,0.236 -0.641,0.306c-0.229,0.07 -0.464,0.104 -0.704,0.104Z" style="fill:#fff;fill-rule:nonzero;"/><path d="M51.062,13.134l0,-0.1c-0.413,0 -0.818,-0.134 -1.221,-0.409c-0.397,-0.273 -0.653,-0.647 -0.777,-1.14l-0.097,0.024l0.038,0.092l0.704,-0.284l-0.038,-0.093l-0.096,0.025c0.088,0.348 0.271,0.646 0.545,0.884l0.001,0c0.275,0.24 0.593,0.365 0.941,0.364c0.352,0 0.663,-0.094 0.919,-0.283c0.261,-0.191 0.398,-0.47 0.396,-0.798c0.002,-0.357 -0.132,-0.655 -0.395,-0.854c-0.254,-0.194 -0.638,-0.364 -1.158,-0.523c-0.521,-0.164 -0.909,-0.375 -1.167,-0.626c-0.254,-0.247 -0.38,-0.555 -0.381,-0.946c0.001,-0.403 0.156,-0.746 0.48,-1.05c0.321,-0.299 0.736,-0.45 1.264,-0.451c0.493,0.001 0.88,0.123 1.178,0.36c0.307,0.245 0.5,0.507 0.587,0.785l0.095,-0.029l-0.038,-0.093l-0.703,0.293l0.038,0.092l0.097,-0.025c-0.058,-0.215 -0.197,-0.409 -0.406,-0.58l-0.001,0c-0.218,-0.178 -0.5,-0.265 -0.83,-0.265c-0.314,-0.001 -0.593,0.089 -0.82,0.269l0,-0.001c-0.23,0.179 -0.354,0.42 -0.353,0.695c-0.001,0.253 0.116,0.477 0.327,0.644c0.208,0.164 0.501,0.306 0.882,0.431c0.294,0.095 0.538,0.186 0.732,0.273c0.191,0.086 0.387,0.201 0.585,0.346c0.191,0.139 0.333,0.309 0.429,0.515c0.096,0.205 0.146,0.445 0.146,0.724c0,0.277 -0.056,0.519 -0.168,0.733c-0.114,0.216 -0.262,0.383 -0.446,0.508c-0.19,0.129 -0.394,0.226 -0.614,0.293c-0.22,0.067 -0.444,0.1 -0.675,0.1l0,0.2c0.25,0 0.494,-0.036 0.733,-0.109c0.239,-0.072 0.462,-0.179 0.668,-0.318c0.212,-0.144 0.384,-0.339 0.511,-0.581c0.128,-0.245 0.191,-0.522 0.191,-0.826c0,-0.302 -0.054,-0.573 -0.165,-0.809c-0.11,-0.236 -0.276,-0.435 -0.493,-0.592l0.001,0c-0.208,-0.151 -0.415,-0.274 -0.621,-0.366c-0.204,-0.092 -0.454,-0.185 -0.752,-0.281c-0.367,-0.12 -0.64,-0.255 -0.819,-0.398l0,0.001c-0.174,-0.141 -0.25,-0.294 -0.252,-0.488c0.002,-0.217 0.086,-0.386 0.277,-0.537c0.191,-0.151 0.418,-0.226 0.696,-0.226c0.296,0 0.526,0.075 0.704,0.22c0.187,0.153 0.296,0.312 0.34,0.476l0.029,0.111l0.809,-0.337l0.084,-0.035l-0.027,-0.087c-0.102,-0.326 -0.324,-0.62 -0.653,-0.883c-0.339,-0.27 -0.778,-0.403 -1.303,-0.403c-0.566,-0.001 -1.04,0.168 -1.4,0.505c-0.358,0.333 -0.545,0.738 -0.544,1.196c-0.001,0.435 0.149,0.807 0.442,1.09c0.289,0.28 0.706,0.502 1.246,0.673l0.001,0c0.508,0.154 0.875,0.322 1.096,0.491c0.211,0.164 0.314,0.383 0.316,0.695c-0.002,0.276 -0.101,0.476 -0.315,0.637c-0.219,0.162 -0.482,0.244 -0.8,0.244c-0.301,-0.001 -0.564,-0.103 -0.81,-0.315c-0.246,-0.214 -0.404,-0.472 -0.484,-0.783l-0.028,-0.111l-0.81,0.328l-0.081,0.033l0.021,0.084c0.133,0.535 0.421,0.959 0.858,1.257c0.429,0.294 0.876,0.444 1.334,0.444l0,-0.1Z" style="fill:#fff;fill-rule:nonzero;"/><path d="M54.942,9.832l1.291,0c0.324,0 0.584,-0.108 0.779,-0.326c0.196,-0.218 0.293,-0.458 0.293,-0.72c0,-0.263 -0.097,-0.503 -0.293,-0.721c-0.195,-0.218 -0.455,-0.327 -0.779,-0.327l-1.291,0l0,2.094Zm0,3.168l-0.771,0l0,-6l2.045,0c0.508,0 0.949,0.169 1.32,0.507c0.372,0.338 0.557,0.764 0.557,1.279c0,0.513 -0.185,0.939 -0.557,1.277c-0.371,0.338 -0.812,0.507 -1.32,0.507l-1.274,0l0,2.43Z" style="fill:#fff;fill-rule:nonzero;"/><path d="M54.942,9.832l0,0.1l1.291,0c0.346,0.002 0.64,-0.119 0.854,-0.359c0.209,-0.232 0.319,-0.499 0.318,-0.787c0.001,-0.288 -0.109,-0.556 -0.318,-0.788c-0.214,-0.24 -0.508,-0.362 -0.854,-0.36l-1.291,0l-0.1,0l0,2.294l0.1,0l0,-0.1l0.1,0l0,-1.994l1.191,0c0.302,0.001 0.527,0.097 0.705,0.294c0.181,0.203 0.267,0.416 0.267,0.654c0,0.237 -0.085,0.449 -0.267,0.654c-0.177,0.195 -0.403,0.291 -0.705,0.292l-1.291,0l0,0.1l0.1,0l-0.1,0Zm0,3.168l0,-0.1l-0.671,0l0,-5.8l1.945,0c0.486,0.001 0.898,0.159 1.252,0.481c0.353,0.322 0.524,0.714 0.525,1.205c-0.001,0.489 -0.172,0.881 -0.525,1.203c-0.354,0.322 -0.766,0.48 -1.252,0.481l-1.274,0l-0.1,0l0,2.53l0.1,0l0,-0.1l0,0.1l0.1,0l0,-2.33l1.174,0c0.53,0.001 1,-0.179 1.387,-0.533c0.392,-0.354 0.592,-0.814 0.59,-1.351c0.002,-0.539 -0.198,-0.999 -0.59,-1.353c-0.388,-0.354 -0.857,-0.533 -1.387,-0.533l-2.145,0l0,6.2l0.971,0l0,-0.1l-0.1,0Z" style="fill:#fff;fill-rule:nonzero;"/><path d="M60.141,11.723c0.444,0.449 0.987,0.674 1.63,0.674c0.643,0 1.187,-0.225 1.63,-0.674c0.444,-0.45 0.667,-1.024 0.667,-1.723c0,-0.698 -0.223,-1.272 -0.667,-1.722c-0.443,-0.449 -0.987,-0.674 -1.63,-0.674c-0.643,0 -1.186,0.225 -1.63,0.674c-0.443,0.45 -0.666,1.024 -0.666,1.722c0,0.699 0.223,1.273 0.666,1.723Zm3.83,0.502c-0.59,0.607 -1.323,0.909 -2.2,0.909c-0.877,0 -1.61,-0.302 -2.199,-0.909c-0.59,-0.606 -0.884,-1.348 -0.884,-2.225c0,-0.877 0.294,-1.618 0.884,-2.224c0.589,-0.607 1.322,-0.91 2.199,-0.91c0.872,0 1.604,0.305 2.196,0.914c0.592,0.609 0.888,1.349 0.888,2.22c0,0.877 -0.295,1.619 -0.884,2.225Z" style="fill:#fff;fill-rule:nonzero;"/><path d="M60.141,11.723l-0.071,0.07c0.461,0.468 1.035,0.705 1.701,0.704c0.666,0.001 1.241,-0.236 1.701,-0.704c0.464,-0.468 0.697,-1.073 0.696,-1.793c0.001,-0.719 -0.232,-1.324 -0.696,-1.792c-0.46,-0.468 -1.035,-0.705 -1.701,-0.704c-0.666,-0.001 -1.24,0.236 -1.701,0.704c-0.463,0.468 -0.696,1.073 -0.695,1.792c-0.001,0.72 0.232,1.325 0.695,1.793l0.071,-0.07l0.071,-0.071c-0.424,-0.431 -0.636,-0.974 -0.637,-1.652c0.001,-0.677 0.213,-1.22 0.637,-1.652l0,0.001c0.428,-0.432 0.94,-0.644 1.559,-0.645c0.619,0.001 1.132,0.213 1.559,0.644l0,0.001c0.425,0.431 0.637,0.974 0.638,1.651c-0.001,0.678 -0.213,1.221 -0.638,1.652c-0.427,0.432 -0.94,0.644 -1.559,0.645c-0.619,-0.001 -1.131,-0.213 -1.559,-0.645l-0.071,0.071Zm3.83,0.502l-0.071,-0.07c-0.574,0.588 -1.275,0.878 -2.129,0.879c-0.854,-0.001 -1.555,-0.291 -2.127,-0.879l-0.003,-0.003l0.002,0.003c-0.572,-0.589 -0.854,-1.3 -0.855,-2.155c0.001,-0.854 0.283,-1.565 0.855,-2.154l0.001,0c0.572,-0.588 1.273,-0.879 2.127,-0.88c0.849,0.001 1.548,0.293 2.125,0.884c0.574,0.592 0.858,1.301 0.859,2.15c-0.001,0.855 -0.284,1.566 -0.855,2.155l0.071,0.07l0.072,0.07c0.606,-0.623 0.913,-1.395 0.912,-2.295c0.001,-0.894 -0.307,-1.664 -0.916,-2.29c-0.609,-0.627 -1.373,-0.945 -2.268,-0.944c-0.9,-0.001 -1.665,0.315 -2.271,0.94c-0.607,0.623 -0.913,1.395 -0.912,2.294c-0.001,0.9 0.305,1.672 0.912,2.295l0.003,0.003l-0.003,-0.003c0.606,0.625 1.371,0.94 2.271,0.939c0.9,0.001 1.665,-0.314 2.272,-0.939l-0.072,-0.07Z" style="fill:#fff;fill-rule:nonzero;"/><path d="M65.937,13l0,-6l0.939,0l2.916,4.668l0.033,0l-0.033,-1.156l0,-3.512l0.771,0l0,6l-0.805,0l-3.05,-4.893l-0.034,0l0.034,1.156l0,3.737l-0.771,0Z" style="fill:#fff;fill-rule:nonzero;"/><path d="M65.937,13l0.1,0l0,-5.9l0.783,0l2.916,4.668l0.192,0l-0.036,-1.258l0,-3.41l0.571,0l0,5.8l-0.649,0l-3.051,-4.893l-0.089,0l-0.103,0l0.037,1.258l0,3.635l-0.671,0l0,0.1l0.1,0l-0.1,0l0,0.1l0.871,0l0,-3.838l-0.034,-1.158l-0.1,0.003l0,0.1l0.034,0l0,-0.1l-0.085,0.053l3.08,4.94l0.96,0l0,-6.2l-0.871,0l-0.1,0l0,3.613l0.033,1.158l0.1,-0.003l0,-0.1l-0.033,0l0,0.1l0.084,-0.053l-2.945,-4.715l-0.994,0l-0.1,0l0,6.2l0.1,0l0,-0.1Z" style="fill:#fff;fill-rule:nonzero;"/><rect x="71.937" y="7" width="0.771" height="6" style="fill:#fff;"/><path d="M71.937,13l0.1,0l0,-5.9l0.571,0l0,5.8l-0.671,0l0,0.1l0.1,0l-0.1,0l0,0.1l0.871,0l0,-6.2l-0.871,0l-0.1,0l0,6.2l0.1,0l0,-0.1Z" style="fill:#fff;fill-rule:nonzero;"/><path d="M74.852,12.263l1.551,0c0.296,0 0.536,-0.103 0.721,-0.31c0.184,-0.206 0.276,-0.433 0.276,-0.679c0,-0.246 -0.095,-0.47 -0.285,-0.674c-0.19,-0.204 -0.439,-0.307 -0.746,-0.307l-1.517,0l0,1.97Zm0,-2.69l1.4,0c0.291,0 0.524,-0.096 0.7,-0.289c0.175,-0.193 0.263,-0.404 0.263,-0.633c0,-0.229 -0.085,-0.439 -0.255,-0.628c-0.17,-0.19 -0.395,-0.285 -0.674,-0.285l-1.434,0l0,1.835Zm-0.77,3.427l0,-6l2.17,0c0.469,0 0.875,0.156 1.219,0.465c0.344,0.311 0.516,0.7 0.516,1.169c0,0.285 -0.074,0.537 -0.223,0.755c-0.147,0.218 -0.345,0.382 -0.591,0.494l0,0.033c0.296,0.101 0.539,0.274 0.73,0.52c0.189,0.246 0.285,0.531 0.285,0.855c0,0.492 -0.181,0.899 -0.541,1.223c-0.36,0.324 -0.786,0.486 -1.278,0.486l-2.287,0Z" style="fill:#fff;fill-rule:nonzero;"/><path d="M74.852,12.263l0,0.1l1.551,0c0.319,0.001 0.594,-0.116 0.795,-0.344c0.198,-0.22 0.303,-0.474 0.302,-0.745c0.001,-0.272 -0.108,-0.525 -0.312,-0.743c-0.208,-0.224 -0.49,-0.339 -0.819,-0.338l-1.617,0l0,2.17l0.1,0l0,-0.1l0.1,0l0,-1.87l1.417,0c0.286,0.002 0.501,0.092 0.673,0.275c0.176,0.19 0.257,0.387 0.258,0.606c-0.001,0.221 -0.08,0.42 -0.251,0.612c-0.168,0.186 -0.373,0.276 -0.646,0.277l-1.551,0l0,0.1l0.1,0l-0.1,0Zm0,-2.69l0,0.1l1.4,0c0.312,0.001 0.58,-0.107 0.774,-0.322c0.189,-0.206 0.29,-0.444 0.289,-0.7c0.001,-0.254 -0.096,-0.491 -0.281,-0.695c-0.188,-0.211 -0.447,-0.32 -0.748,-0.318l-1.534,0l0,2.035l0.1,0l0,-0.1l0.1,0l0,-1.735l1.334,0c0.257,0.001 0.447,0.083 0.599,0.252l0.001,0l-0.001,0c0.157,0.175 0.23,0.358 0.23,0.561c0,0.203 -0.075,0.387 -0.237,0.565c-0.158,0.172 -0.357,0.255 -0.626,0.257l-1.4,0l0,0.1l0.1,0l-0.1,0Zm-0.77,3.427l0.1,0l0,-5.9l2.07,0c0.447,0.001 0.825,0.146 1.152,0.44l0,-0.001c0.324,0.295 0.482,0.651 0.483,1.095c0,0.268 -0.069,0.497 -0.205,0.698l-0.001,0.001c-0.137,0.203 -0.318,0.354 -0.549,0.459l-0.059,0.027l0,0.169l0.068,0.023c0.279,0.095 0.503,0.255 0.683,0.486c0.176,0.23 0.264,0.49 0.264,0.794c-0.001,0.467 -0.167,0.841 -0.508,1.149c-0.344,0.308 -0.741,0.46 -1.211,0.46l-2.287,0l0,0.1l0.1,0l-0.1,0l0,0.1l2.287,0c0.514,0.001 0.968,-0.172 1.345,-0.512c0.38,-0.339 0.575,-0.781 0.574,-1.297c0.001,-0.343 -0.103,-0.653 -0.306,-0.916c-0.202,-0.261 -0.463,-0.447 -0.776,-0.553l-0.033,0.094l0.1,0l0,-0.033l-0.1,0l0.042,0.091c0.261,-0.118 0.475,-0.296 0.632,-0.529c0.16,-0.235 0.24,-0.508 0.24,-0.811c0.001,-0.493 -0.185,-0.916 -0.549,-1.243l-0.002,-0.002l0.002,0.002c-0.36,-0.325 -0.795,-0.491 -1.286,-0.491l-2.27,0l0,6.2l0.1,0l0,-0.1Z" style="fill:#fff;fill-rule:nonzero;"/><rect x="79.227" y="7" width="0.771" height="6" style="fill:#fff;"/><path d="M79.227,13l0.1,0l0,-5.9l0.571,0l0,5.8l-0.671,0l0,0.1l0.1,0l-0.1,0l0,0.1l0.871,0l0,-6.2l-0.871,0l-0.1,0l0,6.2l0.1,0l0,-0.1Z" style="fill:#fff;fill-rule:nonzero;"/><path d="M81.373,13l0,-6l0.77,0l0,5.263l2.598,0l0,0.737l-3.368,0Z" style="fill:#fff;fill-rule:nonzero;"/><path d="M81.373,13l0.1,0l0,-5.9l0.57,0l0,5.263l2.598,0l0,0.537l-3.268,0l0,0.1l0.1,0l-0.1,0l0,0.1l3.468,0l0,-0.837l0,-0.1l-2.598,0l0,-5.263l-0.87,0l-0.1,0l0,6.2l0.1,0l0,-0.1Z" style="fill:#fff;fill-rule:nonzero;"/><path d="M89.215,7.738l-2.732,0l0,1.902l2.464,0l0,0.721l-2.464,0l0,1.902l2.732,0l0,0.737l-3.503,0l0,-6l3.503,0l0,0.738Z" style="fill:#fff;fill-rule:nonzero;"/><path d="M89.215,7.738l0,-0.1l-2.832,0l0,2.102l2.464,0l0,0.521l-2.464,0l0,2.102l2.732,0l0,0.537l-3.303,0l0,-5.8l3.303,0l0,0.638l0.1,0l0,-0.1l0,0.1l0.1,0l0,-0.738l0,-0.1l-3.703,0l0,6.2l3.703,0l0,-0.837l0,-0.1l-2.732,0l0,-1.702l2.464,0l0,-0.821l0,-0.1l-2.464,0l0,-1.702l2.732,0l0,-0.1l-0.1,0Z" style="fill:#fff;fill-rule:nonzero;"/><path d="M93.875,13.134c-0.436,0 -0.861,-0.142 -1.277,-0.427c-0.417,-0.285 -0.69,-0.684 -0.818,-1.198l0.704,-0.285c0.084,0.33 0.255,0.608 0.515,0.834c0.261,0.226 0.552,0.339 0.876,0.339c0.335,0 0.622,-0.088 0.859,-0.264c0.238,-0.176 0.356,-0.415 0.356,-0.717c0,-0.334 -0.118,-0.593 -0.356,-0.774c-0.237,-0.182 -0.613,-0.351 -1.127,-0.508c-0.531,-0.167 -0.933,-0.384 -1.207,-0.649c-0.273,-0.265 -0.411,-0.605 -0.411,-1.018c0,-0.43 0.171,-0.804 0.512,-1.123c0.341,-0.318 0.785,-0.478 1.332,-0.478c0.509,0 0.922,0.128 1.24,0.382c0.319,0.254 0.526,0.532 0.62,0.834l-0.703,0.292c-0.051,-0.189 -0.175,-0.365 -0.373,-0.527c-0.198,-0.162 -0.454,-0.243 -0.767,-0.243c-0.296,0 -0.549,0.082 -0.758,0.247c-0.21,0.165 -0.315,0.37 -0.315,0.616c0,0.223 0.097,0.412 0.289,0.566c0.194,0.153 0.477,0.292 0.851,0.414c0.296,0.095 0.543,0.187 0.742,0.277c0.198,0.089 0.4,0.208 0.603,0.356c0.204,0.148 0.357,0.333 0.461,0.553c0.103,0.221 0.155,0.476 0.155,0.767c0,0.29 -0.06,0.55 -0.18,0.779c-0.12,0.23 -0.28,0.411 -0.478,0.545c-0.199,0.134 -0.411,0.236 -0.641,0.306c-0.229,0.07 -0.464,0.104 -0.704,0.104Z" style="fill:#fff;fill-rule:nonzero;"/><path d="M93.875,13.134l0,-0.1c-0.413,0 -0.818,-0.134 -1.221,-0.409c-0.397,-0.273 -0.653,-0.647 -0.777,-1.14l-0.097,0.024l0.038,0.092l0.704,-0.284l-0.038,-0.093l-0.097,0.025c0.089,0.348 0.272,0.646 0.546,0.884l0.002,0.002l-0.001,-0.002c0.275,0.24 0.593,0.365 0.941,0.364c0.352,0 0.663,-0.094 0.919,-0.283c0.261,-0.191 0.398,-0.47 0.396,-0.798c0.002,-0.357 -0.132,-0.655 -0.395,-0.854c-0.254,-0.194 -0.639,-0.364 -1.158,-0.523c-0.521,-0.164 -0.91,-0.375 -1.167,-0.626c-0.254,-0.247 -0.38,-0.555 -0.381,-0.946c0.001,-0.403 0.156,-0.746 0.48,-1.05c0.321,-0.299 0.736,-0.45 1.264,-0.451c0.493,0.001 0.88,0.123 1.178,0.36c0.307,0.245 0.5,0.507 0.587,0.785l0.095,-0.029l-0.038,-0.093l-0.703,0.293l0.038,0.092l0.097,-0.025c-0.058,-0.215 -0.197,-0.409 -0.407,-0.58c-0.218,-0.178 -0.5,-0.265 -0.83,-0.265c-0.314,-0.001 -0.593,0.089 -0.82,0.269l0,-0.001c-0.23,0.179 -0.354,0.42 -0.353,0.695c-0.001,0.253 0.116,0.477 0.327,0.644c0.208,0.164 0.501,0.306 0.882,0.431c0.294,0.095 0.538,0.186 0.732,0.273c0.191,0.086 0.386,0.201 0.585,0.346c0.191,0.139 0.332,0.309 0.429,0.515c0.096,0.205 0.146,0.445 0.146,0.724c0,0.277 -0.056,0.519 -0.168,0.733c-0.114,0.216 -0.262,0.383 -0.446,0.508l-0.003,0.002l0.003,-0.002c-0.191,0.129 -0.394,0.226 -0.614,0.293c-0.22,0.067 -0.444,0.1 -0.675,0.1l0,0.2c0.25,0 0.494,-0.036 0.733,-0.109c0.239,-0.072 0.461,-0.179 0.668,-0.318c0.212,-0.144 0.384,-0.339 0.511,-0.581c0.128,-0.245 0.191,-0.522 0.191,-0.826c0,-0.302 -0.054,-0.573 -0.165,-0.809c-0.11,-0.236 -0.276,-0.435 -0.493,-0.592l0.001,0c-0.208,-0.151 -0.415,-0.274 -0.621,-0.366c-0.204,-0.092 -0.454,-0.185 -0.752,-0.281c-0.367,-0.12 -0.64,-0.255 -0.819,-0.398l0,0.001c-0.174,-0.141 -0.25,-0.294 -0.252,-0.488c0.002,-0.217 0.086,-0.386 0.277,-0.537c0.191,-0.151 0.418,-0.226 0.696,-0.226c0.296,0 0.526,0.075 0.704,0.22c0.187,0.153 0.296,0.312 0.34,0.476l0.029,0.111l0.809,-0.337l0.084,-0.035l-0.027,-0.087c-0.102,-0.326 -0.324,-0.62 -0.653,-0.883c-0.339,-0.27 -0.778,-0.403 -1.303,-0.403c-0.566,-0.001 -1.04,0.168 -1.4,0.505c-0.358,0.333 -0.545,0.738 -0.544,1.196c-0.001,0.435 0.149,0.807 0.442,1.09c0.289,0.28 0.706,0.502 1.246,0.673l0.001,0c0.508,0.154 0.875,0.322 1.096,0.491c0.211,0.164 0.314,0.383 0.316,0.695c-0.002,0.276 -0.101,0.476 -0.315,0.637c-0.219,0.162 -0.482,0.244 -0.8,0.244c-0.301,-0.001 -0.564,-0.103 -0.81,-0.315c-0.246,-0.214 -0.404,-0.472 -0.484,-0.783l-0.028,-0.111l-0.81,0.328l-0.081,0.033l0.021,0.084c0.133,0.535 0.421,0.959 0.858,1.257c0.429,0.294 0.876,0.444 1.334,0.444l0,-0.1Z" style="fill:#fff;fill-rule:nonzero;"/><path d="M99.071,13.134c-0.66,0 -1.194,-0.218 -1.605,-0.653c-0.41,-0.436 -0.615,-1.006 -0.615,-1.71l0,-3.771l0.77,0l0,3.805c0,0.475 0.124,0.859 0.373,1.152c0.248,0.293 0.608,0.44 1.077,0.44c0.469,0 0.828,-0.147 1.076,-0.44c0.249,-0.293 0.374,-0.677 0.374,-1.152l0,-3.805l0.771,0l0,3.771c0,0.71 -0.2,1.281 -0.6,1.714c-0.399,0.433 -0.94,0.649 -1.621,0.649Z" style="fill:#fff;fill-rule:nonzero;"/><path d="M99.071,13.134l0,-0.1c-0.638,-0.001 -1.139,-0.207 -1.532,-0.622c-0.391,-0.415 -0.588,-0.956 -0.588,-1.641l0,-3.671l0.57,0l0,3.705c0,0.492 0.13,0.903 0.397,1.217c0.268,0.319 0.664,0.476 1.153,0.475c0.489,0.001 0.884,-0.156 1.153,-0.475c0.267,-0.314 0.397,-0.725 0.397,-1.217l0,-3.705l0.571,0l0,3.671c-0.001,0.692 -0.193,1.234 -0.573,1.646c-0.38,0.411 -0.887,0.616 -1.548,0.617l0,0.2c0.701,0.001 1.276,-0.226 1.695,-0.681c0.419,-0.453 0.627,-1.054 0.626,-1.782l0,-3.871l-0.871,0l-0.1,0l0,3.905c-0.001,0.458 -0.119,0.815 -0.35,1.088c-0.227,0.267 -0.551,0.403 -1,0.404c-0.45,-0.001 -0.773,-0.137 -1.001,-0.404c-0.231,-0.273 -0.348,-0.63 -0.349,-1.088l0,-3.905l-0.87,0l-0.1,0l0,3.871c-0.001,0.723 0.212,1.323 0.642,1.778c0.429,0.457 0.997,0.686 1.678,0.685l0,-0.1Z" style="fill:#fff;fill-rule:nonzero;"/></g><defs><linearGradient id="_Linear1" x1="0" y1="0" x2="1" y2="0" gradientUnits="userSpaceOnUse" gradientTransform="matrix(-16.7825,-16.7825,16.7825,-16.7825,21.7998,8.7097)"><stop offset="0" style="stop-color:#00a0ff;stop-opacity:1"/><stop offset="1" style="stop-color:#00e2ff;stop-opacity:1"/></linearGradient><linearGradient id="_Linear2" x1="0" y1="0" x2="1" y2="0" gradientUnits="userSpaceOnUse" gradientTransform="matrix(-24.197,2.17273e-09,-2.17273e-09,-24.197,33.8344,20.0014)"><stop offset="0" style="stop-color:#ffdf00;stop-opacity:1"/><stop offset="1" style="stop-color:#ff9c00;stop-opacity:1"/></linearGradient><linearGradient id="_Linear3" x1="0" y1="0" x2="1" y2="0" gradientUnits="userSpaceOnUse" gradientTransform="matrix(-22.7583,-22.7583,22.7583,-22.7583,24.827,22.2961)"><stop offset="0" style="stop-color:#ff3a44;stop-opacity:1"/><stop offset="1" style="stop-color:#c31162;stop-opacity:1"/></linearGradient><linearGradient id="_Linear4" x1="0" y1="0" x2="1" y2="0" gradientUnits="userSpaceOnUse" gradientTransform="matrix(10.1625,-10.1625,10.1625,10.1625,7.2973,0.1762)"><stop offset="0" style="stop-color:#31a070;stop-opacity:1"/><stop offset="1" style="stop-color:#00ef75;stop-opacity:1"/></linearGradient><linearGradient id="_Linear5" x1="0" y1="0" x2="1" y2="0" gradientUnits="userSpaceOnUse" gradientTransform="matrix(-24.197,2.17273e-09,-2.17273e-09,-24.197,33.8344,20.0014)"><stop offset="0" style="stop-color:#ccb300;stop-opacity:1"/><stop offset="1" style="stop-color:#cc7c00;stop-opacity:1"/></linearGradient><linearGradient id="_Linear6" x1="0" y1="0" x2="1" y2="0" gradientUnits="userSpaceOnUse" gradientTransform="matrix(-22.7583,-22.7583,22.7583,-22.7583,24.827,22.2961)"><stop offset="0" style="stop-color:#cc2d36;stop-opacity:1"/><stop offset="1" style="stop-color:#9c0e4d;stop-opacity:1"/></linearGradient><linearGradient id="_Linear7" x1="0" y1="0" x2="1" y2="0" gradientUnits="userSpaceOnUse" gradientTransform="matrix(-16.7825,-16.7825,16.7825,-16.7825,21.7998,8.7097)"><stop offset="0" style="stop-color:#008cdf;stop-opacity:1"/><stop offset="1" style="stop-color:#00c6df;stop-opacity:1"/></linearGradient><linearGradient id="_Linear8" x1="0" y1="0" x2="1" y2="0" gradientUnits="userSpaceOnUse" gradientTransform="matrix(-22.7583,-22.7583,22.7583,-22.7583,24.827,22.2961)"><stop offset="0" style="stop-color:#df333b;stop-opacity:1"/><stop offset="1" style="stop-color:#aa0e56;stop-opacity:1"/></linearGradient><linearGradient id="_Linear9" x1="0" y1="0" x2="1" y2="0" gradientUnits="userSpaceOnUse" gradientTransform="matrix(-24.197,2.17273e-09,-2.17273e-09,-24.197,33.8344,20.0014)"><stop offset="0" style="stop-color:#dfc400;stop-opacity:1"/><stop offset="1" style="stop-color:#df8900;stop-opacity:1"/></linearGradient><linearGradient id="_Linear10" x1="0" y1="0" x2="1" y2="0" gradientUnits="userSpaceOnUse" gradientTransform="matrix(-24.197,2.17273e-09,-2.17273e-09,-24.197,33.8344,20.0014)"><stop offset="0" style="stop-color:#ffe83f;stop-opacity:1"/><stop offset="1" style="stop-color:#ffb53f;stop-opacity:1"/></linearGradient><linearGradient id="_Linear11" x1="0" y1="0" x2="1" y2="0" gradientUnits="userSpaceOnUse" gradientTransform="matrix(-16.7825,-16.7825,16.7825,-16.7825,21.7998,8.7097)"><stop offset="0" style="stop-color:#3fb8ff;stop-opacity:1"/><stop offset="1" style="stop-color:#3fe9ff;stop-opacity:1"/></linearGradient><linearGradient id="_Linear12" x1="0" y1="0" x2="1" y2="0" gradientUnits="userSpaceOnUse" gradientTransform="matrix(10.1625,-10.1625,10.1625,10.1625,7.2973,0.1762)"><stop offset="0" style="stop-color:#64b895;stop-opacity:1"/><stop offset="1" style="stop-color:#3ff497;stop-opacity:1"/></linearGradient></defs></svg>