<?xml version="1.0" encoding="UTF-8" standalone="no"?><!DOCTYPE svg PUBLIC "-//W3C//DTD SVG 1.1//EN" "http://www.w3.org/Graphics/SVG/1.1/DTD/svg11.dtd"><svg width="100%" height="100%" viewBox="0 0 135 40" version="1.1" xmlns="http://www.w3.org/2000/svg" xmlns:xlink="http://www.w3.org/1999/xlink" xml:space="preserve" xmlns:serif="http://www.serif.com/" style="fill-rule:evenodd;clip-rule:evenodd;stroke-linejoin:round;stroke-miterlimit:1.41421;"><g><g><path d="M124.753,0l-114.604,0c-0.391,0 -0.777,0 -1.167,0.002c-0.327,0.002 -0.651,0.008 -0.981,0.013c-0.716,0.008 -1.43,0.067 -2.137,0.176c-0.706,0.113 -1.389,0.324 -2.028,0.627c-0.637,0.306 -1.22,0.704 -1.726,1.179c-0.509,0.474 -0.934,1.021 -1.257,1.621c-0.324,0.599 -0.549,1.241 -0.667,1.903c-0.118,0.662 -0.182,1.332 -0.191,2.002c-0.01,0.307 -0.011,0.615 -0.016,0.921l0,23.115c0.005,0.31 0.006,0.611 0.016,0.921c0.009,0.671 0.073,1.341 0.191,2.002c0.118,0.663 0.343,1.306 0.667,1.905c0.323,0.598 0.748,1.143 1.257,1.614c0.504,0.477 1.087,0.875 1.726,1.179c0.639,0.304 1.322,0.517 2.028,0.63c0.707,0.109 1.421,0.168 2.137,0.177c0.33,0.007 0.654,0.011 0.981,0.011c0.39,0.002 0.776,0.002 1.167,0.002l114.604,0c0.383,0 0.773,0 1.156,-0.002c0.325,0 0.658,-0.004 0.983,-0.011c0.715,-0.008 1.428,-0.067 2.134,-0.177c0.708,-0.114 1.394,-0.327 2.035,-0.63c0.638,-0.304 1.221,-0.702 1.725,-1.179c0.508,-0.473 0.933,-1.018 1.26,-1.614c0.322,-0.6 0.545,-1.242 0.661,-1.905c0.119,-0.661 0.185,-1.331 0.198,-2.002c0.004,-0.31 0.004,-0.611 0.004,-0.921c0.008,-0.364 0.008,-0.725 0.008,-1.094l0,-20.929c0,-0.366 0,-0.729 -0.008,-1.092c0,-0.306 0,-0.614 -0.004,-0.921c-0.013,-0.671 -0.079,-1.34 -0.198,-2.002c-0.116,-0.662 -0.339,-1.304 -0.661,-1.903c-0.658,-1.203 -1.702,-2.182 -2.985,-2.8c-0.641,-0.302 -1.328,-0.514 -2.035,-0.627c-0.706,-0.11 -1.419,-0.169 -2.134,-0.176c-0.325,-0.005 -0.658,-0.011 -0.983,-0.013c-0.383,-0.002 -0.773,-0.002 -1.156,-0.002l0,0Z" style="fill:#a6a6a6;fill-rule:nonzero;"/><path d="M8.987,39.125c-0.325,0 -0.642,-0.004 -0.965,-0.011c-0.668,-0.008 -1.334,-0.062 -1.994,-0.163c-0.614,-0.099 -1.21,-0.284 -1.767,-0.548c-0.551,-0.261 -1.054,-0.605 -1.49,-1.016c-0.441,-0.407 -0.809,-0.879 -1.088,-1.397c-0.283,-0.521 -0.478,-1.08 -0.579,-1.657c-0.11,-0.62 -0.17,-1.247 -0.178,-1.875c-0.007,-0.211 -0.016,-0.913 -0.016,-0.913l0,-23.101c0,0 0.01,-0.691 0.016,-0.894c0.008,-0.628 0.067,-1.253 0.177,-1.872c0.101,-0.579 0.297,-1.139 0.579,-1.662c0.278,-0.518 0.644,-0.99 1.083,-1.398c0.438,-0.412 0.943,-0.757 1.496,-1.023c0.555,-0.263 1.15,-0.446 1.763,-0.544c0.662,-0.101 1.331,-0.156 2.001,-0.164l0.962,-0.012l116.917,0l0.974,0.013c0.664,0.007 1.326,0.061 1.982,0.162c0.62,0.099 1.22,0.284 1.782,0.548c1.107,0.535 2.008,1.381 2.576,2.42c0.278,0.52 0.47,1.076 0.571,1.649c0.111,0.624 0.173,1.255 0.185,1.887c0.003,0.283 0.003,0.588 0.003,0.89c0.009,0.375 0.009,0.732 0.009,1.092l0,20.929c0,0.363 0,0.718 -0.009,1.075c0,0.325 0,0.623 -0.004,0.93c-0.012,0.621 -0.073,1.24 -0.182,1.853c-0.1,0.581 -0.294,1.145 -0.576,1.67c-0.281,0.513 -0.647,0.98 -1.083,1.386c-0.436,0.414 -0.94,0.759 -1.493,1.022c-0.56,0.266 -1.16,0.452 -1.779,0.55c-0.659,0.101 -1.326,0.156 -1.994,0.163c-0.312,0.007 -0.639,0.011 -0.957,0.011l-1.156,0.002l-115.766,-0.002Z" style="fill-rule:nonzero;"/></g><g><g id="_Group_3_" serif:id="_Group_3"><path id="_Path_" d="M29.018,20.301c0.022,-1.695 0.913,-3.265 2.357,-4.152c-0.916,-1.307 -2.397,-2.108 -3.992,-2.158c-1.679,-0.176 -3.307,1.005 -4.162,1.005c-0.873,0 -2.19,-0.988 -3.609,-0.958c-1.864,0.06 -3.566,1.097 -4.473,2.727c-1.934,3.349 -0.491,8.27 1.361,10.977c0.927,1.325 2.011,2.805 3.428,2.753c1.387,-0.058 1.905,-0.885 3.579,-0.885c1.659,0 2.145,0.885 3.591,0.852c1.489,-0.025 2.426,-1.332 3.321,-2.67c0.666,-0.944 1.178,-1.988 1.518,-3.092c-1.764,-0.746 -2.917,-2.484 -2.919,-4.399Z" style="fill:#fff;fill-rule:nonzero;"/><path id="_Path_2_" serif:id="_Path_2" d="M26.286,12.211c0.812,-0.974 1.212,-2.227 1.115,-3.491c-1.24,0.13 -2.385,0.723 -3.208,1.66c-0.812,0.924 -1.223,2.134 -1.143,3.361c1.255,0.013 2.45,-0.552 3.236,-1.53Z" style="fill:#fff;fill-rule:nonzero;"/></g><g id="_Group_4_" serif:id="_Group_4"><path d="M39.902,14.702l0,-5.124l-1.877,0l0,-0.843l4.676,0l0,0.843l-1.873,0l0,5.124l-0.926,0Z" style="fill:#fff;fill-rule:nonzero;"/><path d="M47.011,13.486c-0.248,0.846 -1.075,1.398 -1.951,1.303c-0.018,0 -0.036,0 -0.054,0c-1.122,0 -2.046,-0.923 -2.046,-2.045c0,-0.094 0.007,-0.187 0.02,-0.28c-0.013,-0.091 -0.019,-0.183 -0.019,-0.275c0,-1.14 0.938,-2.077 2.077,-2.077c0.006,0 0.012,0 0.018,0c1.253,0 2.009,0.856 2.009,2.27l0,0.31l-3.18,0l0,0.05c-0.003,0.033 -0.004,0.066 -0.004,0.1c0,0.652 0.537,1.19 1.19,1.19c0.004,0 0.009,0 0.013,0c0.434,0.052 0.859,-0.165 1.071,-0.546l0.856,0Zm-3.126,-1.451l2.274,0c0.002,-0.027 0.003,-0.054 0.003,-0.081c0,-0.596 -0.49,-1.086 -1.086,-1.086c-0.008,0 -0.017,0 -0.025,0c-0.005,0 -0.01,0 -0.015,0c-0.631,0 -1.151,0.52 -1.151,1.152c0,0.005 0,0.01 0,0.015l0,0Zm0.637,-2.589l1.038,-1.423l1.042,0l-1.162,1.423l-0.918,0Z" style="fill:#fff;fill-rule:nonzero;"/><rect x="48.299" y="8.441" width="0.889" height="6.261" style="fill:#fff;fill-rule:nonzero;"/><path d="M54.454,13.486c-0.248,0.846 -1.074,1.398 -1.951,1.303c-0.018,0 -0.036,0 -0.054,0c-1.122,0 -2.045,-0.923 -2.045,-2.045c0,-0.094 0.006,-0.187 0.019,-0.28c-0.012,-0.091 -0.018,-0.183 -0.018,-0.275c0,-1.14 0.937,-2.077 2.076,-2.077c0.006,0 0.012,0 0.018,0c1.253,0 2.009,0.856 2.009,2.27l0,0.31l-3.18,0l0,0.05c-0.003,0.033 -0.004,0.066 -0.004,0.1c0,0.652 0.537,1.19 1.19,1.19c0.005,0 0.009,0 0.013,0c0.434,0.052 0.859,-0.165 1.072,-0.546l0.855,0Zm-3.126,-1.451l2.275,0c0.002,-0.027 0.003,-0.054 0.003,-0.081c0,-0.596 -0.491,-1.086 -1.087,-1.086c-0.008,0 -0.016,0 -0.025,0c-0.005,0 -0.009,0 -0.014,0c-0.632,0 -1.152,0.52 -1.152,1.152c0,0.005 0,0.01 0,0.015Zm0.637,-2.589l1.038,-1.423l1.042,0l-1.162,1.423l-0.918,0Z" style="fill:#fff;fill-rule:nonzero;"/><path d="M58.65,11.67c-0.117,-0.48 -0.571,-0.807 -1.064,-0.764c-0.744,0 -1.199,0.57 -1.199,1.53c0,0.976 0.459,1.559 1.199,1.559c0.488,0.056 0.947,-0.263 1.064,-0.741l0.864,0c-0.118,0.943 -0.978,1.629 -1.923,1.535c-0.022,0 -0.044,0.001 -0.065,0.001c-1.135,0 -2.068,-0.934 -2.068,-2.068c0,-0.096 0.006,-0.192 0.02,-0.286c-0.012,-0.091 -0.018,-0.181 -0.018,-0.272c0,-1.127 0.926,-2.053 2.053,-2.053c0.024,0 0.049,0 0.073,0.001c0.953,-0.088 1.814,0.609 1.928,1.558l-0.864,0Z" style="fill:#fff;fill-rule:nonzero;"/><path d="M60.694,8.441l0.88,0l0,2.481l0.071,0c0.241,-0.53 0.792,-0.853 1.373,-0.806c0.027,-0.002 0.053,-0.002 0.08,-0.002c0.814,0 1.484,0.669 1.484,1.483c0,0.066 -0.005,0.132 -0.014,0.197l0,2.908l-0.889,0l0,-2.688c0,-0.72 -0.335,-1.084 -0.963,-1.084c-0.029,-0.002 -0.057,-0.003 -0.086,-0.003c-0.577,0 -1.052,0.475 -1.052,1.052c0,0.031 0.001,0.062 0.004,0.093l0,2.63l-0.889,0l0.001,-6.261Z" style="fill:#fff;fill-rule:nonzero;"/><path d="M65.686,13.428c0,-0.81 0.603,-1.278 1.675,-1.344l1.219,-0.07l0,-0.389c0,-0.476 -0.314,-0.744 -0.922,-0.744c-0.496,0 -0.839,0.182 -0.938,0.5l-0.86,0c0.09,-0.773 0.818,-1.269 1.839,-1.269c1.129,0 1.766,0.562 1.766,1.513l0,3.077l-0.855,0l0,-0.633l-0.071,0c-0.29,0.461 -0.808,0.732 -1.352,0.707c-0.047,0.005 -0.094,0.007 -0.141,0.007c-0.744,0 -1.357,-0.611 -1.36,-1.355Zm2.894,-0.385l0,-0.376l-1.099,0.07c-0.62,0.042 -0.902,0.253 -0.902,0.65c0,0.405 0.352,0.641 0.835,0.641c0.036,0.003 0.071,0.005 0.107,0.005c0.555,0 1.022,-0.436 1.059,-0.99l0,0Z" style="fill:#fff;fill-rule:nonzero;"/><path d="M70.856,10.199l0.856,0l0,0.69l0.066,0c0.196,-0.49 0.689,-0.8 1.216,-0.765c0.133,-0.002 0.266,0.011 0.396,0.037l0,0.877c-0.163,-0.035 -0.329,-0.053 -0.496,-0.054c-0.031,-0.002 -0.063,-0.004 -0.094,-0.004c-0.579,0 -1.055,0.476 -1.055,1.055c0,0.003 0,0.005 0,0.008l0,2.659l-0.889,0l0,-4.503Z" style="fill:#fff;fill-rule:nonzero;"/><path d="M74.208,15.152l0.909,0c0.075,0.327 0.451,0.538 1.051,0.538c0.74,0 1.178,-0.352 1.178,-0.947l0,-0.864l-0.066,0c-0.284,0.492 -0.822,0.785 -1.39,0.756c-1.149,0 -1.86,-0.888 -1.86,-2.237c0,-1.373 0.719,-2.274 1.869,-2.274c0.582,-0.02 1.129,0.287 1.414,0.794l0.07,0l0,-0.719l0.852,0l0,4.54c0,1.03 -0.807,1.683 -2.08,1.683c-1.125,0 -1.853,-0.505 -1.947,-1.27Zm3.155,-2.758c0,-0.897 -0.464,-1.472 -1.221,-1.472c-0.764,0 -1.194,0.575 -1.194,1.472c0,0.897 0.43,1.472 1.194,1.472c0.762,0 1.221,-0.57 1.221,-1.472l0,0Z" style="fill:#fff;fill-rule:nonzero;"/><path d="M83.459,13.486c-0.249,0.846 -1.075,1.398 -1.952,1.303c-0.018,0 -0.035,0 -0.053,0c-1.123,0 -2.046,-0.923 -2.046,-2.045c0,-0.094 0.007,-0.187 0.019,-0.28c-0.012,-0.091 -0.018,-0.183 -0.018,-0.275c0,-1.14 0.938,-2.077 2.077,-2.077c0.006,0 0.012,0 0.018,0c1.253,0 2.008,0.856 2.008,2.27l0,0.31l-3.179,0l0,0.05c-0.003,0.033 -0.005,0.066 -0.005,0.1c0,0.652 0.538,1.19 1.191,1.19c0.004,0 0.008,0 0.013,0c0.434,0.052 0.858,-0.165 1.071,-0.546l0.856,0Zm-3.126,-1.451l2.274,0c0.002,-0.027 0.003,-0.054 0.003,-0.081c0,-0.596 -0.49,-1.086 -1.086,-1.086c-0.009,0 -0.017,0 -0.025,0c-0.005,0 -0.01,0 -0.015,0c-0.632,0 -1.151,0.52 -1.151,1.152c0,0.005 0,0.01 0,0.015l0,0Z" style="fill:#fff;fill-rule:nonzero;"/><path d="M84.706,10.199l0.855,0l0,0.69l0.067,0c0.196,-0.49 0.689,-0.8 1.215,-0.765c0.134,-0.002 0.266,0.011 0.397,0.037l0,0.877c-0.163,-0.035 -0.329,-0.053 -0.496,-0.054c-0.032,-0.002 -0.063,-0.004 -0.095,-0.004c-0.578,0 -1.055,0.476 -1.055,1.055c0,0.003 0,0.005 0,0.008l0,2.659l-0.888,0l0,-4.503Z" style="fill:#fff;fill-rule:nonzero;"/><path d="M90.442,12.448c0,-1.423 0.732,-2.324 1.869,-2.324c0.574,-0.026 1.113,0.282 1.381,0.79l0.066,0l0,-2.473l0.889,0l0,6.261l-0.851,0l0,-0.712l-0.071,0c-0.288,0.504 -0.834,0.807 -1.414,0.786c-1.145,0 -1.869,-0.901 -1.869,-2.328Zm0.918,0c0,0.955 0.45,1.53 1.203,1.53c0.749,0 1.212,-0.583 1.212,-1.526c0,-0.938 -0.468,-1.53 -1.212,-1.53c-0.748,0 -1.203,0.579 -1.203,1.526l0,0Z" style="fill:#fff;fill-rule:nonzero;"/><path d="M95.848,13.428c0,-0.81 0.604,-1.278 1.675,-1.344l1.22,-0.07l0,-0.389c0,-0.476 -0.315,-0.744 -0.922,-0.744c-0.496,0 -0.84,0.182 -0.939,0.5l-0.86,0c0.091,-0.773 0.818,-1.269 1.84,-1.269c1.129,0 1.766,0.562 1.766,1.513l0,3.077l-0.856,0l0,-0.633l-0.07,0c-0.29,0.461 -0.808,0.732 -1.353,0.707c-0.046,0.005 -0.093,0.007 -0.14,0.007c-0.745,0 -1.358,-0.611 -1.361,-1.355Zm2.895,-0.385l0,-0.376l-1.1,0.07c-0.62,0.042 -0.901,0.253 -0.901,0.65c0,0.405 0.351,0.641 0.835,0.641c0.035,0.003 0.071,0.005 0.107,0.005c0.555,0 1.021,-0.436 1.059,-0.99l0,0Z" style="fill:#fff;fill-rule:nonzero;"/><path d="M101.019,10.199l0.856,0l0,0.715l0.066,0c0.23,-0.525 0.772,-0.849 1.344,-0.802c0.036,-0.003 0.073,-0.004 0.11,-0.004c0.803,0 1.464,0.661 1.464,1.464c0,0.072 -0.005,0.144 -0.016,0.215l0,2.915l-0.888,0l0,-2.692c0,-0.724 -0.315,-1.084 -0.972,-1.084c-0.016,0 -0.032,-0.001 -0.048,-0.001c-0.567,0 -1.033,0.466 -1.033,1.033c0,0.037 0.002,0.073 0.006,0.109l0,2.635l-0.889,0l0,-4.503Z" style="fill:#fff;fill-rule:nonzero;"/><path d="M107.864,10.112c1.013,0 1.675,0.471 1.762,1.265l-0.853,0c-0.082,-0.331 -0.405,-0.542 -0.909,-0.542c-0.496,0 -0.873,0.236 -0.873,0.587c0,0.269 0.227,0.439 0.716,0.551l0.748,0.173c0.856,0.199 1.258,0.567 1.258,1.229c0,0.847 -0.79,1.414 -1.866,1.414c-1.071,0 -1.769,-0.484 -1.848,-1.282l0.889,0c0.158,0.389 0.564,0.623 0.98,0.562c0.554,0 0.947,-0.248 0.947,-0.608c0,-0.269 -0.211,-0.442 -0.662,-0.55l-0.785,-0.182c-0.857,-0.203 -1.253,-0.587 -1.253,-1.257c0,-0.798 0.731,-1.36 1.749,-1.36Z" style="fill:#fff;fill-rule:nonzero;"/></g></g><g><rect x="39.444" y="18.067" width="1.859" height="12.418" style="fill:#fff;fill-rule:nonzero;"/><path d="M43.544,22.611l1.016,-4.544l1.806,0l-1.23,4.544l-1.592,0Z" style="fill:#fff;fill-rule:nonzero;"/><path d="M53.393,27.129l-4.734,0l-1.136,3.356l-2.005,0l4.483,-12.418l2.083,0l4.484,12.418l-2.04,0l-1.135,-3.356Zm-4.243,-1.549l3.752,0l-1.85,-5.448l-0.052,0l-1.85,5.448Z" style="fill:#fff;fill-rule:nonzero;"/><path d="M66.249,25.959c0,2.813 -1.506,4.621 -3.778,4.621c-1.173,0.061 -2.282,-0.555 -2.849,-1.584l-0.043,0l0,4.484l-1.858,0l0,-12.049l1.799,0l0,1.506l0.034,0c0.592,-1.022 1.702,-1.639 2.883,-1.601c2.298,0 3.812,1.817 3.812,4.623Zm-1.91,0c0,-1.834 -0.947,-3.039 -2.393,-3.039c-1.419,0 -2.375,1.231 -2.375,3.039c0,1.824 0.956,3.046 2.375,3.046c1.446,0 2.393,-1.196 2.393,-3.046Z" style="fill:#fff;fill-rule:nonzero;"/><path d="M76.214,25.959c0,2.813 -1.506,4.621 -3.779,4.621c-1.172,0.061 -2.282,-0.555 -2.848,-1.584l-0.043,0l0,4.484l-1.858,0l0,-12.049l1.798,0l0,1.506l0.034,0c0.592,-1.022 1.702,-1.639 2.883,-1.601c2.298,0 3.813,1.817 3.813,4.623Zm-1.911,0c0,-1.834 -0.947,-3.039 -2.392,-3.039c-1.42,0 -2.375,1.231 -2.375,3.039c0,1.824 0.955,3.046 2.375,3.046c1.445,0 2.392,-1.196 2.392,-3.046Z" style="fill:#fff;fill-rule:nonzero;"/><path d="M82.799,27.025c0.138,1.232 1.334,2.04 2.969,2.04c1.567,0 2.694,-0.808 2.694,-1.919c0,-0.963 -0.68,-1.541 -2.289,-1.936l-1.61,-0.388c-2.28,-0.551 -3.339,-1.617 -3.339,-3.348c0,-2.142 1.867,-3.614 4.519,-3.614c2.624,0 4.423,1.472 4.483,3.614l-1.876,0c-0.112,-1.239 -1.136,-1.987 -2.634,-1.987c-1.497,0 -2.521,0.757 -2.521,1.858c0,0.878 0.654,1.395 2.255,1.79l1.368,0.336c2.548,0.603 3.606,1.627 3.606,3.443c0,2.323 -1.85,3.778 -4.793,3.778c-2.754,0 -4.614,-1.421 -4.734,-3.667l1.902,0Z" style="fill:#fff;fill-rule:nonzero;"/><path d="M94.436,19.289l0,2.142l1.722,0l0,1.472l-1.722,0l0,4.992c0,0.775 0.345,1.136 1.102,1.136c0.204,-0.003 0.408,-0.018 0.611,-0.043l0,1.463c-0.34,0.064 -0.686,0.093 -1.032,0.086c-1.833,0 -2.548,-0.688 -2.548,-2.444l0,-5.19l-1.316,0l0,-1.472l1.316,0l0,-2.142l1.867,0Z" style="fill:#fff;fill-rule:nonzero;"/><path d="M97.154,25.959c0,-2.849 1.678,-4.639 4.294,-4.639c2.625,0 4.295,1.79 4.295,4.639c0,2.856 -1.661,4.639 -4.295,4.639c-2.633,0 -4.294,-1.783 -4.294,-4.639Zm6.695,0c0,-1.955 -0.895,-3.108 -2.401,-3.108c-1.506,0 -2.4,1.162 -2.4,3.108c0,1.962 0.894,3.106 2.4,3.106c1.506,0 2.401,-1.144 2.401,-3.106l0,0Z" style="fill:#fff;fill-rule:nonzero;"/><path d="M107.275,21.431l1.773,0l0,1.541l0.043,0c0.246,-0.988 1.159,-1.674 2.177,-1.636c0.214,0 0.428,0.023 0.637,0.07l0,1.738c-0.27,-0.083 -0.552,-0.121 -0.835,-0.112c-0.025,-0.001 -0.051,-0.002 -0.076,-0.002c-1.027,0 -1.873,0.846 -1.873,1.873c0,0.071 0.004,0.142 0.012,0.212l0,5.37l-1.858,0l0,-9.054Z" style="fill:#fff;fill-rule:nonzero;"/><path d="M120.472,27.826c-0.25,1.644 -1.85,2.772 -3.898,2.772c-2.634,0 -4.269,-1.765 -4.269,-4.596c0,-2.84 1.644,-4.682 4.191,-4.682c2.505,0 4.08,1.721 4.08,4.466l0,0.637l-6.395,0l0,0.112c-0.006,0.069 -0.009,0.139 -0.009,0.208c0,1.294 1.065,2.358 2.358,2.358c0.029,0 0.058,0 0.087,-0.001c0.899,0.084 1.753,-0.436 2.091,-1.274l1.764,0Zm-6.282,-2.702l4.526,0c0.003,-0.04 0.004,-0.081 0.004,-0.121c0,-1.195 -0.983,-2.178 -2.178,-2.178c-0.015,0 -0.031,0 -0.046,0.001c-0.005,0 -0.009,0 -0.014,0c-1.257,0 -2.292,1.034 -2.292,2.292c0,0.002 0,0.004 0,0.006Z" style="fill:#fff;fill-rule:nonzero;"/></g></g></svg>