<?xml version="1.0" encoding="utf-8"?>
<!-- Generator: Adobe Illustrator 19.0.0, SVG Export Plug-In . SVG Version: 6.00 Build 0)  -->
<svg version="1.1" id="Layer_1" xmlns="http://www.w3.org/2000/svg" xmlns:xlink="http://www.w3.org/1999/xlink" x="0px" y="0px"
	 viewBox="2072 -408 6144 2016" enable-background="new 2072 -408 6144 2016" xml:space="preserve">
<path d="M8212.6,1329.2c0,149.8-121.5,271.3-271.3,271.3H2346.2c-149.8,0-271.3-121.5-271.3-271.3V-135.9
	c0-149.8,121.5-271.3,271.3-271.3h5595.2c149.8,0,271.3,121.5,271.3,271.3L8212.6,1329.2L8212.6,1329.2z"/>
<g>
	<g>
		<path fill="#FFFFFF" d="M3523.4,528.2c-1.3-149,122-221.5,127.6-224.9c-69.9-101.8-178.1-115.8-216.2-116.9
			c-90.9-9.6-179.1,54.4-225.5,54.4c-47.2,0-118.6-53.5-195.5-51.9c-98.9,1.5-191.5,58.8-242.2,147.7
			c-104.8,181.4-26.6,447.9,73.7,594.4c50.2,71.8,108.9,152,185.7,149.1c75.1-3.1,103.2-47.9,193.8-47.9
			c89.8,0,116.2,47.9,194.5,46.1c80.6-1.3,131.4-72.1,179.8-144.6c58-82.3,81.3-163.3,82.2-167.5
			C3679.6,765.8,3524.9,706.7,3523.4,528.2z"/>
		<path fill="#FFFFFF" d="M3375.5,90c40.4-50.5,68-119.3,60.4-189c-58.5,2.6-131.6,40.4-173.7,89.9c-37.3,43.5-70.5,114.9-61.9,182
			C3265.8,177.8,3333.3,139.7,3375.5,90z"/>
	</g>
</g>
<g>
	<path fill="#FFFFFF" d="M4610.5,1069.9h-105L4448,889.2h-199.9l-54.8,180.7h-102.2l198-615.2h122.3L4610.5,1069.9z M4430.7,813.4
		l-52-160.6c-5.5-16.4-15.8-55.1-31-115.9h-1.8c-6.1,26.2-15.8,64.8-29.2,115.9l-51.1,160.6H4430.7z"/>
	<path fill="#FFFFFF" d="M5119.8,842.7c0,75.4-20.4,135.1-61.2,178.9c-36.5,39-81.9,58.4-136,58.4c-58.4,0-100.4-21-126-63h-1.8
		v233.7h-98.6V772.4c0-47.4-1.2-96.1-3.7-146h86.7l5.5,70.3h1.8c32.9-53,82.7-79.4,149.7-79.4c52.3,0,96,20.7,131,62
		C5102.3,720.7,5119.8,775.2,5119.8,842.7z M5019.4,846.3c0-43.2-9.7-78.8-29.2-106.8c-21.3-29.2-49.9-43.8-85.8-43.8
		c-24.3,0-46.4,8.1-66.2,24.2c-19.8,16.2-32.7,37.3-38.8,63.5c-3.1,12.2-4.6,22.2-4.6,30v74c0,32.3,9.9,59.5,29.7,81.7
		c19.8,22.2,45.5,33.3,77.1,33.3c37.1,0,66-14.3,86.7-42.9C5009.1,930.9,5019.4,893.2,5019.4,846.3z"/>
	<path fill="#FFFFFF" d="M5630,842.7c0,75.4-20.4,135.1-61.2,178.9c-36.5,39-81.8,58.4-136,58.4c-58.4,0-100.4-21-125.9-63h-1.8
		v233.7h-98.6V772.4c0-47.4-1.2-96.1-3.7-146h86.7l5.5,70.3h1.8c32.8-53,82.7-79.4,149.7-79.4c52.3,0,96,20.7,131,62
		C5612.5,720.7,5630,775.2,5630,842.7z M5529.6,846.3c0-43.2-9.8-78.8-29.3-106.8c-21.3-29.2-49.8-43.8-85.8-43.8
		c-24.4,0-46.4,8.1-66.2,24.2c-19.8,16.2-32.7,37.3-38.7,63.5c-3,12.2-4.6,22.2-4.6,30v74c0,32.3,9.9,59.5,29.6,81.7
		c19.8,22.2,45.5,33.3,77.2,33.3c37.1,0,66-14.3,86.7-42.9C5519.3,930.9,5529.6,893.2,5529.6,846.3z"/>
	<path fill="#FFFFFF" d="M6200.5,897.4c0,52.3-18.2,94.9-54.6,127.8c-40.1,35.9-95.9,53.9-167.6,53.9c-66.2,0-119.3-12.8-159.4-38.3
		l22.8-82.1c43.3,26.2,90.7,39.3,142.5,39.3c37.1,0,66-8.4,86.8-25.1c20.7-16.7,31-39.2,31-67.2c0-25-8.5-46-25.6-63.1
		c-17-17.1-45.3-32.9-84.9-47.6c-107.7-40.2-161.5-99-161.5-176.4c0-50.6,18.9-92,56.6-124.3c37.6-32.3,87.8-48.4,150.6-48.4
		c56,0,102.5,9.8,139.6,29.2l-24.6,80.3c-34.7-18.9-73.9-28.3-117.7-28.3c-34.7,0-61.8,8.6-81.2,25.6
		c-16.4,15.2-24.6,33.7-24.6,55.7c0,24.3,9.4,44.4,28.2,60.2c16.4,14.6,46.2,30.4,89.5,47.5c52.9,21.3,91.8,46.2,116.8,74.8
		C6188,819.3,6200.5,854.9,6200.5,897.4z"/>
	<path fill="#FFFFFF" d="M6526.3,700.3h-108.6v215.4c0,54.8,19.1,82.1,57.5,82.1c17.6,0,32.2-1.5,43.8-4.6l2.7,74.8
		c-19.4,7.3-45,10.9-76.6,10.9c-38.9,0-69.3-11.9-91.3-35.6c-21.9-23.8-32.9-63.6-32.9-119.6V700.2h-64.7v-74h64.7V545l96.8-29.2
		v110.4h108.6V700.3z"/>
	<path fill="#FFFFFF" d="M7016.5,844.5c0,68.2-19.5,124.2-58.4,167.9c-40.8,45.1-95,67.5-162.5,67.5c-65.1,0-116.9-21.6-155.6-64.8
		c-38.6-43.2-58-97.7-58-163.4c0-68.7,19.9-125,59.8-168.8c39.8-43.8,93.5-65.7,161.1-65.7c65.1,0,117.5,21.6,157,64.8
		C6997.6,724,7016.5,778.2,7016.5,844.5z M6914.2,847.7c0-40.9-8.7-76-26.4-105.3c-20.7-35.4-50.2-53.1-88.5-53.1
		c-39.6,0-69.7,17.7-90.4,53.1c-17.7,29.3-26.4,65-26.4,107.1c0,40.9,8.7,76,26.4,105.2c21.3,35.4,51.1,53.1,89.5,53.1
		c37.6,0,67.2-18,88.5-54C6905.1,924,6914.2,888.5,6914.2,847.7z"/>
	<path fill="#FFFFFF" d="M7336.9,713c-9.8-1.8-20.2-2.7-31.1-2.7c-34.7,0-61.5,13.1-80.3,39.3c-16.4,23.1-24.6,52.3-24.6,87.6v232.8
		h-98.5l0.9-303.9c0-51.1-1.2-97.7-3.7-139.7h85.8l3.6,84.9h2.7c10.4-29.2,26.8-52.7,49.3-70.3c22-15.9,45.7-23.8,71.2-23.8
		c9.1,0,17.3,0.6,24.6,1.8L7336.9,713z"/>
	<path fill="#FFFFFF" d="M7777.6,827.2c0,17.7-1.2,32.5-3.6,44.7h-295.7c1.2,43.8,15.4,77.3,42.9,100.5c24.9,20.7,57.1,31,96.7,31
		c43.8,0,83.7-7,119.6-21l15.4,68.4c-42,18.3-91.5,27.4-148.7,27.4c-68.8,0-122.8-20.2-162.1-60.7c-39.2-40.4-58.8-94.8-58.8-162.9
		c0-66.9,18.3-122.6,54.8-167c38.3-47.4,90-71.1,155.1-71.1c63.9,0,112.3,23.7,145.2,71.1C7764.6,725.2,7777.6,771.8,7777.6,827.2z
		 M7683.7,801.6c0.6-29.2-5.8-54.5-19.1-75.8c-17.1-27.4-43.3-41.1-78.5-41.1c-32.2,0-58.4,13.4-78.4,40.2
		c-16.4,21.3-26.2,46.9-29.2,76.6L7683.7,801.6L7683.7,801.6z"/>
</g>
<g>
	<path fill="#FFFFFF" d="M4104.1,231V-88.9h98.4c21.5,0,41.3,3.7,59.2,11.1c17.9,7.4,33.3,17.8,46.1,31.2
		c12.8,13.4,22.8,29.5,30,48.2c7.2,18.8,10.8,39.6,10.8,62.4v14.5c0,22.9-3.6,43.6-10.7,62.3c-7.1,18.7-17.1,34.7-30.1,48.1
		s-28.5,23.8-46.5,31.1c-18,7.3-37.9,11-59.5,11H4104.1z M4170-35.5v213.6h31.9c26.1,0,45.9-8.6,59.5-25.8
		c13.6-17.2,20.4-41.8,20.4-73.7V63.6c0-32.5-6.7-57.2-20.2-73.9c-13.5-16.8-33.2-25.2-59.1-25.2H4170z"/>
	<path fill="#FFFFFF" d="M4382.5,110c0-17.3,2.5-33.3,7.5-48.1c5-14.8,12.2-27.6,21.8-38.3c9.5-10.8,21.3-19.2,35.3-25.4
		c14-6.2,29.9-9.2,47.8-9.2c18,0,34.1,3.1,48.1,9.2s25.9,14.6,35.5,25.4c9.6,10.8,16.9,23.5,21.9,38.3c5,14.8,7.5,30.8,7.5,48.1v4.6
		c0,17.4-2.5,33.5-7.5,48.2c-5,14.7-12.3,27.5-21.9,38.2c-9.6,10.8-21.4,19.2-35.3,25.3c-13.9,6.1-29.9,9.1-47.9,9.1s-34-3-48-9.1
		c-14-6.1-25.8-14.5-35.4-25.3c-9.6-10.8-16.9-23.5-21.9-38.2c-5-14.7-7.5-30.8-7.5-48.2V110z M4446,114.6c0,9.7,0.9,18.8,2.6,27.2
		c1.8,8.5,4.6,15.9,8.5,22.1c3.9,6.2,8.9,11.2,15.2,14.8c6.2,3.7,13.9,5.5,23,5.5c8.8,0,16.3-1.8,22.5-5.5
		c6.2-3.7,11.3-8.6,15.3-14.8c4-6.2,6.8-13.6,8.6-22.1c1.8-8.5,2.6-17.6,2.6-27.2V110c0-9.4-0.9-18.3-2.6-26.7
		c-1.8-8.4-4.6-15.8-8.6-22.2s-9.1-11.4-15.4-15.2c-6.3-3.7-13.9-5.6-22.9-5.6c-8.8,0-16.3,1.9-22.5,5.6
		c-6.2,3.7-11.3,8.8-15.2,15.2c-3.9,6.4-6.7,13.8-8.5,22.2c-1.8,8.4-2.6,17.3-2.6,26.7V114.6z"/>
	<path fill="#FFFFFF" d="M4853.6,144.7l31.2-151.4h61.3L4885.4,231h-53.2l-45-149.6l-45,149.6h-53L4628.6-6.7h61.3l31,151.2
		l43.5-151.2h45.9L4853.6,144.7z"/>
	<path fill="#FFFFFF" d="M5035.9-6.7l2,27.5c8.2-10.3,18.1-18.1,29.7-23.6c11.6-5.5,24.5-8.2,38.7-8.2c11.3,0,21.5,1.6,30.8,4.7
		c9.2,3.2,17.1,8.3,23.7,15.5c6.6,7.2,11.7,16.6,15.3,28.1c3.6,11.6,5.4,25.8,5.4,42.6V231h-63.5V79.4c0-7.6-0.8-13.9-2.5-18.9
		c-1.7-5-4.1-8.9-7.4-11.9c-3.2-2.9-7.2-5-11.9-6.3c-4.7-1.2-10.1-1.9-16.3-1.9c-9.4,0-17.4,2.1-24.1,6.2
		c-6.7,4.1-12.1,9.7-16.1,16.7V231h-63.5V-6.7H5035.9z"/>
	<path fill="#FFFFFF" d="M5296.5,231h-63.7v-337.5h63.7V231z"/>
	<path fill="#FFFFFF" d="M5339,110c0-17.3,2.5-33.3,7.5-48.1c5-14.8,12.2-27.6,21.8-38.3c9.5-10.8,21.3-19.2,35.3-25.4
		c14-6.2,29.9-9.2,47.8-9.2c18,0,34.1,3.1,48.1,9.2s25.9,14.6,35.5,25.4c9.6,10.8,16.9,23.5,21.9,38.3c5,14.8,7.5,30.8,7.5,48.1v4.6
		c0,17.4-2.5,33.5-7.5,48.2c-5,14.7-12.3,27.5-21.9,38.2c-9.6,10.8-21.4,19.2-35.3,25.3c-13.9,6.1-29.9,9.1-47.9,9.1s-34-3-48-9.1
		c-14-6.1-25.8-14.5-35.4-25.3c-9.6-10.8-16.9-23.5-21.9-38.2c-5-14.7-7.5-30.8-7.5-48.2V110z M5402.5,114.6
		c0,9.7,0.9,18.8,2.6,27.2c1.8,8.5,4.6,15.9,8.5,22.1c3.9,6.2,8.9,11.2,15.2,14.8c6.2,3.7,13.9,5.5,23,5.5c8.8,0,16.3-1.8,22.5-5.5
		c6.2-3.7,11.3-8.6,15.3-14.8c4-6.2,6.8-13.6,8.6-22.1c1.8-8.5,2.6-17.6,2.6-27.2V110c0-9.4-0.9-18.3-2.6-26.7
		c-1.8-8.4-4.6-15.8-8.6-22.2s-9.1-11.4-15.4-15.2c-6.3-3.7-13.9-5.6-22.9-5.6c-8.8,0-16.3,1.9-22.5,5.6
		c-6.2,3.7-11.3,8.8-15.2,15.2c-3.9,6.4-6.7,13.8-8.5,22.2c-1.8,8.4-2.6,17.3-2.6,26.7V114.6z"/>
	<path fill="#FFFFFF" d="M5741.1,231c-2.9-5.7-5.1-12.8-6.4-21.3c-6.4,7.2-14.5,13.3-24.3,18.2c-9.7,5-21.6,7.5-35.7,7.5
		c-11.4,0-22.1-1.8-32-5.3c-9.9-3.5-18.5-8.4-25.7-14.7c-7.3-6.3-12.9-13.8-17-22.5c-4.1-8.7-6.2-18.3-6.2-28.7
		c0-12.4,2.3-23.5,6.9-33.2s11.5-17.9,20.8-24.6c9.2-6.7,20.7-11.9,34.4-15.4c13.7-3.5,29.6-5.3,47.8-5.3h28.3V72.2
		c0-11-2.8-19.8-8.5-26.4c-5.6-6.6-14.5-9.9-26.7-9.9c-10.7,0-19.1,2.6-25.2,7.7c-6.1,5.1-9.1,12.2-9.1,21.1h-63.5
		c0-10.3,2.4-20,7.1-29.2c4.8-9.2,11.5-17.3,20.3-24.2c8.8-6.9,19.4-12.3,31.9-16.4c12.4-4,26.4-6,41.7-6c13.8,0,26.5,1.8,38.2,5.3
		c11.7,3.5,21.8,8.8,30.3,15.7c8.5,7,15.1,15.7,19.9,26.1c4.8,10.5,7.1,22.7,7.1,36.6v100.6c0,6.7,0.2,12.8,0.7,18.1
		c0.4,5.3,1,10.2,1.8,14.5c0.7,4.3,1.7,8.2,2.9,11.6c1.2,3.4,2.6,6.7,4.2,9.8v3.7H5741.1z M5688.5,186.9c5.4,0,10.4-0.7,15.1-2
		c4.6-1.3,8.8-3,12.4-5.2c3.7-2.1,6.8-4.6,9.6-7.4c2.7-2.8,4.9-5.6,6.5-8.6v-40.9h-26.1c-8.3,0-15.6,0.9-21.8,2.7
		c-6.2,1.8-11.2,4.4-15.2,7.7s-6.9,7.2-8.8,11.6c-1.9,4.5-2.9,9.3-2.9,14.6c0,7.9,2.8,14.4,8.3,19.6
		C5671.2,184.3,5678.9,186.9,5688.5,186.9z"/>
	<path fill="#FFFFFF" d="M5834.7,110.4c0-18,2.1-34.5,6.3-49.4c4.2-14.9,10.2-27.8,18.1-38.5c7.9-10.7,17.7-19,29.2-24.8
		c11.6-5.9,24.8-8.8,39.6-8.8c12.2,0,23,2.3,32.4,6.8c9.4,4.5,17.8,10.9,24.9,19.1v-121.3h63.7V231h-57.3l-3.1-25.3
		c-7.5,9.4-16.2,16.7-26.1,21.9c-10,5.2-21.6,7.8-34.9,7.8c-14.6,0-27.7-3-39.2-9.1c-11.5-6.1-21.2-14.5-29.1-25.2
		c-7.9-10.7-14-23.4-18.1-38.1c-4.2-14.7-6.3-30.7-6.3-48V110.4z M5898.2,115c0,9.7,0.8,18.7,2.4,27c1.6,8.3,4.2,15.6,7.8,21.9
		c3.6,6.2,8.3,11.1,14.1,14.7c5.8,3.6,12.9,5.4,21.2,5.4c10.3,0,18.8-2.2,25.6-6.6c6.8-4.4,12.1-10.5,15.9-18.2V65.4
		c-3.8-7.9-9.1-14-15.9-18.3c-6.8-4.3-15.2-6.5-25.2-6.5c-8.3,0-15.5,1.8-21.3,5.4c-5.9,3.6-10.6,8.5-14.2,14.8
		c-3.6,6.3-6.2,13.7-7.9,22.2c-1.7,8.5-2.5,17.7-2.5,27.5V115z"/>
	<path fill="#FFFFFF" d="M6200.3,110c0-17.3,2.5-33.3,7.5-48.1c5-14.8,12.2-27.6,21.8-38.3c9.5-10.8,21.3-19.2,35.3-25.4
		c14-6.2,29.9-9.2,47.8-9.2c18,0,34.1,3.1,48.1,9.2s25.9,14.6,35.5,25.4c9.6,10.8,16.9,23.5,21.9,38.3c5,14.8,7.5,30.8,7.5,48.1v4.6
		c0,17.4-2.5,33.5-7.5,48.2c-5,14.7-12.3,27.5-21.9,38.2c-9.6,10.8-21.4,19.2-35.3,25.3c-13.9,6.1-29.9,9.1-47.9,9.1s-34-3-48-9.1
		c-14-6.1-25.8-14.5-35.4-25.3c-9.6-10.8-16.9-23.5-21.9-38.2c-5-14.7-7.5-30.8-7.5-48.2V110z M6263.8,114.6
		c0,9.7,0.9,18.8,2.6,27.2c1.8,8.5,4.6,15.9,8.5,22.1c3.9,6.2,8.9,11.2,15.2,14.8c6.2,3.7,13.9,5.5,23,5.5c8.8,0,16.3-1.8,22.5-5.5
		c6.2-3.7,11.3-8.6,15.3-14.8c4-6.2,6.8-13.6,8.6-22.1c1.8-8.5,2.6-17.6,2.6-27.2V110c0-9.4-0.9-18.3-2.6-26.7
		c-1.8-8.4-4.6-15.8-8.6-22.2s-9.1-11.4-15.4-15.2c-6.3-3.7-13.9-5.6-22.9-5.6c-8.8,0-16.3,1.9-22.5,5.6
		c-6.2,3.7-11.3,8.8-15.2,15.2c-3.9,6.4-6.7,13.8-8.5,22.2c-1.8,8.4-2.6,17.3-2.6,26.7V114.6z"/>
	<path fill="#FFFFFF" d="M6523.1-6.7l2,27.5c8.2-10.3,18.1-18.1,29.7-23.6c11.6-5.5,24.5-8.2,38.7-8.2c11.3,0,21.5,1.6,30.8,4.7
		c9.2,3.2,17.1,8.3,23.7,15.5c6.6,7.2,11.7,16.6,15.3,28.1c3.6,11.6,5.4,25.8,5.4,42.6V231H6605V79.4c0-7.6-0.8-13.9-2.5-18.9
		c-1.7-5-4.1-8.9-7.4-11.9c-3.2-2.9-7.2-5-11.9-6.3c-4.7-1.2-10.1-1.9-16.3-1.9c-9.4,0-17.4,2.1-24.1,6.2
		c-6.7,4.1-12.1,9.7-16.2,16.7V231h-63.5V-6.7H6523.1z"/>
	<path fill="#FFFFFF" d="M6904.7-65.2v58.4h40.6v46.6h-40.6v118.7c0,5,0.5,9.1,1.5,12.3c1,3.2,2.6,5.8,4.6,7.6
		c2,1.8,4.6,3.1,7.6,3.7c3,0.7,6.6,1,10.7,1c3.8,0,7.3-0.1,10.4-0.4c3.1-0.3,5.9-0.7,8.2-1.1v48.1c-5.3,1.6-11,3-17.2,4.1
		c-6.2,1.1-13.3,1.6-21.2,1.6c-10.4,0-19.8-1.3-28.1-3.8c-8.3-2.6-15.5-6.6-21.4-12.2c-5.9-5.6-10.5-12.8-13.7-21.8
		c-3.2-8.9-4.8-19.7-4.8-32.3V39.9h-34.7V-6.7h34.7v-58.4H6904.7z"/>
	<path fill="#FFFFFF" d="M7042.7,19.2c7.9-9.5,17.2-17,27.8-22.3c10.6-5.3,22.5-8,35.7-8c11.7,0,22.4,1.6,32.1,4.9s17.9,8.6,24.8,16
		c6.9,7.4,12.2,17,15.9,28.7c3.7,11.7,5.6,25.9,5.6,42.6V231h-63.5V80.7c0-7.6-0.8-14-2.5-19.1c-1.7-5.1-4.1-9.3-7.4-12.4
		c-3.2-3.1-7.2-5.4-12-6.7c-4.8-1.3-10.1-2-16.1-2c-10,0-18.2,1.9-24.8,5.8c-6.6,3.9-11.8,9.1-15.6,15.7v169h-63.5v-337.5h63.5V19.2
		z"/>
	<path fill="#FFFFFF" d="M7342,235.4c-18.5,0-35-3-49.5-9c-14.6-6-27-14.2-37.1-24.6c-10.2-10.4-17.9-22.6-23.3-36.6
		c-5.3-14-8-29-8-44.9v-8.6c0-18,2.6-34.5,7.8-49.5c5.2-15,12.6-27.9,22.2-38.8c9.6-10.8,21.2-19.3,34.9-25.4
		c13.7-6.1,29-9.1,46-9.1c17.1,0,32.2,2.8,45.3,8.5c13,5.6,24,13.6,32.8,23.7c8.9,10.2,15.5,22.4,20,36.8
		c4.5,14.4,6.7,30.3,6.7,47.9v27h-151.4c1,7.8,3.1,14.8,6.3,21.1c3.1,6.3,7.2,11.7,12.1,16.2c4.9,4.5,10.7,7.9,17.2,10.4
		c6.6,2.5,14,3.7,22.2,3.7c11.6,0,22.3-2.2,32.1-6.5c9.8-4.3,18.2-11,25.3-20.1l31.2,34.9c-3.8,5.4-8.6,10.7-14.3,15.8
		c-5.7,5.1-12.5,9.7-20.2,13.7c-7.8,4-16.5,7.3-26.3,9.7C7364.2,234.2,7353.5,235.4,7342,235.4z M7334.7,40.3
		c-6.9,0-12.9,1.2-18.1,3.6c-5.2,2.4-9.7,5.8-13.4,10.1c-3.7,4.3-6.8,9.5-9.1,15.5c-2.3,6-4,12.7-5.1,20h88.3v-5.1
		c-0.1-6.3-1.1-12.2-2.7-17.6c-1.7-5.4-4.3-10.1-7.7-14.1c-3.4-4-7.8-7-13.2-9.2C7348.4,41.4,7342.1,40.3,7334.7,40.3z"/>
</g>
</svg>
