<svg enable-background="new 0 0 600 600" height="600" viewBox="0 0 600 600" width="600" xmlns="http://www.w3.org/2000/svg" xmlns:xlink="http://www.w3.org/1999/xlink"><clipPath id="a"><path d="m0 0h600v600h-600z"/></clipPath><clipPath id="b"><path d="m0 0h600v600h-600z"/></clipPath><clipPath id="c"><path d="m112.256 172.439h375.488v329.168h-375.488z"/></clipPath><g clip-path="url(#a)"><path clip-path="url(#b)" d="m900 300c0 331.369-268.631 600-600 600-331.37 0-600-268.631-600-600 0-331.37 268.63-600 600-600 331.369 0 600 268.63 600 600" fill="#f7df79"/><g clip-path="url(#b)" opacity=".2"><path clip-path="url(#c)" d="m458.579 172.439h-289.077c-15.759 0-28.565 12.508-29.113 28.133-15.625.548-28.132 13.354-28.132 29.113v170.188c0 16.106 13.057 29.164 29.164 29.164h17.155v72.57l94.384-72.57h177.538c15.759 0 28.564-12.507 29.112-28.133 15.625-.548 28.134-13.354 28.134-29.112v-170.188c0-16.107-13.058-29.165-29.165-29.165" fill="#1d1d1b"/></g><path clip-path="url(#b)" d="m140.337 187.563v170.188c0 16.107 13.058 29.165 29.165 29.165h17.155v72.57l94.384-72.57h177.538c16.107 0 29.164-13.058 29.164-29.165v-170.188c0-16.107-13.057-29.165-29.164-29.165h-289.077c-16.107 0-29.165 13.058-29.165 29.165" fill="#a2195b"/><path clip-path="url(#b)" d="m112.256 215.644v170.188c0 16.107 13.057 29.165 29.165 29.165h17.155v72.57l94.384-72.57h177.538c16.107 0 29.164-13.058 29.164-29.165v-170.188c0-16.107-13.057-29.165-29.164-29.165h-289.077c-16.108 0-29.165 13.058-29.165 29.165" fill="#e61b72"/><g fill="#fff"><path clip-path="url(#b)" d="m140.65 303.944 5.527-48.7h53.702v15.861h-38.104l-2.369 20.598c.658-.35 1.469-.734 2.435-1.152.964-.416 2.073-.811 3.323-1.184 1.251-.372 2.61-.68 4.08-.922 1.47-.24 2.995-.361 4.574-.361 4.607 0 8.721.735 12.34 2.204 3.619 1.471 6.68 3.587 9.18 6.351 2.501 2.764 4.41 6.143 5.726 10.134 1.316 3.993 1.975 8.513 1.975 13.558 0 4.256-.659 8.314-1.975 12.175s-3.313 7.262-5.989 10.2c-2.677 2.94-6.044 5.288-10.102 7.042s-8.83 2.633-14.313 2.633c-4.125 0-8.117-.626-11.979-1.876-3.86-1.25-7.283-3.07-10.265-5.462-2.985-2.392-5.397-5.319-7.24-8.785-1.842-3.466-2.83-7.415-2.962-11.847h18.823c.394 3.993 1.787 7.097 4.178 9.313 2.392 2.216 5.517 3.323 9.378 3.323 2.412 0 4.464-.461 6.154-1.382 1.688-.922 3.071-2.172 4.145-3.752 1.075-1.579 1.865-3.455 2.369-5.627.504-2.171.758-4.508.758-7.009 0-2.5-.307-4.792-.922-6.877-.615-2.083-1.557-3.86-2.83-5.33-1.272-1.47-2.873-2.61-4.804-3.423-1.93-.811-4.211-1.217-6.844-1.217-1.755 0-3.28.154-4.573.46-1.295.308-2.447.703-3.456 1.185-1.009.483-1.898 1.043-2.665 1.679-.768.637-1.48 1.283-2.138 1.941z"/><path clip-path="url(#b)" d="m279.642 311.446c0 7.196-.78 13.371-2.337 18.525-1.557 5.156-3.75 9.401-6.58 12.734-2.831 3.335-6.231 5.781-10.202 7.338-3.97 1.557-8.369 2.337-13.195 2.337s-9.225-.78-13.194-2.337c-3.972-1.557-7.382-4.003-10.234-7.338-2.852-3.333-5.067-7.578-6.646-12.734-1.58-5.154-2.369-11.329-2.369-18.525v-16.65c0-7.195.777-13.369 2.336-18.525 1.556-5.155 3.761-9.388 6.613-12.701 2.851-3.313 6.252-5.748 10.201-7.305s8.336-2.337 13.162-2.337 9.224.78 13.196 2.337c3.969 1.557 7.38 3.992 10.232 7.305s5.068 7.546 6.647 12.701c1.58 5.156 2.37 11.33 2.37 18.525zm-19.019-19.348c0-4.255-.297-7.831-.889-10.727s-1.47-5.232-2.632-7.009c-1.164-1.777-2.579-3.06-4.245-3.849-1.668-.79-3.554-1.185-5.66-1.185-2.105 0-3.981.395-5.627 1.185-1.644.789-3.039 2.072-4.178 3.849-1.142 1.777-2.007 4.113-2.6 7.009s-.889 6.472-.889 10.727v21.849c0 4.3.307 7.92.921 10.858.615 2.94 1.492 5.32 2.633 7.141s2.545 3.126 4.212 3.916c1.667.789 3.554 1.185 5.659 1.185 2.107 0 3.992-.396 5.66-1.185 1.667-.79 3.061-2.095 4.18-3.916 1.118-1.82 1.974-4.2 2.566-7.141.592-2.938.889-6.559.889-10.858z"/><path clip-path="url(#b)" d="m356.969 311.446c0 7.196-.779 13.371-2.336 18.525-1.559 5.156-3.752 9.401-6.581 12.734-2.831 3.335-6.23 5.781-10.2 7.338-3.972 1.557-8.369 2.337-13.195 2.337-4.827 0-9.225-.78-13.195-2.337s-7.382-4.003-10.233-7.338c-2.853-3.333-5.067-7.578-6.647-12.734-1.579-5.154-2.369-11.329-2.369-18.525v-16.65c0-7.195.779-13.369 2.337-18.525 1.556-5.155 3.76-9.388 6.614-12.701 2.852-3.313 6.252-5.748 10.2-7.305s8.335-2.337 13.162-2.337c4.825 0 9.224.78 13.194 2.337s7.382 3.992 10.234 7.305c2.851 3.313 5.066 7.546 6.646 12.701 1.579 5.156 2.369 11.33 2.369 18.525zm-19.02-19.348c0-4.255-.296-7.831-.889-10.727-.592-2.896-1.47-5.232-2.633-7.009-1.162-1.777-2.576-3.06-4.244-3.849-1.668-.79-3.553-1.185-5.659-1.185s-3.981.395-5.627 1.185c-1.646.789-3.038 2.072-4.179 3.849-1.142 1.777-2.008 4.113-2.6 7.009s-.889 6.472-.889 10.727v21.849c0 4.3.307 7.92.922 10.858.613 2.94 1.49 5.32 2.632 7.141 1.141 1.821 2.544 3.126 4.212 3.916 1.667.789 3.554 1.185 5.66 1.185 2.104 0 3.992-.396 5.659-1.185 1.667-.79 3.061-2.095 4.179-3.916 1.119-1.82 1.975-4.2 2.566-7.141.593-2.938.889-6.559.889-10.858v-21.849z"/><path clip-path="url(#b)" d="m434.296 311.446c0 7.196-.779 13.371-2.337 18.525-1.557 5.156-3.75 9.401-6.58 12.734-2.831 3.335-6.23 5.781-10.201 7.338s-8.369 2.337-13.195 2.337-9.226-.78-13.194-2.337c-3.972-1.557-7.382-4.003-10.233-7.338-2.853-3.333-5.067-7.578-6.646-12.734-1.58-5.154-2.369-11.329-2.369-18.525v-16.65c0-7.195.777-13.369 2.336-18.525 1.557-5.155 3.762-9.388 6.613-12.701s6.252-5.748 10.201-7.305 8.336-2.337 13.162-2.337 9.224.78 13.195 2.337c3.97 1.557 7.381 3.992 10.232 7.305s5.068 7.546 6.647 12.701c1.579 5.156 2.369 11.33 2.369 18.525zm-19.019-19.348c0-4.255-.297-7.831-.889-10.727-.593-2.896-1.471-5.232-2.633-7.009-1.164-1.777-2.578-3.06-4.244-3.849-1.668-.79-3.555-1.185-5.66-1.185s-3.981.395-5.627 1.185c-1.645.789-3.039 2.072-4.179 3.849-1.142 1.777-2.007 4.113-2.6 7.009s-.889 6.472-.889 10.727v21.849c0 4.3.307 7.92.921 10.858.615 2.94 1.492 5.32 2.633 7.141s2.545 3.126 4.212 3.916c1.667.789 3.554 1.185 5.659 1.185 2.106 0 3.992-.396 5.66-1.185 1.667-.79 3.061-2.095 4.18-3.916 1.118-1.82 1.974-4.2 2.566-7.141.592-2.938.889-6.559.889-10.858v-21.849z"/></g></g></svg>