<?xml version="1.0" encoding="utf-8"?>
<!-- Generator: Adobe Illustrator 16.0.0, SVG Export Plug-In . SVG Version: 6.00 Build 0)  -->
<!DOCTYPE svg PUBLIC "-//W3C//DTD SVG 1.1//EN" "http://www.w3.org/Graphics/SVG/1.1/DTD/svg11.dtd">
<svg version="1.1" id="Capa_1" xmlns="http://www.w3.org/2000/svg" xmlns:xlink="http://www.w3.org/1999/xlink" x="0px" y="0px"
	 width="600px" height="600px" viewBox="0 0 600 600" enable-background="new 0 0 600 600" xml:space="preserve">
<g>
	<defs>
		<rect id="SVGID_1_" width="600" height="600"/>
	</defs>
	<clipPath id="SVGID_2_">
		<use xlink:href="#SVGID_1_"  overflow="visible"/>
	</clipPath>
	<g clip-path="url(#SVGID_2_)">
		<defs>
			<rect id="SVGID_3_" width="600" height="600"/>
		</defs>
		<clipPath id="SVGID_4_">
			<use xlink:href="#SVGID_3_"  overflow="visible"/>
		</clipPath>
		<path clip-path="url(#SVGID_4_)" fill="#F7DF79" d="M900,300c0,331.369-268.631,600-600,600c-331.37,0-600-268.631-600-600
			c0-331.37,268.63-600,600-600C631.369-300,900-31.37,900,300"/>
		<g opacity="0.2" clip-path="url(#SVGID_4_)">
			<g>
				<defs>
					<rect id="SVGID_5_" x="112.256" y="172.439" width="375.488" height="329.168"/>
				</defs>
				<clipPath id="SVGID_6_">
					<use xlink:href="#SVGID_5_"  overflow="visible"/>
				</clipPath>
				<path clip-path="url(#SVGID_6_)" fill="#1D1D1B" d="M458.579,172.439H169.502c-15.759,0-28.565,12.508-29.113,28.133
					c-15.625,0.548-28.132,13.354-28.132,29.113v170.188c0,16.106,13.057,29.164,29.164,29.164h17.155v72.57l94.384-72.57h177.538
					c15.759,0,28.564-12.507,29.112-28.133c15.625-0.548,28.134-13.354,28.134-29.112V201.604
					C487.744,185.497,474.686,172.439,458.579,172.439"/>
			</g>
		</g>
		<path clip-path="url(#SVGID_4_)" fill="#A2195B" d="M140.337,187.563v170.188c0,16.107,13.058,29.165,29.165,29.165h17.155v72.57
			l94.384-72.57h177.538c16.107,0,29.164-13.058,29.164-29.165V187.563c0-16.107-13.057-29.165-29.164-29.165H169.502
			C153.395,158.398,140.337,171.456,140.337,187.563"/>
		<path clip-path="url(#SVGID_4_)" fill="#E61B72" d="M112.256,215.644v170.188c0,16.107,13.057,29.165,29.165,29.165h17.155v72.57
			l94.384-72.57h177.538c16.107,0,29.164-13.058,29.164-29.165V215.644c0-16.107-13.057-29.165-29.164-29.165H141.421
			C125.313,186.479,112.256,199.537,112.256,215.644"/>
		<path clip-path="url(#SVGID_4_)" fill="#FFFFFF" d="M140.65,303.944l5.527-48.7h53.702v15.861h-38.104l-2.369,20.598
			c0.658-0.35,1.469-0.734,2.435-1.152c0.964-0.416,2.073-0.811,3.323-1.184c1.251-0.372,2.61-0.68,4.08-0.922
			c1.47-0.24,2.995-0.361,4.574-0.361c4.607,0,8.721,0.735,12.34,2.204c3.619,1.471,6.68,3.587,9.18,6.351
			c2.501,2.764,4.41,6.143,5.726,10.134c1.316,3.993,1.975,8.513,1.975,13.558c0,4.256-0.659,8.314-1.975,12.175
			c-1.316,3.861-3.313,7.262-5.989,10.2c-2.677,2.94-6.044,5.288-10.102,7.042c-4.058,1.754-8.83,2.633-14.313,2.633
			c-4.125,0-8.117-0.626-11.979-1.876c-3.86-1.25-7.283-3.07-10.265-5.462c-2.985-2.392-5.397-5.319-7.24-8.785
			c-1.842-3.466-2.83-7.415-2.962-11.847h18.823c0.394,3.993,1.787,7.097,4.178,9.313c2.392,2.216,5.517,3.323,9.378,3.323
			c2.412,0,4.464-0.461,6.154-1.382c1.688-0.922,3.071-2.172,4.145-3.752c1.075-1.579,1.865-3.455,2.369-5.627
			c0.504-2.171,0.758-4.508,0.758-7.009c0-2.5-0.307-4.792-0.922-6.877c-0.615-2.083-1.557-3.86-2.83-5.33
			c-1.272-1.47-2.873-2.61-4.804-3.423c-1.93-0.811-4.211-1.217-6.844-1.217c-1.755,0-3.28,0.154-4.573,0.46
			c-1.295,0.308-2.447,0.703-3.456,1.185c-1.009,0.483-1.898,1.043-2.665,1.679c-0.768,0.637-1.48,1.283-2.138,1.941L140.65,303.944
			z"/>
		<path clip-path="url(#SVGID_4_)" fill="#FFFFFF" d="M279.642,311.446c0,7.196-0.78,13.371-2.337,18.525
			c-1.557,5.156-3.75,9.401-6.58,12.734c-2.831,3.335-6.231,5.781-10.202,7.338c-3.97,1.557-8.369,2.337-13.195,2.337
			c-4.826,0-9.225-0.78-13.194-2.337c-3.972-1.557-7.382-4.003-10.234-7.338c-2.852-3.333-5.067-7.578-6.646-12.734
			c-1.58-5.154-2.369-11.329-2.369-18.525v-16.65c0-7.195,0.777-13.369,2.336-18.525c1.556-5.155,3.761-9.388,6.613-12.701
			c2.851-3.313,6.252-5.748,10.201-7.305c3.949-1.557,8.336-2.337,13.162-2.337c4.826,0,9.224,0.78,13.196,2.337
			c3.969,1.557,7.38,3.992,10.232,7.305s5.068,7.546,6.647,12.701c1.58,5.156,2.37,11.33,2.37,18.525V311.446z M260.623,292.098
			c0-4.255-0.297-7.831-0.889-10.727c-0.592-2.896-1.47-5.232-2.632-7.009c-1.164-1.777-2.579-3.06-4.245-3.849
			c-1.668-0.79-3.554-1.185-5.66-1.185c-2.105,0-3.981,0.395-5.627,1.185c-1.644,0.789-3.039,2.072-4.178,3.849
			c-1.142,1.777-2.007,4.113-2.6,7.009s-0.889,6.472-0.889,10.727v21.849c0,4.3,0.307,7.92,0.921,10.858
			c0.615,2.94,1.492,5.32,2.633,7.141c1.141,1.821,2.545,3.126,4.212,3.916c1.667,0.789,3.554,1.185,5.659,1.185
			c2.107,0,3.992-0.396,5.66-1.185c1.667-0.79,3.061-2.095,4.18-3.916c1.118-1.82,1.974-4.2,2.566-7.141
			c0.592-2.938,0.889-6.559,0.889-10.858V292.098z"/>
		<path clip-path="url(#SVGID_4_)" fill="#FFFFFF" d="M356.969,311.446c0,7.196-0.779,13.371-2.336,18.525
			c-1.559,5.156-3.752,9.401-6.581,12.734c-2.831,3.335-6.23,5.781-10.2,7.338c-3.972,1.557-8.369,2.337-13.195,2.337
			c-4.827,0-9.225-0.78-13.195-2.337s-7.382-4.003-10.233-7.338c-2.853-3.333-5.067-7.578-6.647-12.734
			c-1.579-5.154-2.369-11.329-2.369-18.525v-16.65c0-7.195,0.779-13.369,2.337-18.525c1.556-5.155,3.76-9.388,6.614-12.701
			c2.852-3.313,6.252-5.748,10.2-7.305s8.335-2.337,13.162-2.337c4.825,0,9.224,0.78,13.194,2.337s7.382,3.992,10.234,7.305
			c2.851,3.313,5.066,7.546,6.646,12.701c1.579,5.156,2.369,11.33,2.369,18.525V311.446z M337.949,292.098
			c0-4.255-0.296-7.831-0.889-10.727c-0.592-2.896-1.47-5.232-2.633-7.009c-1.162-1.777-2.576-3.06-4.244-3.849
			c-1.668-0.79-3.553-1.185-5.659-1.185s-3.981,0.395-5.627,1.185c-1.646,0.789-3.038,2.072-4.179,3.849
			c-1.142,1.777-2.008,4.113-2.6,7.009s-0.889,6.472-0.889,10.727v21.849c0,4.3,0.307,7.92,0.922,10.858
			c0.613,2.94,1.49,5.32,2.632,7.141c1.141,1.821,2.544,3.126,4.212,3.916c1.667,0.789,3.554,1.185,5.66,1.185
			c2.104,0,3.992-0.396,5.659-1.185c1.667-0.79,3.061-2.095,4.179-3.916c1.119-1.82,1.975-4.2,2.566-7.141
			c0.593-2.938,0.889-6.559,0.889-10.858V292.098z"/>
		<path clip-path="url(#SVGID_4_)" fill="#FFFFFF" d="M434.296,311.446c0,7.196-0.779,13.371-2.337,18.525
			c-1.557,5.156-3.75,9.401-6.58,12.734c-2.831,3.335-6.23,5.781-10.201,7.338s-8.369,2.337-13.195,2.337s-9.226-0.78-13.194-2.337
			c-3.972-1.557-7.382-4.003-10.233-7.338c-2.853-3.333-5.067-7.578-6.646-12.734c-1.58-5.154-2.369-11.329-2.369-18.525v-16.65
			c0-7.195,0.777-13.369,2.336-18.525c1.557-5.155,3.762-9.388,6.613-12.701c2.851-3.313,6.252-5.748,10.201-7.305
			s8.336-2.337,13.162-2.337s9.224,0.78,13.195,2.337c3.97,1.557,7.381,3.992,10.232,7.305s5.068,7.546,6.647,12.701
			c1.579,5.156,2.369,11.33,2.369,18.525V311.446z M415.277,292.098c0-4.255-0.297-7.831-0.889-10.727
			c-0.593-2.896-1.471-5.232-2.633-7.009c-1.164-1.777-2.578-3.06-4.244-3.849c-1.668-0.79-3.555-1.185-5.66-1.185
			s-3.981,0.395-5.627,1.185c-1.645,0.789-3.039,2.072-4.179,3.849c-1.142,1.777-2.007,4.113-2.6,7.009s-0.889,6.472-0.889,10.727
			v21.849c0,4.3,0.307,7.92,0.921,10.858c0.615,2.94,1.492,5.32,2.633,7.141c1.141,1.821,2.545,3.126,4.212,3.916
			c1.667,0.789,3.554,1.185,5.659,1.185c2.106,0,3.992-0.396,5.66-1.185c1.667-0.79,3.061-2.095,4.18-3.916
			c1.118-1.82,1.974-4.2,2.566-7.141c0.592-2.938,0.889-6.559,0.889-10.858V292.098z"/>
	</g>
</g>
</svg>
