<svg clip-rule="evenodd" fill-rule="evenodd" stroke-linejoin="round" stroke-miterlimit="2" viewBox="0 0 406 306" xmlns="http://www.w3.org/2000/svg"><path d="m0 0h406v306h-406z" fill="#fff"/><path d="m90.9 220.7h45.6v39h-45.6z" fill="#e6e6e6"/><path d="m154.7 195.2h45.6v64.5h-45.6z" fill="#e6e6e6"/><path d="m216.3 171.4h45.6v88.3h-45.6z" fill="#e6e6e6"/><path d="m278.5 124h45.6v135.7h-45.6z" fill="#ffd200"/><path d="m57.1 258.6h297.5v12.8h-297.5z" fill="#e6e6e6"/><g fill-rule="nonzero"><path d="m250.7 96.8 6.9-11.4s-20.8-15.9-21.8-23.5-15-8.3-15-8.3c-5.2 29.8 29.9 43.2 29.9 43.2z" fill="#f4a28c"/><path d="m250.7 96.8 6.9-11.4s-20.8-15.9-21.8-23.5-15-8.3-15-8.3c-5.2 29.8 29.9 43.2 29.9 43.2z" fill-opacity=".08"/><path d="m224.9 157.3s-4.5 1.5-4.1 3.4c0 .5.4.9.9 1.1 1.3.3 2.5.9 3.4 1.8 1 1 2.1 1.9 3.3 2.7 3.8 2.6 5.4-1.1 2.8-2.4s-3.1-4.8-3.1-4.8z" fill="#61afff"/><path d="m214.7 36.6s-2.7 22.7 6.2 20.3c8.9-2.3 2.7-15.7 2.7-15.7z" fill="#ffd200"/><path d="m214.4 30.5c-1.3 1.4-1.6 3.5-.7 5.1l2.5 3.8c1.2 2.4 3.5 3 5.2 3 1.4 0 2.5-1.1 2.5-2.5 0-3.4-1.7-8.2-1.7-8.2-.8-2.9-5.6-3.9-7.8-1.2z" fill="#f4a28c"/><path d="m213.2 52.5s-21.5-1.1-18.2 19.8c2.1 13.6-4 36-4 36l31 8.8c6.1-9.8 11.8-19.5 13.6-26 .5-1.9 1.4-3.8 2.7-5.4 14.4-19.4-17.4-32-17.4-32z" fill="#61afff"/><path d="m219.3 41.8 1.5 11.9-9-1 2.9-16.1z" fill="#f4a28c"/><path d="m223.1 38.5 1.8-.8c.1 0 .2-.1.3-.2.3-.3.2-.8-.1-1.1l-1.9-1.5z" fill="#f4a28c"/><path d="m219.8 45.6c-4.2-1.6-3.2-5.1-3.2-5.1.8.8 1.7 1.4 2.8 1.7z" fill="#ce8172" fill-opacity=".31"/><path d="m219.8 25c-4.6-1.7-11.6 2-11.6 9.3 0 6.2-3.9 9.4-7.5 11.1-.5.2-.9.5-1.2.9-1.4 1.5-1.3 3.9.2 5.4l1.7 1.6c3.9 3.6 10.3 2.6 12.7-2.1 3.8-7.5 2.5-16.7 2.5-16.7l2.2-.5c4.7-.8 5.6-7.3 1-9z" fill="#ffd200"/><path d="m195.4 81.3c.4 9.1-4.3 27-4.3 27l19.5 5.5s-7.2-18.5 1.9-26.8c9.1-8.2 4.4-21.6 4.4-21.6s-21.9 6.9-21.5 15.9z" fill-opacity=".08"/><path d="m216.7 39.4c-2.3.3-3.1-2.8-1.5-3.4 1.5-.6 2.2 1.6 2.2 1.6z" fill="#f4a28c"/><path d="m192.8 119-2.7 7.4c-4.1 11.2-10.5 21.3-18.8 29.8l-6.6 6.8 2.4 3.6 17.2-12.4c5.9-4.2 11.1-9.3 15.6-15.1l11.7-15z" fill="#f4a28c"/><path d="m192.8 119-2.7 7.4c-4.1 11.2-10.5 21.3-18.8 29.8l-6.6 6.8 2.4 3.6 17.2-12.4c5.9-4.2 11.1-9.3 15.6-15.1l11.7-15z" fill-opacity=".08"/><path d="m187.8 84.6c-5.8.6-10.5 5-11.4 10.7l-2.6 16.7s-1.5 12.3-6.5 10.5.1-13.1.1-13.1l-1.3-18.9c-.6-8.8 4.1-17.1 11.9-21.1 8.7-4.5 19.3-10 23.6-12.1 1-.5 2.1-.8 3.2-1 10-1.5 16.2 10.8 9.3 18.1-6.6 7.1-18.1 9.5-26.3 10.2z" fill="#f4a28c"/><path d="m217.3 128.6 7.8 2.8c3.2 1.1 4.9 4.5 4.1 7.7l-4.6 18 3.7 2.2 9.1-21.1c.2-.4.3-.7.4-1.1 2.1-6.7-1.5-13.8-8.2-15.9z" fill="#f4a28c"/><path d="m222 117.1-31-8.8c-7.9 9.3-1.8 18.9-2.6 18.2 1.9 1.7 6 1.9 10.1 2 13 .2 26.3 4.1 26.3 4.1l5.4-12.1c-2.6-1.4-5.3-2.6-8.2-3.4z" fill="#24285b"/><path d="m248.2 95.3c-8.5-7-3.2-31.3-3.2-31.3s-9.3-8.4-3.2-9.6 6.3 4 6.3 4c17 28.3 8.6 43.9.1 36.9z" fill="#f4a28c"/><path d="m165.6 162.1s-3.7-1.3-4.9.3c-.4.4-.4.9-.2 1.4.7 1.1 1.1 2.4 1.1 3.7 0 1.5.1 2.9.3 4.3.7 4.6 4.6 3.2 3.7.4s1.4-5.6 1.4-5.6z" fill="#61afff"/><path d="m165.6 162.1s-3.7-1.3-4.9.3c-.4.4-.4.9-.2 1.4.7 1.1 1.1 2.4 1.1 3.7 0 1.5.1 2.9.3 4.3.7 4.6 4.6 3.2 3.7.4s1.4-5.6 1.4-5.6z" fill-opacity=".08"/><path d="m188.5 125.8-3.7 12.1 14.1 3.9 10.5-13c-7.6-4.3-20.9-3-20.9-3z" fill="#24285b"/><path d="m174.1 109.8-6.7-.4-.4-5.3 8.1-.7z" fill="#61afff"/><path d="m318.6 86.6v14.1c0 7.2-5.8 13-13 13h-8.9c-7.2 0-13-5.8-13-13v-14.1z" fill="#ffd200"/></g><path d="m297.8 110.3h6.6v12.4h-6.6z" fill="#ffd200"/><path d="m290.4 120.4h21.4v4.1h-21.4z" fill="#24285b"/><path d="m283.8 102.9h-2.1c-3.4-.1-6-2.8-6-6.2.1-3.3 2.7-5.9 6-6h1.9v-2.4h-1.9c-4.7.1-8.4 3.9-8.4 8.6.1 4.6 3.8 8.3 8.4 8.4h2.7c-.2-.8-.5-1.6-.6-2.4z" fill="#ffd200" fill-rule="nonzero"/><path d="m320.5 88.3h-1.9v2.4h1.9c3.4.1 6 2.8 6 6.2-.1 3.3-2.7 5.9-6 6h-2.1c-.1.8-.4 1.6-.6 2.4h2.7c4.7-.1 8.4-3.9 8.4-8.6-.1-4.6-3.8-8.3-8.4-8.4z" fill="#ffd200" fill-rule="nonzero"/><path d="m286.7 102.9c.1 1.1.2 2.3.7 3.3.9 2.4 3.1 4.1 5.7 4.4.6.1 1.5-.1 1.6-.7.1-.5-.2-.9-.5-1.2-2.7-3.3-2.9-7.9-2.5-12.1.1-1.3.3-2.7.2-4s-.7-2.7-1.7-3.5c-.7-.6-2-1.1-2.8-.5-.3.3-.6.7-.7 1.1-.4 1.1-.4 2.2-.3 3.4.1.9-.1 1.7-.1 2.6 0 2.4.2 4.8.4 7.2z" fill="#fff" fill-opacity=".3" fill-rule="nonzero"/><path d="m301.5 92.7 1.8 3.7c.1.1.2.2.3.2l4.1.6c.2 0 .4.3.4.5 0 .1-.1.2-.1.2l-3 2.9c-.1.1-.1.2-.1.4l.7 4.1c0 .2-.1.5-.4.5h-.3l-3.7-1.9c-.1-.1-.3-.1-.4 0l-3.7 1.9c-.2.1-.5 0-.6-.2 0-.1-.1-.2 0-.3l.7-4.1c0-.1 0-.3-.1-.4l-3-2.9c-.2-.2-.2-.4 0-.6.1-.1.2-.1.2-.1l4.1-.6c.1 0 .3-.1.3-.2l1.8-3.7c.1-.2.4-.3.6-.2.3.1.4.2.4.2z" fill="#fff" fill-opacity=".43" fill-rule="nonzero"/></svg>