<?xml version="1.0" encoding="utf-8"?>
<!-- Generator: Adobe Illustrator 16.0.0, SVG Export Plug-In . SVG Version: 6.00 Build 0)  -->
<!DOCTYPE svg PUBLIC "-//W3C//DTD SVG 1.1//EN" "http://www.w3.org/Graphics/SVG/1.1/DTD/svg11.dtd">
<svg version="1.1" id="Capa_1" xmlns="http://www.w3.org/2000/svg" xmlns:xlink="http://www.w3.org/1999/xlink" x="0px" y="0px"
	 width="600px" height="600px" viewBox="0 0 600 600" enable-background="new 0 0 600 600" xml:space="preserve">
<g>
	<defs>
		<rect id="SVGID_1_" width="600" height="600"/>
	</defs>
	<clipPath id="SVGID_2_">
		<use xlink:href="#SVGID_1_"  overflow="visible"/>
	</clipPath>
	<g clip-path="url(#SVGID_2_)">
		<defs>
			<rect id="SVGID_3_" width="600" height="600"/>
		</defs>
		<clipPath id="SVGID_4_">
			<use xlink:href="#SVGID_3_"  overflow="visible"/>
		</clipPath>
		<path clip-path="url(#SVGID_4_)" fill="#3D91E6" d="M900,300c0,331.367-268.633,600-600,600c-331.372,0-600-268.633-600-600
			c0-331.372,268.628-600,600-600C631.367-300,900-31.372,900,300"/>
		<g opacity="0.2" clip-path="url(#SVGID_4_)">
			<g>
				<defs>
					<rect id="SVGID_5_" x="134.14" y="121.599" width="331.72" height="361.803"/>
				</defs>
				<clipPath id="SVGID_6_">
					<use xlink:href="#SVGID_5_"  overflow="visible"/>
				</clipPath>
				<path clip-path="url(#SVGID_6_)" fill="#1D1D1B" d="M405.86,483.401H194.14c-33.137,0-60-26.862-60-60V181.599
					c0-33.137,26.863-60,60-60h211.72c33.137,0,60,26.863,60,60v241.803C465.86,456.539,438.997,483.401,405.86,483.401"/>
			</g>
		</g>
		<path clip-path="url(#SVGID_4_)" fill="#868686" d="M450.011,282.458H149.989v-125.86c0-22.091,17.909-40,40-40h220.021
			c22.091,0,40,17.909,40,40V282.458z"/>
		<path clip-path="url(#SVGID_4_)" fill="#868686" d="M410.011,468.319H189.989c-22.091,0-40-17.909-40-40V156.599
			c0-22.092,17.909-40,40-40h220.021c22.091,0,40,17.908,40,40v271.721C450.011,450.41,432.102,468.319,410.011,468.319"/>
		<path clip-path="url(#SVGID_4_)" fill="#B1B1B1" d="M419.36,463.319H180.64c-22.091,0-40-17.909-40-40V161.598
			c0-22.091,17.909-40,40-40h238.72c22.091,0,40,17.909,40,40v261.721C459.36,445.41,441.451,463.319,419.36,463.319"/>
		<path clip-path="url(#SVGID_4_)" fill="#FFFFFF" d="M425.86,458.318H174.14c-22.091,0-40-17.908-40-40v-251.72
			c0-22.091,17.909-40,40-40h251.72c22.091,0,40,17.909,40,40v251.72C465.86,440.41,447.951,458.318,425.86,458.318"/>
		<polygon clip-path="url(#SVGID_4_)" fill="#EA343D" points="317.722,344.654 293.733,344.654 293.733,252.183 265.095,261.065 
			265.095,241.558 315.148,223.628 317.722,223.628 		"/>
		<path clip-path="url(#SVGID_4_)" fill="#3C3C3B" d="M237.703,421.71v-51.188h15.75c3.445,0,6.604,0.592,9.475,1.775
			c2.871,1.184,5.332,2.848,7.383,4.992c2.05,2.145,3.65,4.717,4.798,7.717c1.149,3,1.723,6.329,1.723,9.984v2.32
			c0,3.656-0.568,6.979-1.705,9.967c-1.137,2.988-2.742,5.555-4.816,7.699c-2.075,2.145-4.553,3.803-7.436,4.975
			s-6.059,1.759-9.527,1.759H237.703z M248.25,379.064v34.172h5.098c4.172,0,7.347-1.377,9.527-4.131s3.27-6.686,3.27-11.795v-2.391
			c0-5.203-1.079-9.146-3.235-11.83c-2.156-2.684-5.308-4.025-9.457-4.025H248.25z"/>
		<path clip-path="url(#SVGID_4_)" fill="#3C3C3B" d="M312.656,411.162h-18.493l-3.515,10.547h-11.215l19.055-51.188h9.773
			l19.16,51.188h-11.215L312.656,411.162z M297.012,402.619h12.797l-6.434-19.16L297.012,402.619z"/>
		<polygon clip-path="url(#SVGID_4_)" fill="#3C3C3B" points="344.578,393.584 355.23,370.522 366.762,370.522 349.957,403.147 
			349.957,421.709 339.234,421.709 339.234,403.147 322.43,370.522 333.996,370.522 		"/>
		<path clip-path="url(#SVGID_4_)" fill="#9C9B9B" d="M165.226,267.819h-2.086c-6.352,0-11.5-5.149-11.5-11.5s5.148-11.5,11.5-11.5
			h2.086c6.351,0,11.5,5.149,11.5,11.5S171.577,267.819,165.226,267.819"/>
		<path clip-path="url(#SVGID_4_)" fill="#9C9B9B" d="M165.226,340.319h-2.086c-6.352,0-11.5-5.149-11.5-11.5
			c0-6.352,5.148-11.5,11.5-11.5h2.086c6.351,0,11.5,5.148,11.5,11.5C176.726,335.17,171.577,340.319,165.226,340.319"/>
		<path clip-path="url(#SVGID_4_)" fill="#9C9B9B" d="M436.86,267.819h-2.086c-6.352,0-11.5-5.149-11.5-11.5s5.148-11.5,11.5-11.5
			h2.086c6.352,0,11.5,5.149,11.5,11.5S443.212,267.819,436.86,267.819"/>
		<path clip-path="url(#SVGID_4_)" fill="#9C9B9B" d="M436.86,340.319h-2.086c-6.352,0-11.5-5.149-11.5-11.5
			c0-6.352,5.148-11.5,11.5-11.5h2.086c6.352,0,11.5,5.148,11.5,11.5C448.36,335.17,443.212,340.319,436.86,340.319"/>
		<path clip-path="url(#SVGID_4_)" fill="#3C3C3B" d="M164.908,337.318h-1.451c-5.145,0-9.316-4.171-9.316-9.315v-71.088
			c0-5.145,4.171-9.316,9.316-9.316h1.451c5.145,0,9.316,4.171,9.316,9.316v71.088C174.224,333.147,170.053,337.318,164.908,337.318
			"/>
		<path clip-path="url(#SVGID_4_)" fill="#3C3C3B" d="M436.543,337.318h-1.451c-5.145,0-9.315-4.171-9.315-9.315v-71.088
			c0-5.145,4.171-9.316,9.315-9.316h1.451c5.145,0,9.316,4.171,9.316,9.316v71.088C445.859,333.147,441.688,337.318,436.543,337.318
			"/>
		<g opacity="0.1" clip-path="url(#SVGID_4_)">
			<g>
				<defs>
					<rect id="SVGID_7_" x="134.14" y="292.459" width="331.72" height="165.86"/>
				</defs>
				<clipPath id="SVGID_8_">
					<use xlink:href="#SVGID_7_"  overflow="visible"/>
				</clipPath>
				<path clip-path="url(#SVGID_8_)" fill="#1D1D1B" d="M134.14,292.459h331.72v125.859c0,22.092-17.909,40-40,40H174.14
					c-22.091,0-40-17.908-40-40V292.459z"/>
			</g>
		</g>
		<g clip-path="url(#SVGID_4_)">
			<defs>
				<path id="SVGID_9_" d="M1220,300c0,165.685-134.314,300-300,300c-165.685,0-300-134.315-300-300C620,134.315,754.315,0,920,0
					C1085.686,0,1220,134.315,1220,300"/>
			</defs>
			<clipPath id="SVGID_10_">
				<use xlink:href="#SVGID_9_"  overflow="visible"/>
			</clipPath>
			<g clip-path="url(#SVGID_10_)">
				<defs>
					<rect id="SVGID_11_" x="622.36" y="2.36" width="595.279" height="595.28"/>
				</defs>
				<clipPath id="SVGID_12_">
					<use xlink:href="#SVGID_11_"  overflow="visible"/>
				</clipPath>
				<g opacity="0.2" clip-path="url(#SVGID_12_)">
					<g>
						<defs>
							<rect id="SVGID_13_" x="584.297" y="294.003" width="503.343" height="359.94"/>
						</defs>
						<clipPath id="SVGID_14_">
							<use xlink:href="#SVGID_13_"  overflow="visible"/>
						</clipPath>
						
							<rect x="608.888" y="346.649" transform="matrix(0.9684 -0.2496 0.2496 0.9684 -91.8387 223.6389)" clip-path="url(#SVGID_14_)" fill="#1D1D1B" width="454.165" height="254.649"/>
					</g>
				</g>
				
					<rect x="614.583" y="353.338" transform="matrix(0.9684 -0.2496 0.2496 0.9684 -91.5676 223.4125)" clip-path="url(#SVGID_12_)" fill="#CEE0BD" width="441.261" height="238.906"/>
				<g opacity="0.2" clip-path="url(#SVGID_12_)">
					<g>
						<defs>
							<rect id="SVGID_15_" x="569.92" y="318.363" width="503.35" height="359.94"/>
						</defs>
						<clipPath id="SVGID_16_">
							<use xlink:href="#SVGID_15_"  overflow="visible"/>
						</clipPath>
						
							<rect x="594.512" y="371.009" transform="matrix(0.9684 -0.2496 0.2496 0.9684 -98.3734 220.8218)" clip-path="url(#SVGID_16_)" fill="#1D1D1B" width="454.165" height="254.649"/>
					</g>
				</g>
				
					<rect x="600.207" y="377.698" transform="matrix(0.9684 -0.2496 0.2496 0.9684 -98.1022 220.5952)" clip-path="url(#SVGID_12_)" fill="#CEE0BD" width="441.261" height="238.907"/>
			</g>
		</g>
	</g>
</g>
</svg>
