<svg enable-background="new 0 0 600 600" height="600" viewBox="0 0 600 600" width="600" xmlns="http://www.w3.org/2000/svg" xmlns:xlink="http://www.w3.org/1999/xlink"><clipPath id="a"><path d="m0 0h600v600h-600z"/></clipPath><clipPath id="b"><path d="m0 0h600v600h-600z"/></clipPath><clipPath id="c"><path d="m134.14 121.599h331.72v361.803h-331.72z"/></clipPath><clipPath id="d"><path d="m134.14 292.459h331.72v165.86h-331.72z"/></clipPath><clipPath id="e"><path d="m1220 300c0 165.685-134.314 300-300 300-165.685 0-300-134.315-300-300s134.315-300 300-300c165.686 0 300 134.315 300 300"/></clipPath><clipPath id="f"><path d="m622.36 2.36h595.279v595.28h-595.279z"/></clipPath><clipPath id="g"><path d="m584.297 294.003h503.343v359.94h-503.343z"/></clipPath><clipPath id="h"><path d="m569.92 318.363h503.35v359.94h-503.35z"/></clipPath><g clip-path="url(#a)"><path clip-path="url(#b)" d="m900 300c0 331.367-268.633 600-600 600-331.372 0-600-268.633-600-600 0-331.372 268.628-600 600-600 331.367 0 600 268.628 600 600" fill="#3d91e6"/><g clip-path="url(#b)" opacity=".2"><path clip-path="url(#c)" d="m405.86 483.401h-211.72c-33.137 0-60-26.862-60-60v-241.802c0-33.137 26.863-60 60-60h211.72c33.137 0 60 26.863 60 60v241.803c0 33.137-26.863 59.999-60 59.999" fill="#1d1d1b"/></g><path clip-path="url(#b)" d="m450.011 282.458h-300.022v-125.86c0-22.091 17.909-40 40-40h220.021c22.091 0 40 17.909 40 40v125.86z" fill="#868686"/><path clip-path="url(#b)" d="m410.011 468.319h-220.022c-22.091 0-40-17.909-40-40v-271.72c0-22.092 17.909-40 40-40h220.021c22.091 0 40 17.908 40 40v271.721c.001 22.09-17.908 39.999-39.999 39.999" fill="#868686"/><path clip-path="url(#b)" d="m419.36 463.319h-238.72c-22.091 0-40-17.909-40-40v-261.721c0-22.091 17.909-40 40-40h238.72c22.091 0 40 17.909 40 40v261.721c0 22.091-17.909 40-40 40" fill="#b1b1b1"/><path clip-path="url(#b)" d="m425.86 458.318h-251.72c-22.091 0-40-17.908-40-40v-251.72c0-22.091 17.909-40 40-40h251.72c22.091 0 40 17.909 40 40v251.72c0 22.092-17.909 40-40 40" fill="#fff"/><path clip-path="url(#b)" d="m317.722 344.654h-23.989v-92.471l-28.638 8.882v-19.507l50.053-17.93h2.574z" fill="#ea343d"/><path clip-path="url(#b)" d="m237.703 421.71v-51.188h15.75c3.445 0 6.604.592 9.475 1.775 2.871 1.184 5.332 2.848 7.383 4.992 2.05 2.145 3.65 4.717 4.798 7.717 1.149 3 1.723 6.329 1.723 9.984v2.32c0 3.656-.568 6.979-1.705 9.967s-2.742 5.555-4.816 7.699c-2.075 2.145-4.553 3.803-7.436 4.975s-6.059 1.759-9.527 1.759zm10.547-42.646v34.172h5.098c4.172 0 7.347-1.377 9.527-4.131s3.27-6.686 3.27-11.795v-2.391c0-5.203-1.079-9.146-3.235-11.83s-5.308-4.025-9.457-4.025z" fill="#3c3c3b"/><path clip-path="url(#b)" d="m312.656 411.162h-18.493l-3.515 10.547h-11.215l19.055-51.188h9.773l19.16 51.188h-11.215zm-15.644-8.543h12.797l-6.434-19.16z" fill="#3c3c3b"/><path clip-path="url(#b)" d="m344.578 393.584 10.652-23.062h11.532l-16.805 32.625v18.562h-10.723v-18.562l-16.804-32.625h11.566z" fill="#3c3c3b"/><g fill="#9c9b9b"><path clip-path="url(#b)" d="m165.226 267.819h-2.086c-6.352 0-11.5-5.149-11.5-11.5s5.148-11.5 11.5-11.5h2.086c6.351 0 11.5 5.149 11.5 11.5s-5.149 11.5-11.5 11.5"/><path clip-path="url(#b)" d="m165.226 340.319h-2.086c-6.352 0-11.5-5.149-11.5-11.5 0-6.352 5.148-11.5 11.5-11.5h2.086c6.351 0 11.5 5.148 11.5 11.5 0 6.351-5.149 11.5-11.5 11.5"/><path clip-path="url(#b)" d="m436.86 267.819h-2.086c-6.352 0-11.5-5.149-11.5-11.5s5.148-11.5 11.5-11.5h2.086c6.352 0 11.5 5.149 11.5 11.5s-5.148 11.5-11.5 11.5"/><path clip-path="url(#b)" d="m436.86 340.319h-2.086c-6.352 0-11.5-5.149-11.5-11.5 0-6.352 5.148-11.5 11.5-11.5h2.086c6.352 0 11.5 5.148 11.5 11.5 0 6.351-5.148 11.5-11.5 11.5"/></g><path clip-path="url(#b)" d="m164.908 337.318h-1.451c-5.145 0-9.316-4.171-9.316-9.315v-71.088c0-5.145 4.171-9.316 9.316-9.316h1.451c5.145 0 9.316 4.171 9.316 9.316v71.088c0 5.144-4.171 9.315-9.316 9.315" fill="#3c3c3b"/><path clip-path="url(#b)" d="m436.543 337.318h-1.451c-5.145 0-9.315-4.171-9.315-9.315v-71.088c0-5.145 4.171-9.316 9.315-9.316h1.451c5.145 0 9.316 4.171 9.316 9.316v71.088c0 5.144-4.171 9.315-9.316 9.315" fill="#3c3c3b"/><g clip-path="url(#b)" opacity=".1"><path clip-path="url(#d)" d="m134.14 292.459h331.72v125.859c0 22.092-17.909 40-40 40h-251.72c-22.091 0-40-17.908-40-40z" fill="#1d1d1b"/></g><g clip-path="url(#b)"><g clip-path="url(#e)"><g clip-path="url(#f)" opacity=".2"><path clip-path="url(#g)" d="m608.888 346.649h454.165v254.649h-454.165z" fill="#1d1d1b" transform="matrix(.9684 -.2496 .2496 .9684 -91.8387 223.6389)"/></g><path clip-path="url(#f)" d="m614.583 353.338h441.261v238.906h-441.261z" fill="#cee0bd" transform="matrix(.9684 -.2496 .2496 .9684 -91.5676 223.4125)"/><g clip-path="url(#f)" opacity=".2"><path clip-path="url(#h)" d="m594.512 371.009h454.165v254.649h-454.165z" fill="#1d1d1b" transform="matrix(.9684 -.2496 .2496 .9684 -98.3734 220.8218)"/></g><path clip-path="url(#f)" d="m600.207 377.698h441.261v238.907h-441.261z" fill="#cee0bd" transform="matrix(.9684 -.2496 .2496 .9684 -98.1022 220.5952)"/></g></g></g></svg>