<svg clip-rule="evenodd" fill-rule="evenodd" stroke-linejoin="round" stroke-miterlimit="2" viewBox="0 0 406 306" xmlns="http://www.w3.org/2000/svg"><path d="m126.4 73.6h163.5v188h-163.5z" fill="#fff" transform="matrix(2.48318 0 0 1.62766 -313.874 -119.796)"/><path d="m105.3 109.5s19.8-10.2 42.1-2.4-21.1 20.3-21.1 20.3z" fill="#61afff" fill-rule="nonzero"/><path d="m105.3 109.5s19.8-10.2 42.1-2.4-21.1 20.3-21.1 20.3z" fill-opacity=".08" fill-rule="nonzero"/><path d="m81.2 116.8s-13.6 7.8-17 27.1 43 45.3 43 45.3l28.8-21.6s17.1-75.3-43-55.1z" fill="#61afff" fill-rule="nonzero"/><ellipse cx="210.8" cy="261.6" fill="#e6e6e6" fill-opacity=".45" rx="142.5" ry="20.5"/><path d="m126.4 73.6h163.5v188h-163.5z" fill="#e6e6e6"/><path d="m248 180.2h22.8v21.1h-22.8z" fill="#24285b"/><path d="m248 211.4h22.8v21.1h-22.8z" fill="#a5a5a5"/><path d="m254.3 195s-41.6 6.9-22.1 66.6h44.5z" fill-opacity=".08" fill-rule="nonzero"/><path d="m107.2 189.2 19.6 26-.4-40.4z" fill="#24285b" fill-rule="nonzero"/><path d="m123.7 59.9h169.1v47.1h-169.1z" fill="#61afff"/><circle cx="280.4" cy="223.2" fill="#ffd200" r="38.4"/><path d="m156.3 42.4h13.6v41h-13.6z" fill="#f2f2f2"/><path d="m169.9 59.6h9v23.9h-9z" fill-opacity=".08"/><path d="m259.4 59.6h9v23.9h-9z" fill-opacity=".08"/><path d="m245.8 42.4h13.6v41h-13.6z" fill="#f2f2f2"/><path d="m148.6 125.8h37.1v11.2h-37.1z" fill="#24285b"/><path d="m149.7 149.1h22.8v21.1h-22.8z" fill="#fff"/><path d="m182.9 149.1h22.8v21.1h-22.8z" fill="#a5a5a5" fill-opacity=".32"/><path d="m215.7 149.1h22.8v21.1h-22.8z" fill="#ffd200"/><path d="m248 149.1h22.8v21.1h-22.8z" fill="#24285b"/><path d="m80.6 117.2s-.6 7.4 6.2 11 6.1-5.5 6.1-5.5 2.5 2.7 6.4-.8-5.3-9.9-5.3-9.9z" fill="#fff" fill-rule="nonzero"/><path d="m149.7 180.2h22.8v21.1h-22.8z" fill="#fff"/><path d="m182.9 180.2h22.8v21.1h-22.8z" fill="#a5a5a5" fill-opacity=".32"/><path d="m215.7 180.2h22.8v21.1h-22.8z" fill="#a5a5a5" fill-opacity=".32"/><path d="m149.7 211.4h22.8v21.1h-22.8z" fill="#fff"/><path d="m182.9 211.4h22.8v21.1h-22.8z" fill="#a5a5a5" fill-opacity=".32"/><path d="m215.7 211.4h22.8v21.1h-22.8z" fill="#a5a5a5" fill-opacity=".32"/><path d="m91.1 109c.5 1.5 1.1 3.1 1.8 4.5 1 2 1.8 5.3-1 7.5-4.4 3.4-9.6-3.6-9.6-3.6s-6.7-5.6-2-9.3c4.3-3.2 8.4-6.2 10.8.9z" fill="#f4a28c" fill-rule="nonzero"/><path d="m75 107.3c-.9 1-1.4 2.3-1.4 3.7-.1 1.4.7 2.8 1.9 3.4 3.2 1.5 6.8 3 6.8 3s-3.6-3.2 0-4.6 7.6-.2 8.8-3.8 2-5.6 0-7.9-3.1-5.6-6.5-2.6c-3.3 3-3-.6-6-1.7s-6.5.6-5.1 3.2c1.2 2.3 3.3 5.2 1.5 7.3z" fill="#24285b" fill-rule="nonzero"/><path d="m86.7 140c-2.2-9.7-15.4-11.7-20.7-3.3-6.7 10.6-15.3 28-12.2 44.4 4.7 26 25.1 49.1 72.6 34.2v-7.8s-16.7 3.6-31.3-1.9-21.1-22.9-14.3-37c4-8.2 8-19.5 5.9-28.6z" fill="#61afff" fill-rule="nonzero"/><path d="m86.7 140c-2.2-9.7-15.4-11.7-20.7-3.3-6.7 10.6-15.3 28-12.2 44.4 4.7 26 25.1 49.1 72.6 34.2v-7.8s-16.7 3.6-31.3-1.9-21.1-22.9-14.3-37c4-8.2 8-19.5 5.9-28.6z" fill="#fff" fill-opacity=".2" fill-rule="nonzero"/><path d="m126.4 215.2s-7.1-4.4-2.7-11c4.4-6.5 13.3 2.3 2.7 11z" fill="#f4a28c" fill-rule="nonzero"/><path d="m126.4 107h163.5v9.8h-163.5z" fill="#a5a5a5" fill-opacity=".32"/><path d="m82.8 117.6s-1.5-2.2-3.4-1c-2 1.1 1 5 3.4 1z" fill="#f4a28c" fill-rule="nonzero"/><path d="m92.2 114s-1.8-1.9-.4-3.6c1.5-1.8 4.8 2 .4 3.6z" fill="#f4a28c" fill-rule="nonzero"/><path d="m188.1 59.9s5.4-8.1 11.5-4.1.7 9.5-11.5 4.1z" fill="#f4a28c" fill-rule="nonzero"/><path d="m105.3 109.5s27.6 43.4-10.7 71.8l12.6 8 19.1-14.4v-61.4c.1-.1-7-6.2-21-4z" fill-opacity=".08" fill-rule="nonzero"/><path d="m286 241.8h-7.4v-28.4l-8.8 2.7v-6l15.4-5.5h.8z" fill="#fff" fill-rule="nonzero"/><g fill="#f2f2f2"><path d="m53.6 231.5h25v7h-25z" transform="matrix(-.9853 .171103 -.171103 -.9853 171.448 455.243)"/><path d="m331.8 219.7h25v7h-25z" transform="matrix(-.897499 .441002 -.441002 -.897499 751.74 271.691)"/><path d="m90.5 71.5h14.6v4.1h-14.6z" transform="matrix(-.897499 .441002 -.441002 -.897499 217.992 96.4519)"/><path d="m73.8 28.2h4.1v14.6h-4.1z" transform="matrix(-.201898 .979401 -.979401 -.201898 125.933 -31.6632)"/><path d="m331.9 96.8h4.1v14.6h-4.1z" transform="matrix(-.201898 .979401 -.979401 -.201898 503.318 -201.891)"/><path d="m311.6 45.8h14.6v4.1h-14.6z" transform="matrix(-.836099 .548602 -.548602 -.836099 611.759 -87.111)"/><path d="m308.8 159h25v7h-25z" transform="matrix(-.9995 .0331579 -.0331579 -.9995 647.843 314.275)"/></g><path d="m168.8 153.9c-.6-.9-1.9-1.2-2.8-.6-1.7 1.1-3.3 2.4-4.9 3.6l-4.3-5c-.7-.8-2-.9-2.8-.2s-.9 2-.2 2.8l4.2 4.9c-1.3 1.2-2.6 2.3-3.9 3.5-.8.7-.9 2-.2 2.8.4.4.9.7 1.5.7.5 0 1-.2 1.3-.5 1.3-1.1 2.6-2.3 3.9-3.4l3.2 3.7c.4.5 1 .7 1.5.7s.9-.2 1.3-.5c.8-.7.9-2 .2-2.8l-3.2-3.7c1.5-1.2 3-2.3 4.5-3.3 1.1-.5 1.3-1.7.7-2.7z" fill="#ffd200" fill-rule="nonzero"/></svg>