<svg clip-rule="evenodd" fill-rule="evenodd" stroke-linejoin="round" stroke-miterlimit="2" viewBox="0 0 400 400" xmlns="http://www.w3.org/2000/svg"><path d="m0 0h406v306h-406z" fill="#fff" transform="scale(.985222 1.30719)"/><ellipse cx="191.3" cy="320.1" fill="#e6e6e6" fill-opacity=".45" rx="105.4" ry="11.2"/><g fill-rule="nonzero" transform="translate(-3 47)"><path d="m210.7 67.2s-34.2-1.5-43.4 17.5c-9.1 19-5.6 35.2-43.7 32.2-32.4-2.5-41.3 18.2-43.2 24.4-.2.6-.3 1.1-.5 1.7 0 0 36.7-14.3 56.8 13.1s48 32.9 76.9 22.2 40.2-69.1 40.2-69.1z" fill="#ffd200"/><path d="m79.9 143.1s21.8-25.2 46.6-16.1 37.5-6.7 51.2-31 54.5-13.6 54.5-13.6l-51.5 101.1s-24.6 0-50-34c-.1 0-16.4-17.2-50.8-6.4z" fill-opacity=".04"/><path d="m193.7 204s1.5 16.8 6.3 17.1c4.9.3 2.7-16.2 2.7-16.2z" fill="#61afff"/><path d="m193.7 204s1.5 16.8 6.3 17.1c4.9.3 2.7-16.2 2.7-16.2z" fill-opacity=".14"/><g fill="#f4a28c"><path d="m230.8 169.2s12.3 74.5-38.7 86.7l-2.8-3.8s29-23.8 21.4-79.9z"/><path d="m246 76.5s50.8 22.1 42.9 108.1l-9.4-1.9s-2.5-39.2-32.4-66.3-1.1-39.9-1.1-39.9z"/><path d="m222.3 79.5s-18.3-16.1-33 .2c-9.4 10.4-18 21.4-25.9 33l-11.6-30.2-6.2 2.1s-2.9 35.4 11.1 47.9c13.9 12.4 65.6-53 65.6-53z"/></g><path d="m250.2 63.7s5.2 14.6-4.4 16.2-4.5-21.9-4.5-21.9z" fill="#24285b"/><path d="m249.7 53.7c.7 2.8 1 5.8.9 8.7-.1 1.5-1.4 2.5-2.9 2.4-2.3-.1-4.3-1.5-5.1-3.6l-2.3-4.3c-.7-1.9-.2-4 1.3-5.3 2.5-2.6 7.5-1 8.1 2.1z" fill="#f4a28c"/><path d="m241.2 58-4.6 16.6 9.4 1.9-.4-12.6z" fill="#f4a28c"/><path d="m250.3 57 1.8 1.8c.3.3.3.8 0 1.2-.1.1-.2.2-.3.2l-1.9.7z" fill="#f4a28c"/><path d="m245.6 64.3c-1.1-.4-2-1.1-2.8-2 0 0-1.3 3.5 2.9 5.7z" fill="#ce8172" fill-opacity=".31"/><path d="m244.3 58.4s-.4-2-1.8-1.6c-1.5.4-1 3.3 1.1 3.2z" fill="#f4a28c"/><path d="m243.4 55.9 10.4-.3s-1-11.1-10.2-9.8z" fill="#24285b"/><path d="m236.6 74.6 9.3 1.9s41.2 33.7 18.5 56.3c-22.2 22.1-22.4 27.2-22.4 27.2l-46.3-14s-11.7-93.8 40.9-71.4z" fill="#61afff"/><path d="m224.6 86.5s20 9.5 35-.4c-3.4-3.9-7.4-7.1-11.9-9.6l-1.8-1-19.8-4.1z" fill="#ffd200"/><path d="m239.7 74.2s-5.7 20.8-26.2 28.1c0 0-15.1 19.2-6.2 47.3l-11.6-3.5s-.9-8.8-1-14.1c0 0-.6-17.6 1.8-30.3 0 0-12.7-6.6-14.6-13.3 0 0 6.3-7.1 8-9.1s49.8-5.1 49.8-5.1z" fill-opacity=".08"/><path d="m243.7 45.7s-10-.8-12.3 5.8-2.2 16.6-15.9 10-31.1 5.7-26.4 16.1 16.4 18.1 28.7 12.1 23.3-8.6 25-27.4.9-16.6.9-16.6z" fill="#24285b"/><path d="m272.9 166.3 17.2 3.5s-.4 21.8-3.7 27.8c0 0-4.9 11.7-11 7.3s3.9-12.3 3.9-12.3z" fill="#61afff"/><path d="m164.3 112.5-19 .6s-2.8-24.4.1-31.6c0 0 3.8-13.8 11.2-9.8 7.5 4-2.6 14.3-2.6 14.3z" fill="#61afff"/></g><circle cx="232.9" cy="155.4" fill="#fff" fill-opacity=".34" r="12.4"/><g fill-rule="nonzero" transform="translate(-3 47)"><path d="m206.6 171.1s17.5 32.6 3.2 41.4c-14.3 8.9-26.6-29.4-22.2-38.2 4.4-8.6 19-3.2 19-3.2z" fill="#f4a28c"/><path d="m206.6 171.1s17.5 32.6 3.2 41.4c-14.3 8.9-26.6-29.4-22.2-38.2 4.4-8.6 19-3.2 19-3.2z" fill-opacity=".14"/><path d="m195.7 146 46.3 14-2.3 8.8-47.6-15z" fill="#ffd200"/><path d="m192.1 153.8c-6.4 7-10.3 15.9-11.2 25.4l-.8 8.7s37.4 19.5 61.8 14.1c0 0-3.3-20.7-2.3-33.2z" fill="#24285b"/><path d="m202.5 234 12.6 10.8s-13.8 9.5-24.5 13.9c-2.9 1.2-5.4 3.1-7.3 5.5l-2.6 4.6c-.3.4-.8.6-1.3.3-.4-.2-.5-.6-.4-1l2.9-10.9c.7-2.9 2.6-5.4 5.2-6.9 3.4-1.9 9.1-6.3 15.4-16.3z" fill="#61afff"/><path d="m195.7 146 11.5 3.5v9.1l-15.1-4.8z" fill-opacity=".08"/></g></svg>