<svg enable-background="new 0 0 600 600" height="600" viewBox="0 0 600 600" width="600" xmlns="http://www.w3.org/2000/svg" xmlns:xlink="http://www.w3.org/1999/xlink"><clipPath id="a"><path d="m0 0h600v600h-600z"/></clipPath><clipPath id="b"><path d="m0 0h600v600h-600z"/></clipPath><clipPath id="c"><path d="m97.062 145.586h405.878v362.626h-405.878z"/></clipPath><clipPath id="d"><path d="m316.484 200.971c16.857-32.588 48.593-37.454 66.009-37.454 1.62 0 3.269.041 4.904.122 42.934 2.11 74.82 40.905 79.876 61.111 9.992 39.954 1.212 78.448-26.847 117.68-27.412 38.328-73.194 77.623-139.965 120.13-.272.177-.649.177-.924 0-66.77-42.507-112.553-81.802-139.964-120.13-28.06-39.231-36.841-77.726-26.847-117.68 5.055-20.206 36.942-59.001 79.876-61.111 1.635-.081 3.284-.122 4.904-.122 17.416 0 49.151 4.866 66.01 37.455 3.198 6.182 9.514 10.021 16.483 10.021 6.972 0 13.288-3.84 16.485-10.022m-16.484-32.412c-19.323-23.596-48.4-36.767-82.493-36.767-2.136 0-4.31.053-6.461.159-32.772 1.611-57.663 17.674-72.772 30.865-18.231 15.918-31.811 36.193-36.324 54.236-12.216 48.838-1.512 97.231 31.818 143.833 29.82 41.696 78.47 83.707 148.732 128.438 5.235 3.333 11.287 5.095 17.5 5.095s12.265-1.762 17.5-5.094c70.261-44.731 118.913-86.742 148.732-128.438 33.328-46.602 44.033-94.995 31.817-143.833-4.513-18.043-18.093-38.318-36.325-54.236-15.107-13.191-39.998-29.254-72.771-30.865-2.15-.106-4.325-.159-6.461-.159-34.091-.001-63.167 13.168-82.492 36.766"/></clipPath><clipPath id="e"><path d="m0 0h600v600h-600z"/></clipPath><g clip-path="url(#a)"><path clip-path="url(#b)" d="m900 300c0 331.369-268.631 600-600 600-331.37 0-600-268.631-600-600 0-331.37 268.63-600 600-600 331.369 0 600 268.63 600 600" fill="#76c4b7"/><path clip-path="url(#b)" d="m291.019 475.941c5.473 3.484 12.489 3.484 17.962 0 130.426-83.032 196.608-163.377 173.68-255.04-6.998-27.978-45.156-70.682-94.486-73.106-32.141-1.58-67.201 9.973-85.779 45.887-.998 1.93-3.792 1.93-4.791 0-18.579-35.914-53.639-47.467-85.78-45.887-49.33 2.424-87.488 45.128-94.486 73.106-22.929 91.663 43.253 172.008 173.68 255.04" fill="#e5332a"/><g clip-path="url(#b)" opacity=".2"><path clip-path="url(#c)" d="m300 508.212c-6.213 0-12.265-1.762-17.5-5.095-70.262-44.73-118.912-86.742-148.732-128.438-33.329-46.602-44.034-94.995-31.817-143.834 4.512-18.042 18.092-38.317 36.324-54.235 15.109-13.192 39.999-29.254 72.772-30.865 2.15-.106 4.324-.159 6.461-.159 34.092 0 63.169 13.17 82.492 36.766 19.325-23.597 48.401-36.766 82.494-36.766 2.137 0 4.311.053 6.461.159 32.772 1.611 57.663 17.673 72.771 30.865 18.232 15.918 31.813 36.193 36.325 54.235 12.216 48.839 1.512 97.232-31.818 143.834-29.818 41.695-78.47 83.707-148.731 128.438-5.237 3.333-11.289 5.095-17.502 5.095m-82.492-330.9c-1.62 0-3.27.04-4.904.121-42.935 2.11-74.822 40.906-79.876 61.112-9.994 39.954-1.213 78.447 26.846 117.68 27.411 38.328 73.194 77.623 139.964 120.13.276.175.651.175.925 0 66.77-42.507 112.552-81.802 139.964-120.13 28.058-39.232 36.84-77.726 26.846-117.68-5.054-20.206-36.941-59.002-79.876-61.112-1.634-.081-3.283-.121-4.903-.121-17.416 0-49.15 4.866-66.01 37.454-3.195 6.181-9.513 10.021-16.484 10.021-6.969 0-13.285-3.839-16.483-10.019-16.859-32.591-48.593-37.456-66.009-37.456" fill="#1d1d1b"/></g><path clip-path="url(#b)" d="m300 494.417c-6.213 0-12.265-1.762-17.5-5.095-70.262-44.729-118.912-86.742-148.732-128.437-33.329-46.603-44.034-94.996-31.817-143.834 4.512-18.042 18.092-38.317 36.324-54.235 15.109-13.192 39.999-29.254 72.772-30.865 2.15-.106 4.324-.159 6.461-.159 34.092 0 63.169 13.17 82.492 36.766 19.325-23.597 48.401-36.766 82.494-36.766 2.137 0 4.311.053 6.461.159 32.772 1.611 57.663 17.673 72.771 30.865 18.232 15.918 31.813 36.193 36.325 54.235 12.216 48.839 1.512 97.232-31.818 143.834-29.818 41.694-78.47 83.707-148.731 128.438-5.237 3.332-11.289 5.094-17.502 5.094m-82.492-330.9c-1.62 0-3.27.04-4.904.121-42.935 2.11-74.822 40.906-79.876 61.112-9.994 39.954-1.213 78.447 26.846 117.68 27.411 38.327 73.194 77.623 139.964 120.13.276.175.651.175.925 0 66.77-42.507 112.552-81.803 139.964-120.13 28.058-39.233 36.84-77.727 26.846-117.68-5.054-20.206-36.941-59.002-79.876-61.112-1.634-.081-3.283-.121-4.903-.121-17.416 0-49.15 4.866-66.01 37.454-3.195 6.181-9.513 10.021-16.484 10.021-6.969 0-13.285-3.839-16.483-10.019-16.859-32.591-48.593-37.456-66.009-37.456" fill="#1e5e52"/><path clip-path="url(#b)" d="m300 494.417c-6.213 0-12.265-1.762-17.5-5.095-70.262-44.729-118.912-86.742-148.732-128.437-33.329-46.603-44.034-94.996-31.817-143.834 4.512-18.042 18.092-38.317 36.324-54.235 15.109-13.192 39.999-29.254 72.772-30.865 2.15-.106 4.324-.159 6.461-.159 34.092 0 63.169 13.17 82.492 36.766 19.325-23.597 48.401-36.766 82.494-36.766 2.137 0 4.311.053 6.461.159 32.772 1.611 57.663 17.673 72.771 30.865 18.232 15.918 31.813 36.193 36.325 54.235 12.216 48.839 1.512 97.232-31.818 143.834-29.818 41.694-78.47 83.707-148.731 128.438-5.237 3.332-11.289 5.094-17.502 5.094m-82.492-330.9c-1.62 0-3.27.04-4.904.121-42.935 2.11-74.822 40.906-79.876 61.112-9.994 39.954-1.213 78.447 26.846 117.68 27.411 38.327 73.194 77.623 139.964 120.13.276.175.651.175.925 0 66.77-42.507 112.552-81.803 139.964-120.13 28.058-39.233 36.84-77.727 26.846-117.68-5.054-20.206-36.941-59.002-79.876-61.112-1.634-.081-3.283-.121-4.903-.121-17.416 0-49.15 4.866-66.01 37.454-3.195 6.181-9.513 10.021-16.484 10.021-6.969 0-13.285-3.839-16.483-10.019-16.859-32.591-48.593-37.456-66.009-37.456" fill="#ff5e5a"/></g><g clip-path="url(#a)"><path clip-path="url(#d)" d="m60.752 131.951h478.497v75.252h-478.497z" fill="#1e5e52"/><path clip-path="url(#d)" d="m60.752 207.203h478.497v75.252h-478.497z" fill="#1e5e52"/><g fill="#ff5e5a"><path clip-path="url(#d)" d="m60.752 282.456h478.497v75.252h-478.497z"/><path clip-path="url(#d)" d="m60.752 357.708h478.497v75.252h-478.497z"/><path clip-path="url(#d)" d="m60.752 432.96h478.497v75.252h-478.497z"/></g></g><g clip-path="url(#a)" fill="#fff"><path clip-path="url(#e)" d="m227.457 296.862 5.899-51.967h57.304v16.925h-40.66l-2.528 21.979c.702-.374 1.567-.783 2.598-1.228 1.03-.444 2.212-.866 3.546-1.264 1.335-.397 2.784-.725 4.355-.983 1.567-.257 3.195-.387 4.88-.387 4.916 0 9.304.785 13.167 2.353 3.863 1.569 7.127 3.827 9.796 6.777 2.668 2.949 4.706 6.555 6.11 10.815s2.106 9.082 2.106 14.465c0 4.542-.702 8.873-2.106 12.991-1.404 4.121-3.535 7.749-6.391 10.885-2.855 3.138-6.449 5.643-10.779 7.514-4.331 1.873-9.422 2.81-15.274 2.81-4.401 0-8.662-.667-12.781-2.001-4.12-1.335-7.771-3.276-10.955-5.829-3.183-2.551-5.758-5.676-7.725-9.375-1.966-3.697-3.019-7.911-3.16-12.64h20.084c.422 4.26 1.908 7.573 4.459 9.937 2.552 2.364 5.887 3.546 10.008 3.546 2.574 0 4.763-.491 6.566-1.475 1.801-.983 3.276-2.317 4.424-4.003 1.147-1.686 1.989-3.687 2.528-6.004.538-2.317.807-4.811.807-7.479 0-2.669-.328-5.114-.983-7.339-.656-2.223-1.662-4.119-3.02-5.688-1.357-1.567-3.066-2.785-5.126-3.651s-4.495-1.299-7.303-1.299c-1.873 0-3.5.164-4.881.491-1.381.328-2.61.749-3.686 1.264-1.078.516-2.026 1.113-2.844 1.791-.82.679-1.581 1.369-2.283 2.071z"/><path clip-path="url(#e)" d="m375.771 304.866c0 7.679-.832 14.268-2.492 19.769-1.663 5.502-4.004 10.031-7.023 13.588-3.02 3.559-6.648 6.169-10.885 7.83-4.237 1.662-8.93 2.493-14.08 2.493s-9.844-.831-14.08-2.493c-4.237-1.661-7.877-4.271-10.92-7.83-3.043-3.557-5.406-8.086-7.092-13.588-1.686-5.501-2.528-12.09-2.528-19.769v-17.766c0-7.678.831-14.267 2.493-19.768 1.661-5.501 4.014-10.018 7.057-13.553s6.672-6.133 10.885-7.795c4.214-1.661 8.895-2.493 14.045-2.493s9.843.832 14.08 2.493c4.236 1.662 7.877 4.26 10.92 7.795s5.408 8.052 7.094 13.553c1.685 5.501 2.527 12.09 2.527 19.768v17.766zm-20.294-20.645c0-4.541-.316-8.356-.947-11.446-.633-3.09-1.57-5.583-2.81-7.48-1.241-1.895-2.751-3.265-4.529-4.108-1.78-.842-3.792-1.264-6.04-1.264-2.246 0-4.248.422-6.004 1.264-1.756.843-3.242 2.213-4.459 4.108-1.218 1.897-2.142 4.39-2.772 7.48-.634 3.09-.949 6.905-.949 11.446v23.314c0 4.589.327 8.451.983 11.587.654 3.137 1.591 5.677 2.809 7.619 1.217 1.943 2.715 3.336 4.494 4.179 1.779.844 3.793 1.264 6.039 1.264 2.248 0 4.26-.42 6.039-1.264 1.779-.843 3.266-2.235 4.46-4.179 1.194-1.942 2.106-4.482 2.739-7.619.631-3.136.947-6.998.947-11.587z"/><path clip-path="url(#e)" d="m239.845 404.163v-36.594h11.26c2.463 0 4.72.424 6.773 1.27 2.052.846 3.812 2.036 5.278 3.568 1.465 1.533 2.61 3.373 3.43 5.517.821 2.146 1.233 4.524 1.233 7.139v1.658c0 2.614-.407 4.989-1.219 7.125-.814 2.137-1.961 3.972-3.444 5.505-1.483 1.532-3.255 2.718-5.316 3.556-2.06.838-4.331 1.257-6.81 1.257h-11.185zm7.54-30.486v24.43h3.645c2.982 0 5.251-.984 6.81-2.952 1.559-1.97 2.338-4.78 2.338-8.434v-1.709c0-3.72-.772-6.538-2.313-8.457-1.542-1.919-3.794-2.878-6.76-2.878z"/><path clip-path="url(#e)" d="m293.429 396.623h-13.22l-2.514 7.539h-8.017l13.622-36.593h6.987l13.697 36.593h-8.017zm-11.185-6.107h9.148l-4.599-13.697z"/><path clip-path="url(#e)" d="m316.249 384.057 7.616-16.488h8.242l-12.012 23.324v13.269h-7.665v-13.269l-12.014-23.324h8.268z"/><path clip-path="url(#e)" d="m354.023 394.563c0-.637-.092-1.211-.275-1.722-.186-.511-.541-.984-1.068-1.42-.528-.436-1.257-.863-2.188-1.282-.93-.418-2.132-.862-3.605-1.332-1.677-.536-3.256-1.139-4.738-1.81-1.482-.67-2.781-1.461-3.896-2.375-1.113-.913-1.993-1.964-2.638-3.154-.646-1.189-.968-2.58-.968-4.172 0-1.524.33-2.919.992-4.185.662-1.265 1.592-2.341 2.79-3.229s2.622-1.579 4.272-2.073 3.465-.742 5.441-.742c2.026 0 3.871.281 5.529.843s3.074 1.345 4.247 2.35 2.078 2.2 2.715 3.581c.637 1.383.954 2.895.954 4.537h-7.539c0-.771-.121-1.483-.364-2.137s-.616-1.215-1.118-1.684c-.503-.469-1.131-.833-1.885-1.094-.754-.259-1.643-.39-2.664-.39-.989 0-1.849.109-2.576.327-.73.218-1.332.52-1.811.904-.477.386-.838.839-1.08 1.357-.243.52-.364 1.072-.364 1.659 0 1.206.616 2.216 1.847 3.028 1.232.813 3.037 1.571 5.416 2.275 1.994.619 3.749 1.306 5.266 2.061 1.517.754 2.781 1.608 3.795 2.564 1.014.954 1.78 2.026 2.3 3.216s.778 2.538.778 4.046c0 1.608-.313 3.041-.941 4.298s-1.521 2.316-2.677 3.18-2.551 1.524-4.185 1.985-3.455.691-5.467.691c-1.206 0-2.412-.105-3.619-.314-1.206-.209-2.358-.531-3.455-.968-1.098-.436-2.116-.98-3.055-1.634-.938-.653-1.755-1.424-2.449-2.312-.696-.889-1.24-1.897-1.635-3.029-.393-1.131-.59-2.383-.59-3.757h7.564c0 1.105.176 2.044.528 2.814.352.771.842 1.396 1.47 1.873.629.478 1.387.825 2.275 1.043.887.218 1.876.326 2.965.326.972 0 1.818-.104 2.539-.313.72-.21 1.314-.499 1.784-.867.469-.369.817-.809 1.043-1.319.227-.51.34-1.058.34-1.644"/></g></svg>