<?xml version="1.0" encoding="utf-8"?>
<!-- Generator: Adobe Illustrator 16.0.0, SVG Export Plug-In . SVG Version: 6.00 Build 0)  -->
<!DOCTYPE svg PUBLIC "-//W3C//DTD SVG 1.1//EN" "http://www.w3.org/Graphics/SVG/1.1/DTD/svg11.dtd">
<svg version="1.1" id="Capa_1" xmlns="http://www.w3.org/2000/svg" xmlns:xlink="http://www.w3.org/1999/xlink" x="0px" y="0px"
	 width="600px" height="600px" viewBox="0 0 600 600" enable-background="new 0 0 600 600" xml:space="preserve">
<g>
	<defs>
		<rect id="SVGID_1_" width="600" height="600"/>
	</defs>
	<clipPath id="SVGID_2_">
		<use xlink:href="#SVGID_1_"  overflow="visible"/>
	</clipPath>
	<g clip-path="url(#SVGID_2_)">
		<defs>
			<rect id="SVGID_3_" width="600" height="600"/>
		</defs>
		<clipPath id="SVGID_4_">
			<use xlink:href="#SVGID_3_"  overflow="visible"/>
		</clipPath>
		<path clip-path="url(#SVGID_4_)" fill="#76C4B7" d="M900,300c0,331.369-268.631,600-600,600c-331.37,0-600-268.631-600-600
			c0-331.37,268.63-600,600-600C631.369-300,900-31.37,900,300"/>
		<path clip-path="url(#SVGID_4_)" fill="#E5332A" d="M291.019,475.941c5.473,3.484,12.489,3.484,17.962,0
			c130.426-83.032,196.608-163.377,173.68-255.04c-6.998-27.978-45.156-70.682-94.486-73.106
			c-32.141-1.58-67.201,9.973-85.779,45.887c-0.998,1.93-3.792,1.93-4.791,0c-18.579-35.914-53.639-47.467-85.78-45.887
			c-49.33,2.424-87.488,45.128-94.486,73.106C94.41,312.564,160.592,392.909,291.019,475.941"/>
		<g opacity="0.2" clip-path="url(#SVGID_4_)">
			<g>
				<defs>
					<rect id="SVGID_5_" x="97.062" y="145.586" width="405.878" height="362.626"/>
				</defs>
				<clipPath id="SVGID_6_">
					<use xlink:href="#SVGID_5_"  overflow="visible"/>
				</clipPath>
				<path clip-path="url(#SVGID_6_)" fill="#1D1D1B" d="M300,508.212c-6.213,0-12.265-1.762-17.5-5.095
					c-70.262-44.73-118.912-86.742-148.732-128.438c-33.329-46.602-44.034-94.995-31.817-143.834
					c4.512-18.042,18.092-38.317,36.324-54.235c15.109-13.192,39.999-29.254,72.772-30.865c2.15-0.106,4.324-0.159,6.461-0.159
					c34.092,0,63.169,13.17,82.492,36.766c19.325-23.597,48.401-36.766,82.494-36.766c2.137,0,4.311,0.053,6.461,0.159
					c32.772,1.611,57.663,17.673,72.771,30.865c18.232,15.918,31.813,36.193,36.325,54.235
					c12.216,48.839,1.512,97.232-31.818,143.834c-29.818,41.695-78.47,83.707-148.731,128.438
					C312.265,506.45,306.213,508.212,300,508.212 M217.508,177.312c-1.62,0-3.27,0.04-4.904,0.121
					c-42.935,2.11-74.822,40.906-79.876,61.112c-9.994,39.954-1.213,78.447,26.846,117.68
					c27.411,38.328,73.194,77.623,139.964,120.13c0.276,0.175,0.651,0.175,0.925,0c66.77-42.507,112.552-81.802,139.964-120.13
					c28.058-39.232,36.84-77.726,26.846-117.68c-5.054-20.206-36.941-59.002-79.876-61.112c-1.634-0.081-3.283-0.121-4.903-0.121
					c-17.416,0-49.15,4.866-66.01,37.454c-3.195,6.181-9.513,10.021-16.484,10.021c-6.969,0-13.285-3.839-16.483-10.019
					C266.658,182.177,234.924,177.312,217.508,177.312"/>
			</g>
		</g>
		<path clip-path="url(#SVGID_4_)" fill="#1E5E52" d="M300,494.417c-6.213,0-12.265-1.762-17.5-5.095
			c-70.262-44.729-118.912-86.742-148.732-128.437c-33.329-46.603-44.034-94.996-31.817-143.834
			c4.512-18.042,18.092-38.317,36.324-54.235c15.109-13.192,39.999-29.254,72.772-30.865c2.15-0.106,4.324-0.159,6.461-0.159
			c34.092,0,63.169,13.17,82.492,36.766c19.325-23.597,48.401-36.766,82.494-36.766c2.137,0,4.311,0.053,6.461,0.159
			c32.772,1.611,57.663,17.673,72.771,30.865c18.232,15.918,31.813,36.193,36.325,54.235c12.216,48.839,1.512,97.232-31.818,143.834
			c-29.818,41.694-78.47,83.707-148.731,128.438C312.265,492.655,306.213,494.417,300,494.417 M217.508,163.517
			c-1.62,0-3.27,0.04-4.904,0.121c-42.935,2.11-74.822,40.906-79.876,61.112c-9.994,39.954-1.213,78.447,26.846,117.68
			c27.411,38.327,73.194,77.623,139.964,120.13c0.276,0.175,0.651,0.175,0.925,0c66.77-42.507,112.552-81.803,139.964-120.13
			c28.058-39.233,36.84-77.727,26.846-117.68c-5.054-20.206-36.941-59.002-79.876-61.112c-1.634-0.081-3.283-0.121-4.903-0.121
			c-17.416,0-49.15,4.866-66.01,37.454c-3.195,6.181-9.513,10.021-16.484,10.021c-6.969,0-13.285-3.839-16.483-10.019
			C266.658,168.382,234.924,163.517,217.508,163.517"/>
		<path clip-path="url(#SVGID_4_)" fill="#FF5E5A" d="M300,494.417c-6.213,0-12.265-1.762-17.5-5.095
			c-70.262-44.729-118.912-86.742-148.732-128.437c-33.329-46.603-44.034-94.996-31.817-143.834
			c4.512-18.042,18.092-38.317,36.324-54.235c15.109-13.192,39.999-29.254,72.772-30.865c2.15-0.106,4.324-0.159,6.461-0.159
			c34.092,0,63.169,13.17,82.492,36.766c19.325-23.597,48.401-36.766,82.494-36.766c2.137,0,4.311,0.053,6.461,0.159
			c32.772,1.611,57.663,17.673,72.771,30.865c18.232,15.918,31.813,36.193,36.325,54.235c12.216,48.839,1.512,97.232-31.818,143.834
			c-29.818,41.694-78.47,83.707-148.731,128.438C312.265,492.655,306.213,494.417,300,494.417 M217.508,163.517
			c-1.62,0-3.27,0.04-4.904,0.121c-42.935,2.11-74.822,40.906-79.876,61.112c-9.994,39.954-1.213,78.447,26.846,117.68
			c27.411,38.327,73.194,77.623,139.964,120.13c0.276,0.175,0.651,0.175,0.925,0c66.77-42.507,112.552-81.803,139.964-120.13
			c28.058-39.233,36.84-77.727,26.846-117.68c-5.054-20.206-36.941-59.002-79.876-61.112c-1.634-0.081-3.283-0.121-4.903-0.121
			c-17.416,0-49.15,4.866-66.01,37.454c-3.195,6.181-9.513,10.021-16.484,10.021c-6.969,0-13.285-3.839-16.483-10.019
			C266.658,168.382,234.924,163.517,217.508,163.517"/>
	</g>
	<g clip-path="url(#SVGID_2_)">
		<defs>
			<path id="SVGID_7_" d="M316.484,200.971c16.857-32.588,48.593-37.454,66.009-37.454c1.62,0,3.269,0.041,4.904,0.122
				c42.934,2.11,74.82,40.905,79.876,61.111c9.992,39.954,1.212,78.448-26.847,117.68c-27.412,38.328-73.194,77.623-139.965,120.13
				c-0.272,0.177-0.649,0.177-0.924,0c-66.77-42.507-112.553-81.802-139.964-120.13c-28.06-39.231-36.841-77.726-26.847-117.68
				c5.055-20.206,36.942-59.001,79.876-61.111c1.635-0.081,3.284-0.122,4.904-0.122c17.416,0,49.151,4.866,66.01,37.455
				c3.198,6.182,9.514,10.021,16.483,10.021C306.971,210.993,313.287,207.153,316.484,200.971 M300,168.559
				c-19.323-23.596-48.4-36.767-82.493-36.767c-2.136,0-4.31,0.053-6.461,0.159c-32.772,1.611-57.663,17.674-72.772,30.865
				c-18.231,15.918-31.811,36.193-36.324,54.236c-12.216,48.838-1.512,97.231,31.818,143.833
				c29.82,41.696,78.47,83.707,148.732,128.438c5.235,3.333,11.287,5.095,17.5,5.095s12.265-1.762,17.5-5.094
				c70.261-44.731,118.913-86.742,148.732-128.438c33.328-46.602,44.033-94.995,31.817-143.833
				c-4.513-18.043-18.093-38.318-36.325-54.236c-15.107-13.191-39.998-29.254-72.771-30.865c-2.15-0.106-4.325-0.159-6.461-0.159
				C348.401,131.792,319.325,144.961,300,168.559"/>
		</defs>
		<clipPath id="SVGID_8_">
			<use xlink:href="#SVGID_7_"  overflow="visible"/>
		</clipPath>
		<rect x="60.752" y="131.951" clip-path="url(#SVGID_8_)" fill="#1E5E52" width="478.497" height="75.252"/>
		<rect x="60.752" y="207.203" clip-path="url(#SVGID_8_)" fill="#1E5E52" width="478.497" height="75.252"/>
		<rect x="60.752" y="282.456" clip-path="url(#SVGID_8_)" fill="#FF5E5A" width="478.497" height="75.252"/>
		<rect x="60.752" y="357.708" clip-path="url(#SVGID_8_)" fill="#FF5E5A" width="478.497" height="75.252"/>
		<rect x="60.752" y="432.96" clip-path="url(#SVGID_8_)" fill="#FF5E5A" width="478.497" height="75.252"/>
	</g>
	<g clip-path="url(#SVGID_2_)">
		<defs>
			<rect id="SVGID_9_" width="600" height="600"/>
		</defs>
		<clipPath id="SVGID_10_">
			<use xlink:href="#SVGID_9_"  overflow="visible"/>
		</clipPath>
		<path clip-path="url(#SVGID_10_)" fill="#FFFFFF" d="M227.457,296.862l5.899-51.967h57.304v16.925H250l-2.528,21.979
			c0.702-0.374,1.567-0.783,2.598-1.228c1.03-0.444,2.212-0.866,3.546-1.264c1.335-0.397,2.784-0.725,4.355-0.983
			c1.567-0.257,3.195-0.387,4.88-0.387c4.916,0,9.304,0.785,13.167,2.353c3.863,1.569,7.127,3.827,9.796,6.777
			c2.668,2.949,4.706,6.555,6.11,10.815c1.404,4.26,2.106,9.082,2.106,14.465c0,4.542-0.702,8.873-2.106,12.991
			c-1.404,4.121-3.535,7.749-6.391,10.885c-2.855,3.138-6.449,5.643-10.779,7.514c-4.331,1.873-9.422,2.81-15.274,2.81
			c-4.401,0-8.662-0.667-12.781-2.001c-4.12-1.335-7.771-3.276-10.955-5.829c-3.183-2.551-5.758-5.676-7.725-9.375
			c-1.966-3.697-3.019-7.911-3.16-12.64h20.084c0.422,4.26,1.908,7.573,4.459,9.937c2.552,2.364,5.887,3.546,10.008,3.546
			c2.574,0,4.763-0.491,6.566-1.475c1.801-0.983,3.276-2.317,4.424-4.003c1.147-1.686,1.989-3.687,2.528-6.004
			c0.538-2.317,0.807-4.811,0.807-7.479c0-2.669-0.328-5.114-0.983-7.339c-0.656-2.223-1.662-4.119-3.02-5.688
			c-1.357-1.567-3.066-2.785-5.126-3.651c-2.06-0.866-4.495-1.299-7.303-1.299c-1.873,0-3.5,0.164-4.881,0.491
			c-1.381,0.328-2.61,0.749-3.686,1.264c-1.078,0.516-2.026,1.113-2.844,1.791c-0.82,0.679-1.581,1.369-2.283,2.071L227.457,296.862
			z"/>
		<path clip-path="url(#SVGID_10_)" fill="#FFFFFF" d="M375.771,304.866c0,7.679-0.832,14.268-2.492,19.769
			c-1.663,5.502-4.004,10.031-7.023,13.588c-3.02,3.559-6.648,6.169-10.885,7.83c-4.237,1.662-8.93,2.493-14.08,2.493
			s-9.844-0.831-14.08-2.493c-4.237-1.661-7.877-4.271-10.92-7.83c-3.043-3.557-5.406-8.086-7.092-13.588
			c-1.686-5.501-2.528-12.09-2.528-19.769V287.1c0-7.678,0.831-14.267,2.493-19.768c1.661-5.501,4.014-10.018,7.057-13.553
			s6.672-6.133,10.885-7.795c4.214-1.661,8.895-2.493,14.045-2.493s9.843,0.832,14.08,2.493c4.236,1.662,7.877,4.26,10.92,7.795
			s5.408,8.052,7.094,13.553c1.685,5.501,2.527,12.09,2.527,19.768V304.866z M355.477,284.221c0-4.541-0.316-8.356-0.947-11.446
			c-0.633-3.09-1.57-5.583-2.81-7.48c-1.241-1.895-2.751-3.265-4.529-4.108c-1.78-0.842-3.792-1.264-6.04-1.264
			c-2.246,0-4.248,0.422-6.004,1.264c-1.756,0.843-3.242,2.213-4.459,4.108c-1.218,1.897-2.142,4.39-2.772,7.48
			c-0.634,3.09-0.949,6.905-0.949,11.446v23.314c0,4.589,0.327,8.451,0.983,11.587c0.654,3.137,1.591,5.677,2.809,7.619
			c1.217,1.943,2.715,3.336,4.494,4.179c1.779,0.844,3.793,1.264,6.039,1.264c2.248,0,4.26-0.42,6.039-1.264
			c1.779-0.843,3.266-2.235,4.46-4.179c1.194-1.942,2.106-4.482,2.739-7.619c0.631-3.136,0.947-6.998,0.947-11.587V284.221z"/>
		<path clip-path="url(#SVGID_10_)" fill="#FFFFFF" d="M239.845,404.163v-36.594h11.26c2.463,0,4.72,0.424,6.773,1.27
			c2.052,0.846,3.812,2.036,5.278,3.568c1.465,1.533,2.61,3.373,3.43,5.517c0.821,2.146,1.233,4.524,1.233,7.139v1.658
			c0,2.614-0.407,4.989-1.219,7.125c-0.814,2.137-1.961,3.972-3.444,5.505c-1.483,1.532-3.255,2.718-5.316,3.556
			c-2.06,0.838-4.331,1.257-6.81,1.257H239.845z M247.385,373.677v24.43h3.645c2.982,0,5.251-0.984,6.81-2.952
			c1.559-1.97,2.338-4.78,2.338-8.434v-1.709c0-3.72-0.772-6.538-2.313-8.457c-1.542-1.919-3.794-2.878-6.76-2.878H247.385z"/>
		<path clip-path="url(#SVGID_10_)" fill="#FFFFFF" d="M293.429,396.623h-13.22l-2.514,7.539h-8.017l13.622-36.593h6.987
			l13.697,36.593h-8.017L293.429,396.623z M282.244,390.516h9.148l-4.599-13.697L282.244,390.516z"/>
		<polygon clip-path="url(#SVGID_10_)" fill="#FFFFFF" points="316.249,384.057 323.865,367.569 332.107,367.569 320.095,390.893 
			320.095,404.162 312.43,404.162 312.43,390.893 300.416,367.569 308.684,367.569 		"/>
		<path clip-path="url(#SVGID_10_)" fill="#FFFFFF" d="M354.023,394.563c0-0.637-0.092-1.211-0.275-1.722
			c-0.186-0.511-0.541-0.984-1.068-1.42c-0.528-0.436-1.257-0.863-2.188-1.282c-0.93-0.418-2.132-0.862-3.605-1.332
			c-1.677-0.536-3.256-1.139-4.738-1.81c-1.482-0.67-2.781-1.461-3.896-2.375c-1.113-0.913-1.993-1.964-2.638-3.154
			c-0.646-1.189-0.968-2.58-0.968-4.172c0-1.524,0.33-2.919,0.992-4.185c0.662-1.265,1.592-2.341,2.79-3.229
			c1.198-0.888,2.622-1.579,4.272-2.073s3.465-0.742,5.441-0.742c2.026,0,3.871,0.281,5.529,0.843s3.074,1.345,4.247,2.35
			s2.078,2.2,2.715,3.581c0.637,1.383,0.954,2.895,0.954,4.537h-7.539c0-0.771-0.121-1.483-0.364-2.137s-0.616-1.215-1.118-1.684
			c-0.503-0.469-1.131-0.833-1.885-1.094c-0.754-0.259-1.643-0.39-2.664-0.39c-0.989,0-1.849,0.109-2.576,0.327
			c-0.73,0.218-1.332,0.52-1.811,0.904c-0.477,0.386-0.838,0.839-1.08,1.357c-0.243,0.52-0.364,1.072-0.364,1.659
			c0,1.206,0.616,2.216,1.847,3.028c1.232,0.813,3.037,1.571,5.416,2.275c1.994,0.619,3.749,1.306,5.266,2.061
			c1.517,0.754,2.781,1.608,3.795,2.564c1.014,0.954,1.78,2.026,2.3,3.216s0.778,2.538,0.778,4.046c0,1.608-0.313,3.041-0.941,4.298
			s-1.521,2.316-2.677,3.18s-2.551,1.524-4.185,1.985s-3.455,0.691-5.467,0.691c-1.206,0-2.412-0.105-3.619-0.314
			c-1.206-0.209-2.358-0.531-3.455-0.968c-1.098-0.436-2.116-0.98-3.055-1.634c-0.938-0.653-1.755-1.424-2.449-2.312
			c-0.696-0.889-1.24-1.897-1.635-3.029c-0.393-1.131-0.59-2.383-0.59-3.757h7.564c0,1.105,0.176,2.044,0.528,2.814
			c0.352,0.771,0.842,1.396,1.47,1.873c0.629,0.478,1.387,0.825,2.275,1.043c0.887,0.218,1.876,0.326,2.965,0.326
			c0.972,0,1.818-0.104,2.539-0.313c0.72-0.21,1.314-0.499,1.784-0.867c0.469-0.369,0.817-0.809,1.043-1.319
			C353.91,395.697,354.023,395.149,354.023,394.563"/>
	</g>
</g>
</svg>
