<?xml version="1.0" encoding="utf-8"?>
<!-- Generator: Adobe Illustrator 16.0.0, SVG Export Plug-In . SVG Version: 6.00 Build 0)  -->
<!DOCTYPE svg PUBLIC "-//W3C//DTD SVG 1.1//EN" "http://www.w3.org/Graphics/SVG/1.1/DTD/svg11.dtd">
<svg version="1.1" id="Capa_1" xmlns="http://www.w3.org/2000/svg" xmlns:xlink="http://www.w3.org/1999/xlink" x="0px" y="0px"
	 width="600px" height="600px" viewBox="0 0 600 600" enable-background="new 0 0 600 600" xml:space="preserve">
<g>
	<g>
		<path fill="#2DAB66" d="M900,300c0,331.369-268.631,600-600,600c-331.37,0-600-268.631-600-600c0-331.37,268.63-600,600-600
			C631.369-300,900-31.37,900,300"/>
	</g>
	<g>
		<g opacity="0.2">
			<g>
				<defs>
					<rect id="SVGID_1_" x="409.995" y="458.693" width="153.863" height="87.663"/>
				</defs>
				<clipPath id="SVGID_2_">
					<use xlink:href="#SVGID_1_"  overflow="visible"/>
				</clipPath>
				<path clip-path="url(#SVGID_2_)" fill="#1D1D1B" d="M563.55,462.568c0.21,2.357,0.313,4.697,0.308,7.019
					c-0.002,2.044-0.088,4.071-0.249,6.082c-0.381,4.732-1.194,9.357-2.408,13.834c-0.529,1.97-1.14,3.907-1.823,5.812
					c-1.59,4.437-3.579,8.696-5.925,12.729c-1.021,1.759-2.11,3.474-3.266,5.139c-2.671,3.854-5.685,7.458-9.008,10.769
					c-1.434,1.431-2.929,2.805-4.479,4.122c-3.557,3.021-7.397,5.732-11.483,8.08c-1.754,1.01-3.553,1.953-5.397,2.822
					c-4.191,1.985-8.601,3.604-13.19,4.815c-1.951,0.515-3.931,0.957-5.942,1.32c-2.285,0.415-4.605,0.727-6.963,0.937
					s-4.698,0.313-7.019,0.309c-2.044-0.002-4.076-0.087-6.086-0.249c-4.732-0.381-9.357-1.194-13.83-2.409
					c-1.971-0.529-3.907-1.139-5.813-1.823c-4.436-1.59-8.695-3.579-12.729-5.925c-1.758-1.022-3.473-2.11-5.138-3.265
					c-3.854-2.671-7.459-5.687-10.769-9.009c-1.431-1.434-2.806-2.929-4.122-4.479c-3.021-3.556-5.732-7.398-8.081-11.483
					c-1.009-1.754-1.953-3.553-2.822-5.397c-1.985-4.191-3.604-8.601-4.814-13.19c-0.515-1.951-0.957-3.931-1.32-5.941
					c-0.415-2.285-0.727-4.606-0.937-6.963c-0.116-1.306-0.201-2.603-0.249-3.894l11.671-1.039c0.037,1.292,0.113,2.593,0.229,3.895
					c0.209,2.353,0.541,4.673,0.991,6.958c0.194,0.988,0.415,1.975,0.654,2.947c1.125,4.586,2.735,9.003,4.804,13.192
					c0.445,0.908,0.912,1.802,1.402,2.686c2.258,4.085,4.966,7.932,8.088,11.475c0.662,0.755,1.342,1.493,2.049,2.217
					c1.613,1.677,3.334,3.277,5.144,4.792c1.811,1.514,3.69,2.924,5.625,4.216c0.839,0.567,1.685,1.106,2.546,1.625
					c4.037,2.447,8.302,4.433,12.722,5.934c0.957,0.325,1.92,0.628,2.892,0.904c4.488,1.295,9.116,2.102,13.829,2.397
					c1.004,0.063,2.01,0.106,3.021,0.123c2.329,0.039,4.67-0.044,7.023-0.254c2.354-0.21,4.673-0.541,6.958-0.991
					c0.989-0.194,1.976-0.415,2.948-0.655c4.586-1.124,9.003-2.734,13.192-4.803c0.907-0.445,1.802-0.912,2.686-1.402
					c4.085-2.259,7.931-4.966,11.474-8.088c0.756-0.663,1.493-1.343,2.218-2.049c1.677-1.614,3.276-3.334,4.792-5.144
					c1.514-1.812,2.924-3.69,4.216-5.625c0.566-0.839,1.106-1.685,1.625-2.546c2.447-4.038,4.432-8.302,5.933-12.723
					c0.326-0.957,0.628-1.919,0.905-2.891c1.296-4.488,2.1-9.121,2.396-13.833c0.064-1,0.107-2.011,0.123-3.018
					c0.039-2.329-0.044-4.671-0.254-7.023c-0.115-1.301-0.27-2.596-0.462-3.874l11.671-1.039
					C563.288,459.973,563.434,461.264,563.55,462.568"/>
			</g>
		</g>
		<path fill="#FCECA9" d="M564.584,456.604c3.848,43.192-28.049,81.325-71.241,85.172c-43.192,3.848-81.325-28.049-85.171-71.241
			c-3.848-43.192,28.049-81.325,71.24-85.173C522.605,381.516,560.737,413.412,564.584,456.604"/>
		<path fill="#FCECA9" d="M557.981,457.191c3.522,39.547-25.681,74.459-65.227,77.981c-39.546,3.521-74.459-25.681-77.981-65.227
			c-3.521-39.547,25.682-74.46,65.228-77.981C519.547,388.442,554.46,417.646,557.981,457.191"/>
		<path fill="#9C9B9B" d="M480.589,398.567c17.362-1.547,34.288,3.762,47.658,14.945c13.371,11.183,21.586,26.905,23.132,44.268
			s-3.761,34.287-14.945,47.658c-11.184,13.37-26.904,21.585-44.267,23.131c-17.363,1.548-34.288-3.761-47.659-14.944
			c-13.37-11.184-21.585-26.904-23.132-44.268c-1.546-17.361,3.762-34.288,14.945-47.657
			C447.505,408.329,463.226,400.114,480.589,398.567 M479.551,386.916c-42.334,3.77-73.597,41.146-69.826,83.479
			s41.146,73.598,83.48,69.826c42.334-3.77,73.596-41.145,69.826-83.479C559.261,414.408,521.885,383.146,479.551,386.916"/>
		<path fill="#E0B810" d="M447.309,465.417l4.381-0.391c2.086-0.186,3.585-0.845,4.498-1.978c0.912-1.132,1.292-2.562,1.138-4.287
			c-0.067-0.759-0.245-1.455-0.53-2.09c-0.286-0.634-0.683-1.162-1.188-1.585s-1.122-0.736-1.847-0.939
			c-0.726-0.203-1.563-0.263-2.51-0.178c-0.76,0.067-1.466,0.24-2.118,0.518c-0.654,0.278-1.215,0.639-1.683,1.082
			c-0.467,0.442-0.821,0.967-1.063,1.571c-0.243,0.604-0.331,1.268-0.268,1.988l-8.222,0.731c-0.151-1.706,0.066-3.288,0.653-4.745
			c0.587-1.458,1.448-2.729,2.585-3.814c1.136-1.086,2.505-1.972,4.106-2.659c1.602-0.688,3.342-1.115,5.219-1.282
			c2.086-0.186,4.01-0.104,5.771,0.246c1.762,0.349,3.302,0.967,4.624,1.853c1.321,0.886,2.389,2.033,3.202,3.442
			s1.307,3.081,1.479,5.016c0.079,0.892,0.021,1.785-0.177,2.682c-0.196,0.896-0.53,1.753-1.003,2.57
			c-0.473,0.815-1.068,1.586-1.788,2.309c-0.719,0.724-1.56,1.357-2.525,1.902c2.406,0.627,4.258,1.724,5.556,3.29
			c1.295,1.567,2.045,3.488,2.247,5.764c0.173,1.935-0.049,3.694-0.663,5.277c-0.614,1.584-1.529,2.951-2.745,4.101
			c-1.217,1.151-2.697,2.076-4.44,2.775c-1.744,0.7-3.66,1.144-5.746,1.329c-1.764,0.157-3.511,0.074-5.24-0.249
			c-1.73-0.324-3.298-0.921-4.704-1.79c-1.405-0.868-2.578-2.011-3.517-3.429c-0.939-1.417-1.499-3.148-1.682-5.197l8.221-0.732
			c0.069,0.778,0.284,1.476,0.646,2.093c0.361,0.619,0.832,1.136,1.415,1.552c0.581,0.417,1.253,0.725,2.018,0.925
			c0.763,0.199,1.581,0.26,2.453,0.183c0.967-0.086,1.827-0.296,2.582-0.631c0.753-0.335,1.378-0.777,1.875-1.329
			c0.494-0.55,0.854-1.185,1.077-1.902c0.222-0.717,0.296-1.503,0.22-2.356c-0.099-1.1-0.338-2.029-0.721-2.788
			c-0.384-0.759-0.892-1.358-1.523-1.8c-0.631-0.44-1.38-0.741-2.244-0.904c-0.866-0.161-1.82-0.195-2.863-0.103l-4.381,0.39
			L447.309,465.417z"/>
		<path fill="#E0B810" d="M500.893,467.927c0.276,3.111,0.178,5.81-0.297,8.099c-0.475,2.288-1.26,4.207-2.355,5.758
			c-1.094,1.55-2.47,2.738-4.126,3.563c-1.656,0.826-3.528,1.333-5.614,1.519s-4.017,0.019-5.794-0.502
			c-1.775-0.521-3.343-1.446-4.705-2.778c-1.361-1.331-2.482-3.081-3.363-5.248c-0.881-2.168-1.461-4.807-1.737-7.917l-0.642-7.197
			c-0.276-3.109-0.178-5.809,0.297-8.098c0.474-2.288,1.265-4.202,2.37-5.744s2.482-2.725,4.128-3.551
			c1.647-0.825,3.513-1.33,5.601-1.516c2.085-0.187,4.016-0.019,5.793,0.501c1.776,0.521,3.345,1.441,4.705,2.764
			s2.48,3.066,3.361,5.234s1.461,4.807,1.737,7.917L500.893,467.927z M491.926,460.296c-0.164-1.839-0.429-3.374-0.796-4.603
			c-0.368-1.229-0.838-2.205-1.408-2.928c-0.571-0.724-1.232-1.224-1.982-1.501c-0.751-0.277-1.583-0.375-2.493-0.294
			s-1.705,0.323-2.387,0.728c-0.681,0.405-1.232,1.014-1.657,1.827c-0.425,0.811-0.71,1.854-0.854,3.128s-0.135,2.832,0.029,4.671
			l0.841,9.444c0.166,1.859,0.437,3.412,0.815,4.658c0.379,1.248,0.851,2.243,1.414,2.985c0.563,0.743,1.22,1.253,1.971,1.531
			c0.751,0.276,1.582,0.374,2.492,0.293c0.912-0.081,1.71-0.323,2.4-0.729c0.691-0.405,1.243-1.024,1.656-1.854
			c0.413-0.83,0.691-1.892,0.835-3.186c0.144-1.292,0.131-2.869-0.035-4.728L491.926,460.296z"/>
		<path fill="#E0B810" d="M534.317,464.95c0.276,3.11,0.179,5.81-0.297,8.098c-0.475,2.288-1.259,4.208-2.354,5.758
			c-1.094,1.551-2.47,2.738-4.126,3.564s-3.528,1.332-5.614,1.519c-2.087,0.186-4.017,0.018-5.794-0.503
			c-1.775-0.52-3.343-1.445-4.705-2.777c-1.361-1.331-2.482-3.081-3.363-5.249c-0.882-2.167-1.461-4.806-1.737-7.916l-0.642-7.197
			c-0.276-3.109-0.179-5.81,0.297-8.098c0.475-2.288,1.266-4.203,2.37-5.745c1.105-1.541,2.481-2.725,4.127-3.55
			c1.647-0.825,3.514-1.33,5.6-1.517c2.087-0.186,4.018-0.019,5.795,0.502c1.775,0.521,3.344,1.441,4.704,2.764
			c1.36,1.321,2.48,3.066,3.362,5.234c0.881,2.167,1.46,4.807,1.736,7.916L534.317,464.95z M525.352,457.319
			c-0.164-1.839-0.43-3.374-0.797-4.603c-0.368-1.229-0.837-2.205-1.407-2.929c-0.571-0.724-1.233-1.224-1.983-1.501
			c-0.752-0.277-1.584-0.375-2.493-0.294s-1.705,0.324-2.386,0.729c-0.681,0.405-1.233,1.013-1.658,1.825s-0.709,1.855-0.854,3.13
			s-0.136,2.832,0.028,4.671l0.841,9.444c0.166,1.858,0.438,3.412,0.816,4.658c0.379,1.247,0.85,2.242,1.414,2.985
			c0.563,0.743,1.22,1.253,1.971,1.529c0.751,0.278,1.582,0.375,2.492,0.295c0.91-0.081,1.71-0.324,2.4-0.729
			c0.69-0.406,1.243-1.024,1.656-1.854c0.413-0.83,0.69-1.892,0.834-3.186c0.145-1.293,0.132-2.869-0.034-4.728L525.352,457.319z"/>
		<g opacity="0.2">
			<g>
				<defs>
					<rect id="SVGID_3_" x="409.763" y="390.492" width="153.171" height="79.895"/>
				</defs>
				<clipPath id="SVGID_4_">
					<use xlink:href="#SVGID_3_"  overflow="visible"/>
				</clipPath>
				<path clip-path="url(#SVGID_4_)" fill="#1D1D1B" d="M562.934,456.751l-11.671,1.039c-0.151-1.035-0.329-2.065-0.529-3.084
					c-0.193-0.993-0.415-1.976-0.654-2.952c-1.125-4.586-2.735-8.999-4.804-13.188c-0.444-0.907-0.912-1.802-1.401-2.686
					c-2.259-4.085-4.966-7.931-8.088-11.474c-0.662-0.756-1.344-1.493-2.05-2.218c-1.613-1.677-3.334-3.276-5.144-4.792
					c-1.812-1.514-3.69-2.924-5.625-4.216c-0.838-0.566-1.684-1.106-2.545-1.625c-4.039-2.447-8.302-4.432-12.723-5.933
					c-0.956-0.326-1.919-0.628-2.892-0.905c-4.488-1.296-9.12-2.101-13.833-2.397c-1-0.063-2.01-0.106-3.017-0.122
					c-2.329-0.039-4.671,0.044-7.024,0.254c-2.354,0.209-4.673,0.541-6.958,0.99c-0.993,0.194-1.976,0.415-2.953,0.655
					c-4.585,1.124-8.999,2.735-13.187,4.803c-0.908,0.445-1.802,0.912-2.687,1.402c-4.086,2.259-7.931,4.966-11.474,8.088
					c-0.755,0.662-1.493,1.343-2.217,2.049c-1.677,1.614-3.278,3.334-4.792,5.145c-1.515,1.811-2.924,3.689-4.216,5.625
					c-0.568,0.838-1.107,1.684-1.625,2.545c-2.447,4.038-4.433,8.302-5.934,12.723c-0.326,0.956-0.628,1.919-0.905,2.892
					c-1.296,4.487-2.101,9.116-2.397,13.829c-0.063,1.004-0.106,2.01-0.122,3.021c-0.017,1.039-0.01,2.084,0.024,3.13l-11.671,1.039
					c-0.043-1.045-0.062-2.089-0.06-3.126c0.002-2.044,0.087-4.075,0.248-6.086c0.382-4.732,1.195-9.357,2.409-13.83
					c0.53-1.97,1.14-3.907,1.824-5.812c1.59-4.437,3.579-8.696,5.924-12.729c1.021-1.759,2.11-3.473,3.266-5.138
					c2.671-3.855,5.686-7.459,9.008-10.77c1.435-1.431,2.93-2.805,4.479-4.122c3.556-3.021,7.396-5.731,11.481-8.081
					c1.755-1.009,3.554-1.951,5.398-2.82c4.188-1.986,8.597-3.604,13.187-4.815c1.95-0.515,3.936-0.958,5.946-1.321
					c2.285-0.414,4.606-0.727,6.963-0.937c2.358-0.21,4.697-0.313,7.02-0.308c2.044,0.002,4.07,0.087,6.082,0.249
					c4.731,0.381,9.356,1.193,13.834,2.408c1.969,0.529,3.906,1.14,5.812,1.823c4.437,1.59,8.696,3.579,12.729,5.925
					c1.759,1.021,3.473,2.11,5.138,3.266c3.854,2.671,7.459,5.685,10.769,9.008c1.432,1.434,2.806,2.929,4.122,4.479
					c3.021,3.557,5.732,7.397,8.081,11.483c1.01,1.754,1.952,3.553,2.821,5.397c1.986,4.188,3.604,8.597,4.815,13.187
					c0.515,1.951,0.958,3.935,1.32,5.946C562.625,454.684,562.791,455.715,562.934,456.751"/>
			</g>
		</g>
		<path fill="#E0B810" d="M562.094,449.779c-0.362-2.011-0.806-3.996-1.32-5.946c-1.211-4.59-2.829-8.999-4.815-13.187
			c-0.869-1.846-1.812-3.645-2.822-5.398c-2.348-4.085-5.059-7.927-8.08-11.481c-1.316-1.552-2.69-3.045-4.122-4.48
			c-3.311-3.322-6.914-6.336-10.769-9.007c-1.665-1.156-3.379-2.244-5.138-3.266c-4.033-2.347-8.293-4.336-12.73-5.925
			c-1.904-0.684-3.842-1.294-5.811-1.823c-4.478-1.215-9.103-2.027-13.834-2.408c-2.012-0.162-4.038-0.247-6.082-0.249
			c-2.322-0.005-4.661,0.098-7.02,0.308c-2.357,0.21-4.679,0.522-6.963,0.938c-2.011,0.362-3.996,0.806-5.946,1.319
			c-4.59,1.211-8.999,2.829-13.187,4.815c-1.845,0.869-3.644,1.812-5.398,2.822c-4.085,2.349-7.927,5.059-11.481,8.081
			c-1.551,1.315-3.045,2.689-4.48,4.122c-3.321,3.31-6.336,6.913-9.007,10.769c-1.156,1.665-2.244,3.378-3.266,5.137
			c-2.346,4.034-4.335,8.294-5.924,12.73c-0.685,1.905-1.294,3.842-1.824,5.811c-1.214,4.474-2.028,9.1-2.409,13.83
			c-0.161,2.011-0.246,4.043-0.248,6.086c-0.005,2.322,0.098,4.662,0.308,7.02c0.211,2.357,0.522,4.679,0.938,6.964
			c0.363,2.011,0.806,3.991,1.32,5.941c1.211,4.591,2.829,8.998,4.814,13.19c0.869,1.845,1.813,3.644,2.822,5.398
			c2.349,4.085,5.059,7.927,8.081,11.482c1.315,1.55,2.689,3.044,4.122,4.479c3.31,3.321,6.914,6.337,10.769,9.008
			c1.665,1.155,3.379,2.243,5.138,3.265c4.033,2.346,8.294,4.335,12.729,5.925c1.905,0.684,3.842,1.294,5.812,1.823
			c4.473,1.215,9.099,2.028,13.829,2.409c2.012,0.162,4.043,0.247,6.087,0.249c2.321,0.004,4.661-0.098,7.02-0.308
			c2.357-0.211,4.678-0.523,6.963-0.938c2.011-0.364,3.991-0.806,5.942-1.32c4.59-1.212,8.999-2.83,13.19-4.815
			c1.844-0.869,3.644-1.813,5.397-2.822c4.085-2.348,7.927-5.059,11.482-8.081c1.551-1.315,3.045-2.689,4.479-4.121
			c3.322-3.311,6.337-6.914,9.008-10.769c1.155-1.665,2.243-3.379,3.265-5.139c2.347-4.032,4.335-8.294,5.926-12.729
			c0.683-1.904,1.294-3.842,1.822-5.812c1.214-4.477,2.028-9.102,2.409-13.834c0.161-2.011,0.247-4.037,0.249-6.082
			c0.004-2.321-0.098-4.661-0.308-7.019C562.821,454.384,562.509,452.063,562.094,449.779 M551.51,467.821
			c-0.297,4.712-1.102,9.345-2.396,13.833c-0.277,0.972-0.579,1.934-0.905,2.891c-1.501,4.421-3.486,8.685-5.933,12.724
			c-0.52,0.859-1.059,1.707-1.625,2.544c-1.292,1.936-2.702,3.814-4.217,5.626c-1.515,1.81-3.114,3.529-4.792,5.144
			c-0.724,0.706-1.462,1.386-2.217,2.049c-3.543,3.122-7.389,5.829-11.474,8.088c-0.884,0.489-1.778,0.957-2.687,1.402
			c-4.188,2.068-8.605,3.679-13.191,4.803c-0.974,0.24-1.959,0.461-2.948,0.654c-2.285,0.451-4.604,0.782-6.958,0.992
			s-4.695,0.293-7.024,0.254c-1.012-0.016-2.018-0.059-3.021-0.123c-4.713-0.296-9.341-1.102-13.829-2.396
			c-0.972-0.278-1.935-0.579-2.892-0.905c-4.42-1.501-8.685-3.486-12.724-5.934c-0.859-0.519-1.707-1.058-2.544-1.625
			c-1.935-1.292-3.814-2.701-5.625-4.217c-1.811-1.514-3.53-3.114-5.144-4.791c-0.707-0.724-1.387-1.462-2.049-2.217
			c-3.123-3.543-5.83-7.389-8.088-11.474c-0.49-0.886-0.957-1.779-1.402-2.687c-2.068-4.188-3.679-8.605-4.804-13.191
			c-0.239-0.974-0.46-1.959-0.654-2.948c-0.45-2.285-0.782-4.605-0.992-6.958c-0.209-2.354-0.292-4.695-0.253-7.024
			c0.015-1.012,0.059-2.018,0.122-3.021c0.297-4.713,1.102-9.341,2.396-13.829c0.278-0.974,0.58-1.936,0.906-2.893
			c1.501-4.42,3.485-8.684,5.934-12.723c0.518-0.86,1.057-1.707,1.625-2.544c1.291-1.935,2.701-3.815,4.216-5.625
			c1.514-1.811,3.115-3.531,4.791-5.144c0.724-0.707,1.462-1.388,2.218-2.05c3.542-3.123,7.388-5.83,11.474-8.088
			c0.885-0.489,1.778-0.957,2.687-1.401c4.188-2.068,8.602-3.68,13.187-4.805c0.978-0.238,1.96-0.46,2.952-0.653
			c2.286-0.45,4.605-0.782,6.959-0.992c2.354-0.209,4.695-0.293,7.024-0.253c1.007,0.016,2.017,0.059,3.017,0.122
			c4.712,0.297,9.345,1.102,13.833,2.396c0.973,0.278,1.935,0.58,2.892,0.906c4.421,1.501,8.684,3.485,12.723,5.933
			c0.86,0.519,1.707,1.058,2.545,1.625c1.935,1.291,3.813,2.702,5.625,4.217c1.81,1.514,3.53,3.114,5.144,4.791
			c0.706,0.724,1.387,1.462,2.05,2.218c3.122,3.542,5.829,7.388,8.088,11.474c0.489,0.884,0.957,1.778,1.401,2.687
			c2.068,4.188,3.679,8.602,4.804,13.187c0.239,0.978,0.46,1.96,0.654,2.952c0.45,2.286,0.781,4.604,0.991,6.959
			c0.21,2.353,0.293,4.695,0.254,7.024C551.617,465.812,551.574,466.821,551.51,467.821"/>
		<g opacity="0.2">
			<g>
				<defs>
					<rect id="SVGID_5_" x="365.407" y="398.365" width="149.466" height="110.028"/>
				</defs>
				<clipPath id="SVGID_6_">
					<use xlink:href="#SVGID_5_"  overflow="visible"/>
				</clipPath>
				<path clip-path="url(#SVGID_6_)" fill="#1D1D1B" d="M508.979,401.929c0.907,2.187,1.706,4.389,2.397,6.604
					c0.61,1.95,1.137,3.91,1.585,5.877c1.055,4.629,1.664,9.285,1.849,13.92c0.085,2.038,0.083,4.069,0.002,6.091
					c-0.188,4.708-0.809,9.369-1.837,13.92c-0.448,1.984-0.973,3.945-1.576,5.88c-1.393,4.479-3.188,8.82-5.366,12.975
					c-0.938,1.795-1.953,3.554-3.038,5.274c-2.486,3.948-5.339,7.686-8.533,11.15c-1.37,1.489-2.804,2.928-4.303,4.31
					c-3.404,3.151-7.126,6.017-11.141,8.547c-1.707,1.076-3.464,2.093-5.274,3.041c-2.055,1.08-4.176,2.074-6.362,2.981
					c-2.186,0.907-4.388,1.706-6.604,2.397c-1.951,0.61-3.914,1.138-5.881,1.587c-4.628,1.055-9.285,1.665-13.916,1.847
					c-2.038,0.085-4.069,0.083-6.091,0.002c-4.709-0.188-9.369-0.808-13.92-1.837c-1.984-0.448-3.945-0.973-5.881-1.576
					c-4.478-1.393-8.819-3.188-12.974-5.366c-1.795-0.938-3.554-1.953-5.275-3.038c-3.947-2.486-7.686-5.339-11.15-8.532
					c-1.488-1.371-2.927-2.805-4.31-4.305c-3.151-3.403-6.016-7.125-8.548-11.141c-1.075-1.706-2.091-3.463-3.04-5.273
					c-1.08-2.055-2.073-4.176-2.98-6.361c-0.502-1.21-0.972-2.422-1.404-3.64l10.823-4.489c0.423,1.222,0.886,2.439,1.386,3.646
					c0.906,2.182,1.917,4.295,3.032,6.341c0.48,0.886,0.987,1.761,1.507,2.616c2.448,4.038,5.308,7.771,8.537,11.146
					c0.696,0.732,1.41,1.444,2.142,2.142c3.379,3.221,7.115,6.079,11.155,8.523c0.858,0.521,1.729,1.021,2.62,1.501
					c2.041,1.115,4.162,2.127,6.343,3.029s4.397,1.685,6.63,2.336c0.97,0.29,1.939,0.552,2.915,0.788
					c4.587,1.124,9.249,1.74,13.916,1.848c1.011,0.023,2.02,0.023,3.03-0.004c4.67-0.108,9.327-0.728,13.912-1.856
					c0.976-0.241,1.949-0.501,2.919-0.789c2.232-0.661,4.441-1.442,6.625-2.347c2.182-0.906,4.296-1.917,6.341-3.032
					c0.885-0.481,1.76-0.987,2.617-1.507c4.038-2.448,7.769-5.31,11.145-8.537c0.733-0.696,1.446-1.41,2.143-2.143
					c3.221-3.38,6.079-7.114,8.522-11.154c0.522-0.859,1.022-1.729,1.501-2.62c1.116-2.042,2.128-4.162,3.03-6.343
					c0.902-2.182,1.684-4.397,2.336-6.632c0.291-0.969,0.551-1.938,0.788-2.913c1.124-4.588,1.74-9.249,1.847-13.916
					c0.024-1.012,0.024-2.02-0.003-3.03c-0.108-4.67-0.729-9.331-1.858-13.915c-0.239-0.974-0.5-1.95-0.787-2.916
					c-0.661-2.233-1.442-4.442-2.348-6.625c-0.501-1.206-1.035-2.395-1.602-3.558l10.823-4.488
					C507.95,399.531,508.477,400.719,508.979,401.929"/>
			</g>
		</g>
		<path fill="#FCECA9" d="M508.178,395.929c16.615,40.054-2.386,85.993-42.439,102.608c-40.055,16.614-85.993-2.387-102.608-42.44
			s2.386-85.993,42.44-102.608C445.624,336.874,491.563,355.875,508.178,395.929"/>
		<path fill="#FCECA9" d="M502.055,398.469c15.212,36.672-2.185,78.732-38.856,93.944c-36.673,15.214-78.733-2.184-93.945-38.856
			c-15.213-36.672,2.184-78.733,38.857-93.945C444.782,344.399,486.843,361.797,502.055,398.469"/>
		<path fill="#9C9B9B" d="M410.649,365.734c16.101-6.679,33.839-6.688,49.947-0.025c16.107,6.662,28.656,19.198,35.336,35.299
			c6.679,16.102,6.688,33.84,0.024,49.947c-6.662,16.108-19.197,28.657-35.299,35.336c-16.101,6.679-33.839,6.688-49.947,0.025
			c-16.107-6.662-28.656-19.198-35.336-35.299c-6.679-16.102-6.688-33.84-0.025-49.947
			C382.013,384.962,394.549,372.413,410.649,365.734 M406.167,354.93c-39.258,16.284-57.882,61.311-41.597,100.569
			c16.285,39.258,61.312,57.882,100.57,41.598c39.258-16.285,57.882-61.313,41.597-100.57S445.426,338.645,406.167,354.93"/>
		<path fill="#E0B810" d="M398.881,439.406l4.063-1.686c1.934-0.801,3.166-1.878,3.697-3.234c0.531-1.354,0.465-2.83-0.199-4.431
			c-0.291-0.703-0.668-1.315-1.131-1.834s-1-0.905-1.609-1.157s-1.291-0.366-2.043-0.343c-0.754,0.024-1.57,0.219-2.447,0.583
			c-0.705,0.293-1.326,0.669-1.867,1.129c-0.541,0.463-0.967,0.974-1.279,1.537c-0.314,0.563-0.496,1.168-0.545,1.817
			s0.063,1.309,0.34,1.978l-7.623,3.162c-0.656-1.583-0.924-3.158-0.801-4.725c0.125-1.565,0.564-3.037,1.324-4.413
			c0.758-1.376,1.799-2.632,3.121-3.768c1.32-1.136,2.854-2.065,4.594-2.787c1.936-0.802,3.795-1.302,5.58-1.495
			c1.785-0.194,3.439-0.066,4.967,0.382c1.525,0.449,2.889,1.224,4.086,2.325c1.199,1.1,2.17,2.547,2.914,4.34
			c0.342,0.827,0.555,1.698,0.635,2.612c0.082,0.915,0.02,1.833-0.188,2.753c-0.205,0.92-0.543,1.833-1.012,2.738
			c-0.471,0.906-1.084,1.764-1.842,2.572c2.484-0.123,4.58,0.369,6.287,1.475c1.705,1.105,2.996,2.714,3.871,4.824
			c0.744,1.795,1.061,3.54,0.949,5.233c-0.111,1.696-0.574,3.274-1.389,4.735c-0.816,1.462-1.951,2.789-3.406,3.979
			c-1.453,1.19-3.148,2.188-5.082,2.99c-1.635,0.678-3.328,1.122-5.074,1.332c-1.748,0.209-3.422,0.11-5.025-0.297
			c-1.6-0.407-3.063-1.146-4.381-2.217c-1.32-1.07-2.375-2.556-3.162-4.455l7.623-3.162c0.299,0.721,0.713,1.322,1.242,1.803
			c0.529,0.481,1.135,0.834,1.814,1.058c0.68,0.222,1.414,0.314,2.203,0.275c0.787-0.038,1.586-0.225,2.395-0.561
			c0.896-0.372,1.654-0.83,2.273-1.376c0.619-0.545,1.082-1.154,1.391-1.829c0.307-0.673,0.461-1.385,0.457-2.138
			c-0.002-0.751-0.168-1.522-0.496-2.314c-0.422-1.02-0.93-1.834-1.523-2.443s-1.256-1.029-1.99-1.262
			c-0.736-0.23-1.541-0.293-2.414-0.189c-0.875,0.105-1.795,0.358-2.762,0.76l-4.063,1.686L398.881,439.406z"/>
		<path fill="#E0B810" d="M450.752,425.742c1.197,2.885,1.912,5.489,2.145,7.814c0.232,2.326,0.061,4.393-0.52,6.199
			s-1.537,3.354-2.869,4.637c-1.334,1.285-2.967,2.329-4.9,3.131c-1.936,0.803-3.828,1.222-5.678,1.258
			c-1.852,0.036-3.625-0.377-5.322-1.24c-1.699-0.861-3.291-2.195-4.783-3.999c-1.488-1.804-2.832-4.147-4.029-7.032l-2.768-6.674
			c-1.197-2.884-1.912-5.488-2.145-7.814c-0.234-2.324-0.053-4.389,0.539-6.191c0.592-1.801,1.551-3.342,2.873-4.623
			c1.324-1.281,2.953-2.322,4.889-3.125s3.826-1.222,5.678-1.258c1.85-0.035,3.623,0.373,5.316,1.227s3.285,2.182,4.777,3.986
			c1.49,1.804,2.832,4.147,4.029,7.031L450.752,425.742z M439.912,421.149c-0.709-1.706-1.422-3.091-2.141-4.152
			s-1.459-1.853-2.219-2.371c-0.764-0.52-1.543-0.798-2.344-0.837c-0.799-0.041-1.621,0.115-2.465,0.464
			c-0.844,0.351-1.529,0.821-2.059,1.412c-0.527,0.59-0.873,1.335-1.035,2.238c-0.16,0.901-0.121,1.981,0.123,3.241
			c0.244,1.259,0.721,2.742,1.428,4.447l3.633,8.758c0.715,1.725,1.441,3.124,2.176,4.2c0.734,1.077,1.482,1.884,2.242,2.425
			c0.76,0.539,1.541,0.83,2.34,0.869c0.801,0.039,1.621-0.116,2.465-0.467c0.846-0.35,1.535-0.822,2.072-1.416
			s0.879-1.349,1.023-2.264c0.146-0.916,0.094-2.012-0.158-3.289c-0.25-1.277-0.734-2.777-1.449-4.5L439.912,421.149z"/>
		<path fill="#E0B810" d="M481.75,412.885c1.195,2.885,1.91,5.488,2.143,7.814c0.234,2.325,0.061,4.392-0.52,6.199
			c-0.58,1.807-1.537,3.353-2.869,4.637s-2.967,2.328-4.9,3.131c-1.936,0.803-3.828,1.221-5.678,1.257s-3.625-0.376-5.322-1.239
			c-1.697-0.862-3.291-2.195-4.781-4c-1.49-1.803-2.834-4.146-4.031-7.031l-2.768-6.674c-1.197-2.885-1.91-5.488-2.145-7.814
			c-0.232-2.325-0.053-4.389,0.539-6.191c0.594-1.802,1.551-3.343,2.873-4.624c1.324-1.28,2.955-2.321,4.889-3.124
			c1.936-0.803,3.826-1.223,5.678-1.259c1.852-0.035,3.623,0.374,5.316,1.227c1.695,0.854,3.287,2.183,4.777,3.986
			s2.834,4.147,4.029,7.032L481.75,412.885z M470.908,408.291c-0.707-1.705-1.42-3.09-2.139-4.152
			c-0.721-1.062-1.459-1.852-2.221-2.371s-1.543-0.798-2.344-0.838c-0.799-0.039-1.619,0.117-2.465,0.467
			c-0.844,0.35-1.529,0.82-2.059,1.41c-0.527,0.59-0.873,1.336-1.033,2.238c-0.162,0.902-0.121,1.982,0.123,3.242
			c0.244,1.258,0.719,2.741,1.428,4.447l3.633,8.758c0.715,1.724,1.439,3.123,2.174,4.199c0.736,1.077,1.482,1.885,2.242,2.425
			c0.762,0.54,1.541,0.83,2.34,0.869c0.801,0.04,1.621-0.116,2.467-0.466c0.844-0.351,1.533-0.822,2.07-1.417
			c0.537-0.593,0.879-1.349,1.025-2.264c0.145-0.916,0.092-2.012-0.158-3.289c-0.252-1.276-0.736-2.776-1.451-4.5L470.908,408.291z"
			/>
		<g opacity="0.2">
			<g>
				<defs>
					<rect id="SVGID_7_" x="360.17" y="352.636" width="146.478" height="102.826"/>
				</defs>
				<clipPath id="SVGID_8_">
					<use xlink:href="#SVGID_7_"  overflow="visible"/>
				</clipPath>
				<path clip-path="url(#SVGID_8_)" fill="#1D1D1B" d="M506.647,396.563l-10.823,4.49c-0.455-0.943-0.933-1.872-1.43-2.785
					c-0.482-0.889-0.987-1.76-1.51-2.62c-2.446-4.038-5.306-7.766-8.534-11.142c-0.696-0.732-1.41-1.445-2.143-2.143
					c-3.379-3.221-7.114-6.079-11.155-8.522c-0.857-0.522-1.729-1.022-2.619-1.501c-2.041-1.116-4.162-2.127-6.344-3.029
					c-2.181-0.903-4.396-1.685-6.63-2.337c-0.969-0.29-1.938-0.551-2.915-0.788c-4.586-1.124-9.249-1.74-13.916-1.847
					c-1.01-0.024-2.019-0.024-3.029,0.003c-4.671,0.108-9.33,0.729-13.915,1.858c-0.974,0.239-1.95,0.501-2.916,0.787
					c-2.233,0.661-4.442,1.442-6.625,2.348s-4.295,1.917-6.342,3.031c-0.889,0.483-1.76,0.987-2.619,1.51
					c-4.038,2.446-7.767,5.307-11.143,8.534c-0.732,0.696-1.445,1.41-2.142,2.143c-3.222,3.38-6.079,7.115-8.523,11.155
					c-0.521,0.858-1.021,1.729-1.501,2.619c-1.116,2.043-2.127,4.162-3.03,6.344c-0.901,2.181-1.684,4.396-2.336,6.631
					c-0.291,0.969-0.551,1.938-0.788,2.914c-1.124,4.587-1.739,9.249-1.847,13.916c-0.023,1.011-0.023,2.02,0.003,3.029
					c0.109,4.671,0.729,9.327,1.857,13.912c0.241,0.978,0.501,1.949,0.789,2.919c0.295,0.996,0.614,1.991,0.961,2.979l-10.823,4.49
					c-0.353-0.985-0.684-1.976-0.993-2.965c-0.61-1.95-1.138-3.914-1.587-5.882c-1.055-4.628-1.665-9.284-1.847-13.916
					c-0.085-2.037-0.083-4.068-0.002-6.091c0.187-4.708,0.808-9.369,1.837-13.92c0.448-1.983,0.973-3.945,1.576-5.88
					c1.393-4.478,3.188-8.82,5.365-12.974c0.939-1.795,1.953-3.555,3.038-5.275c2.486-3.948,5.339-7.685,8.533-11.15
					c1.37-1.488,2.804-2.928,4.304-4.31c3.4-3.15,7.121-6.015,11.138-8.546c1.707-1.075,3.467-2.093,5.276-3.042
					c2.056-1.08,4.177-2.074,6.362-2.981c2.188-0.906,4.388-1.706,6.604-2.396c1.95-0.611,3.91-1.137,5.878-1.586
					c4.628-1.055,9.283-1.664,13.919-1.849c2.038-0.085,4.068-0.083,6.091-0.002c4.709,0.188,9.369,0.809,13.92,1.837
					c1.984,0.448,3.946,0.974,5.88,1.576c4.479,1.394,8.82,3.188,12.974,5.366c1.797,0.94,3.555,1.953,5.275,3.038
					c3.948,2.487,7.687,5.339,11.151,8.533c1.488,1.371,2.928,2.804,4.309,4.304c3.15,3.4,6.015,7.121,8.546,11.137
					c1.076,1.707,2.093,3.468,3.042,5.277C505.732,394.685,506.2,395.617,506.647,396.563"/>
			</g>
		</g>
		<path fill="#E0B810" d="M503.757,390.164c-0.949-1.811-1.968-3.57-3.042-5.277c-2.531-4.016-5.396-7.736-8.547-11.137
			c-1.382-1.5-2.82-2.933-4.31-4.304c-3.465-3.194-7.202-6.046-11.15-8.533c-1.721-1.085-3.479-2.098-5.274-3.038
			c-4.154-2.178-8.496-3.973-12.975-5.366c-1.935-0.603-3.896-1.128-5.88-1.576c-4.551-1.028-9.212-1.649-13.92-1.837
			c-2.021-0.081-4.053-0.083-6.091,0.002c-4.635,0.185-9.291,0.794-13.92,1.849c-1.967,0.448-3.927,0.975-5.877,1.586
			c-2.216,0.69-4.418,1.49-6.604,2.396c-2.186,0.907-4.307,1.901-6.361,2.981c-1.811,0.949-3.57,1.967-5.277,3.042
			c-4.016,2.531-7.737,5.396-11.138,8.546c-1.499,1.382-2.934,2.821-4.305,4.31c-3.192,3.466-6.046,7.202-8.531,11.15
			c-1.085,1.721-2.1,3.48-3.038,5.275c-2.178,4.153-3.975,8.495-5.367,12.974c-0.603,1.935-1.128,3.896-1.575,5.88
			c-1.029,4.551-1.649,9.212-1.837,13.92c-0.082,2.022-0.083,4.053,0.002,6.091c0.183,4.631,0.792,9.288,1.847,13.916
			c0.448,1.968,0.977,3.932,1.587,5.881c0.691,2.217,1.49,4.419,2.397,6.604s1.9,4.307,2.981,6.362
			c0.948,1.81,1.965,3.566,3.04,5.273c2.53,4.017,5.396,7.737,8.548,11.142c1.381,1.499,2.819,2.933,4.309,4.304
			c3.465,3.193,7.203,6.046,11.151,8.532c1.721,1.085,3.479,2.099,5.274,3.038c4.154,2.178,8.495,3.974,12.975,5.366
			c1.934,0.604,3.895,1.128,5.879,1.575c4.552,1.029,9.212,1.65,13.921,1.837c2.021,0.082,4.053,0.083,6.09-0.002
			c4.632-0.182,9.288-0.792,13.917-1.847c1.967-0.448,3.93-0.977,5.881-1.586c2.216-0.692,4.417-1.491,6.604-2.398
			c2.186-0.906,4.307-1.899,6.361-2.98c1.811-0.949,3.567-1.965,5.273-3.04c4.016-2.531,7.737-5.396,11.141-8.548
			c1.5-1.381,2.934-2.82,4.305-4.31c3.193-3.465,6.046-7.203,8.532-11.15c1.085-1.722,2.099-3.479,3.038-5.275
			c2.179-4.154,3.974-8.495,5.366-12.974c0.604-1.935,1.128-3.896,1.576-5.879c1.029-4.553,1.65-9.213,1.837-13.922
			c0.081-2.021,0.083-4.053-0.002-6.09c-0.184-4.636-0.794-9.292-1.848-13.92c-0.449-1.967-0.976-3.927-1.586-5.878
			c-0.691-2.216-1.49-4.417-2.397-6.604S504.836,392.219,503.757,390.164 M499.066,410.549c1.129,4.585,1.75,9.245,1.859,13.915
			c0.026,1.011,0.026,2.021,0.003,3.03c-0.107,4.667-0.724,9.33-1.848,13.916c-0.236,0.976-0.498,1.946-0.788,2.915
			c-0.651,2.232-1.434,4.449-2.336,6.63s-1.914,4.302-3.029,6.344c-0.479,0.891-0.979,1.761-1.501,2.619
			c-2.444,4.041-5.303,7.776-8.523,11.155c-0.697,0.731-1.41,1.445-2.142,2.142c-3.376,3.229-7.108,6.089-11.146,8.537
			c-0.855,0.521-1.73,1.026-2.616,1.508c-2.046,1.114-4.158,2.126-6.341,3.031s-4.392,1.687-6.625,2.347
			c-0.97,0.288-1.942,0.548-2.92,0.789c-4.584,1.129-9.241,1.748-13.911,1.857c-1.011,0.026-2.02,0.026-3.029,0.003
			c-4.667-0.107-9.33-0.723-13.916-1.847c-0.977-0.237-1.946-0.497-2.915-0.788c-2.233-0.652-4.449-1.435-6.631-2.336
			c-2.181-0.902-4.302-1.914-6.344-3.03c-0.891-0.479-1.761-0.979-2.619-1.501c-4.041-2.444-7.775-5.302-11.154-8.523
			c-0.732-0.695-1.446-1.409-2.143-2.142c-3.229-3.376-6.089-7.107-8.537-11.146c-0.52-0.856-1.025-1.731-1.508-2.616
			c-1.114-2.045-2.126-4.158-3.031-6.342c-0.904-2.183-1.687-4.392-2.347-6.625c-0.288-0.97-0.548-1.942-0.789-2.919
			c-1.129-4.585-1.748-9.241-1.856-13.912c-0.027-1.011-0.027-2.019-0.004-3.029c0.107-4.667,0.724-9.329,1.848-13.916
			c0.237-0.977,0.497-1.945,0.788-2.914c0.651-2.234,1.434-4.45,2.336-6.631c0.901-2.182,1.914-4.302,3.03-6.344
			c0.479-0.891,0.979-1.761,1.501-2.619c2.443-4.04,5.302-7.775,8.521-11.155c0.697-0.732,1.41-1.446,2.144-2.143
			c3.376-3.228,7.104-6.088,11.142-8.534c0.86-0.522,1.73-1.027,2.62-1.51c2.045-1.114,4.158-2.126,6.341-3.031
			s4.392-1.687,6.625-2.348c0.966-0.286,1.943-0.548,2.916-0.787c4.584-1.129,9.245-1.75,13.915-1.858
			c1.011-0.027,2.019-0.027,3.03-0.003c4.667,0.106,9.329,0.723,13.916,1.847c0.976,0.237,1.944,0.498,2.914,0.788
			c2.233,0.652,4.449,1.434,6.631,2.337c2.181,0.902,4.301,1.913,6.343,3.029c0.891,0.479,1.761,0.979,2.62,1.501
			c4.04,2.443,7.774,5.302,11.155,8.522c0.731,0.697,1.445,1.41,2.142,2.143c3.228,3.376,6.088,7.104,8.535,11.142
			c0.521,0.86,1.026,1.731,1.509,2.62c1.115,2.046,2.126,4.159,3.032,6.341c0.905,2.184,1.686,4.393,2.347,6.625
			C498.565,408.599,498.827,409.576,499.066,410.549"/>
		<g opacity="0.2">
			<g>
				<defs>
					<rect id="SVGID_9_" x="17.988" y="233.86" width="131.863" height="136.166"/>
				</defs>
				<clipPath id="SVGID_10_">
					<use xlink:href="#SVGID_9_"  overflow="visible"/>
				</clipPath>
				<path clip-path="url(#SVGID_10_)" fill="#1D1D1B" d="M147.047,349.704c-1.742,1.603-3.535,3.109-5.379,4.52
					c-1.623,1.243-3.283,2.409-4.976,3.507c-3.985,2.58-8.149,4.752-12.439,6.515c-1.884,0.78-3.793,1.477-5.72,2.093
					c-4.486,1.441-9.077,2.459-13.705,3.056c-2.017,0.26-4.039,0.44-6.063,0.539c-4.684,0.229-9.379,0.032-14.028-0.586
					c-2.008-0.267-4.008-0.614-5.997-1.042c-4.562-0.98-9.052-2.376-13.402-4.187c-1.869-0.775-3.713-1.628-5.526-2.562
					c-4.128-2.115-8.097-4.626-11.853-7.529c-1.596-1.234-3.153-2.535-4.666-3.909c-1.72-1.559-3.382-3.21-4.984-4.952
					c-1.603-1.742-3.109-3.535-4.52-5.379c-1.243-1.622-2.412-3.286-3.509-4.979c-2.58-3.985-4.751-8.149-6.513-12.437
					c-0.779-1.884-1.475-3.793-2.093-5.72c-1.441-4.486-2.458-9.077-3.054-13.705c-0.261-2.017-0.441-4.039-0.539-6.063
					c-0.229-4.684-0.033-9.378,0.585-14.027c0.266-2.009,0.615-4.009,1.043-5.998c0.979-4.562,2.375-9.052,4.185-13.402
					c0.776-1.869,1.629-3.713,2.563-5.526c2.115-4.128,4.626-8.097,7.529-11.853c1.234-1.596,2.535-3.153,3.909-4.666
					c1.559-1.72,3.21-3.382,4.952-4.984c0.964-0.887,1.941-1.743,2.935-2.568l7.933,8.623c-1.003,0.817-1.987,1.67-2.949,2.554
					c-1.739,1.6-3.376,3.276-4.915,5.025c-0.666,0.755-1.314,1.531-1.94,2.314c-2.952,3.685-5.474,7.653-7.537,11.844
					c-0.449,0.906-0.873,1.821-1.276,2.748c-1.865,4.28-3.266,8.769-4.174,13.403c-0.196,0.985-0.367,1.974-0.511,2.976
					c-0.347,2.301-0.569,4.64-0.667,6.998c-0.099,2.358-0.073,4.708,0.082,7.029c0.06,1.01,0.148,2.01,0.261,3.008
					c0.518,4.693,1.541,9.283,3.043,13.703c0.324,0.958,0.671,1.905,1.043,2.846c1.706,4.349,3.886,8.51,6.521,12.428
					c0.561,0.835,1.139,1.659,1.743,2.471c1.387,1.871,2.879,3.678,4.479,5.417s3.276,3.376,5.024,4.914
					c0.756,0.667,1.532,1.314,2.315,1.94c3.685,2.952,7.653,5.475,11.844,7.537c0.906,0.448,1.821,0.874,2.748,1.276
					c4.28,1.864,8.769,3.267,13.403,4.174c0.985,0.196,1.974,0.367,2.976,0.512c2.301,0.347,4.64,0.568,6.998,0.667
					c2.358,0.098,4.707,0.071,7.029-0.082c1.01-0.061,2.01-0.148,3.008-0.262c4.694-0.519,9.284-1.541,13.704-3.043
					c0.958-0.323,1.905-0.671,2.845-1.043c4.349-1.706,8.513-3.889,12.431-6.523c0.832-0.559,1.659-1.139,2.468-1.74
					c1.871-1.388,3.677-2.88,5.416-4.479c0.962-0.886,1.894-1.795,2.791-2.727l7.933,8.623
					C148.946,347.915,148.011,348.817,147.047,349.704"/>
			</g>
		</g>
		<path fill="#FCECA9" d="M152.408,346.893c-31.914,29.356-81.585,27.284-110.942-4.63s-27.285-81.585,4.63-110.942
			c31.914-29.357,81.585-27.284,110.942,4.63C186.395,267.864,184.322,317.535,152.408,346.893"/>
		<path fill="#FCECA9" d="M147.92,342.014c-29.22,26.879-74.697,24.981-101.576-4.239c-26.879-29.22-24.981-74.697,4.239-101.576
			s74.697-24.981,101.576,4.239C179.038,269.658,177.14,315.135,147.92,342.014"/>
		<path fill="#9C9B9B" d="M147.281,244.926c11.801,12.829,17.9,29.485,17.173,46.901s-8.193,33.507-21.021,45.308
			c-12.829,11.802-29.486,17.9-46.902,17.174c-17.416-0.728-33.507-8.192-45.308-21.021c-11.801-12.829-17.9-29.486-17.173-46.902
			c0.727-17.416,8.192-33.506,21.021-45.308c12.829-11.801,29.486-17.899,46.902-17.173
			C119.389,224.631,135.48,232.097,147.281,244.926 M155.89,237.006c-28.774-31.28-77.458-33.312-108.738-4.538
			c-31.281,28.774-33.312,77.458-4.538,108.738c28.774,31.281,77.458,33.313,108.738,4.538
			C182.632,316.971,184.664,268.286,155.89,237.006"/>
		<path fill="#E0B810" d="M73.965,259.277l2.977,3.236c1.418,1.541,2.854,2.329,4.308,2.364c1.453,0.034,2.819-0.537,4.094-1.708
			c0.56-0.516,1.006-1.08,1.334-1.694c0.328-0.613,0.506-1.249,0.533-1.908c0.027-0.66-0.1-1.338-0.379-2.037
			c-0.281-0.699-0.744-1.399-1.388-2.099c-0.516-0.561-1.083-1.016-1.702-1.364c-0.619-0.35-1.246-0.575-1.881-0.676
			c-0.636-0.099-1.268-0.063-1.896,0.114c-0.626,0.175-1.205,0.507-1.738,0.998l-5.588-6.075c1.262-1.16,2.648-1.951,4.162-2.373
			c1.513-0.422,3.045-0.512,4.6-0.272c1.552,0.239,3.089,0.786,4.609,1.638c1.521,0.85,2.92,1.97,4.196,3.358
			c1.418,1.541,2.525,3.117,3.32,4.726c0.794,1.611,1.244,3.209,1.345,4.796c0.103,1.588-0.156,3.133-0.779,4.637
			c-0.621,1.504-1.648,2.911-3.078,4.227c-0.658,0.605-1.403,1.103-2.235,1.492c-0.831,0.391-1.712,0.646-2.649,0.769
			c-0.935,0.123-1.907,0.121-2.92-0.01c-1.012-0.129-2.026-0.411-3.047-0.845c0.968,2.291,1.227,4.428,0.773,6.41
			c-0.452,1.981-1.52,3.746-3.201,5.293c-1.43,1.315-2.959,2.211-4.589,2.69c-1.632,0.476-3.272,0.583-4.925,0.318
			c-1.654-0.264-3.289-0.874-4.906-1.831c-1.618-0.957-3.135-2.206-4.553-3.747c-1.198-1.304-2.197-2.74-2.994-4.309
			c-0.797-1.57-1.279-3.177-1.447-4.82c-0.167-1.645,0.027-3.27,0.579-4.877c0.551-1.609,1.585-3.108,3.098-4.5l5.587,6.074
			c-0.575,0.527-0.997,1.123-1.266,1.786c-0.271,0.663-0.393,1.352-0.37,2.068c0.024,0.714,0.19,1.435,0.496,2.163
			c0.306,0.725,0.756,1.412,1.35,2.057c0.656,0.714,1.347,1.268,2.072,1.662s1.457,0.621,2.196,0.679
			c0.738,0.057,1.46-0.044,2.165-0.304c0.704-0.26,1.372-0.681,2.003-1.261c0.812-0.748,1.404-1.504,1.773-2.271
			c0.368-0.766,0.534-1.533,0.5-2.303c-0.035-0.77-0.254-1.547-0.651-2.331c-0.399-0.785-0.952-1.563-1.661-2.334l-2.978-3.236
			L73.965,259.277z"/>
		<path fill="#E0B810" d="M104.607,303.305c-2.298,2.114-4.498,3.681-6.601,4.696c-2.106,1.018-4.106,1.565-6.002,1.641
			c-1.897,0.075-3.677-0.292-5.34-1.104c-1.664-0.811-3.205-1.986-4.623-3.527s-2.461-3.174-3.131-4.9
			c-0.669-1.726-0.89-3.533-0.662-5.423c0.225-1.891,0.931-3.846,2.113-5.866c1.184-2.018,2.923-4.085,5.221-6.199l5.318-4.891
			c2.298-2.115,4.498-3.679,6.604-4.697c2.103-1.017,4.103-1.557,6-1.619c1.895-0.062,3.672,0.309,5.329,1.111
			c1.658,0.804,3.195,1.976,4.613,3.518s2.461,3.175,3.131,4.9c0.669,1.727,0.893,3.532,0.674,5.416
			c-0.221,1.883-0.922,3.834-2.105,5.854c-1.181,2.02-2.923,4.086-5.22,6.199L104.607,303.305z M105.199,291.546
			c1.359-1.25,2.416-2.396,3.166-3.435c0.751-1.04,1.239-2.007,1.465-2.899c0.226-0.895,0.221-1.724-0.018-2.488
			c-0.238-0.764-0.666-1.483-1.285-2.157c-0.617-0.671-1.295-1.154-2.03-1.448c-0.736-0.293-1.554-0.362-2.457-0.204
			c-0.904,0.158-1.904,0.568-3.003,1.23c-1.098,0.662-2.328,1.617-3.688,2.867l-6.978,6.419c-1.373,1.263-2.44,2.426-3.197,3.486
			c-0.758,1.059-1.261,2.038-1.507,2.938c-0.247,0.9-0.251,1.731-0.013,2.496c0.237,0.764,0.666,1.482,1.283,2.155
			c0.619,0.673,1.3,1.159,2.042,1.46c0.743,0.301,1.57,0.361,2.479,0.185c0.91-0.178,1.921-0.604,3.035-1.278
			c1.112-0.675,2.354-1.642,3.727-2.906L105.199,291.546z"/>
		<path fill="#E0B810" d="M127.326,328.003c-2.298,2.114-4.498,3.68-6.601,4.697c-2.106,1.018-4.106,1.563-6.002,1.639
			c-1.896,0.076-3.676-0.291-5.34-1.103c-1.664-0.81-3.205-1.986-4.623-3.527c-1.418-1.542-2.461-3.175-3.131-4.901
			c-0.669-1.725-0.89-3.533-0.662-5.424c0.226-1.891,0.931-3.846,2.113-5.865c1.184-2.018,2.923-4.085,5.221-6.199l5.318-4.892
			c2.298-2.114,4.498-3.679,6.604-4.696c2.103-1.017,4.103-1.556,6-1.619c1.895-0.061,3.672,0.309,5.33,1.111
			c1.657,0.804,3.194,1.977,4.612,3.518c1.419,1.542,2.461,3.175,3.131,4.9c0.669,1.727,0.893,3.531,0.674,5.416
			c-0.221,1.884-0.922,3.834-2.105,5.854c-1.181,2.021-2.923,4.086-5.22,6.2L127.326,328.003z M127.918,316.243
			c1.359-1.25,2.416-2.395,3.166-3.435c0.751-1.04,1.239-2.007,1.466-2.899c0.225-0.895,0.22-1.723-0.019-2.488
			c-0.238-0.764-0.666-1.482-1.285-2.156c-0.617-0.672-1.295-1.154-2.03-1.448c-0.736-0.293-1.554-0.36-2.457-0.202
			c-0.904,0.157-1.904,0.566-3.003,1.229c-1.098,0.661-2.328,1.617-3.688,2.867l-6.978,6.42c-1.373,1.264-2.44,2.425-3.197,3.484
			c-0.758,1.06-1.261,2.039-1.507,2.938c-0.245,0.9-0.251,1.731-0.013,2.496c0.237,0.765,0.666,1.483,1.283,2.156
			c0.619,0.673,1.3,1.158,2.042,1.459c0.743,0.301,1.57,0.363,2.479,0.186c0.91-0.179,1.921-0.604,3.035-1.279
			c1.112-0.674,2.354-1.643,3.727-2.906L127.918,316.243z"/>
		<g opacity="0.2">
			<g>
				<defs>
					<rect id="SVGID_11_" x="47.217" y="214.788" width="126.123" height="130.885"/>
				</defs>
				<clipPath id="SVGID_12_">
					<use xlink:href="#SVGID_11_"  overflow="visible"/>
				</clipPath>
				<path clip-path="url(#SVGID_12_)" fill="#1D1D1B" d="M151.286,345.673l-7.933-8.624c0.73-0.75,1.438-1.519,2.124-2.298
					c0.67-0.759,1.315-1.532,1.943-2.317c2.952-3.685,5.472-7.65,7.534-11.842c0.449-0.906,0.874-1.821,1.277-2.748
					c1.865-4.279,3.266-8.77,4.174-13.403c0.196-0.984,0.367-1.974,0.511-2.975c0.347-2.301,0.569-4.64,0.667-6.999
					c0.099-2.358,0.072-4.707-0.082-7.029c-0.06-1.01-0.148-2.01-0.261-3.008c-0.519-4.693-1.541-9.284-3.043-13.704
					c-0.324-0.957-0.671-1.905-1.043-2.845c-1.706-4.348-3.889-8.513-6.524-12.431c-0.558-0.832-1.139-1.659-1.74-2.468
					c-1.387-1.871-2.879-3.677-4.479-5.416c-1.6-1.739-3.276-3.377-5.025-4.915c-0.758-0.669-1.532-1.314-2.317-1.943
					c-3.685-2.952-7.65-5.471-11.841-7.534c-0.906-0.449-1.821-0.873-2.748-1.276c-4.28-1.865-8.769-3.267-13.403-4.175
					c-0.986-0.195-1.975-0.366-2.976-0.51c-2.301-0.347-4.64-0.569-6.998-0.668c-2.358-0.098-4.708-0.072-7.029,0.082
					c-1.01,0.06-2.01,0.148-3.008,0.261c-4.694,0.519-9.284,1.542-13.705,3.043c-0.957,0.325-1.904,0.671-2.844,1.043
					c-4.349,1.707-8.51,3.887-12.428,6.522c-0.835,0.561-1.66,1.139-2.471,1.743c-0.835,0.619-1.659,1.261-2.468,1.925l-7.932-8.624
					c0.803-0.67,1.619-1.32,2.443-1.951c1.622-1.243,3.286-2.413,4.979-3.509c3.985-2.58,8.149-4.752,12.436-6.513
					c1.884-0.779,3.793-1.475,5.72-2.093c4.486-1.441,9.077-2.458,13.705-3.054c2.017-0.261,4.039-0.442,6.063-0.539
					c4.684-0.23,9.378-0.034,14.027,0.585c2.009,0.266,4.009,0.615,5.998,1.042c4.562,0.98,9.051,2.376,13.402,4.186
					c1.869,0.776,3.713,1.629,5.526,2.562c4.126,2.113,8.094,4.624,11.85,7.526c1.596,1.234,3.156,2.539,4.669,3.913
					c1.72,1.559,3.382,3.209,4.984,4.951c1.603,1.742,3.109,3.535,4.519,5.38c1.244,1.622,2.411,3.282,3.507,4.975
					c2.58,3.985,4.752,8.149,6.515,12.439c0.78,1.885,1.476,3.793,2.094,5.72c1.44,4.487,2.458,9.077,3.054,13.705
					c0.261,2.017,0.441,4.039,0.539,6.063c0.229,4.685,0.033,9.379-0.586,14.028c-0.266,2.009-0.614,4.009-1.042,5.997
					c-0.98,4.562-2.376,9.052-4.185,13.402c-0.777,1.869-1.629,3.713-2.563,5.525c-2.112,4.126-4.623,8.094-7.526,11.851
					c-1.234,1.597-2.538,3.156-3.912,4.668C152.737,344.169,152.021,344.928,151.286,345.673"/>
			</g>
		</g>
		<path fill="#E0B810" d="M156.304,340.761c1.374-1.513,2.678-3.073,3.912-4.669c2.902-3.756,5.414-7.726,7.526-11.852
			c0.934-1.812,1.786-3.655,2.562-5.524c1.81-4.352,3.206-8.84,4.186-13.403c0.428-1.988,0.776-3.988,1.042-5.997
			c0.619-4.649,0.815-9.343,0.585-14.027c-0.097-2.025-0.278-4.047-0.538-6.064c-0.597-4.628-1.614-9.218-3.055-13.705
			c-0.617-1.927-1.313-3.835-2.093-5.719c-1.764-4.291-3.936-8.454-6.515-12.439c-1.097-1.694-2.264-3.354-3.507-4.976
			c-1.41-1.844-2.917-3.638-4.519-5.379c-1.603-1.742-3.264-3.393-4.984-4.952c-1.513-1.374-3.073-2.678-4.669-3.912
			c-3.756-2.903-7.725-5.414-11.85-7.526c-1.813-0.934-3.657-1.787-5.526-2.563c-4.351-1.81-8.84-3.206-13.403-4.185
			c-1.988-0.428-3.988-0.777-5.997-1.043c-4.649-0.619-9.343-0.814-14.027-0.585c-2.025,0.098-4.047,0.278-6.064,0.539
			c-4.628,0.596-9.218,1.613-13.705,3.054c-1.927,0.618-3.835,1.314-5.719,2.093c-4.288,1.761-8.452,3.933-12.436,6.513
			c-1.694,1.097-3.357,2.266-4.979,3.509c-1.844,1.411-3.637,2.917-5.379,4.52c-1.742,1.602-3.393,3.263-4.952,4.984
			c-1.374,1.513-2.675,3.07-3.909,4.666c-2.903,3.756-5.414,7.725-7.529,11.853c-0.934,1.813-1.787,3.656-2.563,5.525
			c-1.81,4.351-3.206,8.841-4.185,13.403c-0.428,1.988-0.777,3.988-1.043,5.997c-0.619,4.649-0.814,9.344-0.585,14.028
			c0.098,2.024,0.278,4.046,0.539,6.063c0.596,4.627,1.613,9.218,3.054,13.705c0.618,1.927,1.314,3.836,2.093,5.721
			c1.762,4.286,3.933,8.45,6.513,12.436c1.097,1.693,2.266,3.356,3.509,4.978c1.411,1.846,2.917,3.639,4.52,5.381
			c1.602,1.741,3.263,3.392,4.984,4.951c1.513,1.374,3.07,2.676,4.666,3.909c3.756,2.902,7.725,5.414,11.853,7.529
			c1.813,0.934,3.656,1.786,5.525,2.562c4.351,1.811,8.841,3.206,13.403,4.187c1.989,0.428,3.988,0.776,5.997,1.042
			c4.649,0.619,9.344,0.814,14.028,0.585c2.024-0.097,4.046-0.278,6.063-0.539c4.628-0.596,9.218-1.613,13.705-3.054
			c1.927-0.618,3.836-1.313,5.72-2.094c4.29-1.764,8.454-3.936,12.439-6.515c1.693-1.097,3.353-2.264,4.976-3.507
			c1.844-1.41,3.637-2.917,5.379-4.52C153.094,344.142,154.745,342.48,156.304,340.761 M135.548,343.354
			c-3.918,2.635-8.083,4.818-12.431,6.524c-0.94,0.372-1.887,0.719-2.845,1.043c-4.42,1.502-9.01,2.523-13.704,3.043
			c-0.998,0.112-1.998,0.201-3.008,0.261c-2.322,0.154-4.671,0.18-7.029,0.082c-2.358-0.099-4.698-0.32-6.998-0.668
			c-1.002-0.143-1.991-0.314-2.976-0.51c-4.634-0.908-9.124-2.311-13.403-4.174c-0.927-0.403-1.842-0.828-2.748-1.277
			c-4.191-2.063-8.159-4.585-11.844-7.537c-0.783-0.626-1.559-1.274-2.315-1.94c-1.748-1.537-3.424-3.176-5.024-4.914
			c-1.6-1.739-3.092-3.546-4.479-5.416c-0.604-0.813-1.182-1.637-1.743-2.472c-2.635-3.918-4.815-8.08-6.521-12.428
			c-0.372-0.94-0.719-1.887-1.043-2.845c-1.502-4.42-2.525-9.011-3.044-13.704c-0.112-0.998-0.2-1.998-0.26-3.008
			c-0.155-2.322-0.181-4.671-0.082-7.029c0.098-2.358,0.32-4.698,0.667-6.998c0.144-1.002,0.315-1.991,0.511-2.976
			c0.908-4.634,2.309-9.124,4.174-13.403c0.403-0.927,0.827-1.842,1.276-2.748c2.063-4.191,4.585-8.159,7.537-11.844
			c0.626-0.783,1.274-1.559,1.94-2.315c1.539-1.748,3.176-3.424,4.915-5.024c1.739-1.6,3.546-3.092,5.417-4.479
			c0.811-0.604,1.636-1.182,2.47-1.743c3.919-2.635,8.08-4.815,12.429-6.521c0.94-0.372,1.887-0.719,2.844-1.043
			c4.42-1.502,9.011-2.525,13.705-3.044c0.998-0.112,1.998-0.2,3.007-0.26c2.322-0.155,4.672-0.181,7.03-0.082
			c2.358,0.098,4.697,0.32,6.998,0.667c1.001,0.144,1.99,0.315,2.976,0.511c4.634,0.908,9.123,2.309,13.403,4.174
			c0.927,0.403,1.842,0.827,2.747,1.276c4.192,2.063,8.157,4.582,11.842,7.534c0.785,0.629,1.559,1.274,2.317,1.943
			c1.749,1.539,3.425,3.176,5.024,4.915c1.6,1.739,3.092,3.546,4.48,5.416c0.601,0.809,1.181,1.637,1.74,2.468
			c2.635,3.919,4.818,8.083,6.524,12.432c0.372,0.94,0.719,1.887,1.043,2.844c1.502,4.42,2.524,9.011,3.043,13.704
			c0.113,0.999,0.201,1.999,0.261,3.008c0.154,2.322,0.18,4.672,0.082,7.03c-0.099,2.358-0.32,4.697-0.667,6.998
			c-0.144,1.001-0.315,1.99-0.511,2.976c-0.908,4.634-2.31,9.123-4.174,13.403c-0.403,0.927-0.828,1.842-1.277,2.746
			c-2.062,4.192-4.582,8.157-7.534,11.843c-0.629,0.785-1.274,1.559-1.943,2.316c-1.538,1.749-3.176,3.425-4.915,5.024
			c-1.739,1.6-3.545,3.092-5.416,4.479C137.207,342.216,136.38,342.796,135.548,343.354"/>
		<g opacity="0.2">
			<g>
				<defs>
					<rect id="SVGID_13_" x="9.604" y="165.546" width="145.511" height="118.719"/>
				</defs>
				<clipPath id="SVGID_14_">
					<use xlink:href="#SVGID_13_"  overflow="visible"/>
				</clipPath>
				<path clip-path="url(#SVGID_14_)" fill="#1D1D1B" d="M153.253,245.715c-1.182,2.051-2.441,4.025-3.778,5.924
					c-1.175,1.672-2.409,3.283-3.696,4.837c-3.028,3.655-6.35,6.975-9.914,9.943c-1.564,1.309-3.176,2.545-4.83,3.712
					c-3.848,2.719-7.923,5.065-12.159,7.021c-1.846,0.853-3.721,1.631-5.623,2.331c-4.4,1.623-8.938,2.843-13.558,3.646
					c-1.997,0.348-4.009,0.615-6.034,0.803c-4.646,0.433-9.348,0.446-14.041,0.024c-2.016-0.181-4.03-0.441-6.04-0.789
					c-4.572-0.781-9.111-1.987-13.564-3.63c-1.893-0.699-3.769-1.474-5.624-2.331c-2.108-0.972-4.188-2.049-6.239-3.231
					c-2.051-1.181-4.025-2.441-5.924-3.777c-1.672-1.175-3.286-2.412-4.84-3.698c-3.655-3.029-6.975-6.351-9.94-9.913
					c-1.309-1.564-2.544-3.176-3.711-4.83c-2.72-3.848-5.066-7.922-7.022-12.159c-0.853-1.846-1.631-3.721-2.331-5.623
					c-1.623-4.4-2.843-8.937-3.646-13.558c-0.348-1.996-0.615-4.009-0.803-6.034c-0.432-4.646-0.446-9.348-0.023-14.041
					c0.18-2.016,0.44-4.03,0.788-6.04c0.781-4.572,1.987-9.111,3.631-13.564c0.698-1.893,1.473-3.768,2.331-5.623
					c0.972-2.109,2.048-4.189,3.23-6.24c0.654-1.135,1.329-2.244,2.031-3.33l10.153,5.85c-0.712,1.08-1.396,2.189-2.048,3.32
					c-1.18,2.048-2.24,4.137-3.183,6.267c-0.409,0.921-0.795,1.855-1.157,2.789c-1.712,4.401-2.93,8.942-3.641,13.559
					c-0.157,0.999-0.288,1.999-0.394,3.004c-0.497,4.642-0.488,9.345,0.034,14.038c0.109,0.999,0.242,1.994,0.405,2.992
					c0.358,2.299,0.848,4.597,1.461,6.876c0.612,2.28,1.342,4.513,2.184,6.682c0.36,0.946,0.744,1.873,1.151,2.792
					c1.902,4.322,4.253,8.395,7.01,12.162c0.597,0.816,1.211,1.616,1.848,2.401c2.931,3.637,6.258,6.954,9.946,9.903
					c0.786,0.628,1.585,1.241,2.404,1.834c1.884,1.37,3.849,2.646,5.896,3.825c2.048,1.18,4.137,2.24,6.267,3.183
					c0.921,0.41,1.855,0.795,2.789,1.158c4.401,1.712,8.942,2.929,13.559,3.64c0.998,0.157,1.999,0.288,3.004,0.395
					c4.642,0.496,9.345,0.488,14.038-0.035c0.999-0.109,1.993-0.242,2.992-0.405c2.299-0.358,4.597-0.848,6.876-1.46
					c2.279-0.613,4.513-1.342,6.682-2.185c0.945-0.36,1.873-0.744,2.791-1.151c4.323-1.901,8.396-4.253,12.163-7.01
					c0.816-0.597,1.616-1.211,2.401-1.848c3.637-2.931,6.956-6.261,9.904-9.949c0.627-0.783,1.242-1.585,1.833-2.401
					c1.369-1.884,2.646-3.849,3.825-5.896c0.652-1.132,1.269-2.28,1.846-3.437l10.152,5.85
					C154.528,243.439,153.907,244.58,153.253,245.715"/>
			</g>
		</g>
		<path fill="#FCECA9" d="M157.525,241.426c-21.649,37.573-69.657,50.482-107.23,28.833c-37.573-21.649-50.482-69.657-28.833-107.23
			c21.649-37.573,69.657-50.482,107.23-28.833C166.265,155.845,179.174,203.853,157.525,241.426"/>
		<path fill="#FCECA9" d="M151.781,238.117c-19.821,34.401-63.776,46.22-98.177,26.399c-34.401-19.821-46.22-63.777-26.399-98.177
			c19.821-34.401,63.777-46.22,98.177-26.399C159.783,159.761,171.602,203.715,151.781,238.117"/>
		<path fill="#9C9B9B" d="M122.073,145.684c15.103,8.702,25.914,22.765,30.44,39.599c4.527,16.833,2.227,34.421-6.476,49.525
			c-8.702,15.103-22.765,25.914-39.598,30.44c-16.834,4.526-34.422,2.227-49.526-6.476c-15.103-8.702-25.914-22.765-30.44-39.599
			c-4.526-16.833-2.226-34.421,6.476-49.525c8.702-15.103,22.765-25.914,39.599-30.44
			C89.381,134.682,106.969,136.98,122.073,145.684 M127.913,135.547c-36.826-21.219-83.881-8.566-105.1,28.26
			c-21.218,36.827-8.566,83.881,28.26,105.1c36.827,21.219,83.882,8.566,105.1-28.26
			C177.392,203.82,164.739,156.767,127.913,135.547"/>
		<polygon fill="#E0B810" points="54.277,208.25 47.125,204.128 63.007,176.563 52.945,174.291 56.297,168.477 74.297,171.729 
			75.064,172.169 		"/>
		<path fill="#E0B810" d="M98.814,214.069c-1.559,2.706-3.189,4.859-4.891,6.459c-1.703,1.602-3.447,2.722-5.234,3.363
			c-1.787,0.641-3.595,0.825-5.425,0.549c-1.831-0.275-3.653-0.935-5.468-1.98c-1.814-1.047-3.298-2.292-4.455-3.738
			c-1.156-1.445-1.908-3.104-2.257-4.975c-0.352-1.873-0.264-3.949,0.257-6.229c0.524-2.281,1.565-4.773,3.123-7.48l3.608-6.26
			c1.558-2.705,3.189-4.858,4.892-6.459c1.703-1.602,3.45-2.715,5.241-3.343c1.789-0.627,3.595-0.807,5.417-0.537
			c1.821,0.269,3.639,0.927,5.456,1.972c1.814,1.047,3.298,2.292,4.454,3.739c1.155,1.445,1.91,3.099,2.266,4.962
			c0.354,1.865,0.27,3.936-0.254,6.217c-0.523,2.282-1.564,4.774-3.123,7.479L98.814,214.069z M95.855,202.673
			c0.922-1.6,1.586-3.009,1.99-4.226c0.405-1.217,0.58-2.286,0.53-3.206c-0.053-0.92-0.307-1.709-0.763-2.367
			c-0.456-0.658-1.079-1.215-1.871-1.672c-0.792-0.455-1.583-0.714-2.373-0.773c-0.79-0.06-1.591,0.121-2.406,0.543
			c-0.814,0.42-1.646,1.111-2.495,2.072c-0.85,0.96-1.737,2.24-2.659,3.84l-4.733,8.216c-0.932,1.617-1.601,3.044-2.007,4.282
			c-0.406,1.238-0.592,2.324-0.557,3.256c0.035,0.931,0.28,1.726,0.737,2.385c0.455,0.658,1.08,1.214,1.871,1.671
			c0.793,0.457,1.586,0.716,2.384,0.781c0.799,0.064,1.605-0.124,2.42-0.568c0.815-0.441,1.653-1.151,2.512-2.128
			s1.755-2.274,2.687-3.891L95.855,202.673z"/>
		<path fill="#E0B810" d="M127.891,230.822c-1.559,2.707-3.188,4.859-4.891,6.46s-3.447,2.721-5.234,3.362
			c-1.787,0.641-3.595,0.824-5.425,0.549c-1.831-0.274-3.653-0.934-5.468-1.98c-1.814-1.046-3.298-2.292-4.455-3.737
			c-1.156-1.446-1.908-3.104-2.257-4.976c-0.352-1.872-0.264-3.948,0.259-6.229c0.522-2.28,1.563-4.773,3.121-7.479l3.608-6.26
			c1.558-2.706,3.189-4.859,4.892-6.46c1.703-1.602,3.45-2.715,5.241-3.342c1.789-0.628,3.595-0.807,5.417-0.537
			c1.821,0.269,3.639,0.926,5.456,1.972c1.814,1.046,3.298,2.291,4.455,3.738c1.154,1.446,1.91,3.1,2.265,4.963
			c0.354,1.864,0.27,3.936-0.254,6.217c-0.523,2.281-1.564,4.774-3.123,7.479L127.891,230.822z M124.932,219.426
			c0.922-1.6,1.586-3.009,1.991-4.226c0.404-1.216,0.579-2.285,0.529-3.205c-0.053-0.921-0.307-1.71-0.763-2.368
			c-0.456-0.658-1.079-1.215-1.871-1.671c-0.791-0.457-1.583-0.715-2.372-0.773c-0.791-0.061-1.592,0.121-2.407,0.542
			c-0.814,0.421-1.644,1.111-2.495,2.071c-0.85,0.961-1.735,2.242-2.657,3.842l-4.734,8.215c-0.932,1.617-1.602,3.045-2.008,4.283
			c-0.406,1.238-0.592,2.323-0.557,3.256c0.035,0.931,0.282,1.726,0.737,2.385c0.455,0.658,1.08,1.214,1.871,1.67
			c0.793,0.457,1.586,0.716,2.384,0.781c0.799,0.064,1.605-0.124,2.42-0.567c0.815-0.441,1.653-1.152,2.512-2.129
			c0.859-0.976,1.755-2.273,2.687-3.89L124.932,219.426z"/>
		<g opacity="0.2">
			<g>
				<defs>
					<rect id="SVGID_15_" x="22.898" y="128.637" width="141.618" height="111.962"/>
				</defs>
				<clipPath id="SVGID_16_">
					<use xlink:href="#SVGID_15_"  overflow="visible"/>
				</clipPath>
				<path clip-path="url(#SVGID_16_)" fill="#1D1D1B" d="M156.089,240.599l-10.153-5.85c0.471-0.934,0.917-1.879,1.338-2.829
					c0.411-0.924,0.795-1.856,1.159-2.793c1.712-4.4,2.927-8.939,3.639-13.555c0.157-0.999,0.287-1.999,0.394-3.004
					c0.496-4.642,0.488-9.345-0.034-14.038c-0.109-0.999-0.242-1.994-0.405-2.992c-0.358-2.299-0.848-4.598-1.461-6.877
					c-0.613-2.279-1.342-4.513-2.185-6.682c-0.36-0.945-0.743-1.872-1.15-2.791c-1.902-4.322-4.253-8.395-7.011-12.162
					c-0.596-0.816-1.211-1.616-1.847-2.401c-2.931-3.638-6.262-6.956-9.95-9.905c-0.782-0.626-1.584-1.241-2.4-1.833
					c-1.884-1.369-3.849-2.645-5.896-3.825c-2.048-1.179-4.137-2.239-6.267-3.183c-0.924-0.411-1.855-0.794-2.793-1.159
					c-4.4-1.712-8.938-2.927-13.555-3.639c-0.999-0.156-1.999-0.287-3.004-0.394c-4.642-0.496-9.345-0.488-14.038,0.035
					c-0.999,0.108-1.994,0.242-2.992,0.404c-2.299,0.359-4.597,0.848-6.876,1.461c-2.28,0.613-4.513,1.342-6.682,2.185
					c-0.946,0.36-1.873,0.743-2.792,1.15c-4.322,1.902-8.395,4.253-12.162,7.011c-0.816,0.596-1.616,1.211-2.401,1.847
					c-3.637,2.932-6.954,6.259-9.903,9.947c-0.628,0.785-1.241,1.584-1.834,2.403c-0.611,0.841-1.205,1.7-1.777,2.577l-10.153-5.85
					c0.566-0.88,1.15-1.746,1.746-2.594c1.175-1.672,2.412-3.287,3.698-4.84c3.029-3.656,6.351-6.976,9.913-9.941
					c1.564-1.308,3.176-2.544,4.829-3.711c3.849-2.719,7.923-5.065,12.16-7.021c1.846-0.853,3.721-1.632,5.623-2.332
					c4.4-1.622,8.937-2.842,13.558-3.645c1.996-0.349,4.009-0.616,6.034-0.803c4.646-0.433,9.348-0.447,14.041-0.024
					c2.016,0.18,4.03,0.441,6.04,0.789c4.569,0.778,9.107,1.985,13.561,3.628c1.892,0.699,3.771,1.476,5.626,2.333
					c2.109,0.972,4.189,2.049,6.24,3.23c2.05,1.182,4.025,2.441,5.923,3.778c1.672,1.175,3.283,2.409,4.837,3.696
					c3.655,3.029,6.975,6.35,9.944,9.915c1.308,1.564,2.544,3.176,3.711,4.829c2.719,3.849,5.066,7.923,7.021,12.16
					c0.854,1.846,1.632,3.721,2.332,5.623c1.623,4.4,2.843,8.937,3.645,13.558c0.349,1.996,0.616,4.009,0.803,6.034
					c0.433,4.646,0.447,9.348,0.024,14.041c-0.18,2.016-0.441,4.03-0.788,6.039c-0.779,4.569-1.986,9.108-3.629,13.561
					c-0.699,1.893-1.475,3.772-2.333,5.627C157.022,238.729,156.567,239.667,156.089,240.599"/>
			</g>
		</g>
		<path fill="#E0B810" d="M159.404,234.408c0.857-1.855,1.634-3.734,2.333-5.626c1.643-4.454,2.85-8.992,3.629-13.562
			c0.347-2.009,0.608-4.023,0.788-6.039c0.423-4.693,0.409-9.395-0.024-14.041c-0.187-2.025-0.454-4.038-0.803-6.034
			c-0.802-4.621-2.022-9.158-3.645-13.558c-0.7-1.902-1.478-3.777-2.332-5.623c-1.955-4.237-4.302-8.311-7.021-12.16
			c-1.167-1.653-2.403-3.265-3.711-4.829c-2.969-3.565-6.289-6.886-9.944-9.915c-1.554-1.287-3.165-2.521-4.837-3.696
			c-1.898-1.337-3.873-2.596-5.923-3.777c-2.051-1.182-4.131-2.259-6.24-3.231c-1.855-0.857-3.734-1.634-5.626-2.333
			c-4.454-1.643-8.992-2.85-13.561-3.628c-2.01-0.348-4.024-0.609-6.04-0.789c-4.693-0.422-9.395-0.409-14.041,0.024
			c-2.025,0.188-4.038,0.455-6.034,0.803c-4.621,0.803-9.158,2.023-13.558,3.646c-1.902,0.699-3.777,1.478-5.623,2.331
			c-4.237,1.956-8.311,4.302-12.16,7.021c-1.653,1.167-3.265,2.403-4.829,3.711c-3.563,2.966-6.884,6.286-9.913,9.941
			c-1.286,1.553-2.523,3.168-3.698,4.84c-1.336,1.898-2.596,3.873-3.777,5.924c-1.182,2.051-2.259,4.13-3.231,6.239
			c-0.857,1.855-1.632,3.731-2.331,5.623c-1.643,4.454-2.85,8.992-3.63,13.565c-0.348,2.009-0.608,4.024-0.789,6.039
			c-0.422,4.694-0.409,9.395,0.024,14.041c0.188,2.025,0.455,4.038,0.803,6.034c0.803,4.621,2.023,9.158,3.646,13.558
			c0.7,1.902,1.478,3.777,2.331,5.623c1.956,4.237,4.302,8.311,7.021,12.16c1.167,1.653,2.403,3.265,3.712,4.829
			c2.965,3.563,6.285,6.884,9.94,9.913c1.554,1.287,3.168,2.523,4.84,3.698c1.899,1.337,3.873,2.596,5.924,3.778
			c2.051,1.181,4.13,2.258,6.239,3.23c1.855,0.857,3.731,1.632,5.623,2.331c4.454,1.643,8.992,2.85,13.565,3.63
			c2.009,0.348,4.024,0.609,6.039,0.789c4.694,0.423,9.395,0.409,14.041-0.024c2.026-0.187,4.038-0.454,6.034-0.803
			c4.621-0.803,9.158-2.023,13.559-3.645c1.901-0.7,3.776-1.478,5.623-2.332c4.236-1.956,8.311-4.302,12.159-7.021
			c1.653-1.167,3.265-2.403,4.829-3.711c3.565-2.969,6.886-6.289,9.915-9.944c1.287-1.554,2.521-3.165,3.696-4.837
			c1.337-1.898,2.596-3.873,3.778-5.924C157.354,238.597,158.432,236.517,159.404,234.408 M140.379,243.104
			c-2.948,3.688-6.267,7.019-9.904,9.95c-0.786,0.636-1.586,1.251-2.402,1.847c-3.766,2.758-7.84,5.109-12.162,7.011
			c-0.918,0.407-1.846,0.79-2.791,1.15c-2.169,0.843-4.403,1.572-6.682,2.185c-2.279,0.613-4.577,1.102-6.877,1.461
			c-0.998,0.163-1.993,0.296-2.991,0.404c-4.694,0.523-9.397,0.531-14.038,0.035c-1.006-0.107-2.006-0.237-3.004-0.394
			c-4.617-0.712-9.159-1.929-13.559-3.641c-0.934-0.363-1.869-0.748-2.79-1.157c-2.129-0.944-4.219-2.003-6.266-3.183
			c-2.047-1.18-4.012-2.456-5.897-3.825c-0.819-0.594-1.617-1.207-2.403-1.835c-3.688-2.948-7.015-6.265-9.946-9.903
			c-0.637-0.785-1.252-1.585-1.848-2.401c-2.757-3.767-5.109-7.84-7.01-12.162c-0.407-0.918-0.791-1.846-1.151-2.791
			c-0.843-2.169-1.572-4.403-2.185-6.682c-0.613-2.279-1.102-4.578-1.46-6.877c-0.163-0.998-0.297-1.993-0.405-2.991
			c-0.523-4.694-0.531-9.397-0.035-14.039c0.107-1.005,0.238-2.005,0.395-3.004c0.711-4.616,1.928-9.158,3.64-13.558
			c0.363-0.934,0.748-1.869,1.157-2.79c0.944-2.129,2.004-4.219,3.184-6.266c1.179-2.048,2.455-4.012,3.824-5.897
			c0.594-0.819,1.207-1.618,1.835-2.403c2.949-3.688,6.266-7.015,9.903-9.946c0.785-0.637,1.585-1.252,2.401-1.848
			c3.767-2.757,7.84-5.109,12.162-7.011c0.919-0.406,1.846-0.79,2.792-1.15c2.169-0.843,4.402-1.572,6.681-2.185
			c2.28-0.613,4.578-1.102,6.877-1.461c0.998-0.162,1.993-0.296,2.992-0.404c4.693-0.523,9.396-0.531,14.038-0.035
			c1.005,0.107,2.005,0.238,3.004,0.395c4.617,0.711,9.155,1.926,13.555,3.638c0.938,0.365,1.869,0.748,2.793,1.159
			c2.13,0.944,4.219,2.004,6.266,3.183c2.048,1.18,4.013,2.456,5.897,3.825c0.816,0.592,1.618,1.207,2.4,1.833
			c3.688,2.949,7.019,6.267,9.95,9.905c0.636,0.785,1.251,1.585,1.847,2.401c2.758,3.767,5.109,7.84,7.011,12.162
			c0.407,0.919,0.79,1.846,1.15,2.792c0.843,2.168,1.572,4.402,2.185,6.681c0.613,2.28,1.102,4.578,1.461,6.877
			c0.163,0.998,0.296,1.993,0.405,2.992c0.522,4.693,0.53,9.396,0.034,14.038c-0.107,1.005-0.237,2.005-0.394,3.004
			c-0.712,4.617-1.927,9.155-3.639,13.555c-0.365,0.938-0.748,1.869-1.159,2.793c-0.943,2.129-2.003,4.219-3.183,6.266
			c-1.18,2.048-2.456,4.013-3.825,5.897C141.621,241.52,141.005,242.322,140.379,243.104"/>
	</g>
	<g>
		<g opacity="0.2">
			<g>
				<defs>
					<rect id="SVGID_17_" x="-35.704" y="294.003" width="503.348" height="359.94"/>
				</defs>
				<clipPath id="SVGID_18_">
					<use xlink:href="#SVGID_17_"  overflow="visible"/>
				</clipPath>
				
					<rect x="-11.112" y="346.648" transform="matrix(0.9684 -0.2496 0.2496 0.9684 -111.4589 68.9006)" clip-path="url(#SVGID_18_)" fill="#1D1D1B" width="454.165" height="254.649"/>
			</g>
		</g>
		
			<rect x="-5.417" y="353.338" transform="matrix(0.9684 -0.2496 0.2496 0.9684 -111.1876 68.674)" fill="#CEE0BD" width="441.261" height="238.906"/>
		<path fill="#339152" d="M345.779,344.594c8.936,15.509,25.486,25.629,43.985,25.962l27.672,107.367
			c-15.7,9.064-25.61,25.856-25.957,43.982L84.648,600.987c-8.936-15.507-25.487-25.626-43.986-25.96L12.994,467.676
			c7.682-4.414,14.129-10.761,18.754-18.598s7.065-16.549,7.216-25.407L345.779,344.594 M353.937,328.148l-330.08,85.072
			c5.238,20.323-6.99,41.045-27.313,46.281L30.208,590.12c3.182-0.82,6.371-1.212,9.511-1.212
			c16.918,0.001,32.353,11.384,36.771,28.525L406.57,532.36c-5.238-20.322,6.989-41.043,27.313-46.281l-33.665-130.617
			c-3.181,0.82-6.37,1.211-9.51,1.211C373.79,356.673,358.354,345.289,353.937,328.148"/>
		<path fill="#339152" d="M141.211,441.965l4.35,16.881l-1.205,0.311c-4.87,1.255-9.083,3.01-12.635,5.261
			c-3.555,2.253-6.44,4.9-8.657,7.941c-2.216,3.043-3.76,6.441-4.633,10.194c-0.873,3.756-1.063,7.763-0.57,12.022
			c1.848-3.199,4.313-6.015,7.39-8.447c3.081-2.432,6.843-4.222,11.286-5.367c4.869-1.255,9.378-1.421,13.523-0.499
			c4.147,0.926,7.86,2.665,11.142,5.223c3.28,2.559,6.081,5.796,8.402,9.709c2.321,3.916,4.095,8.261,5.326,13.036
			c1.292,5.013,1.679,9.892,1.164,14.638c-0.517,4.747-1.88,9.096-4.089,13.042c-2.21,3.948-5.22,7.385-9.03,10.308
			c-3.81,2.922-8.363,5.067-13.658,6.432c-5.532,1.426-10.803,1.713-15.813,0.861c-5.01-0.852-9.553-2.682-13.629-5.488
			c-4.077-2.806-7.627-6.505-10.65-11.096c-3.025-4.591-5.316-9.912-6.876-15.965l-2.047-7.943
			c-2.145-8.321-2.933-16.263-2.359-23.822c0.573-7.561,2.458-14.424,5.659-20.595c3.202-6.169,7.704-11.489,13.51-15.962
			c5.807-4.471,12.868-7.779,21.192-9.924L141.211,441.965z M134.537,498.824c-1.845,0.475-3.482,1.162-4.914,2.061
			c-1.433,0.898-2.675,1.95-3.726,3.153c-1.05,1.205-1.913,2.511-2.583,3.919c-0.672,1.408-1.125,2.823-1.363,4.246l1.59,6.17
			c0.938,3.642,2.139,6.736,3.602,9.282c1.463,2.549,3.104,4.559,4.919,6.031c1.819,1.474,3.8,2.413,5.948,2.816
			c2.144,0.405,4.352,0.315,6.622-0.27c2.222-0.573,4.122-1.566,5.7-2.981c1.576-1.414,2.789-3.113,3.639-5.099
			c0.85-1.983,1.335-4.213,1.452-6.69c0.119-2.475-0.169-5.061-0.864-7.756c-0.707-2.741-1.699-5.171-2.975-7.289
			c-1.277-2.115-2.794-3.842-4.55-5.18c-1.757-1.337-3.688-2.228-5.793-2.668S136.901,498.215,134.537,498.824"/>
		<path fill="#339152" d="M254.263,478.555c1.999,7.756,2.874,14.627,2.628,20.614c-0.246,5.989-1.431,11.172-3.556,15.552
			c-2.122,4.38-5.108,7.961-8.954,10.741c-3.847,2.781-8.37,4.843-13.571,6.184c-5.202,1.341-10.158,1.722-14.87,1.147
			c-4.711-0.575-9.067-2.264-13.067-5.066c-4-2.8-7.565-6.761-10.7-11.877c-3.134-5.117-5.7-11.552-7.699-19.307l-4.625-17.944
			c-1.998-7.754-2.875-14.625-2.627-20.614c0.246-5.987,1.444-11.162,3.599-15.525c2.153-4.361,5.142-7.93,8.964-10.706
			c3.824-2.774,8.335-4.833,13.537-6.174c5.2-1.341,10.157-1.722,14.869-1.147c4.71,0.575,9.062,2.253,13.057,5.03
			c3.995,2.778,7.558,6.726,10.692,11.843c3.134,5.117,5.7,11.553,7.698,19.307L254.263,478.555z M228.391,462.986
			c-1.182-4.586-2.494-8.357-3.936-11.314c-1.443-2.955-3.039-5.229-4.784-6.822c-1.747-1.593-3.628-2.581-5.644-2.969
			c-2.017-0.389-4.158-0.291-6.428,0.295c-2.27,0.585-4.183,1.531-5.735,2.84c-1.555,1.308-2.7,3.077-3.435,5.31
			c-0.737,2.231-1.019,4.989-0.854,8.275c0.166,3.284,0.839,7.222,2.021,11.808l6.069,23.547c1.195,4.635,2.531,8.45,4.01,11.446
			c1.479,2.997,3.084,5.319,4.82,6.964c1.736,1.646,3.61,2.662,5.626,3.05c2.017,0.388,4.16,0.29,6.429-0.295
			c2.27-0.585,4.193-1.534,5.771-2.849c1.578-1.314,2.716-3.107,3.416-5.381c0.701-2.272,0.961-5.075,0.783-8.408
			c-0.179-3.332-0.865-7.314-2.06-11.949L228.391,462.986z"/>
		<path fill="#339152" d="M337.599,457.076c1.999,7.756,2.874,14.627,2.627,20.614c-0.245,5.989-1.43,11.173-3.555,15.552
			c-2.122,4.38-5.108,7.961-8.954,10.741c-3.848,2.78-8.37,4.843-13.571,6.183c-5.202,1.342-10.159,1.723-14.87,1.147
			c-4.711-0.574-9.067-2.264-13.067-5.065c-4-2.8-7.566-6.76-10.701-11.877c-3.134-5.117-5.699-11.552-7.698-19.308l-4.625-17.943
			c-1.998-7.754-2.875-14.625-2.627-20.614c0.245-5.988,1.444-11.162,3.599-15.525c2.153-4.361,5.142-7.931,8.964-10.706
			c3.824-2.774,8.335-4.833,13.536-6.174c5.201-1.341,10.158-1.722,14.869-1.147c4.711,0.576,9.063,2.253,13.058,5.03
			c3.993,2.778,7.559,6.726,10.692,11.842c3.134,5.118,5.7,11.554,7.698,19.308L337.599,457.076z M311.727,441.508
			c-1.182-4.586-2.494-8.358-3.936-11.314c-1.443-2.957-3.039-5.229-4.784-6.822c-1.747-1.592-3.628-2.582-5.644-2.97
			c-2.018-0.388-4.159-0.29-6.429,0.296c-2.269,0.584-4.182,1.531-5.734,2.839c-1.555,1.309-2.7,3.078-3.435,5.31
			c-0.737,2.232-1.02,4.99-0.854,8.275s0.839,7.223,2.021,11.808L289,472.476c1.195,4.635,2.531,8.45,4.01,11.446
			c1.479,2.998,3.084,5.32,4.82,6.965c1.736,1.646,3.61,2.662,5.626,3.05s4.159,0.29,6.429-0.296
			c2.27-0.584,4.192-1.534,5.771-2.849c1.577-1.313,2.717-3.107,3.416-5.38c0.7-2.272,0.961-5.075,0.783-8.408
			c-0.179-3.332-0.865-7.314-2.06-11.949L311.727,441.508z"/>
		<g opacity="0.2">
			<g>
				<defs>
					<rect id="SVGID_19_" x="-50.08" y="318.363" width="503.349" height="359.94"/>
				</defs>
				<clipPath id="SVGID_20_">
					<use xlink:href="#SVGID_19_"  overflow="visible"/>
				</clipPath>
				
					<rect x="-25.488" y="371.009" transform="matrix(0.9684 -0.2496 0.2496 0.9684 -117.9935 66.0834)" clip-path="url(#SVGID_20_)" fill="#1D1D1B" width="454.165" height="254.649"/>
			</g>
		</g>
		
			<rect x="-19.793" y="377.698" transform="matrix(0.9684 -0.2496 0.2496 0.9684 -117.7223 65.8569)" fill="#CEE0BD" width="441.261" height="238.907"/>
		<path fill="#339152" d="M331.402,368.954c8.936,15.509,25.487,25.628,43.986,25.961l27.672,107.368
			c-15.701,9.064-25.611,25.856-25.957,43.982L70.271,625.348c-8.936-15.507-25.487-25.626-43.986-25.96L-1.387,492.019
			c15.701-9.063,25.611-25.856,25.957-43.982L331.402,368.954 M339.561,352.509L9.48,437.581
			c5.238,20.323-6.99,41.044-27.313,46.281L15.832,614.48c3.182-0.82,6.371-1.212,9.511-1.212
			c16.918,0.001,32.353,11.384,36.771,28.524l330.08-85.072c-5.238-20.322,6.99-41.043,27.313-46.281l-33.665-130.617
			c-3.182,0.82-6.37,1.211-9.511,1.211C359.413,381.033,343.979,369.649,339.561,352.509"/>
		<polygon fill="#339152" points="106.207,582.903 85.71,588.187 65.346,509.177 42.833,523.072 38.537,506.405 77.355,480.063 
			79.555,479.496 		"/>
		<path fill="#339152" d="M129.715,522.689l-7.569-54.02l57.875-14.916l4.405,17.093l-41.065,10.584l3.167,22.857
			c0.613-0.562,1.38-1.199,2.305-1.918c0.924-0.717,2.008-1.45,3.253-2.2c1.243-0.748,2.624-1.457,4.141-2.126
			c1.516-0.666,3.126-1.222,4.829-1.66c4.964-1.28,9.601-1.63,13.909-1.052c4.311,0.58,8.196,2.01,11.658,4.296
			c3.464,2.282,6.459,5.395,8.987,9.332c2.527,3.937,4.492,8.625,5.893,14.061c1.183,4.587,1.6,9.144,1.254,13.669
			c-0.347,4.527-1.555,8.746-3.621,12.656c-2.068,3.912-5.045,7.378-8.932,10.396c-3.885,3.018-8.783,5.29-14.694,6.813
			c-4.444,1.145-8.922,1.58-13.429,1.305c-4.508-0.274-8.702-1.286-12.581-3.035c-3.881-1.748-7.294-4.233-10.242-7.457
			c-2.949-3.223-5.109-7.204-6.481-11.944l20.284-5.228c1.534,4.193,3.896,7.152,7.09,8.875c3.192,1.725,6.868,2.049,11.03,0.977
			c2.599-0.67,4.681-1.736,6.248-3.199c1.562-1.461,2.705-3.193,3.424-5.193c0.72-2.001,1.05-4.242,0.991-6.723
			c-0.06-2.48-0.436-5.068-1.13-7.763c-0.695-2.696-1.663-5.081-2.904-7.156c-1.241-2.074-2.75-3.728-4.531-4.959
			c-1.78-1.229-3.821-2.014-6.127-2.354c-2.307-0.338-4.877-0.142-7.714,0.589c-1.892,0.487-3.494,1.078-4.802,1.768
			c-1.31,0.69-2.442,1.436-3.394,2.236c-0.955,0.801-1.756,1.65-2.406,2.548c-0.652,0.899-1.24,1.795-1.767,2.687L129.715,522.689z"
			/>
		<path fill="#339152" d="M281.591,492.168c1.999,7.755,2.874,14.626,2.627,20.614c-0.246,5.989-1.431,11.173-3.556,15.552
			c-2.122,4.38-5.107,7.961-8.954,10.741c-3.847,2.78-8.37,4.843-13.571,6.183c-5.202,1.341-10.158,1.723-14.87,1.147
			c-4.711-0.575-9.067-2.264-13.067-5.065c-4-2.801-7.565-6.76-10.7-11.878c-3.134-5.116-5.7-11.552-7.699-19.307l-4.625-17.944
			c-1.998-7.754-2.874-14.624-2.627-20.613c0.246-5.988,1.445-11.163,3.599-15.526c2.154-4.361,5.142-7.93,8.966-10.706
			c3.822-2.773,8.333-4.832,13.535-6.173c5.201-1.341,10.157-1.722,14.87-1.147c4.711,0.576,9.062,2.253,13.056,5.029
			c3.995,2.779,7.558,6.727,10.692,11.843c3.135,5.118,5.701,11.554,7.699,19.308L281.591,492.168z M255.72,476.599
			c-1.182-4.585-2.496-8.357-3.937-11.313c-1.444-2.957-3.038-5.23-4.784-6.822c-1.748-1.592-3.628-2.582-5.644-2.97
			c-2.018-0.388-4.159-0.291-6.429,0.295c-2.269,0.585-4.183,1.531-5.734,2.84c-1.555,1.309-2.7,3.078-3.436,5.31
			c-0.735,2.232-1.019,4.99-0.854,8.275c0.167,3.285,0.84,7.223,2.022,11.808l6.068,23.547c1.195,4.635,2.531,8.45,4.01,11.446
			c1.479,2.998,3.084,5.32,4.821,6.965c1.735,1.646,3.609,2.662,5.626,3.049c2.016,0.389,4.16,0.29,6.429-0.295
			c2.27-0.585,4.192-1.534,5.771-2.849c1.577-1.314,2.717-3.107,3.415-5.38c0.701-2.273,0.961-5.076,0.784-8.409
			c-0.18-3.331-0.864-7.314-2.06-11.949L255.72,476.599z"/>
		<path fill="#339152" d="M364.926,470.689c1.999,7.755,2.874,14.626,2.628,20.613c-0.246,5.99-1.431,11.174-3.556,15.552
			c-2.122,4.38-5.107,7.961-8.954,10.741c-3.848,2.781-8.37,4.844-13.571,6.184c-5.202,1.341-10.158,1.723-14.87,1.147
			c-4.711-0.575-9.066-2.264-13.066-5.065c-4-2.801-7.565-6.76-10.7-11.878c-3.134-5.116-5.7-11.552-7.699-19.307l-4.625-17.944
			c-1.998-7.754-2.874-14.625-2.627-20.614c0.246-5.987,1.445-11.162,3.599-15.525c2.153-4.361,5.142-7.93,8.964-10.706
			c3.823-2.773,8.334-4.832,13.536-6.174c5.201-1.34,10.157-1.721,14.87-1.147c4.71,0.577,9.062,2.254,13.057,5.03
			c3.994,2.779,7.558,6.727,10.691,11.843c3.135,5.118,5.7,11.553,7.698,19.307L364.926,470.689z M339.055,455.12
			c-1.182-4.585-2.495-8.357-3.938-11.313s-3.037-5.23-4.783-6.822c-1.747-1.592-3.628-2.582-5.645-2.97
			c-2.017-0.389-4.158-0.291-6.428,0.295c-2.27,0.585-4.183,1.531-5.734,2.84c-1.555,1.308-2.699,3.078-3.436,5.31
			c-0.736,2.232-1.02,4.99-0.854,8.275c0.166,3.285,0.841,7.222,2.022,11.808l6.068,23.547c1.194,4.635,2.53,8.45,4.01,11.446
			c1.479,2.998,3.084,5.32,4.82,6.964c1.735,1.646,3.609,2.662,5.627,3.05c2.016,0.389,4.159,0.29,6.429-0.295
			s4.191-1.534,5.771-2.849c1.577-1.314,2.717-3.107,3.415-5.381c0.701-2.272,0.961-5.075,0.783-8.408
			c-0.179-3.331-0.865-7.314-2.06-11.949L339.055,455.12z"/>
		<g opacity="0.2">
			<g>
				<defs>
					<rect id="SVGID_21_" x="126.443" y="334.305" width="150.207" height="301.081"/>
				</defs>
				<clipPath id="SVGID_22_">
					<use xlink:href="#SVGID_21_"  overflow="visible"/>
				</clipPath>
				
					<rect x="161.389" y="339.735" transform="matrix(0.9684 -0.2496 0.2496 0.9684 -114.6283 65.6445)" clip-path="url(#SVGID_22_)" fill="#1D1D1B" width="80.316" height="290.22"/>
			</g>
		</g>
		
			<rect x="151.705" y="342.231" transform="matrix(0.9684 -0.2496 0.2496 0.9684 -115.5578 63.3065)" fill="#918A64" width="80.316" height="290.22"/>
		<g opacity="0.2">
			<g>
				<defs>
					<rect id="SVGID_23_" x="64.344" y="-98.863" width="510.839" height="383.268"/>
				</defs>
				<clipPath id="SVGID_24_">
					<use xlink:href="#SVGID_23_"  overflow="visible"/>
				</clipPath>
				
					<rect x="92.681" y="-34.553" transform="matrix(0.9504 0.311 -0.311 0.9504 44.7093 -94.8466)" clip-path="url(#SVGID_24_)" fill="#1D1D1B" width="454.165" height="254.649"/>
			</g>
		</g>
		
			<rect x="99.132" y="-28.086" transform="matrix(0.9504 0.311 -0.311 0.9504 44.2722 -94.9152)" fill="#CEE0BD" width="441.26" height="238.906"/>
		<path fill="#339152" d="M197.671-44.915l301.122,98.536c-0.416,8.849,1.462,17.699,5.575,25.816
			c4.115,8.117,10.144,14.863,17.526,19.759l-34.477,105.361c-0.785-0.035-1.571-0.053-2.358-0.053
			c-17.714,0-33.766,8.911-43.207,23.144l-301.138-98.54c0.815-18.111-8.001-35.504-23.09-45.553l34.482-105.379
			c0.785,0.036,1.571,0.054,2.358,0.054C172.179-21.77,188.23-30.681,197.671-44.915 M190.574-61.852
			c-5.243,16.022-20.119,26.192-36.109,26.192c-3.915,0-7.901-0.61-11.825-1.894L100.69,90.642
			c19.946,6.527,30.824,27.988,24.297,47.934l323.962,106.01c5.243-16.023,20.119-26.192,36.109-26.192
			c3.915,0,7.901,0.61,11.825,1.894l41.949-128.197c-19.946-6.526-30.824-27.987-24.298-47.933L190.574-61.852z"/>
		<path fill="#339152" d="M274.014,25.606l-5.422,16.566l-1.183-0.387c-4.78-1.564-9.275-2.353-13.482-2.37
			c-4.208-0.014-8.064,0.663-11.57,2.033c-3.505,1.371-6.636,3.404-9.392,6.097c-2.757,2.695-5.075,5.969-6.952,9.824
			c3.279-1.701,6.871-2.747,10.775-3.14c3.905-0.391,8.038,0.126,12.4,1.553c4.779,1.564,8.668,3.852,11.665,6.861
			c2.996,3.012,5.19,6.476,6.577,10.398c1.388,3.922,2.006,8.158,1.854,12.705c-0.152,4.55-0.996,9.167-2.529,13.854
			c-1.611,4.92-3.911,9.24-6.9,12.962c-2.992,3.722-6.481,6.653-10.468,8.79c-3.987,2.138-8.374,3.412-13.158,3.824
			c-4.784,0.412-9.776-0.232-14.972-1.933c-5.43-1.776-10.026-4.372-13.79-7.787s-6.607-7.402-8.532-11.963
			c-1.924-4.559-2.924-9.587-3-15.084c-0.077-5.497,0.857-11.213,2.8-17.155l2.552-7.797c2.672-8.166,6.284-15.282,10.838-21.344
			c4.552-6.063,9.837-10.832,15.856-14.309c6.018-3.476,12.677-5.535,19.978-6.179c7.299-0.64,15.033,0.373,23.201,3.046
			L274.014,25.606z M237.779,69.928c-1.811-0.592-3.562-0.896-5.252-0.909c-1.69-0.014-3.303,0.204-4.837,0.652
			c-1.534,0.449-2.964,1.086-4.286,1.911c-1.324,0.827-2.469,1.775-3.436,2.845l-1.981,6.056c-1.17,3.574-1.823,6.829-1.962,9.762
			c-0.139,2.934,0.163,5.512,0.9,7.731c0.738,2.22,1.902,4.078,3.494,5.574c1.589,1.497,3.5,2.609,5.727,3.339
			c2.182,0.714,4.317,0.899,6.407,0.556c2.09-0.344,4.029-1.121,5.813-2.337c1.784-1.214,3.392-2.832,4.825-4.857
			c1.433-2.021,2.582-4.356,3.448-7.002c0.88-2.69,1.352-5.271,1.416-7.743c0.064-2.471-0.286-4.743-1.045-6.815
			c-0.76-2.073-1.909-3.862-3.445-5.367C242.027,71.82,240.099,70.688,237.779,69.928"/>
		<path fill="#339152" d="M349.585,117.304c-2.49,7.611-5.452,13.873-8.884,18.786c-3.433,4.915-7.221,8.645-11.368,11.192
			c-4.147,2.548-8.591,3.958-13.328,4.231c-4.739,0.271-9.661-0.426-14.767-2.096c-5.105-1.671-9.486-4.017-13.148-7.039
			c-3.66-3.02-6.422-6.789-8.283-11.303c-1.865-4.513-2.738-9.77-2.624-15.77c0.113-5.999,1.416-12.804,3.906-20.415l5.763-17.612
			c2.491-7.61,5.451-13.872,8.884-18.787c3.431-4.913,7.227-8.628,11.391-11.146c4.163-2.516,8.602-3.915,13.318-4.196
			c4.716-0.28,9.625,0.414,14.73,2.084c5.104,1.671,9.487,4.018,13.148,7.039c3.66,3.022,6.425,6.778,8.296,11.268
			c1.87,4.492,2.748,9.736,2.635,15.735c-0.114,6.001-1.416,12.806-3.906,20.417L349.585,117.304z M336.165,90.255
			c1.473-4.5,2.396-8.387,2.772-11.654c0.375-3.268,0.256-6.042-0.357-8.325c-0.615-2.282-1.667-4.128-3.158-5.541
			s-3.349-2.483-5.576-3.211c-2.228-0.73-4.349-0.961-6.361-0.695c-2.014,0.265-3.931,1.141-5.753,2.625
			c-1.822,1.485-3.547,3.656-5.176,6.514c-1.628,2.858-3.18,6.539-4.652,11.039l-7.563,23.11c-1.489,4.549-2.417,8.484-2.784,11.805
			c-0.369,3.323-0.264,6.144,0.313,8.464c0.576,2.321,1.609,4.187,3.1,5.599c1.49,1.413,3.349,2.484,5.576,3.212
			c2.228,0.73,4.359,0.964,6.397,0.706c2.035-0.257,3.962-1.156,5.774-2.695c1.814-1.538,3.542-3.76,5.187-6.664
			c1.644-2.904,3.21-6.63,4.698-11.179L336.165,90.255z"/>
		<path fill="#339152" d="M431.377,144.067c-2.49,7.611-5.452,13.874-8.884,18.787c-3.433,4.914-7.222,8.644-11.368,11.191
			c-4.147,2.549-8.591,3.959-13.328,4.232c-4.739,0.271-9.661-0.426-14.767-2.097c-5.105-1.67-9.486-4.017-13.148-7.038
			c-3.661-3.02-6.422-6.788-8.284-11.303c-1.863-4.513-2.736-9.77-2.623-15.77c0.113-5.999,1.416-12.804,3.906-20.415l5.763-17.612
			c2.491-7.61,5.451-13.872,8.885-18.786c3.431-4.914,7.227-8.629,11.391-11.146c4.163-2.516,8.603-3.915,13.318-4.196
			c4.715-0.28,9.625,0.414,14.73,2.084c5.104,1.67,9.486,4.018,13.148,7.039c3.66,3.022,6.425,6.778,8.296,11.268
			c1.87,4.492,2.748,9.736,2.635,15.735c-0.114,6.001-1.416,12.806-3.906,20.416L431.377,144.067z M417.957,117.02
			c1.473-4.501,2.396-8.386,2.773-11.654c0.375-3.268,0.255-6.042-0.358-8.325c-0.615-2.282-1.667-4.128-3.158-5.541
			s-3.349-2.483-5.576-3.211c-2.228-0.729-4.349-0.961-6.361-0.695c-2.014,0.265-3.932,1.141-5.753,2.625
			c-1.823,1.485-3.547,3.656-5.176,6.514c-1.628,2.858-3.18,6.539-4.652,11.039l-7.563,23.11c-1.489,4.549-2.417,8.484-2.784,11.805
			c-0.368,3.322-0.264,6.144,0.313,8.464c0.576,2.321,1.607,4.186,3.1,5.599c1.49,1.414,3.349,2.484,5.576,3.212
			c2.228,0.729,4.359,0.964,6.396,0.706s3.963-1.156,5.775-2.695c1.814-1.538,3.542-3.76,5.187-6.664
			c1.644-2.903,3.21-6.63,4.698-11.179L417.957,117.02z"/>
		<g opacity="0.2">
			<g>
				<defs>
					<rect id="SVGID_25_" x="39.114" y="-86.074" width="510.84" height="383.268"/>
				</defs>
				<clipPath id="SVGID_26_">
					<use xlink:href="#SVGID_25_"  overflow="visible"/>
				</clipPath>
				
					<rect x="67.452" y="-21.764" transform="matrix(0.9504 0.311 -0.311 0.9504 47.4352 -86.3655)" clip-path="url(#SVGID_26_)" fill="#1D1D1B" width="454.165" height="254.649"/>
			</g>
		</g>
		
			<rect x="73.902" y="-15.297" transform="matrix(0.9504 0.311 -0.311 0.9504 46.9987 -86.435)" fill="#CEE0BD" width="441.26" height="238.906"/>
		<path fill="#339152" d="M172.442-32.126L473.563,66.41c-0.416,8.849,1.462,17.699,5.576,25.816
			c4.115,8.117,10.143,14.863,17.526,19.759l-34.478,105.361c-0.785-0.035-1.57-0.053-2.357-0.053
			c-17.715,0-33.767,8.911-43.207,23.144l-301.122-98.535c0.416-8.849-1.461-17.699-5.576-25.816
			c-4.114-8.117-10.142-14.863-17.526-19.759L126.876-9.035c0.785,0.036,1.571,0.054,2.358,0.054
			C146.949-8.981,163-17.892,172.442-32.126 M165.344-49.063c-5.243,16.022-20.119,26.192-36.109,26.192
			c-3.915,0-7.901-0.611-11.825-1.894L75.461,103.431c19.946,6.527,30.824,27.988,24.297,47.934l323.963,106.01
			c5.243-16.023,20.119-26.192,36.109-26.192c3.915,0,7.9,0.61,11.824,1.894l41.949-128.197
			c-19.946-6.526-30.824-27.987-24.297-47.933L165.344-49.063z"/>
		<polygon fill="#339152" points="168.639,125.53 148.521,118.947 173.896,41.401 147.445,40.991 152.797,24.633 199.692,23.332 
			201.85,24.038 		"/>
		<path fill="#339152" d="M220.866,87.442l22.704-49.598l56.802,18.587l-5.49,16.777l-40.304-13.189l-9.636,20.968
			c0.818-0.144,1.809-0.268,2.975-0.375c1.163-0.107,2.472-0.142,3.926-0.104c1.45,0.039,2.996,0.185,4.633,0.439
			c1.637,0.254,3.292,0.653,4.963,1.2c4.873,1.594,8.97,3.795,12.289,6.602c3.321,2.808,5.825,6.106,7.513,9.896
			c1.688,3.788,2.538,8.024,2.548,12.701c0.011,4.679-0.858,9.688-2.604,15.024c-1.472,4.502-3.574,8.566-6.302,12.194
			s-6.019,6.534-9.865,8.716c-3.848,2.183-8.223,3.502-13.123,3.952c-4.9,0.45-10.25-0.271-16.051-2.17
			c-4.362-1.428-8.37-3.471-12.02-6.13c-3.65-2.658-6.641-5.767-8.968-9.33c-2.33-3.562-3.867-7.494-4.616-11.799
			c-0.75-4.303-0.428-8.821,0.967-13.555l19.908,6.514c-0.964,4.361-0.565,8.126,1.198,11.297c1.761,3.171,4.685,5.425,8.769,6.761
			c2.552,0.835,4.881,1.058,6.986,0.668c2.106-0.39,4-1.233,5.684-2.532c1.683-1.299,3.169-3.01,4.453-5.133
			c1.286-2.121,2.361-4.506,3.226-7.151c0.867-2.645,1.335-5.175,1.408-7.593c0.069-2.416-0.312-4.621-1.15-6.617
			c-0.838-1.996-2.135-3.756-3.896-5.284c-1.762-1.526-4.033-2.745-6.818-3.656c-1.856-0.607-3.523-0.973-4.999-1.096
			c-1.475-0.123-2.83-0.103-4.063,0.057c-1.235,0.162-2.368,0.446-3.4,0.853c-1.033,0.407-2.01,0.844-2.934,1.313L220.866,87.442z"
			/>
		<path fill="#339152" d="M365.286,143.486c-2.49,7.611-5.452,13.873-8.884,18.786c-3.433,4.914-7.221,8.645-11.368,11.191
			c-4.147,2.549-8.591,3.959-13.328,4.232c-4.74,0.272-9.661-0.426-14.766-2.096c-5.106-1.671-9.488-4.018-13.149-7.039
			c-3.66-3.02-6.422-6.788-8.283-11.303c-1.865-4.513-2.738-9.77-2.624-15.77c0.114-5.999,1.416-12.804,3.906-20.415l5.763-17.612
			c2.49-7.61,5.451-13.872,8.884-18.786c3.431-4.914,7.229-8.629,11.392-11.146c4.163-2.516,8.603-3.914,13.318-4.195
			c4.716-0.281,9.625,0.413,14.73,2.083c5.104,1.67,9.487,4.018,13.148,7.039c3.66,3.022,6.425,6.778,8.296,11.268
			c1.87,4.492,2.748,9.736,2.634,15.736c-0.113,6-1.416,12.805-3.906,20.416L365.286,143.486z M351.866,116.437
			c1.473-4.5,2.396-8.386,2.773-11.653c0.375-3.269,0.256-6.043-0.358-8.326c-0.615-2.282-1.668-4.128-3.158-5.541
			c-1.491-1.413-3.349-2.483-5.576-3.211c-2.228-0.729-4.349-0.961-6.361-0.695c-2.015,0.265-3.931,1.141-5.753,2.625
			c-1.822,1.486-3.546,3.656-5.176,6.514c-1.628,2.858-3.18,6.539-4.652,11.039l-7.563,23.11c-1.489,4.549-2.417,8.485-2.784,11.805
			c-0.368,3.322-0.265,6.144,0.313,8.465c0.577,2.32,1.609,4.185,3.101,5.598c1.49,1.414,3.35,2.484,5.577,3.212
			c2.228,0.729,4.358,0.965,6.396,0.706c2.035-0.258,3.962-1.155,5.774-2.695c1.813-1.538,3.542-3.76,5.187-6.664
			c1.644-2.903,3.21-6.63,4.699-11.179L351.866,116.437z"/>
		<path fill="#339152" d="M447.078,170.25c-2.49,7.611-5.452,13.873-8.884,18.786c-3.433,4.915-7.221,8.645-11.368,11.192
			c-4.146,2.548-8.591,3.958-13.328,4.231c-4.74,0.271-9.661-0.426-14.767-2.096c-5.105-1.671-9.487-4.017-13.148-7.039
			c-3.66-3.02-6.422-6.789-8.284-11.303c-1.863-4.513-2.736-9.77-2.623-15.77c0.113-5.999,1.416-12.804,3.906-20.415l5.763-17.612
			c2.49-7.61,5.451-13.872,8.884-18.787c3.431-4.913,7.228-8.628,11.392-11.145c4.163-2.516,8.603-3.915,13.318-4.196
			c4.716-0.28,9.625,0.414,14.73,2.084c5.104,1.671,9.487,4.017,13.148,7.039c3.66,3.022,6.425,6.778,8.296,11.268
			c1.87,4.492,2.747,9.736,2.634,15.735c-0.113,6.001-1.416,12.805-3.906,20.417L447.078,170.25z M433.658,143.202
			c1.473-4.5,2.396-8.387,2.773-11.654c0.375-3.268,0.255-6.042-0.358-8.325c-0.615-2.282-1.668-4.128-3.158-5.541
			c-1.491-1.413-3.349-2.483-5.576-3.211c-2.228-0.73-4.349-0.961-6.361-0.695c-2.015,0.265-3.931,1.141-5.753,2.625
			c-1.822,1.485-3.547,3.656-5.176,6.514s-3.18,6.539-4.652,11.039l-7.563,23.11c-1.489,4.549-2.417,8.484-2.784,11.805
			c-0.368,3.323-0.265,6.144,0.313,8.464c0.577,2.321,1.608,4.187,3.101,5.599c1.49,1.413,3.349,2.484,5.576,3.212
			c2.228,0.73,4.359,0.964,6.397,0.706c2.034-0.257,3.962-1.156,5.773-2.695c1.814-1.538,3.543-3.76,5.188-6.664
			c1.644-2.904,3.21-6.63,4.698-11.179L433.658,143.202z"/>
		<g opacity="0.2">
			<g>
				<defs>
					<rect id="SVGID_27_" x="229.736" y="-48.463" width="166.592" height="300.806"/>
				</defs>
				<clipPath id="SVGID_28_">
					<use xlink:href="#SVGID_27_"  overflow="visible"/>
				</clipPath>
				
					<rect x="272.874" y="-43.17" transform="matrix(0.9504 0.311 -0.311 0.9504 47.225 -92.2956)" clip-path="url(#SVGID_28_)" fill="#1D1D1B" width="80.316" height="290.22"/>
			</g>
		</g>
		
			<rect x="263.369" y="-46.28" transform="matrix(0.9504 0.311 -0.311 0.9504 45.7876 -89.4954)" fill="#918A64" width="80.316" height="290.22"/>
	</g>
	<g>
		<g opacity="0.2">
			<g>
				<defs>
					<rect id="SVGID_29_" x="100.067" y="148.488" width="454.167" height="254.649"/>
				</defs>
				<clipPath id="SVGID_30_">
					<use xlink:href="#SVGID_29_"  overflow="visible"/>
				</clipPath>
				<rect x="100.067" y="148.488" clip-path="url(#SVGID_30_)" fill="#1D1D1B" width="454.167" height="254.649"/>
			</g>
		</g>
		<rect x="106.082" y="155.025" fill="#CEE0BD" width="441.26" height="238.906"/>
		<path fill="#339152" d="M485.144,182.926c4.857,17.466,18.646,31.254,36.111,36.112v110.881
			c-17.466,4.858-31.254,18.646-36.111,36.112H168.281c-4.858-17.466-18.646-31.254-36.113-36.112V219.038
			c17.467-4.858,31.255-18.646,36.113-36.112H485.144 M497.146,169.036H156.279c0,20.987-17.014,38-38,38v134.886
			c20.986,0,38,17.013,38,38h340.866c0-20.987,17.013-38,38-38V207.036C514.158,207.036,497.146,190.022,497.146,169.036"/>
		<path fill="#339152" d="M262.77,226.218v17.432h-1.245c-5.029,0-9.547,0.648-13.55,1.941c-4.004,1.294-7.459,3.138-10.364,5.53
			c-2.905,2.393-5.249,5.299-7.031,8.716c-1.782,3.418-2.966,7.251-3.552,11.499c2.588-2.637,5.677-4.748,9.265-6.336
			c3.59-1.586,7.678-2.38,12.268-2.38c5.029,0,9.436,0.965,13.22,2.893c3.784,1.93,6.946,4.541,9.485,7.837
			c2.538,3.296,4.443,7.13,5.713,11.499c1.27,4.37,1.905,9.021,1.905,13.952c0,5.177-0.843,9.998-2.527,14.466
			c-1.685,4.468-4.091,8.339-7.215,11.609c-3.125,3.271-6.897,5.848-11.316,7.727s-9.363,2.82-14.831,2.82
			c-5.713,0-10.889-1.038-15.527-3.113c-4.64-2.074-8.582-4.98-11.83-8.716c-3.247-3.735-5.761-8.203-7.543-13.403
			c-1.783-5.2-2.673-10.925-2.673-17.176v-8.203c0-8.593,1.219-16.479,3.662-23.657c2.441-7.178,5.98-13.354,10.62-18.53
			c4.639-5.175,10.327-9.203,17.065-12.085c6.739-2.881,14.404-4.322,22.998-4.322H262.77z M242.116,279.612
			c-1.904,0-3.662,0.256-5.273,0.769c-1.612,0.513-3.077,1.221-4.395,2.124c-1.318,0.904-2.478,1.954-3.479,3.149
			c-1.001,1.198-1.794,2.454-2.38,3.772v6.373c0,3.76,0.39,7.057,1.172,9.888c0.78,2.832,1.868,5.188,3.258,7.067
			c1.393,1.881,3.076,3.285,5.055,4.212c1.977,0.928,4.138,1.392,6.481,1.392c2.295,0,4.382-0.487,6.263-1.465
			c1.879-0.977,3.479-2.318,4.797-4.028s2.344-3.747,3.076-6.116c0.733-2.367,1.099-4.943,1.099-7.727
			c0-2.831-0.355-5.431-1.062-7.8c-0.709-2.368-1.747-4.419-3.113-6.152c-1.367-1.733-3.016-3.077-4.943-4.029
			C246.742,280.088,244.557,279.612,242.116,279.612"/>
		<path fill="#339152" d="M363.112,289.866c0,8.009-0.867,14.881-2.601,20.618c-1.733,5.738-4.174,10.463-7.324,14.173
			c-3.148,3.711-6.934,6.434-11.352,8.166c-4.42,1.732-9.314,2.601-14.686,2.601c-5.372,0-10.268-0.868-14.686-2.601
			c-4.419-1.732-8.215-4.455-11.389-8.166c-3.175-3.71-5.64-8.435-7.398-14.173c-1.757-5.736-2.636-12.609-2.636-20.618v-18.53
			c0-8.007,0.866-14.879,2.6-20.618c1.733-5.737,4.186-10.448,7.361-14.135c3.174-3.687,6.958-6.396,11.353-8.13
			c4.395-1.733,9.276-2.6,14.648-2.6c5.371,0,10.266,0.867,14.686,2.6c4.418,1.734,8.214,4.443,11.389,8.13
			c3.174,3.687,5.639,8.398,7.397,14.135c1.758,5.739,2.637,12.611,2.637,20.618V289.866z M341.945,268.333
			c0-4.735-0.33-8.716-0.988-11.938c-0.66-3.223-1.637-5.823-2.93-7.801c-1.295-1.977-2.869-3.406-4.725-4.284
			c-1.856-0.879-3.955-1.319-6.299-1.319s-4.432,0.44-6.262,1.319c-1.832,0.878-3.382,2.307-4.65,4.284
			c-1.271,1.978-2.234,4.578-2.895,7.801c-0.658,3.222-0.988,7.203-0.988,11.938v24.316c0,4.787,0.34,8.815,1.025,12.086
			c0.684,3.271,1.659,5.921,2.93,7.946c1.27,2.026,2.831,3.479,4.688,4.358c1.855,0.879,3.955,1.318,6.299,1.318
			s4.441-0.439,6.299-1.318c1.855-0.879,3.406-2.332,4.65-4.358c1.246-2.025,2.197-4.675,2.857-7.946
			c0.658-3.271,0.988-7.299,0.988-12.086V268.333z"/>
		<path fill="#339152" d="M449.172,289.866c0,8.009-0.867,14.881-2.601,20.618c-1.733,5.738-4.174,10.463-7.324,14.173
			c-3.148,3.711-6.934,6.434-11.352,8.166c-4.42,1.732-9.314,2.601-14.686,2.601c-5.372,0-10.267-0.868-14.685-2.601
			c-4.42-1.732-8.216-4.455-11.39-8.166c-3.175-3.71-5.64-8.435-7.397-14.173c-1.758-5.736-2.637-12.609-2.637-20.618v-18.53
			c0-8.007,0.866-14.879,2.601-20.618c1.732-5.737,4.186-10.448,7.36-14.135c3.174-3.687,6.958-6.396,11.353-8.13
			c4.395-1.733,9.276-2.6,14.648-2.6c5.371,0,10.266,0.867,14.686,2.6c4.418,1.734,8.214,4.443,11.389,8.13
			c3.174,3.687,5.64,8.398,7.397,14.135c1.758,5.739,2.637,12.611,2.637,20.618V289.866z M428.005,268.333
			c0-4.735-0.33-8.716-0.988-11.938c-0.66-3.223-1.637-5.823-2.93-7.801c-1.295-1.977-2.869-3.406-4.725-4.284
			c-1.856-0.879-3.955-1.319-6.299-1.319s-4.432,0.44-6.262,1.319c-1.832,0.878-3.382,2.307-4.65,4.284
			c-1.271,1.978-2.234,4.578-2.895,7.801c-0.658,3.222-0.988,7.203-0.988,11.938v24.316c0,4.787,0.341,8.815,1.025,12.086
			c0.684,3.271,1.659,5.921,2.93,7.946c1.27,2.026,2.831,3.479,4.688,4.358c1.855,0.879,3.955,1.318,6.299,1.318
			s4.442-0.439,6.299-1.318c1.855-0.879,3.406-2.332,4.65-4.358c1.246-2.025,2.197-4.675,2.857-7.946
			c0.658-3.271,0.988-7.299,0.988-12.086V268.333z"/>
		<g opacity="0.2">
			<g>
				<defs>
					<rect id="SVGID_31_" x="80.066" y="168.489" width="454.166" height="254.648"/>
				</defs>
				<clipPath id="SVGID_32_">
					<use xlink:href="#SVGID_31_"  overflow="visible"/>
				</clipPath>
				<rect x="80.066" y="168.488" clip-path="url(#SVGID_32_)" fill="#1D1D1B" width="454.167" height="254.65"/>
			</g>
		</g>
		<rect x="86.08" y="175.027" fill="#CEE0BD" width="441.261" height="238.906"/>
		<path fill="#339152" d="M465.142,202.927c4.858,17.466,18.646,31.254,36.112,36.112V349.92
			c-17.466,4.859-31.254,18.646-36.112,36.113H148.28c-4.859-17.467-18.646-31.254-36.113-36.113V239.039
			c17.467-4.858,31.254-18.646,36.113-36.112H465.142 M477.144,189.037H136.277c0,20.987-17.013,38-38,38v134.886
			c20.987,0,38,17.013,38,38h340.867c0-20.987,17.014-38,38-38V227.037C494.157,227.037,477.144,210.024,477.144,189.037"/>
		<polygon fill="#339152" points="193.696,353.958 172.529,353.958 172.529,272.367 147.26,280.204 147.26,262.992 191.425,247.171 
			193.696,247.171 		"/>
		<path fill="#339152" d="M231.489,301.517l6.152-54.199h59.766v17.652H255l-2.637,22.924c0.732-0.39,1.636-0.816,2.71-1.281
			c1.073-0.464,2.307-0.903,3.699-1.319c1.391-0.414,2.904-0.756,4.541-1.025c1.635-0.268,3.332-0.403,5.09-0.403
			c5.127,0,9.705,0.818,13.732,2.454c4.03,1.636,7.435,3.991,10.218,7.068c2.783,3.076,4.907,6.837,6.372,11.278
			c1.465,4.444,2.198,9.474,2.198,15.088c0,4.737-0.732,9.254-2.198,13.55c-1.465,4.298-3.687,8.082-6.665,11.353
			c-2.979,3.272-6.726,5.885-11.243,7.837c-4.516,1.952-9.826,2.93-15.93,2.93c-4.589,0-9.034-0.695-13.33-2.087
			c-4.297-1.392-8.105-3.417-11.425-6.079c-3.322-2.661-6.006-5.92-8.057-9.778c-2.051-3.856-3.149-8.251-3.296-13.184h20.947
			c0.44,4.444,1.99,7.899,4.652,10.364c2.66,2.466,6.139,3.698,10.436,3.698c2.685,0,4.968-0.513,6.849-1.538
			c1.879-1.025,3.417-2.417,4.613-4.175c1.196-1.758,2.075-3.845,2.637-6.262c0.561-2.417,0.843-5.018,0.843-7.801
			s-0.342-5.334-1.026-7.653c-0.684-2.318-1.733-4.296-3.149-5.933c-1.417-1.636-3.198-2.904-5.347-3.809
			c-2.149-0.903-4.687-1.355-7.617-1.355c-1.953,0-3.65,0.172-5.091,0.513c-1.44,0.342-2.722,0.781-3.845,1.317
			c-1.124,0.538-2.112,1.161-2.965,1.868c-0.856,0.708-1.649,1.428-2.381,2.16L231.489,301.517z"/>
		<path fill="#339152" d="M386.177,309.866c0,8.01-0.867,14.881-2.601,20.618c-1.733,5.738-4.174,10.462-7.324,14.172
			c-3.148,3.712-6.934,6.435-11.352,8.167c-4.42,1.732-9.314,2.6-14.686,2.6c-5.372,0-10.267-0.867-14.686-2.6
			s-8.215-4.455-11.389-8.167c-3.175-3.71-5.64-8.434-7.397-14.172c-1.758-5.737-2.637-12.608-2.637-20.618v-18.53
			c0-8.007,0.866-14.879,2.601-20.618c1.732-5.737,4.186-10.448,7.36-14.135c3.174-3.687,6.958-6.396,11.353-8.13
			c4.395-1.733,9.277-2.6,14.648-2.6s10.266,0.867,14.686,2.6c4.418,1.734,8.214,4.443,11.389,8.13
			c3.174,3.687,5.64,8.398,7.397,14.135c1.758,5.739,2.637,12.611,2.637,20.618V309.866z M365.01,288.333
			c0-4.735-0.33-8.716-0.988-11.938c-0.66-3.223-1.637-5.823-2.93-7.801c-1.295-1.977-2.869-3.406-4.725-4.284
			c-1.856-0.879-3.955-1.319-6.299-1.319s-4.432,0.44-6.262,1.319c-1.832,0.878-3.382,2.307-4.65,4.284
			c-1.271,1.978-2.234,4.578-2.895,7.801c-0.658,3.222-0.988,7.203-0.988,11.938v24.316c0,4.786,0.34,8.814,1.025,12.085
			c0.684,3.272,1.659,5.922,2.93,7.947c1.27,2.027,2.831,3.479,4.688,4.357c1.855,0.879,3.955,1.318,6.299,1.318
			s4.442-0.439,6.299-1.318c1.855-0.879,3.406-2.33,4.65-4.357c1.246-2.025,2.197-4.675,2.857-7.947
			c0.658-3.271,0.988-7.299,0.988-12.085V288.333z"/>
		<path fill="#339152" d="M472.236,309.866c0,8.01-0.867,14.881-2.601,20.618c-1.733,5.738-4.174,10.462-7.324,14.172
			c-3.148,3.712-6.934,6.435-11.352,8.167c-4.42,1.732-9.314,2.6-14.686,2.6c-5.372,0-10.268-0.867-14.686-2.6
			c-4.419-1.732-8.215-4.455-11.389-8.167c-3.175-3.71-5.64-8.434-7.397-14.172c-1.758-5.737-2.637-12.608-2.637-20.618v-18.53
			c0-8.007,0.866-14.879,2.601-20.618c1.732-5.737,4.186-10.448,7.36-14.135c3.174-3.687,6.958-6.396,11.353-8.13
			c4.395-1.733,9.276-2.6,14.648-2.6c5.371,0,10.266,0.867,14.686,2.6c4.418,1.734,8.214,4.443,11.389,8.13
			c3.174,3.687,5.639,8.398,7.397,14.135c1.758,5.739,2.637,12.611,2.637,20.618V309.866z M451.069,288.333
			c0-4.735-0.33-8.716-0.988-11.938c-0.66-3.223-1.637-5.823-2.93-7.801c-1.295-1.977-2.869-3.406-4.725-4.284
			c-1.856-0.879-3.955-1.319-6.299-1.319s-4.432,0.44-6.262,1.319c-1.832,0.878-3.382,2.307-4.651,4.284
			c-1.271,1.978-2.233,4.578-2.894,7.801c-0.658,3.222-0.988,7.203-0.988,11.938v24.316c0,4.786,0.34,8.814,1.025,12.085
			c0.684,3.272,1.659,5.922,2.93,7.947c1.27,2.027,2.831,3.479,4.688,4.357c1.855,0.879,3.955,1.318,6.299,1.318
			s4.441-0.439,6.299-1.318c1.855-0.879,3.406-2.33,4.65-4.357c1.246-2.025,2.197-4.675,2.857-7.947
			c0.658-3.271,0.988-7.299,0.988-12.085V288.333z"/>
		<g opacity="0.2">
			<g>
				<defs>
					<rect id="SVGID_33_" x="284.999" y="139.401" width="80.315" height="290.219"/>
				</defs>
				<clipPath id="SVGID_34_">
					<use xlink:href="#SVGID_33_"  overflow="visible"/>
				</clipPath>
				<rect x="284.998" y="139.4" clip-path="url(#SVGID_34_)" fill="#1D1D1B" width="80.316" height="290.22"/>
			</g>
		</g>
		<rect x="274.998" y="139.4" fill="#918A64" width="80.316" height="290.22"/>
	</g>
</g>
</svg>
