<svg enable-background="new 0 0 600 600" height="600" viewBox="0 0 600 600" width="600" xmlns="http://www.w3.org/2000/svg" xmlns:xlink="http://www.w3.org/1999/xlink"><clipPath id="a"><path d="m409.995 458.693h153.863v87.663h-153.863z"/></clipPath><clipPath id="b"><path d="m409.763 390.492h153.171v79.895h-153.171z"/></clipPath><clipPath id="c"><path d="m365.407 398.365h149.466v110.028h-149.466z"/></clipPath><clipPath id="d"><path d="m360.17 352.636h146.478v102.826h-146.478z"/></clipPath><clipPath id="e"><path d="m17.988 233.86h131.863v136.166h-131.863z"/></clipPath><clipPath id="f"><path d="m47.217 214.788h126.123v130.885h-126.123z"/></clipPath><clipPath id="g"><path d="m9.604 165.546h145.511v118.719h-145.511z"/></clipPath><clipPath id="h"><path d="m22.898 128.637h141.618v111.962h-141.618z"/></clipPath><clipPath id="i"><path d="m-35.704 294.003h503.348v359.94h-503.348z"/></clipPath><clipPath id="j"><path d="m-50.08 318.363h503.349v359.94h-503.349z"/></clipPath><clipPath id="k"><path d="m126.443 334.305h150.207v301.081h-150.207z"/></clipPath><clipPath id="l"><path d="m64.344-98.863h510.839v383.268h-510.839z"/></clipPath><clipPath id="m"><path d="m39.114-86.074h510.84v383.268h-510.84z"/></clipPath><clipPath id="n"><path d="m229.736-48.463h166.592v300.806h-166.592z"/></clipPath><clipPath id="o"><path d="m100.067 148.488h454.167v254.649h-454.167z"/></clipPath><clipPath id="p"><path d="m80.066 168.489h454.166v254.648h-454.166z"/></clipPath><clipPath id="q"><path d="m284.999 139.401h80.315v290.219h-80.315z"/></clipPath><path d="m900 300c0 331.369-268.631 600-600 600-331.37 0-600-268.631-600-600 0-331.37 268.63-600 600-600 331.369 0 600 268.63 600 600" fill="#2dab66"/><path clip-path="url(#a)" d="m563.55 462.568c.21 2.357.313 4.697.308 7.019-.002 2.044-.088 4.071-.249 6.082-.381 4.732-1.194 9.357-2.408 13.834-.529 1.97-1.14 3.907-1.823 5.812-1.59 4.437-3.579 8.696-5.925 12.729-1.021 1.759-2.11 3.474-3.266 5.139-2.671 3.854-5.685 7.458-9.008 10.769-1.434 1.431-2.929 2.805-4.479 4.122-3.557 3.021-7.397 5.732-11.483 8.08-1.754 1.01-3.553 1.953-5.397 2.822-4.191 1.985-8.601 3.604-13.19 4.815-1.951.515-3.931.957-5.942 1.32-2.285.415-4.605.727-6.963.937s-4.698.313-7.019.309c-2.044-.002-4.076-.087-6.086-.249-4.732-.381-9.357-1.194-13.83-2.409-1.971-.529-3.907-1.139-5.813-1.823-4.436-1.59-8.695-3.579-12.729-5.925-1.758-1.022-3.473-2.11-5.138-3.265-3.854-2.671-7.459-5.687-10.769-9.009-1.431-1.434-2.806-2.929-4.122-4.479-3.021-3.556-5.732-7.398-8.081-11.483-1.009-1.754-1.953-3.553-2.822-5.397-1.985-4.191-3.604-8.601-4.814-13.19-.515-1.951-.957-3.931-1.32-5.941-.415-2.285-.727-4.606-.937-6.963-.116-1.306-.201-2.603-.249-3.894l11.671-1.039c.037 1.292.113 2.593.229 3.895.209 2.353.541 4.673.991 6.958.194.988.415 1.975.654 2.947 1.125 4.586 2.735 9.003 4.804 13.192.445.908.912 1.802 1.402 2.686 2.258 4.085 4.966 7.932 8.088 11.475.662.755 1.342 1.493 2.049 2.217 1.613 1.677 3.334 3.277 5.144 4.792 1.811 1.514 3.69 2.924 5.625 4.216.839.567 1.685 1.106 2.546 1.625 4.037 2.447 8.302 4.433 12.722 5.934.957.325 1.92.628 2.892.904 4.488 1.295 9.116 2.102 13.829 2.397 1.004.063 2.01.106 3.021.123 2.329.039 4.67-.044 7.023-.254 2.354-.21 4.673-.541 6.958-.991.989-.194 1.976-.415 2.948-.655 4.586-1.124 9.003-2.734 13.192-4.803.907-.445 1.802-.912 2.686-1.402 4.085-2.259 7.931-4.966 11.474-8.088.756-.663 1.493-1.343 2.218-2.049 1.677-1.614 3.276-3.334 4.792-5.144 1.514-1.812 2.924-3.69 4.216-5.625.566-.839 1.106-1.685 1.625-2.546 2.447-4.038 4.432-8.302 5.933-12.723.326-.957.628-1.919.905-2.891 1.296-4.488 2.1-9.121 2.396-13.833.064-1 .107-2.011.123-3.018.039-2.329-.044-4.671-.254-7.023-.115-1.301-.27-2.596-.462-3.874l11.671-1.039c.181 1.279.327 2.57.443 3.874" fill="#1d1d1b" opacity=".2"/><path d="m564.584 456.604c3.848 43.192-28.049 81.325-71.241 85.172-43.192 3.848-81.325-28.049-85.171-71.241-3.848-43.192 28.049-81.325 71.24-85.173 43.193-3.846 81.325 28.05 85.172 71.242" fill="#fceca9"/><path d="m557.981 457.191c3.522 39.547-25.681 74.459-65.227 77.981-39.546 3.521-74.459-25.681-77.981-65.227-3.521-39.547 25.682-74.46 65.228-77.981 39.546-3.522 74.459 25.682 77.98 65.227" fill="#fceca9"/><path d="m480.589 398.567c17.362-1.547 34.288 3.762 47.658 14.945 13.371 11.183 21.586 26.905 23.132 44.268s-3.761 34.287-14.945 47.658c-11.184 13.37-26.904 21.585-44.267 23.131-17.363 1.548-34.288-3.761-47.659-14.944-13.37-11.184-21.585-26.904-23.132-44.268-1.546-17.361 3.762-34.288 14.945-47.657 11.184-13.371 26.905-21.586 44.268-23.133m-1.038-11.651c-42.334 3.77-73.597 41.146-69.826 83.479s41.146 73.598 83.48 69.826c42.334-3.77 73.596-41.145 69.826-83.479s-41.146-73.596-83.48-69.826" fill="#9c9b9b"/><path d="m447.309 465.417 4.381-.391c2.086-.186 3.585-.845 4.498-1.978.912-1.132 1.292-2.562 1.138-4.287-.067-.759-.245-1.455-.53-2.09-.286-.634-.683-1.162-1.188-1.585s-1.122-.736-1.847-.939c-.726-.203-1.563-.263-2.51-.178-.76.067-1.466.24-2.118.518-.654.278-1.215.639-1.683 1.082-.467.442-.821.967-1.063 1.571-.243.604-.331 1.268-.268 1.988l-8.222.731c-.151-1.706.066-3.288.653-4.745.587-1.458 1.448-2.729 2.585-3.814 1.136-1.086 2.505-1.972 4.106-2.659 1.602-.688 3.342-1.115 5.219-1.282 2.086-.186 4.01-.104 5.771.246 1.762.349 3.302.967 4.624 1.853 1.321.886 2.389 2.033 3.202 3.442s1.307 3.081 1.479 5.016c.079.892.021 1.785-.177 2.682-.196.896-.53 1.753-1.003 2.57-.473.815-1.068 1.586-1.788 2.309-.719.724-1.56 1.357-2.525 1.902 2.406.627 4.258 1.724 5.556 3.29 1.295 1.567 2.045 3.488 2.247 5.764.173 1.935-.049 3.694-.663 5.277-.614 1.584-1.529 2.951-2.745 4.101-1.217 1.151-2.697 2.076-4.44 2.775-1.744.7-3.66 1.144-5.746 1.329-1.764.157-3.511.074-5.24-.249-1.73-.324-3.298-.921-4.704-1.79-1.405-.868-2.578-2.011-3.517-3.429-.939-1.417-1.499-3.148-1.682-5.197l8.221-.732c.069.778.284 1.476.646 2.093.361.619.832 1.136 1.415 1.552.581.417 1.253.725 2.018.925.763.199 1.581.26 2.453.183.967-.086 1.827-.296 2.582-.631.753-.335 1.378-.777 1.875-1.329.494-.55.854-1.185 1.077-1.902.222-.717.296-1.503.22-2.356-.099-1.1-.338-2.029-.721-2.788-.384-.759-.892-1.358-1.523-1.8-.631-.44-1.38-.741-2.244-.904-.866-.161-1.82-.195-2.863-.103l-4.381.39z" fill="#e0b810"/><path d="m500.893 467.927c.276 3.111.178 5.81-.297 8.099-.475 2.288-1.26 4.207-2.355 5.758-1.094 1.55-2.47 2.738-4.126 3.563-1.656.826-3.528 1.333-5.614 1.519s-4.017.019-5.794-.502c-1.775-.521-3.343-1.446-4.705-2.778-1.361-1.331-2.482-3.081-3.363-5.248-.881-2.168-1.461-4.807-1.737-7.917l-.642-7.197c-.276-3.109-.178-5.809.297-8.098.474-2.288 1.265-4.202 2.37-5.744s2.482-2.725 4.128-3.551c1.647-.825 3.513-1.33 5.601-1.516 2.085-.187 4.016-.019 5.793.501 1.776.521 3.345 1.441 4.705 2.764s2.48 3.066 3.361 5.234 1.461 4.807 1.737 7.917zm-8.967-7.631c-.164-1.839-.429-3.374-.796-4.603-.368-1.229-.838-2.205-1.408-2.928-.571-.724-1.232-1.224-1.982-1.501-.751-.277-1.583-.375-2.493-.294s-1.705.323-2.387.728c-.681.405-1.232 1.014-1.657 1.827-.425.811-.71 1.854-.854 3.128s-.135 2.832.029 4.671l.841 9.444c.166 1.859.437 3.412.815 4.658.379 1.248.851 2.243 1.414 2.985.563.743 1.22 1.253 1.971 1.531.751.276 1.582.374 2.492.293.912-.081 1.71-.323 2.4-.729.691-.405 1.243-1.024 1.656-1.854s.691-1.892.835-3.186c.144-1.292.131-2.869-.035-4.728z" fill="#e0b810"/><path d="m534.317 464.95c.276 3.11.179 5.81-.297 8.098-.475 2.288-1.259 4.208-2.354 5.758-1.094 1.551-2.47 2.738-4.126 3.564s-3.528 1.332-5.614 1.519c-2.087.186-4.017.018-5.794-.503-1.775-.52-3.343-1.445-4.705-2.777-1.361-1.331-2.482-3.081-3.363-5.249-.882-2.167-1.461-4.806-1.737-7.916l-.642-7.197c-.276-3.109-.179-5.81.297-8.098.475-2.288 1.266-4.203 2.37-5.745 1.105-1.541 2.481-2.725 4.127-3.55 1.647-.825 3.514-1.33 5.6-1.517 2.087-.186 4.018-.019 5.795.502 1.775.521 3.344 1.441 4.704 2.764 1.36 1.321 2.48 3.066 3.362 5.234.881 2.167 1.46 4.807 1.736 7.916zm-8.965-7.631c-.164-1.839-.43-3.374-.797-4.603-.368-1.229-.837-2.205-1.407-2.929-.571-.724-1.233-1.224-1.983-1.501-.752-.277-1.584-.375-2.493-.294s-1.705.324-2.386.729-1.233 1.013-1.658 1.825-.709 1.855-.854 3.13-.136 2.832.028 4.671l.841 9.444c.166 1.858.438 3.412.816 4.658.379 1.247.85 2.242 1.414 2.985.563.743 1.22 1.253 1.971 1.529.751.278 1.582.375 2.492.295.91-.081 1.71-.324 2.4-.729.69-.406 1.243-1.024 1.656-1.854s.69-1.892.834-3.186c.145-1.293.132-2.869-.034-4.728z" fill="#e0b810"/><path clip-path="url(#b)" d="m562.934 456.751-11.671 1.039c-.151-1.035-.329-2.065-.529-3.084-.193-.993-.415-1.976-.654-2.952-1.125-4.586-2.735-8.999-4.804-13.188-.444-.907-.912-1.802-1.401-2.686-2.259-4.085-4.966-7.931-8.088-11.474-.662-.756-1.344-1.493-2.05-2.218-1.613-1.677-3.334-3.276-5.144-4.792-1.812-1.514-3.69-2.924-5.625-4.216-.838-.566-1.684-1.106-2.545-1.625-4.039-2.447-8.302-4.432-12.723-5.933-.956-.326-1.919-.628-2.892-.905-4.488-1.296-9.12-2.101-13.833-2.397-1-.063-2.01-.106-3.017-.122-2.329-.039-4.671.044-7.024.254-2.354.209-4.673.541-6.958.99-.993.194-1.976.415-2.953.655-4.585 1.124-8.999 2.735-13.187 4.803-.908.445-1.802.912-2.687 1.402-4.086 2.259-7.931 4.966-11.474 8.088-.755.662-1.493 1.343-2.217 2.049-1.677 1.614-3.278 3.334-4.792 5.145-1.515 1.811-2.924 3.689-4.216 5.625-.568.838-1.107 1.684-1.625 2.545-2.447 4.038-4.433 8.302-5.934 12.723-.326.956-.628 1.919-.905 2.892-1.296 4.487-2.101 9.116-2.397 13.829-.063 1.004-.106 2.01-.122 3.021-.017 1.039-.01 2.084.024 3.13l-11.671 1.039c-.043-1.045-.062-2.089-.06-3.126.002-2.044.087-4.075.248-6.086.382-4.732 1.195-9.357 2.409-13.83.53-1.97 1.14-3.907 1.824-5.812 1.59-4.437 3.579-8.696 5.924-12.729 1.021-1.759 2.11-3.473 3.266-5.138 2.671-3.855 5.686-7.459 9.008-10.77 1.435-1.431 2.93-2.805 4.479-4.122 3.556-3.021 7.396-5.731 11.481-8.081 1.755-1.009 3.554-1.951 5.398-2.82 4.188-1.986 8.597-3.604 13.187-4.815 1.95-.515 3.936-.958 5.946-1.321 2.285-.414 4.606-.727 6.963-.937 2.358-.21 4.697-.313 7.02-.308 2.044.002 4.07.087 6.082.249 4.731.381 9.356 1.193 13.834 2.408 1.969.529 3.906 1.14 5.812 1.823 4.437 1.59 8.696 3.579 12.729 5.925 1.759 1.021 3.473 2.11 5.138 3.266 3.854 2.671 7.459 5.685 10.769 9.008 1.432 1.434 2.806 2.929 4.122 4.479 3.021 3.557 5.732 7.397 8.081 11.483 1.01 1.754 1.952 3.553 2.821 5.397 1.986 4.188 3.604 8.597 4.815 13.187.515 1.951.958 3.935 1.32 5.946.189 1.02.355 2.051.498 3.087" fill="#1d1d1b" opacity=".2"/><path d="m562.094 449.779c-.362-2.011-.806-3.996-1.32-5.946-1.211-4.59-2.829-8.999-4.815-13.187-.869-1.846-1.812-3.645-2.822-5.398-2.348-4.085-5.059-7.927-8.08-11.481-1.316-1.552-2.69-3.045-4.122-4.48-3.311-3.322-6.914-6.336-10.769-9.007-1.665-1.156-3.379-2.244-5.138-3.266-4.033-2.347-8.293-4.336-12.73-5.925-1.904-.684-3.842-1.294-5.811-1.823-4.478-1.215-9.103-2.027-13.834-2.408-2.012-.162-4.038-.247-6.082-.249-2.322-.005-4.661.098-7.02.308-2.357.21-4.679.522-6.963.938-2.011.362-3.996.806-5.946 1.319-4.59 1.211-8.999 2.829-13.187 4.815-1.845.869-3.644 1.812-5.398 2.822-4.085 2.349-7.927 5.059-11.481 8.081-1.551 1.315-3.045 2.689-4.48 4.122-3.321 3.31-6.336 6.913-9.007 10.769-1.156 1.665-2.244 3.378-3.266 5.137-2.346 4.034-4.335 8.294-5.924 12.73-.685 1.905-1.294 3.842-1.824 5.811-1.214 4.474-2.028 9.1-2.409 13.83-.161 2.011-.246 4.043-.248 6.086-.005 2.322.098 4.662.308 7.02.211 2.357.522 4.679.938 6.964.363 2.011.806 3.991 1.32 5.941 1.211 4.591 2.829 8.998 4.814 13.19.869 1.845 1.813 3.644 2.822 5.398 2.349 4.085 5.059 7.927 8.081 11.482 1.315 1.55 2.689 3.044 4.122 4.479 3.31 3.321 6.914 6.337 10.769 9.008 1.665 1.155 3.379 2.243 5.138 3.265 4.033 2.346 8.294 4.335 12.729 5.925 1.905.684 3.842 1.294 5.812 1.823 4.473 1.215 9.099 2.028 13.829 2.409 2.012.162 4.043.247 6.087.249 2.321.004 4.661-.098 7.02-.308 2.357-.211 4.678-.523 6.963-.938 2.011-.364 3.991-.806 5.942-1.32 4.59-1.212 8.999-2.83 13.19-4.815 1.844-.869 3.644-1.813 5.397-2.822 4.085-2.348 7.927-5.059 11.482-8.081 1.551-1.315 3.045-2.689 4.479-4.121 3.322-3.311 6.337-6.914 9.008-10.769 1.155-1.665 2.243-3.379 3.265-5.139 2.347-4.032 4.335-8.294 5.926-12.729.683-1.904 1.294-3.842 1.822-5.812 1.214-4.477 2.028-9.102 2.409-13.834.161-2.011.247-4.037.249-6.082.004-2.321-.098-4.661-.308-7.019-.21-2.357-.522-4.678-.937-6.962m-10.584 18.042c-.297 4.712-1.102 9.345-2.396 13.833-.277.972-.579 1.934-.905 2.891-1.501 4.421-3.486 8.685-5.933 12.724-.52.859-1.059 1.707-1.625 2.544-1.292 1.936-2.702 3.814-4.217 5.626-1.515 1.81-3.114 3.529-4.792 5.144-.724.706-1.462 1.386-2.217 2.049-3.543 3.122-7.389 5.829-11.474 8.088-.884.489-1.778.957-2.687 1.402-4.188 2.068-8.605 3.679-13.191 4.803-.974.24-1.959.461-2.948.654-2.285.451-4.604.782-6.958.992s-4.695.293-7.024.254c-1.012-.016-2.018-.059-3.021-.123-4.713-.296-9.341-1.102-13.829-2.396-.972-.278-1.935-.579-2.892-.905-4.42-1.501-8.685-3.486-12.724-5.934-.859-.519-1.707-1.058-2.544-1.625-1.935-1.292-3.814-2.701-5.625-4.217-1.811-1.514-3.53-3.114-5.144-4.791-.707-.724-1.387-1.462-2.049-2.217-3.123-3.543-5.83-7.389-8.088-11.474-.49-.886-.957-1.779-1.402-2.687-2.068-4.188-3.679-8.605-4.804-13.191-.239-.974-.46-1.959-.654-2.948-.45-2.285-.782-4.605-.992-6.958-.209-2.354-.292-4.695-.253-7.024.015-1.012.059-2.018.122-3.021.297-4.713 1.102-9.341 2.396-13.829.278-.974.58-1.936.906-2.893 1.501-4.42 3.485-8.684 5.934-12.723.518-.86 1.057-1.707 1.625-2.544 1.291-1.935 2.701-3.815 4.216-5.625 1.514-1.811 3.115-3.531 4.791-5.144.724-.707 1.462-1.388 2.218-2.05 3.542-3.123 7.388-5.83 11.474-8.088.885-.489 1.778-.957 2.687-1.401 4.188-2.068 8.602-3.68 13.187-4.805.978-.238 1.96-.46 2.952-.653 2.286-.45 4.605-.782 6.959-.992 2.354-.209 4.695-.293 7.024-.253 1.007.016 2.017.059 3.017.122 4.712.297 9.345 1.102 13.833 2.396.973.278 1.935.58 2.892.906 4.421 1.501 8.684 3.485 12.723 5.933.86.519 1.707 1.058 2.545 1.625 1.935 1.291 3.813 2.702 5.625 4.217 1.81 1.514 3.53 3.114 5.144 4.791.706.724 1.387 1.462 2.05 2.218 3.122 3.542 5.829 7.388 8.088 11.474.489.884.957 1.778 1.401 2.687 2.068 4.188 3.679 8.602 4.804 13.187.239.978.46 1.96.654 2.952.45 2.286.781 4.604.991 6.959.21 2.353.293 4.695.254 7.024-.017 1.007-.06 2.016-.124 3.016" fill="#e0b810"/><path clip-path="url(#c)" d="m508.979 401.929c.907 2.187 1.706 4.389 2.397 6.604.61 1.95 1.137 3.91 1.585 5.877 1.055 4.629 1.664 9.285 1.849 13.92.085 2.038.083 4.069.002 6.091-.188 4.708-.809 9.369-1.837 13.92-.448 1.984-.973 3.945-1.576 5.88-1.393 4.479-3.188 8.82-5.366 12.975-.938 1.795-1.953 3.554-3.038 5.274-2.486 3.948-5.339 7.686-8.533 11.15-1.37 1.489-2.804 2.928-4.303 4.31-3.404 3.151-7.126 6.017-11.141 8.547-1.707 1.076-3.464 2.093-5.274 3.041-2.055 1.08-4.176 2.074-6.362 2.981s-4.388 1.706-6.604 2.397c-1.951.61-3.914 1.138-5.881 1.587-4.628 1.055-9.285 1.665-13.916 1.847-2.038.085-4.069.083-6.091.002-4.709-.188-9.369-.808-13.92-1.837-1.984-.448-3.945-.973-5.881-1.576-4.478-1.393-8.819-3.188-12.974-5.366-1.795-.938-3.554-1.953-5.275-3.038-3.947-2.486-7.686-5.339-11.15-8.532-1.488-1.371-2.927-2.805-4.31-4.305-3.151-3.403-6.016-7.125-8.548-11.141-1.075-1.706-2.091-3.463-3.04-5.273-1.08-2.055-2.073-4.176-2.98-6.361-.502-1.21-.972-2.422-1.404-3.64l10.823-4.489c.423 1.222.886 2.439 1.386 3.646.906 2.182 1.917 4.295 3.032 6.341.48.886.987 1.761 1.507 2.616 2.448 4.038 5.308 7.771 8.537 11.146.696.732 1.41 1.444 2.142 2.142 3.379 3.221 7.115 6.079 11.155 8.523.858.521 1.729 1.021 2.62 1.501 2.041 1.115 4.162 2.127 6.343 3.029s4.397 1.685 6.63 2.336c.97.29 1.939.552 2.915.788 4.587 1.124 9.249 1.74 13.916 1.848 1.011.023 2.02.023 3.03-.004 4.67-.108 9.327-.728 13.912-1.856.976-.241 1.949-.501 2.919-.789 2.232-.661 4.441-1.442 6.625-2.347 2.182-.906 4.296-1.917 6.341-3.032.885-.481 1.76-.987 2.617-1.507 4.038-2.448 7.769-5.31 11.145-8.537.733-.696 1.446-1.41 2.143-2.143 3.221-3.38 6.079-7.114 8.522-11.154.522-.859 1.022-1.729 1.501-2.62 1.116-2.042 2.128-4.162 3.03-6.343.902-2.182 1.684-4.397 2.336-6.632.291-.969.551-1.938.788-2.913 1.124-4.588 1.74-9.249 1.847-13.916.024-1.012.024-2.02-.003-3.03-.108-4.67-.729-9.331-1.858-13.915-.239-.974-.5-1.95-.787-2.916-.661-2.233-1.442-4.442-2.348-6.625-.501-1.206-1.035-2.395-1.602-3.558l10.823-4.488c.555 1.166 1.082 2.354 1.584 3.564" fill="#1d1d1b" opacity=".2"/><path d="m508.178 395.929c16.615 40.054-2.386 85.993-42.439 102.608-40.055 16.614-85.993-2.387-102.608-42.44s2.386-85.993 42.44-102.608c40.053-16.615 85.992 2.386 102.607 42.44" fill="#fceca9"/><path d="m502.055 398.469c15.212 36.672-2.185 78.732-38.856 93.944-36.673 15.214-78.733-2.184-93.945-38.856-15.213-36.672 2.184-78.733 38.857-93.945 36.671-15.213 78.732 2.185 93.944 38.857" fill="#fceca9"/><path d="m410.649 365.734c16.101-6.679 33.839-6.688 49.947-.025 16.107 6.662 28.656 19.198 35.336 35.299 6.679 16.102 6.688 33.84.024 49.947-6.662 16.108-19.197 28.657-35.299 35.336-16.101 6.679-33.839 6.688-49.947.025-16.107-6.662-28.656-19.198-35.336-35.299-6.679-16.102-6.688-33.84-.025-49.947 6.664-16.108 19.2-28.657 35.3-35.336m-4.482-10.804c-39.258 16.284-57.882 61.311-41.597 100.569s61.312 57.882 100.57 41.598c39.258-16.285 57.882-61.313 41.597-100.57s-61.311-57.882-100.57-41.597" fill="#9c9b9b"/><path d="m398.881 439.406 4.063-1.686c1.934-.801 3.166-1.878 3.697-3.234.531-1.354.465-2.83-.199-4.431-.291-.703-.668-1.315-1.131-1.834s-1-.905-1.609-1.157-1.291-.366-2.043-.343c-.754.024-1.57.219-2.447.583-.705.293-1.326.669-1.867 1.129-.541.463-.967.974-1.279 1.537-.314.563-.496 1.168-.545 1.817s.063 1.309.34 1.978l-7.623 3.162c-.656-1.583-.924-3.158-.801-4.725.125-1.565.564-3.037 1.324-4.413.758-1.376 1.799-2.632 3.121-3.768 1.32-1.136 2.854-2.065 4.594-2.787 1.936-.802 3.795-1.302 5.58-1.495 1.785-.194 3.439-.066 4.967.382 1.525.449 2.889 1.224 4.086 2.325 1.199 1.1 2.17 2.547 2.914 4.34.342.827.555 1.698.635 2.612.082.915.02 1.833-.188 2.753-.205.92-.543 1.833-1.012 2.738-.471.906-1.084 1.764-1.842 2.572 2.484-.123 4.58.369 6.287 1.475 1.705 1.105 2.996 2.714 3.871 4.824.744 1.795 1.061 3.54.949 5.233-.111 1.696-.574 3.274-1.389 4.735-.816 1.462-1.951 2.789-3.406 3.979-1.453 1.19-3.148 2.188-5.082 2.99-1.635.678-3.328 1.122-5.074 1.332-1.748.209-3.422.11-5.025-.297-1.6-.407-3.063-1.146-4.381-2.217-1.32-1.07-2.375-2.556-3.162-4.455l7.623-3.162c.299.721.713 1.322 1.242 1.803s1.135.834 1.814 1.058c.68.222 1.414.314 2.203.275.787-.038 1.586-.225 2.395-.561.896-.372 1.654-.83 2.273-1.376.619-.545 1.082-1.154 1.391-1.829.307-.673.461-1.385.457-2.138-.002-.751-.168-1.522-.496-2.314-.422-1.02-.93-1.834-1.523-2.443s-1.256-1.029-1.99-1.262c-.736-.23-1.541-.293-2.414-.189-.875.105-1.795.358-2.762.76l-4.063 1.686z" fill="#e0b810"/><path d="m450.752 425.742c1.197 2.885 1.912 5.489 2.145 7.814.232 2.326.061 4.393-.52 6.199s-1.537 3.354-2.869 4.637c-1.334 1.285-2.967 2.329-4.9 3.131-1.936.803-3.828 1.222-5.678 1.258-1.852.036-3.625-.377-5.322-1.24-1.699-.861-3.291-2.195-4.783-3.999-1.488-1.804-2.832-4.147-4.029-7.032l-2.768-6.674c-1.197-2.884-1.912-5.488-2.145-7.814-.234-2.324-.053-4.389.539-6.191.592-1.801 1.551-3.342 2.873-4.623 1.324-1.281 2.953-2.322 4.889-3.125s3.826-1.222 5.678-1.258c1.85-.035 3.623.373 5.316 1.227s3.285 2.182 4.777 3.986c1.49 1.804 2.832 4.147 4.029 7.031zm-10.84-4.593c-.709-1.706-1.422-3.091-2.141-4.152s-1.459-1.853-2.219-2.371c-.764-.52-1.543-.798-2.344-.837-.799-.041-1.621.115-2.465.464-.844.351-1.529.821-2.059 1.412-.527.59-.873 1.335-1.035 2.238-.16.901-.121 1.981.123 3.241.244 1.259.721 2.742 1.428 4.447l3.633 8.758c.715 1.725 1.441 3.124 2.176 4.2.734 1.077 1.482 1.884 2.242 2.425.76.539 1.541.83 2.34.869.801.039 1.621-.116 2.465-.467.846-.35 1.535-.822 2.072-1.416s.879-1.349 1.023-2.264c.146-.916.094-2.012-.158-3.289-.25-1.277-.734-2.777-1.449-4.5z" fill="#e0b810"/><path d="m481.75 412.885c1.195 2.885 1.91 5.488 2.143 7.814.234 2.325.061 4.392-.52 6.199-.58 1.807-1.537 3.353-2.869 4.637s-2.967 2.328-4.9 3.131c-1.936.803-3.828 1.221-5.678 1.257s-3.625-.376-5.322-1.239c-1.697-.862-3.291-2.195-4.781-4-1.49-1.803-2.834-4.146-4.031-7.031l-2.768-6.674c-1.197-2.885-1.91-5.488-2.145-7.814-.232-2.325-.053-4.389.539-6.191.594-1.802 1.551-3.343 2.873-4.624 1.324-1.28 2.955-2.321 4.889-3.124 1.936-.803 3.826-1.223 5.678-1.259 1.852-.035 3.623.374 5.316 1.227 1.695.854 3.287 2.183 4.777 3.986s2.834 4.147 4.029 7.032zm-10.842-4.594c-.707-1.705-1.42-3.09-2.139-4.152-.721-1.062-1.459-1.852-2.221-2.371s-1.543-.798-2.344-.838c-.799-.039-1.619.117-2.465.467-.844.35-1.529.82-2.059 1.41-.527.59-.873 1.336-1.033 2.238-.162.902-.121 1.982.123 3.242.244 1.258.719 2.741 1.428 4.447l3.633 8.758c.715 1.724 1.439 3.123 2.174 4.199.736 1.077 1.482 1.885 2.242 2.425.762.54 1.541.83 2.34.869.801.04 1.621-.116 2.467-.466.844-.351 1.533-.822 2.07-1.417.537-.593.879-1.349 1.025-2.264.145-.916.092-2.012-.158-3.289-.252-1.276-.736-2.776-1.451-4.5z" fill="#e0b810"/><path clip-path="url(#d)" d="m506.647 396.563-10.823 4.49c-.455-.943-.933-1.872-1.43-2.785-.482-.889-.987-1.76-1.51-2.62-2.446-4.038-5.306-7.766-8.534-11.142-.696-.732-1.41-1.445-2.143-2.143-3.379-3.221-7.114-6.079-11.155-8.522-.857-.522-1.729-1.022-2.619-1.501-2.041-1.116-4.162-2.127-6.344-3.029-2.181-.903-4.396-1.685-6.63-2.337-.969-.29-1.938-.551-2.915-.788-4.586-1.124-9.249-1.74-13.916-1.847-1.01-.024-2.019-.024-3.029.003-4.671.108-9.33.729-13.915 1.858-.974.239-1.95.501-2.916.787-2.233.661-4.442 1.442-6.625 2.348s-4.295 1.917-6.342 3.031c-.889.483-1.76.987-2.619 1.51-4.038 2.446-7.767 5.307-11.143 8.534-.732.696-1.445 1.41-2.142 2.143-3.222 3.38-6.079 7.115-8.523 11.155-.521.858-1.021 1.729-1.501 2.619-1.116 2.043-2.127 4.162-3.03 6.344-.901 2.181-1.684 4.396-2.336 6.631-.291.969-.551 1.938-.788 2.914-1.124 4.587-1.739 9.249-1.847 13.916-.023 1.011-.023 2.02.003 3.029.109 4.671.729 9.327 1.857 13.912.241.978.501 1.949.789 2.919.295.996.614 1.991.961 2.979l-10.823 4.49c-.353-.985-.684-1.976-.993-2.965-.61-1.95-1.138-3.914-1.587-5.882-1.055-4.628-1.665-9.284-1.847-13.916-.085-2.037-.083-4.068-.002-6.091.187-4.708.808-9.369 1.837-13.92.448-1.983.973-3.945 1.576-5.88 1.393-4.478 3.188-8.82 5.365-12.974.939-1.795 1.953-3.555 3.038-5.275 2.486-3.948 5.339-7.685 8.533-11.15 1.37-1.488 2.804-2.928 4.304-4.31 3.4-3.15 7.121-6.015 11.138-8.546 1.707-1.075 3.467-2.093 5.276-3.042 2.056-1.08 4.177-2.074 6.362-2.981 2.188-.906 4.388-1.706 6.604-2.396 1.95-.611 3.91-1.137 5.878-1.586 4.628-1.055 9.283-1.664 13.919-1.849 2.038-.085 4.068-.083 6.091-.002 4.709.188 9.369.809 13.92 1.837 1.984.448 3.946.974 5.88 1.576 4.479 1.394 8.82 3.188 12.974 5.366 1.797.94 3.555 1.953 5.275 3.038 3.948 2.487 7.687 5.339 11.151 8.533 1.488 1.371 2.928 2.804 4.309 4.304 3.15 3.4 6.015 7.121 8.546 11.137 1.076 1.707 2.093 3.468 3.042 5.277.484.921.952 1.853 1.399 2.799" fill="#1d1d1b" opacity=".2"/><path d="m503.757 390.164c-.949-1.811-1.968-3.57-3.042-5.277-2.531-4.016-5.396-7.736-8.547-11.137-1.382-1.5-2.82-2.933-4.31-4.304-3.465-3.194-7.202-6.046-11.15-8.533-1.721-1.085-3.479-2.098-5.274-3.038-4.154-2.178-8.496-3.973-12.975-5.366-1.935-.603-3.896-1.128-5.88-1.576-4.551-1.028-9.212-1.649-13.92-1.837-2.021-.081-4.053-.083-6.091.002-4.635.185-9.291.794-13.92 1.849-1.967.448-3.927.975-5.877 1.586-2.216.69-4.418 1.49-6.604 2.396-2.186.907-4.307 1.901-6.361 2.981-1.811.949-3.57 1.967-5.277 3.042-4.016 2.531-7.737 5.396-11.138 8.546-1.499 1.382-2.934 2.821-4.305 4.31-3.192 3.466-6.046 7.202-8.531 11.15-1.085 1.721-2.1 3.48-3.038 5.275-2.178 4.153-3.975 8.495-5.367 12.974-.603 1.935-1.128 3.896-1.575 5.88-1.029 4.551-1.649 9.212-1.837 13.92-.082 2.022-.083 4.053.002 6.091.183 4.631.792 9.288 1.847 13.916.448 1.968.977 3.932 1.587 5.881.691 2.217 1.49 4.419 2.397 6.604s1.9 4.307 2.981 6.362c.948 1.81 1.965 3.566 3.04 5.273 2.53 4.017 5.396 7.737 8.548 11.142 1.381 1.499 2.819 2.933 4.309 4.304 3.465 3.193 7.203 6.046 11.151 8.532 1.721 1.085 3.479 2.099 5.274 3.038 4.154 2.178 8.495 3.974 12.975 5.366 1.934.604 3.895 1.128 5.879 1.575 4.552 1.029 9.212 1.65 13.921 1.837 2.021.082 4.053.083 6.09-.002 4.632-.182 9.288-.792 13.917-1.847 1.967-.448 3.93-.977 5.881-1.586 2.216-.692 4.417-1.491 6.604-2.398 2.186-.906 4.307-1.899 6.361-2.98 1.811-.949 3.567-1.965 5.273-3.04 4.016-2.531 7.737-5.396 11.141-8.548 1.5-1.381 2.934-2.82 4.305-4.31 3.193-3.465 6.046-7.203 8.532-11.15 1.085-1.722 2.099-3.479 3.038-5.275 2.179-4.154 3.974-8.495 5.366-12.974.604-1.935 1.128-3.896 1.576-5.879 1.029-4.553 1.65-9.213 1.837-13.922.081-2.021.083-4.053-.002-6.09-.184-4.636-.794-9.292-1.848-13.92-.449-1.967-.976-3.927-1.586-5.878-.691-2.216-1.49-4.417-2.397-6.604s-1.901-4.306-2.98-6.361m-4.691 20.385c1.129 4.585 1.75 9.245 1.859 13.915.026 1.011.026 2.021.003 3.03-.107 4.667-.724 9.33-1.848 13.916-.236.976-.498 1.946-.788 2.915-.651 2.232-1.434 4.449-2.336 6.63s-1.914 4.302-3.029 6.344c-.479.891-.979 1.761-1.501 2.619-2.444 4.041-5.303 7.776-8.523 11.155-.697.731-1.41 1.445-2.142 2.142-3.376 3.229-7.108 6.089-11.146 8.537-.855.521-1.73 1.026-2.616 1.508-2.046 1.114-4.158 2.126-6.341 3.031s-4.392 1.687-6.625 2.347c-.97.288-1.942.548-2.92.789-4.584 1.129-9.241 1.748-13.911 1.857-1.011.026-2.02.026-3.029.003-4.667-.107-9.33-.723-13.916-1.847-.977-.237-1.946-.497-2.915-.788-2.233-.652-4.449-1.435-6.631-2.336-2.181-.902-4.302-1.914-6.344-3.03-.891-.479-1.761-.979-2.619-1.501-4.041-2.444-7.775-5.302-11.154-8.523-.732-.695-1.446-1.409-2.143-2.142-3.229-3.376-6.089-7.107-8.537-11.146-.52-.856-1.025-1.731-1.508-2.616-1.114-2.045-2.126-4.158-3.031-6.342-.904-2.183-1.687-4.392-2.347-6.625-.288-.97-.548-1.942-.789-2.919-1.129-4.585-1.748-9.241-1.856-13.912-.027-1.011-.027-2.019-.004-3.029.107-4.667.724-9.329 1.848-13.916.237-.977.497-1.945.788-2.914.651-2.234 1.434-4.45 2.336-6.631.901-2.182 1.914-4.302 3.03-6.344.479-.891.979-1.761 1.501-2.619 2.443-4.04 5.302-7.775 8.521-11.155.697-.732 1.41-1.446 2.144-2.143 3.376-3.228 7.104-6.088 11.142-8.534.86-.522 1.73-1.027 2.62-1.51 2.045-1.114 4.158-2.126 6.341-3.031s4.392-1.687 6.625-2.348c.966-.286 1.943-.548 2.916-.787 4.584-1.129 9.245-1.75 13.915-1.858 1.011-.027 2.019-.027 3.03-.003 4.667.106 9.329.723 13.916 1.847.976.237 1.944.498 2.914.788 2.233.652 4.449 1.434 6.631 2.337 2.181.902 4.301 1.913 6.343 3.029.891.479 1.761.979 2.62 1.501 4.04 2.443 7.774 5.302 11.155 8.522.731.697 1.445 1.41 2.142 2.143 3.228 3.376 6.088 7.104 8.535 11.142.521.86 1.026 1.731 1.509 2.62 1.115 2.046 2.126 4.159 3.032 6.341.905 2.184 1.686 4.393 2.347 6.625.285.966.547 1.943.786 2.916" fill="#e0b810"/><path clip-path="url(#e)" d="m147.047 349.704c-1.742 1.603-3.535 3.109-5.379 4.52-1.623 1.243-3.283 2.409-4.976 3.507-3.985 2.58-8.149 4.752-12.439 6.515-1.884.78-3.793 1.477-5.72 2.093-4.486 1.441-9.077 2.459-13.705 3.056-2.017.26-4.039.44-6.063.539-4.684.229-9.379.032-14.028-.586-2.008-.267-4.008-.614-5.997-1.042-4.562-.98-9.052-2.376-13.402-4.187-1.869-.775-3.713-1.628-5.526-2.562-4.128-2.115-8.097-4.626-11.853-7.529-1.596-1.234-3.153-2.535-4.666-3.909-1.72-1.559-3.382-3.21-4.984-4.952-1.603-1.742-3.109-3.535-4.52-5.379-1.243-1.622-2.412-3.286-3.509-4.979-2.58-3.985-4.751-8.149-6.513-12.437-.779-1.884-1.475-3.793-2.093-5.72-1.441-4.486-2.458-9.077-3.054-13.705-.261-2.017-.441-4.039-.539-6.063-.229-4.684-.033-9.378.585-14.027.266-2.009.615-4.009 1.043-5.998.979-4.562 2.375-9.052 4.185-13.402.776-1.869 1.629-3.713 2.563-5.526 2.115-4.128 4.626-8.097 7.529-11.853 1.234-1.596 2.535-3.153 3.909-4.666 1.559-1.72 3.21-3.382 4.952-4.984.964-.887 1.941-1.743 2.935-2.568l7.933 8.623c-1.003.817-1.987 1.67-2.949 2.554-1.739 1.6-3.376 3.276-4.915 5.025-.666.755-1.314 1.531-1.94 2.314-2.952 3.685-5.474 7.653-7.537 11.844-.449.906-.873 1.821-1.276 2.748-1.865 4.28-3.266 8.769-4.174 13.403-.196.985-.367 1.974-.511 2.976-.347 2.301-.569 4.64-.667 6.998-.099 2.358-.073 4.708.082 7.029.06 1.01.148 2.01.261 3.008.518 4.693 1.541 9.283 3.043 13.703.324.958.671 1.905 1.043 2.846 1.706 4.349 3.886 8.51 6.521 12.428.561.835 1.139 1.659 1.743 2.471 1.387 1.871 2.879 3.678 4.479 5.417s3.276 3.376 5.024 4.914c.756.667 1.532 1.314 2.315 1.94 3.685 2.952 7.653 5.475 11.844 7.537.906.448 1.821.874 2.748 1.276 4.28 1.864 8.769 3.267 13.403 4.174.985.196 1.974.367 2.976.512 2.301.347 4.64.568 6.998.667 2.358.098 4.707.071 7.029-.082 1.01-.061 2.01-.148 3.008-.262 4.694-.519 9.284-1.541 13.704-3.043.958-.323 1.905-.671 2.845-1.043 4.349-1.706 8.513-3.889 12.431-6.523.832-.559 1.659-1.139 2.468-1.74 1.871-1.388 3.677-2.88 5.416-4.479.962-.886 1.894-1.795 2.791-2.727l7.933 8.623c-.905.924-1.84 1.826-2.804 2.713" fill="#1d1d1b" opacity=".2"/><path d="m152.408 346.893c-31.914 29.356-81.585 27.284-110.942-4.63s-27.285-81.585 4.63-110.942c31.914-29.357 81.585-27.284 110.942 4.63 29.357 31.913 27.284 81.584-4.63 110.942" fill="#fceca9"/><path d="m147.92 342.014c-29.22 26.879-74.697 24.981-101.576-4.239s-24.981-74.697 4.239-101.576 74.697-24.981 101.576 4.239 24.981 74.697-4.239 101.576" fill="#fceca9"/><path d="m147.281 244.926c11.801 12.829 17.9 29.485 17.173 46.901s-8.193 33.507-21.021 45.308c-12.829 11.802-29.486 17.9-46.902 17.174-17.416-.728-33.507-8.192-45.308-21.021s-17.9-29.486-17.173-46.902 8.192-33.506 21.021-45.308c12.829-11.801 29.486-17.899 46.902-17.173s33.507 8.192 45.308 21.021m8.609-7.92c-28.774-31.28-77.458-33.312-108.738-4.538-31.281 28.774-33.312 77.458-4.538 108.738 28.774 31.281 77.458 33.313 108.738 4.538 31.28-28.773 33.312-77.458 4.538-108.738" fill="#9c9b9b"/><path d="m73.965 259.277 2.977 3.236c1.418 1.541 2.854 2.329 4.308 2.364 1.453.034 2.819-.537 4.094-1.708.56-.516 1.006-1.08 1.334-1.694.328-.613.506-1.249.533-1.908.027-.66-.1-1.338-.379-2.037-.281-.699-.744-1.399-1.388-2.099-.516-.561-1.083-1.016-1.702-1.364-.619-.35-1.246-.575-1.881-.676-.636-.099-1.268-.063-1.896.114-.626.175-1.205.507-1.738.998l-5.588-6.075c1.262-1.16 2.648-1.951 4.162-2.373 1.513-.422 3.045-.512 4.6-.272 1.552.239 3.089.786 4.609 1.638 1.521.85 2.92 1.97 4.196 3.358 1.418 1.541 2.525 3.117 3.32 4.726.794 1.611 1.244 3.209 1.345 4.796.103 1.588-.156 3.133-.779 4.637-.621 1.504-1.648 2.911-3.078 4.227-.658.605-1.403 1.103-2.235 1.492-.831.391-1.712.646-2.649.769-.935.123-1.907.121-2.92-.01-1.012-.129-2.026-.411-3.047-.845.968 2.291 1.227 4.428.773 6.41-.452 1.981-1.52 3.746-3.201 5.293-1.43 1.315-2.959 2.211-4.589 2.69-1.632.476-3.272.583-4.925.318-1.654-.264-3.289-.874-4.906-1.831-1.618-.957-3.135-2.206-4.553-3.747-1.198-1.304-2.197-2.74-2.994-4.309-.797-1.57-1.279-3.177-1.447-4.82-.167-1.645.027-3.27.579-4.877.551-1.609 1.585-3.108 3.098-4.5l5.587 6.074c-.575.527-.997 1.123-1.266 1.786-.271.663-.393 1.352-.37 2.068.024.714.19 1.435.496 2.163.306.725.756 1.412 1.35 2.057.656.714 1.347 1.268 2.072 1.662s1.457.621 2.196.679c.738.057 1.46-.044 2.165-.304.704-.26 1.372-.681 2.003-1.261.812-.748 1.404-1.504 1.773-2.271.368-.766.534-1.533.5-2.303-.035-.77-.254-1.547-.651-2.331-.399-.785-.952-1.563-1.661-2.334l-2.978-3.236z" fill="#e0b810"/><path d="m104.607 303.305c-2.298 2.114-4.498 3.681-6.601 4.696-2.106 1.018-4.106 1.565-6.002 1.641-1.897.075-3.677-.292-5.34-1.104-1.664-.811-3.205-1.986-4.623-3.527s-2.461-3.174-3.131-4.9c-.669-1.726-.89-3.533-.662-5.423.225-1.891.931-3.846 2.113-5.866 1.184-2.018 2.923-4.085 5.221-6.199l5.318-4.891c2.298-2.115 4.498-3.679 6.604-4.697 2.103-1.017 4.103-1.557 6-1.619 1.895-.062 3.672.309 5.329 1.111 1.658.804 3.195 1.976 4.613 3.518s2.461 3.175 3.131 4.9c.669 1.727.893 3.532.674 5.416-.221 1.883-.922 3.834-2.105 5.854-1.181 2.02-2.923 4.086-5.22 6.199zm.592-11.759c1.359-1.25 2.416-2.396 3.166-3.435.751-1.04 1.239-2.007 1.465-2.899.226-.895.221-1.724-.018-2.488-.238-.764-.666-1.483-1.285-2.157-.617-.671-1.295-1.154-2.03-1.448-.736-.293-1.554-.362-2.457-.204-.904.158-1.904.568-3.003 1.23-1.098.662-2.328 1.617-3.688 2.867l-6.978 6.419c-1.373 1.263-2.44 2.426-3.197 3.486-.758 1.059-1.261 2.038-1.507 2.938-.247.9-.251 1.731-.013 2.496.237.764.666 1.482 1.283 2.155.619.673 1.3 1.159 2.042 1.46.743.301 1.57.361 2.479.185.91-.178 1.921-.604 3.035-1.278 1.112-.675 2.354-1.642 3.727-2.906z" fill="#e0b810"/><path d="m127.326 328.003c-2.298 2.114-4.498 3.68-6.601 4.697-2.106 1.018-4.106 1.563-6.002 1.639s-3.676-.291-5.34-1.103c-1.664-.81-3.205-1.986-4.623-3.527-1.418-1.542-2.461-3.175-3.131-4.901-.669-1.725-.89-3.533-.662-5.424.226-1.891.931-3.846 2.113-5.865 1.184-2.018 2.923-4.085 5.221-6.199l5.318-4.892c2.298-2.114 4.498-3.679 6.604-4.696 2.103-1.017 4.103-1.556 6-1.619 1.895-.061 3.672.309 5.33 1.111 1.657.804 3.194 1.977 4.612 3.518 1.419 1.542 2.461 3.175 3.131 4.9.669 1.727.893 3.531.674 5.416-.221 1.884-.922 3.834-2.105 5.854-1.181 2.021-2.923 4.086-5.22 6.2zm.592-11.76c1.359-1.25 2.416-2.395 3.166-3.435.751-1.04 1.239-2.007 1.466-2.899.225-.895.22-1.723-.019-2.488-.238-.764-.666-1.482-1.285-2.156-.617-.672-1.295-1.154-2.03-1.448-.736-.293-1.554-.36-2.457-.202-.904.157-1.904.566-3.003 1.229-1.098.661-2.328 1.617-3.688 2.867l-6.978 6.42c-1.373 1.264-2.44 2.425-3.197 3.484-.758 1.06-1.261 2.039-1.507 2.938-.245.9-.251 1.731-.013 2.496.237.765.666 1.483 1.283 2.156.619.673 1.3 1.158 2.042 1.459.743.301 1.57.363 2.479.186.91-.179 1.921-.604 3.035-1.279 1.112-.674 2.354-1.643 3.727-2.906z" fill="#e0b810"/><path clip-path="url(#f)" d="m151.286 345.673-7.933-8.624c.73-.75 1.438-1.519 2.124-2.298.67-.759 1.315-1.532 1.943-2.317 2.952-3.685 5.472-7.65 7.534-11.842.449-.906.874-1.821 1.277-2.748 1.865-4.279 3.266-8.77 4.174-13.403.196-.984.367-1.974.511-2.975.347-2.301.569-4.64.667-6.999.099-2.358.072-4.707-.082-7.029-.06-1.01-.148-2.01-.261-3.008-.519-4.693-1.541-9.284-3.043-13.704-.324-.957-.671-1.905-1.043-2.845-1.706-4.348-3.889-8.513-6.524-12.431-.558-.832-1.139-1.659-1.74-2.468-1.387-1.871-2.879-3.677-4.479-5.416s-3.276-3.377-5.025-4.915c-.758-.669-1.532-1.314-2.317-1.943-3.685-2.952-7.65-5.471-11.841-7.534-.906-.449-1.821-.873-2.748-1.276-4.28-1.865-8.769-3.267-13.403-4.175-.986-.195-1.975-.366-2.976-.51-2.301-.347-4.64-.569-6.998-.668-2.358-.098-4.708-.072-7.029.082-1.01.06-2.01.148-3.008.261-4.694.519-9.284 1.542-13.705 3.043-.957.325-1.904.671-2.844 1.043-4.349 1.707-8.51 3.887-12.428 6.522-.835.561-1.66 1.139-2.471 1.743-.835.619-1.659 1.261-2.468 1.925l-7.932-8.624c.803-.67 1.619-1.32 2.443-1.951 1.622-1.243 3.286-2.413 4.979-3.509 3.985-2.58 8.149-4.752 12.436-6.513 1.884-.779 3.793-1.475 5.72-2.093 4.486-1.441 9.077-2.458 13.705-3.054 2.017-.261 4.039-.442 6.063-.539 4.684-.23 9.378-.034 14.027.585 2.009.266 4.009.615 5.998 1.042 4.562.98 9.051 2.376 13.402 4.186 1.869.776 3.713 1.629 5.526 2.562 4.126 2.113 8.094 4.624 11.85 7.526 1.596 1.234 3.156 2.539 4.669 3.913 1.72 1.559 3.382 3.209 4.984 4.951 1.603 1.742 3.109 3.535 4.519 5.38 1.244 1.622 2.411 3.282 3.507 4.975 2.58 3.985 4.752 8.149 6.515 12.439.78 1.885 1.476 3.793 2.094 5.72 1.44 4.487 2.458 9.077 3.054 13.705.261 2.017.441 4.039.539 6.063.229 4.685.033 9.379-.586 14.028-.266 2.009-.614 4.009-1.042 5.997-.98 4.562-2.376 9.052-4.185 13.402-.777 1.869-1.629 3.713-2.563 5.525-2.112 4.126-4.623 8.094-7.526 11.851-1.234 1.597-2.538 3.156-3.912 4.668-.697.77-1.413 1.529-2.148 2.274" fill="#1d1d1b" opacity=".2"/><path d="m156.304 340.761c1.374-1.513 2.678-3.073 3.912-4.669 2.902-3.756 5.414-7.726 7.526-11.852.934-1.812 1.786-3.655 2.562-5.524 1.81-4.352 3.206-8.84 4.186-13.403.428-1.988.776-3.988 1.042-5.997.619-4.649.815-9.343.585-14.027-.097-2.025-.278-4.047-.538-6.064-.597-4.628-1.614-9.218-3.055-13.705-.617-1.927-1.313-3.835-2.093-5.719-1.764-4.291-3.936-8.454-6.515-12.439-1.097-1.694-2.264-3.354-3.507-4.976-1.41-1.844-2.917-3.638-4.519-5.379-1.603-1.742-3.264-3.393-4.984-4.952-1.513-1.374-3.073-2.678-4.669-3.912-3.756-2.903-7.725-5.414-11.85-7.526-1.813-.934-3.657-1.787-5.526-2.563-4.351-1.81-8.84-3.206-13.403-4.185-1.988-.428-3.988-.777-5.997-1.043-4.649-.619-9.343-.814-14.027-.585-2.025.098-4.047.278-6.064.539-4.628.596-9.218 1.613-13.705 3.054-1.927.618-3.835 1.314-5.719 2.093-4.288 1.761-8.452 3.933-12.436 6.513-1.694 1.097-3.357 2.266-4.979 3.509-1.844 1.411-3.637 2.917-5.379 4.52-1.742 1.602-3.393 3.263-4.952 4.984-1.374 1.513-2.675 3.07-3.909 4.666-2.903 3.756-5.414 7.725-7.529 11.853-.934 1.813-1.787 3.656-2.563 5.525-1.81 4.351-3.206 8.841-4.185 13.403-.428 1.988-.777 3.988-1.043 5.997-.619 4.649-.814 9.344-.585 14.028.098 2.024.278 4.046.539 6.063.596 4.627 1.613 9.218 3.054 13.705.618 1.927 1.314 3.836 2.093 5.721 1.762 4.286 3.933 8.45 6.513 12.436 1.097 1.693 2.266 3.356 3.509 4.978 1.411 1.846 2.917 3.639 4.52 5.381 1.602 1.741 3.263 3.392 4.984 4.951 1.513 1.374 3.07 2.676 4.666 3.909 3.756 2.902 7.725 5.414 11.853 7.529 1.813.934 3.656 1.786 5.525 2.562 4.351 1.811 8.841 3.206 13.403 4.187 1.989.428 3.988.776 5.997 1.042 4.649.619 9.344.814 14.028.585 2.024-.097 4.046-.278 6.063-.539 4.628-.596 9.218-1.613 13.705-3.054 1.927-.618 3.836-1.313 5.72-2.094 4.29-1.764 8.454-3.936 12.439-6.515 1.693-1.097 3.353-2.264 4.976-3.507 1.844-1.41 3.637-2.917 5.379-4.52s3.393-3.265 4.952-4.984m-20.756 2.593c-3.918 2.635-8.083 4.818-12.431 6.524-.94.372-1.887.719-2.845 1.043-4.42 1.502-9.01 2.523-13.704 3.043-.998.112-1.998.201-3.008.261-2.322.154-4.671.18-7.029.082-2.358-.099-4.698-.32-6.998-.668-1.002-.143-1.991-.314-2.976-.51-4.634-.908-9.124-2.311-13.403-4.174-.927-.403-1.842-.828-2.748-1.277-4.191-2.063-8.159-4.585-11.844-7.537-.783-.626-1.559-1.274-2.315-1.94-1.748-1.537-3.424-3.176-5.024-4.914-1.6-1.739-3.092-3.546-4.479-5.416-.604-.813-1.182-1.637-1.743-2.472-2.635-3.918-4.815-8.08-6.521-12.428-.372-.94-.719-1.887-1.043-2.845-1.502-4.42-2.525-9.011-3.044-13.704-.112-.998-.2-1.998-.26-3.008-.155-2.322-.181-4.671-.082-7.029.098-2.358.32-4.698.667-6.998.144-1.002.315-1.991.511-2.976.908-4.634 2.309-9.124 4.174-13.403.403-.927.827-1.842 1.276-2.748 2.063-4.191 4.585-8.159 7.537-11.844.626-.783 1.274-1.559 1.94-2.315 1.539-1.748 3.176-3.424 4.915-5.024s3.546-3.092 5.417-4.479c.811-.604 1.636-1.182 2.47-1.743 3.919-2.635 8.08-4.815 12.429-6.521.94-.372 1.887-.719 2.844-1.043 4.42-1.502 9.011-2.525 13.705-3.044.998-.112 1.998-.2 3.007-.26 2.322-.155 4.672-.181 7.03-.082 2.358.098 4.697.32 6.998.667 1.001.144 1.99.315 2.976.511 4.634.908 9.123 2.309 13.403 4.174.927.403 1.842.827 2.747 1.276 4.192 2.063 8.157 4.582 11.842 7.534.785.629 1.559 1.274 2.317 1.943 1.749 1.539 3.425 3.176 5.024 4.915 1.6 1.739 3.092 3.546 4.48 5.416.601.809 1.181 1.637 1.74 2.468 2.635 3.919 4.818 8.083 6.524 12.432.372.94.719 1.887 1.043 2.844 1.502 4.42 2.524 9.011 3.043 13.704.113.999.201 1.999.261 3.008.154 2.322.18 4.672.082 7.03-.099 2.358-.32 4.697-.667 6.998-.144 1.001-.315 1.99-.511 2.976-.908 4.634-2.31 9.123-4.174 13.403-.403.927-.828 1.842-1.277 2.746-2.062 4.192-4.582 8.157-7.534 11.843-.629.785-1.274 1.559-1.943 2.316-1.538 1.749-3.176 3.425-4.915 5.024-1.739 1.6-3.545 3.092-5.416 4.479-.809.604-1.636 1.184-2.468 1.742" fill="#e0b810"/><path clip-path="url(#g)" d="m153.253 245.715c-1.182 2.051-2.441 4.025-3.778 5.924-1.175 1.672-2.409 3.283-3.696 4.837-3.028 3.655-6.35 6.975-9.914 9.943-1.564 1.309-3.176 2.545-4.83 3.712-3.848 2.719-7.923 5.065-12.159 7.021-1.846.853-3.721 1.631-5.623 2.331-4.4 1.623-8.938 2.843-13.558 3.646-1.997.348-4.009.615-6.034.803-4.646.433-9.348.446-14.041.024-2.016-.181-4.03-.441-6.04-.789-4.572-.781-9.111-1.987-13.564-3.63-1.893-.699-3.769-1.474-5.624-2.331-2.108-.972-4.188-2.049-6.239-3.231-2.051-1.181-4.025-2.441-5.924-3.777-1.672-1.175-3.286-2.412-4.84-3.698-3.655-3.029-6.975-6.351-9.94-9.913-1.309-1.564-2.544-3.176-3.711-4.83-2.72-3.848-5.066-7.922-7.022-12.159-.853-1.846-1.631-3.721-2.331-5.623-1.623-4.4-2.843-8.937-3.646-13.558-.348-1.996-.615-4.009-.803-6.034-.432-4.646-.446-9.348-.023-14.041.18-2.016.44-4.03.788-6.04.781-4.572 1.987-9.111 3.631-13.564.698-1.893 1.473-3.768 2.331-5.623.972-2.109 2.048-4.189 3.23-6.24.654-1.135 1.329-2.244 2.031-3.33l10.153 5.85c-.712 1.08-1.396 2.189-2.048 3.32-1.18 2.048-2.24 4.137-3.183 6.267-.409.921-.795 1.855-1.157 2.789-1.712 4.401-2.93 8.942-3.641 13.559-.157.999-.288 1.999-.394 3.004-.497 4.642-.488 9.345.034 14.038.109.999.242 1.994.405 2.992.358 2.299.848 4.597 1.461 6.876.612 2.28 1.342 4.513 2.184 6.682.36.946.744 1.873 1.151 2.792 1.902 4.322 4.253 8.395 7.01 12.162.597.816 1.211 1.616 1.848 2.401 2.931 3.637 6.258 6.954 9.946 9.903.786.628 1.585 1.241 2.404 1.834 1.884 1.37 3.849 2.646 5.896 3.825 2.048 1.18 4.137 2.24 6.267 3.183.921.41 1.855.795 2.789 1.158 4.401 1.712 8.942 2.929 13.559 3.64.998.157 1.999.288 3.004.395 4.642.496 9.345.488 14.038-.035.999-.109 1.993-.242 2.992-.405 2.299-.358 4.597-.848 6.876-1.46 2.279-.613 4.513-1.342 6.682-2.185.945-.36 1.873-.744 2.791-1.151 4.323-1.901 8.396-4.253 12.163-7.01.816-.597 1.616-1.211 2.401-1.848 3.637-2.931 6.956-6.261 9.904-9.949.627-.783 1.242-1.585 1.833-2.401 1.369-1.884 2.646-3.849 3.825-5.896.652-1.132 1.269-2.28 1.846-3.437l10.152 5.85c-.587 1.151-1.208 2.292-1.862 3.427" fill="#1d1d1b" opacity=".2"/><path d="m157.525 241.426c-21.649 37.573-69.657 50.482-107.23 28.833s-50.482-69.657-28.833-107.23 69.657-50.482 107.23-28.833 50.482 69.657 28.833 107.23" fill="#fceca9"/><path d="m151.781 238.117c-19.821 34.401-63.776 46.22-98.177 26.399s-46.22-63.777-26.399-98.177c19.821-34.401 63.777-46.22 98.177-26.399 34.401 19.821 46.22 63.775 26.399 98.177" fill="#fceca9"/><path d="m122.073 145.684c15.103 8.702 25.914 22.765 30.44 39.599 4.527 16.833 2.227 34.421-6.476 49.525-8.702 15.103-22.765 25.914-39.598 30.44-16.834 4.526-34.422 2.227-49.526-6.476-15.103-8.702-25.914-22.765-30.44-39.599-4.526-16.833-2.226-34.421 6.476-49.525 8.702-15.103 22.765-25.914 39.599-30.44 16.833-4.526 34.421-2.228 49.525 6.476m5.84-10.137c-36.826-21.219-83.881-8.566-105.1 28.26-21.218 36.827-8.566 83.881 28.26 105.1 36.827 21.219 83.882 8.566 105.1-28.26 21.219-36.827 8.566-83.88-28.26-105.1" fill="#9c9b9b"/><path d="m54.277 208.25-7.152-4.122 15.882-27.565-10.062-2.272 3.352-5.814 18 3.252.767.44z" fill="#e0b810"/><path d="m98.814 214.069c-1.559 2.706-3.189 4.859-4.891 6.459-1.703 1.602-3.447 2.722-5.234 3.363s-3.595.825-5.425.549c-1.831-.275-3.653-.935-5.468-1.98-1.814-1.047-3.298-2.292-4.455-3.738-1.156-1.445-1.908-3.104-2.257-4.975-.352-1.873-.264-3.949.257-6.229.524-2.281 1.565-4.773 3.123-7.48l3.608-6.26c1.558-2.705 3.189-4.858 4.892-6.459 1.703-1.602 3.45-2.715 5.241-3.343 1.789-.627 3.595-.807 5.417-.537 1.821.269 3.639.927 5.456 1.972 1.814 1.047 3.298 2.292 4.454 3.739 1.155 1.445 1.91 3.099 2.266 4.962.354 1.865.27 3.936-.254 6.217-.523 2.282-1.564 4.774-3.123 7.479zm-2.959-11.396c.922-1.6 1.586-3.009 1.99-4.226.405-1.217.58-2.286.53-3.206-.053-.92-.307-1.709-.763-2.367s-1.079-1.215-1.871-1.672c-.792-.455-1.583-.714-2.373-.773-.79-.06-1.591.121-2.406.543-.814.42-1.646 1.111-2.495 2.072-.85.96-1.737 2.24-2.659 3.84l-4.733 8.216c-.932 1.617-1.601 3.044-2.007 4.282s-.592 2.324-.557 3.256c.035.931.28 1.726.737 2.385.455.658 1.08 1.214 1.871 1.671.793.457 1.586.716 2.384.781.799.064 1.605-.124 2.42-.568.815-.441 1.653-1.151 2.512-2.128s1.755-2.274 2.687-3.891z" fill="#e0b810"/><path d="m127.891 230.822c-1.559 2.707-3.188 4.859-4.891 6.46s-3.447 2.721-5.234 3.362-3.595.824-5.425.549c-1.831-.274-3.653-.934-5.468-1.98-1.814-1.046-3.298-2.292-4.455-3.737-1.156-1.446-1.908-3.104-2.257-4.976-.352-1.872-.264-3.948.259-6.229.522-2.28 1.563-4.773 3.121-7.479l3.608-6.26c1.558-2.706 3.189-4.859 4.892-6.46 1.703-1.602 3.45-2.715 5.241-3.342 1.789-.628 3.595-.807 5.417-.537 1.821.269 3.639.926 5.456 1.972 1.814 1.046 3.298 2.291 4.455 3.738 1.154 1.446 1.91 3.1 2.265 4.963.354 1.864.27 3.936-.254 6.217-.523 2.281-1.564 4.774-3.123 7.479zm-2.959-11.396c.922-1.6 1.586-3.009 1.991-4.226.404-1.216.579-2.285.529-3.205-.053-.921-.307-1.71-.763-2.368s-1.079-1.215-1.871-1.671c-.791-.457-1.583-.715-2.372-.773-.791-.061-1.592.121-2.407.542-.814.421-1.644 1.111-2.495 2.071-.85.961-1.735 2.242-2.657 3.842l-4.734 8.215c-.932 1.617-1.602 3.045-2.008 4.283s-.592 2.323-.557 3.256c.035.931.282 1.726.737 2.385.455.658 1.08 1.214 1.871 1.67.793.457 1.586.716 2.384.781.799.064 1.605-.124 2.42-.567.815-.441 1.653-1.152 2.512-2.129.859-.976 1.755-2.273 2.687-3.89z" fill="#e0b810"/><path clip-path="url(#h)" d="m156.089 240.599-10.153-5.85c.471-.934.917-1.879 1.338-2.829.411-.924.795-1.856 1.159-2.793 1.712-4.4 2.927-8.939 3.639-13.555.157-.999.287-1.999.394-3.004.496-4.642.488-9.345-.034-14.038-.109-.999-.242-1.994-.405-2.992-.358-2.299-.848-4.598-1.461-6.877s-1.342-4.513-2.185-6.682c-.36-.945-.743-1.872-1.15-2.791-1.902-4.322-4.253-8.395-7.011-12.162-.596-.816-1.211-1.616-1.847-2.401-2.931-3.638-6.262-6.956-9.95-9.905-.782-.626-1.584-1.241-2.4-1.833-1.884-1.369-3.849-2.645-5.896-3.825-2.048-1.179-4.137-2.239-6.267-3.183-.924-.411-1.855-.794-2.793-1.159-4.4-1.712-8.938-2.927-13.555-3.639-.999-.156-1.999-.287-3.004-.394-4.642-.496-9.345-.488-14.038.035-.999.108-1.994.242-2.992.404-2.299.359-4.597.848-6.876 1.461-2.28.613-4.513 1.342-6.682 2.185-.946.36-1.873.743-2.792 1.15-4.322 1.902-8.395 4.253-12.162 7.011-.816.596-1.616 1.211-2.401 1.847-3.637 2.932-6.954 6.259-9.903 9.947-.628.785-1.241 1.584-1.834 2.403-.611.841-1.205 1.7-1.777 2.577l-10.153-5.85c.566-.88 1.15-1.746 1.746-2.594 1.175-1.672 2.412-3.287 3.698-4.84 3.029-3.656 6.351-6.976 9.913-9.941 1.564-1.308 3.176-2.544 4.829-3.711 3.849-2.719 7.923-5.065 12.16-7.021 1.846-.853 3.721-1.632 5.623-2.332 4.4-1.622 8.937-2.842 13.558-3.645 1.996-.349 4.009-.616 6.034-.803 4.646-.433 9.348-.447 14.041-.024 2.016.18 4.03.441 6.04.789 4.569.778 9.107 1.985 13.561 3.628 1.892.699 3.771 1.476 5.626 2.333 2.109.972 4.189 2.049 6.24 3.23 2.05 1.182 4.025 2.441 5.923 3.778 1.672 1.175 3.283 2.409 4.837 3.696 3.655 3.029 6.975 6.35 9.944 9.915 1.308 1.564 2.544 3.176 3.711 4.829 2.719 3.849 5.066 7.923 7.021 12.16.854 1.846 1.632 3.721 2.332 5.623 1.623 4.4 2.843 8.937 3.645 13.558.349 1.996.616 4.009.803 6.034.433 4.646.447 9.348.024 14.041-.18 2.016-.441 4.03-.788 6.039-.779 4.569-1.986 9.108-3.629 13.561-.699 1.893-1.475 3.772-2.333 5.627-.435.942-.89 1.88-1.368 2.812" fill="#1d1d1b" opacity=".2"/><path d="m159.404 234.408c.857-1.855 1.634-3.734 2.333-5.626 1.643-4.454 2.85-8.992 3.629-13.562.347-2.009.608-4.023.788-6.039.423-4.693.409-9.395-.024-14.041-.187-2.025-.454-4.038-.803-6.034-.802-4.621-2.022-9.158-3.645-13.558-.7-1.902-1.478-3.777-2.332-5.623-1.955-4.237-4.302-8.311-7.021-12.16-1.167-1.653-2.403-3.265-3.711-4.829-2.969-3.565-6.289-6.886-9.944-9.915-1.554-1.287-3.165-2.521-4.837-3.696-1.898-1.337-3.873-2.596-5.923-3.777-2.051-1.182-4.131-2.259-6.24-3.231-1.855-.857-3.734-1.634-5.626-2.333-4.454-1.643-8.992-2.85-13.561-3.628-2.01-.348-4.024-.609-6.04-.789-4.693-.422-9.395-.409-14.041.024-2.025.188-4.038.455-6.034.803-4.621.803-9.158 2.023-13.558 3.646-1.902.699-3.777 1.478-5.623 2.331-4.237 1.956-8.311 4.302-12.16 7.021-1.653 1.167-3.265 2.403-4.829 3.711-3.563 2.966-6.884 6.286-9.913 9.941-1.286 1.553-2.523 3.168-3.698 4.84-1.336 1.898-2.596 3.873-3.777 5.924-1.182 2.051-2.259 4.13-3.231 6.239-.857 1.855-1.632 3.731-2.331 5.623-1.643 4.454-2.85 8.992-3.63 13.565-.348 2.009-.608 4.024-.789 6.039-.422 4.694-.409 9.395.024 14.041.188 2.025.455 4.038.803 6.034.803 4.621 2.023 9.158 3.646 13.558.7 1.902 1.478 3.777 2.331 5.623 1.956 4.237 4.302 8.311 7.021 12.16 1.167 1.653 2.403 3.265 3.712 4.829 2.965 3.563 6.285 6.884 9.94 9.913 1.554 1.287 3.168 2.523 4.84 3.698 1.899 1.337 3.873 2.596 5.924 3.778 2.051 1.181 4.13 2.258 6.239 3.23 1.855.857 3.731 1.632 5.623 2.331 4.454 1.643 8.992 2.85 13.565 3.63 2.009.348 4.024.609 6.039.789 4.694.423 9.395.409 14.041-.024 2.026-.187 4.038-.454 6.034-.803 4.621-.803 9.158-2.023 13.559-3.645 1.901-.7 3.776-1.478 5.623-2.332 4.236-1.956 8.311-4.302 12.159-7.021 1.653-1.167 3.265-2.403 4.829-3.711 3.565-2.969 6.886-6.289 9.915-9.944 1.287-1.554 2.521-3.165 3.696-4.837 1.337-1.898 2.596-3.873 3.778-5.924 1.18-2.05 2.258-4.13 3.23-6.239m-19.025 8.696c-2.948 3.688-6.267 7.019-9.904 9.95-.786.636-1.586 1.251-2.402 1.847-3.766 2.758-7.84 5.109-12.162 7.011-.918.407-1.846.79-2.791 1.15-2.169.843-4.403 1.572-6.682 2.185s-4.577 1.102-6.877 1.461c-.998.163-1.993.296-2.991.404-4.694.523-9.397.531-14.038.035-1.006-.107-2.006-.237-3.004-.394-4.617-.712-9.159-1.929-13.559-3.641-.934-.363-1.869-.748-2.79-1.157-2.129-.944-4.219-2.003-6.266-3.183s-4.012-2.456-5.897-3.825c-.819-.594-1.617-1.207-2.403-1.835-3.688-2.948-7.015-6.265-9.946-9.903-.637-.785-1.252-1.585-1.848-2.401-2.757-3.767-5.109-7.84-7.01-12.162-.407-.918-.791-1.846-1.151-2.791-.843-2.169-1.572-4.403-2.185-6.682s-1.102-4.578-1.46-6.877c-.163-.998-.297-1.993-.405-2.991-.523-4.694-.531-9.397-.035-14.039.107-1.005.238-2.005.395-3.004.711-4.616 1.928-9.158 3.64-13.558.363-.934.748-1.869 1.157-2.79.944-2.129 2.004-4.219 3.184-6.266 1.179-2.048 2.455-4.012 3.824-5.897.594-.819 1.207-1.618 1.835-2.403 2.949-3.688 6.266-7.015 9.903-9.946.785-.637 1.585-1.252 2.401-1.848 3.767-2.757 7.84-5.109 12.162-7.011.919-.406 1.846-.79 2.792-1.15 2.169-.843 4.402-1.572 6.681-2.185 2.28-.613 4.578-1.102 6.877-1.461.998-.162 1.993-.296 2.992-.404 4.693-.523 9.396-.531 14.038-.035 1.005.107 2.005.238 3.004.395 4.617.711 9.155 1.926 13.555 3.638.938.365 1.869.748 2.793 1.159 2.13.944 4.219 2.004 6.266 3.183 2.048 1.18 4.013 2.456 5.897 3.825.816.592 1.618 1.207 2.4 1.833 3.688 2.949 7.019 6.267 9.95 9.905.636.785 1.251 1.585 1.847 2.401 2.758 3.767 5.109 7.84 7.011 12.162.407.919.79 1.846 1.15 2.792.843 2.168 1.572 4.402 2.185 6.681.613 2.28 1.102 4.578 1.461 6.877.163.998.296 1.993.405 2.992.522 4.693.53 9.396.034 14.038-.107 1.005-.237 2.005-.394 3.004-.712 4.617-1.927 9.155-3.639 13.555-.365.938-.748 1.869-1.159 2.793-.943 2.129-2.003 4.219-3.183 6.266-1.18 2.048-2.456 4.013-3.825 5.897-.591.816-1.207 1.618-1.833 2.4" fill="#e0b810"/><path clip-path="url(#i)" d="m-11.112 346.648h454.165v254.649h-454.165z" fill="#1d1d1b" opacity=".2" transform="matrix(.9684 -.2496 .2496 .9684 -111.4589 68.9006)"/><path d="m-5.417 353.338h441.261v238.906h-441.261z" fill="#cee0bd" transform="matrix(.9684 -.2496 .2496 .9684 -111.1876 68.674)"/><path d="m345.779 344.594c8.936 15.509 25.486 25.629 43.985 25.962l27.672 107.367c-15.7 9.064-25.61 25.856-25.957 43.982l-306.831 79.082c-8.936-15.507-25.487-25.626-43.986-25.96l-27.668-107.351c7.682-4.414 14.129-10.761 18.754-18.598s7.065-16.549 7.216-25.407zm8.158-16.446-330.08 85.072c5.238 20.323-6.99 41.045-27.313 46.281l33.664 130.619c3.182-.82 6.371-1.212 9.511-1.212 16.918.001 32.353 11.384 36.771 28.525l330.08-85.073c-5.238-20.322 6.989-41.043 27.313-46.281l-33.665-130.617c-3.181.82-6.37 1.211-9.51 1.211-16.918 0-32.354-11.384-36.771-28.525" fill="#339152"/><path d="m141.211 441.965 4.35 16.881-1.205.311c-4.87 1.255-9.083 3.01-12.635 5.261-3.555 2.253-6.44 4.9-8.657 7.941-2.216 3.043-3.76 6.441-4.633 10.194-.873 3.756-1.063 7.763-.57 12.022 1.848-3.199 4.313-6.015 7.39-8.447 3.081-2.432 6.843-4.222 11.286-5.367 4.869-1.255 9.378-1.421 13.523-.499 4.147.926 7.86 2.665 11.142 5.223 3.28 2.559 6.081 5.796 8.402 9.709 2.321 3.916 4.095 8.261 5.326 13.036 1.292 5.013 1.679 9.892 1.164 14.638-.517 4.747-1.88 9.096-4.089 13.042-2.21 3.948-5.22 7.385-9.03 10.308-3.81 2.922-8.363 5.067-13.658 6.432-5.532 1.426-10.803 1.713-15.813.861s-9.553-2.682-13.629-5.488c-4.077-2.806-7.627-6.505-10.65-11.096-3.025-4.591-5.316-9.912-6.876-15.965l-2.047-7.943c-2.145-8.321-2.933-16.263-2.359-23.822.573-7.561 2.458-14.424 5.659-20.595 3.202-6.169 7.704-11.489 13.51-15.962 5.807-4.471 12.868-7.779 21.192-9.924zm-6.674 56.859c-1.845.475-3.482 1.162-4.914 2.061-1.433.898-2.675 1.95-3.726 3.153-1.05 1.205-1.913 2.511-2.583 3.919-.672 1.408-1.125 2.823-1.363 4.246l1.59 6.17c.938 3.642 2.139 6.736 3.602 9.282 1.463 2.549 3.104 4.559 4.919 6.031 1.819 1.474 3.8 2.413 5.948 2.816 2.144.405 4.352.315 6.622-.27 2.222-.573 4.122-1.566 5.7-2.981 1.576-1.414 2.789-3.113 3.639-5.099.85-1.983 1.335-4.213 1.452-6.69.119-2.475-.169-5.061-.864-7.756-.707-2.741-1.699-5.171-2.975-7.289-1.277-2.115-2.794-3.842-4.55-5.18-1.757-1.337-3.688-2.228-5.793-2.668s-4.34-.354-6.704.255" fill="#339152"/><path d="m254.263 478.555c1.999 7.756 2.874 14.627 2.628 20.614-.246 5.989-1.431 11.172-3.556 15.552-2.122 4.38-5.108 7.961-8.954 10.741-3.847 2.781-8.37 4.843-13.571 6.184-5.202 1.341-10.158 1.722-14.87 1.147-4.711-.575-9.067-2.264-13.067-5.066-4-2.8-7.565-6.761-10.7-11.877-3.134-5.117-5.7-11.552-7.699-19.307l-4.625-17.944c-1.998-7.754-2.875-14.625-2.627-20.614.246-5.987 1.444-11.162 3.599-15.525 2.153-4.361 5.142-7.93 8.964-10.706 3.824-2.774 8.335-4.833 13.537-6.174 5.2-1.341 10.157-1.722 14.869-1.147 4.71.575 9.062 2.253 13.057 5.03 3.995 2.778 7.558 6.726 10.692 11.843s5.7 11.553 7.698 19.307zm-25.872-15.569c-1.182-4.586-2.494-8.357-3.936-11.314-1.443-2.955-3.039-5.229-4.784-6.822-1.747-1.593-3.628-2.581-5.644-2.969-2.017-.389-4.158-.291-6.428.295-2.27.585-4.183 1.531-5.735 2.84-1.555 1.308-2.7 3.077-3.435 5.31-.737 2.231-1.019 4.989-.854 8.275.166 3.284.839 7.222 2.021 11.808l6.069 23.547c1.195 4.635 2.531 8.45 4.01 11.446 1.479 2.997 3.084 5.319 4.82 6.964 1.736 1.646 3.61 2.662 5.626 3.05 2.017.388 4.16.29 6.429-.295 2.27-.585 4.193-1.534 5.771-2.849 1.578-1.314 2.716-3.107 3.416-5.381.701-2.272.961-5.075.783-8.408-.179-3.332-.865-7.314-2.06-11.949z" fill="#339152"/><path d="m337.599 457.076c1.999 7.756 2.874 14.627 2.627 20.614-.245 5.989-1.43 11.173-3.555 15.552-2.122 4.38-5.108 7.961-8.954 10.741-3.848 2.78-8.37 4.843-13.571 6.183-5.202 1.342-10.159 1.723-14.87 1.147-4.711-.574-9.067-2.264-13.067-5.065-4-2.8-7.566-6.76-10.701-11.877-3.134-5.117-5.699-11.552-7.698-19.308l-4.625-17.943c-1.998-7.754-2.875-14.625-2.627-20.614.245-5.988 1.444-11.162 3.599-15.525 2.153-4.361 5.142-7.931 8.964-10.706 3.824-2.774 8.335-4.833 13.536-6.174s10.158-1.722 14.869-1.147c4.711.576 9.063 2.253 13.058 5.03 3.993 2.778 7.559 6.726 10.692 11.842 3.134 5.118 5.7 11.554 7.698 19.308zm-25.872-15.568c-1.182-4.586-2.494-8.358-3.936-11.314-1.443-2.957-3.039-5.229-4.784-6.822-1.747-1.592-3.628-2.582-5.644-2.97-2.018-.388-4.159-.29-6.429.296-2.269.584-4.182 1.531-5.734 2.839-1.555 1.309-2.7 3.078-3.435 5.31-.737 2.232-1.02 4.99-.854 8.275s.839 7.223 2.021 11.808l6.068 23.546c1.195 4.635 2.531 8.45 4.01 11.446 1.479 2.998 3.084 5.32 4.82 6.965 1.736 1.646 3.61 2.662 5.626 3.05s4.159.29 6.429-.296c2.27-.584 4.192-1.534 5.771-2.849 1.577-1.313 2.717-3.107 3.416-5.38.7-2.272.961-5.075.783-8.408-.179-3.332-.865-7.314-2.06-11.949z" fill="#339152"/><path clip-path="url(#j)" d="m-25.488 371.009h454.165v254.649h-454.165z" fill="#1d1d1b" opacity=".2" transform="matrix(.9684 -.2496 .2496 .9684 -117.9935 66.0834)"/><path d="m-19.793 377.698h441.261v238.907h-441.261z" fill="#cee0bd" transform="matrix(.9684 -.2496 .2496 .9684 -117.7223 65.8569)"/><g fill="#339152"><path d="m331.402 368.954c8.936 15.509 25.487 25.628 43.986 25.961l27.672 107.368c-15.701 9.064-25.611 25.856-25.957 43.982l-306.832 79.083c-8.936-15.507-25.487-25.626-43.986-25.96l-27.672-107.369c15.701-9.063 25.611-25.856 25.957-43.982zm8.159-16.445-330.081 85.072c5.238 20.323-6.99 41.044-27.313 46.281l33.665 130.618c3.182-.82 6.371-1.212 9.511-1.212 16.918.001 32.353 11.384 36.771 28.524l330.08-85.072c-5.238-20.322 6.99-41.043 27.313-46.281l-33.665-130.617c-3.182.82-6.37 1.211-9.511 1.211-16.918 0-32.352-11.384-36.77-28.524"/><path d="m106.207 582.903-20.497 5.284-20.364-79.01-22.513 13.895-4.296-16.667 38.818-26.342 2.2-.567z"/><path d="m129.715 522.689-7.569-54.02 57.875-14.916 4.405 17.093-41.065 10.584 3.167 22.857c.613-.562 1.38-1.199 2.305-1.918.924-.717 2.008-1.45 3.253-2.2 1.243-.748 2.624-1.457 4.141-2.126 1.516-.666 3.126-1.222 4.829-1.66 4.964-1.28 9.601-1.63 13.909-1.052 4.311.58 8.196 2.01 11.658 4.296 3.464 2.282 6.459 5.395 8.987 9.332 2.527 3.937 4.492 8.625 5.893 14.061 1.183 4.587 1.6 9.144 1.254 13.669-.347 4.527-1.555 8.746-3.621 12.656-2.068 3.912-5.045 7.378-8.932 10.396-3.885 3.018-8.783 5.29-14.694 6.813-4.444 1.145-8.922 1.58-13.429 1.305-4.508-.274-8.702-1.286-12.581-3.035-3.881-1.748-7.294-4.233-10.242-7.457-2.949-3.223-5.109-7.204-6.481-11.944l20.284-5.228c1.534 4.193 3.896 7.152 7.09 8.875 3.192 1.725 6.868 2.049 11.03.977 2.599-.67 4.681-1.736 6.248-3.199 1.562-1.461 2.705-3.193 3.424-5.193.72-2.001 1.05-4.242.991-6.723-.06-2.48-.436-5.068-1.13-7.763-.695-2.696-1.663-5.081-2.904-7.156-1.241-2.074-2.75-3.728-4.531-4.959-1.78-1.229-3.821-2.014-6.127-2.354-2.307-.338-4.877-.142-7.714.589-1.892.487-3.494 1.078-4.802 1.768-1.31.69-2.442 1.436-3.394 2.236-.955.801-1.756 1.65-2.406 2.548-.652.899-1.24 1.795-1.767 2.687z"/><path d="m281.591 492.168c1.999 7.755 2.874 14.626 2.627 20.614-.246 5.989-1.431 11.173-3.556 15.552-2.122 4.38-5.107 7.961-8.954 10.741s-8.37 4.843-13.571 6.183c-5.202 1.341-10.158 1.723-14.87 1.147-4.711-.575-9.067-2.264-13.067-5.065s-7.565-6.76-10.7-11.878c-3.134-5.116-5.7-11.552-7.699-19.307l-4.625-17.944c-1.998-7.754-2.874-14.624-2.627-20.613.246-5.988 1.445-11.163 3.599-15.526 2.154-4.361 5.142-7.93 8.966-10.706 3.822-2.773 8.333-4.832 13.535-6.173 5.201-1.341 10.157-1.722 14.87-1.147 4.711.576 9.062 2.253 13.056 5.029 3.995 2.779 7.558 6.727 10.692 11.843 3.135 5.118 5.701 11.554 7.699 19.308zm-25.871-15.569c-1.182-4.585-2.496-8.357-3.937-11.313-1.444-2.957-3.038-5.23-4.784-6.822-1.748-1.592-3.628-2.582-5.644-2.97-2.018-.388-4.159-.291-6.429.295-2.269.585-4.183 1.531-5.734 2.84-1.555 1.309-2.7 3.078-3.436 5.31-.735 2.232-1.019 4.99-.854 8.275.167 3.285.84 7.223 2.022 11.808l6.068 23.547c1.195 4.635 2.531 8.45 4.01 11.446 1.479 2.998 3.084 5.32 4.821 6.965 1.735 1.646 3.609 2.662 5.626 3.049 2.016.389 4.16.29 6.429-.295 2.27-.585 4.192-1.534 5.771-2.849 1.577-1.314 2.717-3.107 3.415-5.38.701-2.273.961-5.076.784-8.409-.18-3.331-.864-7.314-2.06-11.949z"/><path d="m364.926 470.689c1.999 7.755 2.874 14.626 2.628 20.613-.246 5.99-1.431 11.174-3.556 15.552-2.122 4.38-5.107 7.961-8.954 10.741-3.848 2.781-8.37 4.844-13.571 6.184-5.202 1.341-10.158 1.723-14.87 1.147-4.711-.575-9.066-2.264-13.066-5.065s-7.565-6.76-10.7-11.878c-3.134-5.116-5.7-11.552-7.699-19.307l-4.625-17.944c-1.998-7.754-2.874-14.625-2.627-20.614.246-5.987 1.445-11.162 3.599-15.525 2.153-4.361 5.142-7.93 8.964-10.706 3.823-2.773 8.334-4.832 13.536-6.174 5.201-1.34 10.157-1.721 14.87-1.147 4.71.577 9.062 2.254 13.057 5.03 3.994 2.779 7.558 6.727 10.691 11.843 3.135 5.118 5.7 11.553 7.698 19.307zm-25.871-15.569c-1.182-4.585-2.495-8.357-3.938-11.313s-3.037-5.23-4.783-6.822c-1.747-1.592-3.628-2.582-5.645-2.97-2.017-.389-4.158-.291-6.428.295-2.27.585-4.183 1.531-5.734 2.84-1.555 1.308-2.699 3.078-3.436 5.31-.736 2.232-1.02 4.99-.854 8.275s.841 7.222 2.022 11.808l6.068 23.547c1.194 4.635 2.53 8.45 4.01 11.446 1.479 2.998 3.084 5.32 4.82 6.964 1.735 1.646 3.609 2.662 5.627 3.05 2.016.389 4.159.29 6.429-.295s4.191-1.534 5.771-2.849c1.577-1.314 2.717-3.107 3.415-5.381.701-2.272.961-5.075.783-8.408-.179-3.331-.865-7.314-2.06-11.949z"/></g><path clip-path="url(#k)" d="m161.389 339.735h80.316v290.22h-80.316z" fill="#1d1d1b" opacity=".2" transform="matrix(.9684 -.2496 .2496 .9684 -114.6283 65.6445)"/><path d="m151.705 342.231h80.316v290.22h-80.316z" fill="#918a64" transform="matrix(.9684 -.2496 .2496 .9684 -115.5578 63.3065)"/><path clip-path="url(#l)" d="m92.681-34.553h454.165v254.649h-454.165z" fill="#1d1d1b" opacity=".2" transform="matrix(.9504 .311 -.311 .9504 44.7093 -94.8466)"/><path d="m99.132-28.086h441.26v238.906h-441.26z" fill="#cee0bd" transform="matrix(.9504 .311 -.311 .9504 44.2722 -94.9152)"/><path d="m197.671-44.915 301.122 98.536c-.416 8.849 1.462 17.699 5.575 25.816 4.115 8.117 10.144 14.863 17.526 19.759l-34.477 105.361c-.785-.035-1.571-.053-2.358-.053-17.714 0-33.766 8.911-43.207 23.144l-301.138-98.54c.815-18.111-8.001-35.504-23.09-45.553l34.482-105.379c.785.036 1.571.054 2.358.054 17.715 0 33.766-8.911 43.207-23.145m-7.097-16.937c-5.243 16.022-20.119 26.192-36.109 26.192-3.915 0-7.901-.61-11.825-1.894l-41.95 128.196c19.946 6.527 30.824 27.988 24.297 47.934l323.962 106.01c5.243-16.023 20.119-26.192 36.109-26.192 3.915 0 7.901.61 11.825 1.894l41.949-128.197c-19.946-6.526-30.824-27.987-24.298-47.933z" fill="#339152"/><path d="m274.014 25.606-5.422 16.566-1.183-.387c-4.78-1.564-9.275-2.353-13.482-2.37-4.208-.014-8.064.663-11.57 2.033-3.505 1.371-6.636 3.404-9.392 6.097-2.757 2.695-5.075 5.969-6.952 9.824 3.279-1.701 6.871-2.747 10.775-3.14 3.905-.391 8.038.126 12.4 1.553 4.779 1.564 8.668 3.852 11.665 6.861 2.996 3.012 5.19 6.476 6.577 10.398 1.388 3.922 2.006 8.158 1.854 12.705-.152 4.55-.996 9.167-2.529 13.854-1.611 4.92-3.911 9.24-6.9 12.962-2.992 3.722-6.481 6.653-10.468 8.79-3.987 2.138-8.374 3.412-13.158 3.824s-9.776-.232-14.972-1.933c-5.43-1.776-10.026-4.372-13.79-7.787s-6.607-7.402-8.532-11.963c-1.924-4.559-2.924-9.587-3-15.084-.077-5.497.857-11.213 2.8-17.155l2.552-7.797c2.672-8.166 6.284-15.282 10.838-21.344 4.552-6.063 9.837-10.832 15.856-14.309 6.018-3.476 12.677-5.535 19.978-6.179 7.299-.64 15.033.373 23.201 3.046zm-36.235 44.322c-1.811-.592-3.562-.896-5.252-.909-1.69-.014-3.303.204-4.837.652-1.534.449-2.964 1.086-4.286 1.911-1.324.827-2.469 1.775-3.436 2.845l-1.981 6.056c-1.17 3.574-1.823 6.829-1.962 9.762-.139 2.934.163 5.512.9 7.731.738 2.22 1.902 4.078 3.494 5.574 1.589 1.497 3.5 2.609 5.727 3.339 2.182.714 4.317.899 6.407.556 2.09-.344 4.029-1.121 5.813-2.337 1.784-1.214 3.392-2.832 4.825-4.857 1.433-2.021 2.582-4.356 3.448-7.002.88-2.69 1.352-5.271 1.416-7.743.064-2.471-.286-4.743-1.045-6.815-.76-2.073-1.909-3.862-3.445-5.367-1.538-1.504-3.466-2.636-5.786-3.396" fill="#339152"/><path d="m349.585 117.304c-2.49 7.611-5.452 13.873-8.884 18.786-3.433 4.915-7.221 8.645-11.368 11.192-4.147 2.548-8.591 3.958-13.328 4.231-4.739.271-9.661-.426-14.767-2.096-5.105-1.671-9.486-4.017-13.148-7.039-3.66-3.02-6.422-6.789-8.283-11.303-1.865-4.513-2.738-9.77-2.624-15.77.113-5.999 1.416-12.804 3.906-20.415l5.763-17.612c2.491-7.61 5.451-13.872 8.884-18.787 3.431-4.913 7.227-8.628 11.391-11.146 4.163-2.516 8.602-3.915 13.318-4.196 4.716-.28 9.625.414 14.73 2.084 5.104 1.671 9.487 4.018 13.148 7.039 3.66 3.022 6.425 6.778 8.296 11.268 1.87 4.492 2.748 9.736 2.635 15.735-.114 6.001-1.416 12.806-3.906 20.417zm-13.42-27.049c1.473-4.5 2.396-8.387 2.772-11.654.375-3.268.256-6.042-.357-8.325-.615-2.282-1.667-4.128-3.158-5.541s-3.349-2.483-5.576-3.211c-2.228-.73-4.349-.961-6.361-.695-2.014.265-3.931 1.141-5.753 2.625-1.822 1.485-3.547 3.656-5.176 6.514-1.628 2.858-3.18 6.539-4.652 11.039l-7.563 23.11c-1.489 4.549-2.417 8.484-2.784 11.805-.369 3.323-.264 6.144.313 8.464.576 2.321 1.609 4.187 3.1 5.599 1.49 1.413 3.349 2.484 5.576 3.212 2.228.73 4.359.964 6.397.706 2.035-.257 3.962-1.156 5.774-2.695 1.814-1.538 3.542-3.76 5.187-6.664 1.644-2.904 3.21-6.63 4.698-11.179z" fill="#339152"/><path d="m431.377 144.067c-2.49 7.611-5.452 13.874-8.884 18.787-3.433 4.914-7.222 8.644-11.368 11.191-4.147 2.549-8.591 3.959-13.328 4.232-4.739.271-9.661-.426-14.767-2.097-5.105-1.67-9.486-4.017-13.148-7.038-3.661-3.02-6.422-6.788-8.284-11.303-1.863-4.513-2.736-9.77-2.623-15.77.113-5.999 1.416-12.804 3.906-20.415l5.763-17.612c2.491-7.61 5.451-13.872 8.885-18.786 3.431-4.914 7.227-8.629 11.391-11.146 4.163-2.516 8.603-3.915 13.318-4.196 4.715-.28 9.625.414 14.73 2.084 5.104 1.67 9.486 4.018 13.148 7.039 3.66 3.022 6.425 6.778 8.296 11.268 1.87 4.492 2.748 9.736 2.635 15.735-.114 6.001-1.416 12.806-3.906 20.416zm-13.42-27.047c1.473-4.501 2.396-8.386 2.773-11.654.375-3.268.255-6.042-.358-8.325-.615-2.282-1.667-4.128-3.158-5.541s-3.349-2.483-5.576-3.211c-2.228-.729-4.349-.961-6.361-.695-2.014.265-3.932 1.141-5.753 2.625-1.823 1.485-3.547 3.656-5.176 6.514-1.628 2.858-3.18 6.539-4.652 11.039l-7.563 23.11c-1.489 4.549-2.417 8.484-2.784 11.805-.368 3.322-.264 6.144.313 8.464.576 2.321 1.607 4.186 3.1 5.599 1.49 1.414 3.349 2.484 5.576 3.212 2.228.729 4.359.964 6.396.706s3.963-1.156 5.775-2.695c1.814-1.538 3.542-3.76 5.187-6.664 1.644-2.903 3.21-6.63 4.698-11.179z" fill="#339152"/><path clip-path="url(#m)" d="m67.452-21.764h454.165v254.649h-454.165z" fill="#1d1d1b" opacity=".2" transform="matrix(.9504 .311 -.311 .9504 47.4352 -86.3655)"/><path d="m73.902-15.297h441.26v238.906h-441.26z" fill="#cee0bd" transform="matrix(.9504 .311 -.311 .9504 46.9987 -86.435)"/><path d="m172.442-32.126 301.121 98.536c-.416 8.849 1.462 17.699 5.576 25.816 4.115 8.117 10.143 14.863 17.526 19.759l-34.478 105.361c-.785-.035-1.57-.053-2.357-.053-17.715 0-33.767 8.911-43.207 23.144l-301.122-98.535c.416-8.849-1.461-17.699-5.576-25.816-4.114-8.117-10.142-14.863-17.526-19.759l34.477-105.362c.785.036 1.571.054 2.358.054 17.715 0 33.766-8.911 43.208-23.145m-7.098-16.937c-5.243 16.022-20.119 26.192-36.109 26.192-3.915 0-7.901-.611-11.825-1.894l-41.949 128.196c19.946 6.527 30.824 27.988 24.297 47.934l323.963 106.01c5.243-16.023 20.119-26.192 36.109-26.192 3.915 0 7.9.61 11.824 1.894l41.949-128.197c-19.946-6.526-30.824-27.987-24.297-47.933z" fill="#339152"/><path d="m168.639 125.53-20.118-6.583 25.375-77.546-26.451-.41 5.352-16.358 46.895-1.301 2.158.706z" fill="#339152"/><path d="m220.866 87.442 22.704-49.598 56.802 18.587-5.49 16.777-40.304-13.189-9.636 20.968c.818-.144 1.809-.268 2.975-.375 1.163-.107 2.472-.142 3.926-.104 1.45.039 2.996.185 4.633.439s3.292.653 4.963 1.2c4.873 1.594 8.97 3.795 12.289 6.602 3.321 2.808 5.825 6.106 7.513 9.896 1.688 3.788 2.538 8.024 2.548 12.701.011 4.679-.858 9.688-2.604 15.024-1.472 4.502-3.574 8.566-6.302 12.194s-6.019 6.534-9.865 8.716c-3.848 2.183-8.223 3.502-13.123 3.952s-10.25-.271-16.051-2.17c-4.362-1.428-8.37-3.471-12.02-6.13-3.65-2.658-6.641-5.767-8.968-9.33-2.33-3.562-3.867-7.494-4.616-11.799-.75-4.303-.428-8.821.967-13.555l19.908 6.514c-.964 4.361-.565 8.126 1.198 11.297 1.761 3.171 4.685 5.425 8.769 6.761 2.552.835 4.881 1.058 6.986.668 2.106-.39 4-1.233 5.684-2.532 1.683-1.299 3.169-3.01 4.453-5.133 1.286-2.121 2.361-4.506 3.226-7.151.867-2.645 1.335-5.175 1.408-7.593.069-2.416-.312-4.621-1.15-6.617s-2.135-3.756-3.896-5.284c-1.762-1.526-4.033-2.745-6.818-3.656-1.856-.607-3.523-.973-4.999-1.096-1.475-.123-2.83-.103-4.063.057-1.235.162-2.368.446-3.4.853-1.033.407-2.01.844-2.934 1.313z" fill="#339152"/><path d="m365.286 143.486c-2.49 7.611-5.452 13.873-8.884 18.786-3.433 4.914-7.221 8.645-11.368 11.191-4.147 2.549-8.591 3.959-13.328 4.232-4.74.272-9.661-.426-14.766-2.096-5.106-1.671-9.488-4.018-13.149-7.039-3.66-3.02-6.422-6.788-8.283-11.303-1.865-4.513-2.738-9.77-2.624-15.77.114-5.999 1.416-12.804 3.906-20.415l5.763-17.612c2.49-7.61 5.451-13.872 8.884-18.786 3.431-4.914 7.229-8.629 11.392-11.146 4.163-2.516 8.603-3.914 13.318-4.195 4.716-.281 9.625.413 14.73 2.083 5.104 1.67 9.487 4.018 13.148 7.039 3.66 3.022 6.425 6.778 8.296 11.268 1.87 4.492 2.748 9.736 2.634 15.736-.113 6-1.416 12.805-3.906 20.416zm-13.42-27.049c1.473-4.5 2.396-8.386 2.773-11.653.375-3.269.256-6.043-.358-8.326-.615-2.282-1.668-4.128-3.158-5.541-1.491-1.413-3.349-2.483-5.576-3.211-2.228-.729-4.349-.961-6.361-.695-2.015.265-3.931 1.141-5.753 2.625-1.822 1.486-3.546 3.656-5.176 6.514-1.628 2.858-3.18 6.539-4.652 11.039l-7.563 23.11c-1.489 4.549-2.417 8.485-2.784 11.805-.368 3.322-.265 6.144.313 8.465.577 2.32 1.609 4.185 3.101 5.598 1.49 1.414 3.35 2.484 5.577 3.212 2.228.729 4.358.965 6.396.706 2.035-.258 3.962-1.155 5.774-2.695 1.813-1.538 3.542-3.76 5.187-6.664 1.644-2.903 3.21-6.63 4.699-11.179z" fill="#339152"/><path d="m447.078 170.25c-2.49 7.611-5.452 13.873-8.884 18.786-3.433 4.915-7.221 8.645-11.368 11.192-4.146 2.548-8.591 3.958-13.328 4.231-4.74.271-9.661-.426-14.767-2.096-5.105-1.671-9.487-4.017-13.148-7.039-3.66-3.02-6.422-6.789-8.284-11.303-1.863-4.513-2.736-9.77-2.623-15.77.113-5.999 1.416-12.804 3.906-20.415l5.763-17.612c2.49-7.61 5.451-13.872 8.884-18.787 3.431-4.913 7.228-8.628 11.392-11.145 4.163-2.516 8.603-3.915 13.318-4.196 4.716-.28 9.625.414 14.73 2.084 5.104 1.671 9.487 4.017 13.148 7.039 3.66 3.022 6.425 6.778 8.296 11.268 1.87 4.492 2.747 9.736 2.634 15.735-.113 6.001-1.416 12.805-3.906 20.417zm-13.42-27.048c1.473-4.5 2.396-8.387 2.773-11.654.375-3.268.255-6.042-.358-8.325-.615-2.282-1.668-4.128-3.158-5.541-1.491-1.413-3.349-2.483-5.576-3.211-2.228-.73-4.349-.961-6.361-.695-2.015.265-3.931 1.141-5.753 2.625-1.822 1.485-3.547 3.656-5.176 6.514s-3.18 6.539-4.652 11.039l-7.563 23.11c-1.489 4.549-2.417 8.484-2.784 11.805-.368 3.323-.265 6.144.313 8.464.577 2.321 1.608 4.187 3.101 5.599 1.49 1.413 3.349 2.484 5.576 3.212 2.228.73 4.359.964 6.397.706 2.034-.257 3.962-1.156 5.773-2.695 1.814-1.538 3.543-3.76 5.188-6.664 1.644-2.904 3.21-6.63 4.698-11.179z" fill="#339152"/><path clip-path="url(#n)" d="m272.874-43.17h80.316v290.22h-80.316z" fill="#1d1d1b" opacity=".2" transform="matrix(.9504 .311 -.311 .9504 47.225 -92.2956)"/><path d="m263.369-46.28h80.316v290.22h-80.316z" fill="#918a64" transform="matrix(.9504 .311 -.311 .9504 45.7876 -89.4954)"/><path clip-path="url(#o)" d="m100.067 148.488h454.167v254.649h-454.167z" fill="#1d1d1b" opacity=".2"/><path d="m106.082 155.025h441.26v238.906h-441.26z" fill="#cee0bd"/><path d="m485.144 182.926c4.857 17.466 18.646 31.254 36.111 36.112v110.881c-17.466 4.858-31.254 18.646-36.111 36.112h-316.863c-4.858-17.466-18.646-31.254-36.113-36.112v-110.881c17.467-4.858 31.255-18.646 36.113-36.112zm12.002-13.89h-340.867c0 20.987-17.014 38-38 38v134.886c20.986 0 38 17.013 38 38h340.866c0-20.987 17.013-38 38-38v-134.886c-20.987 0-37.999-17.014-37.999-38" fill="#339152"/><path d="m262.77 226.218v17.432h-1.245c-5.029 0-9.547.648-13.55 1.941-4.004 1.294-7.459 3.138-10.364 5.53-2.905 2.393-5.249 5.299-7.031 8.716-1.782 3.418-2.966 7.251-3.552 11.499 2.588-2.637 5.677-4.748 9.265-6.336 3.59-1.586 7.678-2.38 12.268-2.38 5.029 0 9.436.965 13.22 2.893 3.784 1.93 6.946 4.541 9.485 7.837 2.538 3.296 4.443 7.13 5.713 11.499 1.27 4.37 1.905 9.021 1.905 13.952 0 5.177-.843 9.998-2.527 14.466-1.685 4.468-4.091 8.339-7.215 11.609-3.125 3.271-6.897 5.848-11.316 7.727s-9.363 2.82-14.831 2.82c-5.713 0-10.889-1.038-15.527-3.113-4.64-2.074-8.582-4.98-11.83-8.716-3.247-3.735-5.761-8.203-7.543-13.403-1.783-5.2-2.673-10.925-2.673-17.176v-8.203c0-8.593 1.219-16.479 3.662-23.657 2.441-7.178 5.98-13.354 10.62-18.53 4.639-5.175 10.327-9.203 17.065-12.085 6.739-2.881 14.404-4.322 22.998-4.322zm-20.654 53.394c-1.904 0-3.662.256-5.273.769-1.612.513-3.077 1.221-4.395 2.124-1.318.904-2.478 1.954-3.479 3.149-1.001 1.198-1.794 2.454-2.38 3.772v6.373c0 3.76.39 7.057 1.172 9.888.78 2.832 1.868 5.188 3.258 7.067 1.393 1.881 3.076 3.285 5.055 4.212 1.977.928 4.138 1.392 6.481 1.392 2.295 0 4.382-.487 6.263-1.465 1.879-.977 3.479-2.318 4.797-4.028s2.344-3.747 3.076-6.116c.733-2.367 1.099-4.943 1.099-7.727 0-2.831-.355-5.431-1.062-7.8-.709-2.368-1.747-4.419-3.113-6.152-1.367-1.733-3.016-3.077-4.943-4.029-1.93-.953-4.115-1.429-6.556-1.429" fill="#339152"/><path d="m363.112 289.866c0 8.009-.867 14.881-2.601 20.618-1.733 5.738-4.174 10.463-7.324 14.173-3.148 3.711-6.934 6.434-11.352 8.166-4.42 1.732-9.314 2.601-14.686 2.601s-10.268-.868-14.686-2.601c-4.419-1.732-8.215-4.455-11.389-8.166-3.175-3.71-5.64-8.435-7.398-14.173-1.757-5.736-2.636-12.609-2.636-20.618v-18.53c0-8.007.866-14.879 2.6-20.618 1.733-5.737 4.186-10.448 7.361-14.135 3.174-3.687 6.958-6.396 11.353-8.13 4.395-1.733 9.276-2.6 14.648-2.6 5.371 0 10.266.867 14.686 2.6 4.418 1.734 8.214 4.443 11.389 8.13 3.174 3.687 5.639 8.398 7.397 14.135 1.758 5.739 2.637 12.611 2.637 20.618v18.53zm-21.167-21.533c0-4.735-.33-8.716-.988-11.938-.66-3.223-1.637-5.823-2.93-7.801-1.295-1.977-2.869-3.406-4.725-4.284-1.856-.879-3.955-1.319-6.299-1.319s-4.432.44-6.262 1.319c-1.832.878-3.382 2.307-4.65 4.284-1.271 1.978-2.234 4.578-2.895 7.801-.658 3.222-.988 7.203-.988 11.938v24.316c0 4.787.34 8.815 1.025 12.086.684 3.271 1.659 5.921 2.93 7.946 1.27 2.026 2.831 3.479 4.688 4.358 1.855.879 3.955 1.318 6.299 1.318s4.441-.439 6.299-1.318c1.855-.879 3.406-2.332 4.65-4.358 1.246-2.025 2.197-4.675 2.857-7.946.658-3.271.988-7.299.988-12.086v-24.316z" fill="#339152"/><path d="m449.172 289.866c0 8.009-.867 14.881-2.601 20.618-1.733 5.738-4.174 10.463-7.324 14.173-3.148 3.711-6.934 6.434-11.352 8.166-4.42 1.732-9.314 2.601-14.686 2.601s-10.267-.868-14.685-2.601c-4.42-1.732-8.216-4.455-11.39-8.166-3.175-3.71-5.64-8.435-7.397-14.173-1.758-5.736-2.637-12.609-2.637-20.618v-18.53c0-8.007.866-14.879 2.601-20.618 1.732-5.737 4.186-10.448 7.36-14.135s6.958-6.396 11.353-8.13c4.395-1.733 9.276-2.6 14.648-2.6 5.371 0 10.266.867 14.686 2.6 4.418 1.734 8.214 4.443 11.389 8.13 3.174 3.687 5.64 8.398 7.397 14.135 1.758 5.739 2.637 12.611 2.637 20.618v18.53zm-21.167-21.533c0-4.735-.33-8.716-.988-11.938-.66-3.223-1.637-5.823-2.93-7.801-1.295-1.977-2.869-3.406-4.725-4.284-1.856-.879-3.955-1.319-6.299-1.319s-4.432.44-6.262 1.319c-1.832.878-3.382 2.307-4.65 4.284-1.271 1.978-2.234 4.578-2.895 7.801-.658 3.222-.988 7.203-.988 11.938v24.316c0 4.787.341 8.815 1.025 12.086s1.659 5.921 2.93 7.946c1.27 2.026 2.831 3.479 4.688 4.358 1.855.879 3.955 1.318 6.299 1.318s4.442-.439 6.299-1.318c1.855-.879 3.406-2.332 4.65-4.358 1.246-2.025 2.197-4.675 2.857-7.946.658-3.271.988-7.299.988-12.086v-24.316z" fill="#339152"/><path clip-path="url(#p)" d="m80.066 168.488h454.167v254.65h-454.167z" fill="#1d1d1b" opacity=".2"/><path d="m86.08 175.027h441.261v238.906h-441.261z" fill="#cee0bd"/><path d="m465.142 202.927c4.858 17.466 18.646 31.254 36.112 36.112v110.881c-17.466 4.859-31.254 18.646-36.112 36.113h-316.862c-4.859-17.467-18.646-31.254-36.113-36.113v-110.881c17.467-4.858 31.254-18.646 36.113-36.112zm12.002-13.89h-340.867c0 20.987-17.013 38-38 38v134.886c20.987 0 38 17.013 38 38h340.867c0-20.987 17.014-38 38-38v-134.886c-20.987 0-38-17.013-38-38" fill="#339152"/><path d="m193.696 353.958h-21.167v-81.591l-25.269 7.837v-17.212l44.165-15.821h2.271z" fill="#339152"/><path d="m231.489 301.517 6.152-54.199h59.766v17.652h-42.407l-2.637 22.924c.732-.39 1.636-.816 2.71-1.281 1.073-.464 2.307-.903 3.699-1.319 1.391-.414 2.904-.756 4.541-1.025 1.635-.268 3.332-.403 5.09-.403 5.127 0 9.705.818 13.732 2.454 4.03 1.636 7.435 3.991 10.218 7.068 2.783 3.076 4.907 6.837 6.372 11.278 1.465 4.444 2.198 9.474 2.198 15.088 0 4.737-.732 9.254-2.198 13.55-1.465 4.298-3.687 8.082-6.665 11.353-2.979 3.272-6.726 5.885-11.243 7.837-4.516 1.952-9.826 2.93-15.93 2.93-4.589 0-9.034-.695-13.33-2.087-4.297-1.392-8.105-3.417-11.425-6.079-3.322-2.661-6.006-5.92-8.057-9.778-2.051-3.856-3.149-8.251-3.296-13.184h20.947c.44 4.444 1.99 7.899 4.652 10.364 2.66 2.466 6.139 3.698 10.436 3.698 2.685 0 4.968-.513 6.849-1.538 1.879-1.025 3.417-2.417 4.613-4.175s2.075-3.845 2.637-6.262c.561-2.417.843-5.018.843-7.801s-.342-5.334-1.026-7.653c-.684-2.318-1.733-4.296-3.149-5.933-1.417-1.636-3.198-2.904-5.347-3.809-2.149-.903-4.687-1.355-7.617-1.355-1.953 0-3.65.172-5.091.513-1.44.342-2.722.781-3.845 1.317-1.124.538-2.112 1.161-2.965 1.868-.856.708-1.649 1.428-2.381 2.16z" fill="#339152"/><path d="m386.177 309.866c0 8.01-.867 14.881-2.601 20.618-1.733 5.738-4.174 10.462-7.324 14.172-3.148 3.712-6.934 6.435-11.352 8.167-4.42 1.732-9.314 2.6-14.686 2.6s-10.267-.867-14.686-2.6-8.215-4.455-11.389-8.167c-3.175-3.71-5.64-8.434-7.397-14.172-1.758-5.737-2.637-12.608-2.637-20.618v-18.53c0-8.007.866-14.879 2.601-20.618 1.732-5.737 4.186-10.448 7.36-14.135s6.958-6.396 11.353-8.13c4.395-1.733 9.277-2.6 14.648-2.6s10.266.867 14.686 2.6c4.418 1.734 8.214 4.443 11.389 8.13 3.174 3.687 5.64 8.398 7.397 14.135 1.758 5.739 2.637 12.611 2.637 20.618v18.53zm-21.167-21.533c0-4.735-.33-8.716-.988-11.938-.66-3.223-1.637-5.823-2.93-7.801-1.295-1.977-2.869-3.406-4.725-4.284-1.856-.879-3.955-1.319-6.299-1.319s-4.432.44-6.262 1.319c-1.832.878-3.382 2.307-4.65 4.284-1.271 1.978-2.234 4.578-2.895 7.801-.658 3.222-.988 7.203-.988 11.938v24.316c0 4.786.34 8.814 1.025 12.085.684 3.272 1.659 5.922 2.93 7.947 1.27 2.027 2.831 3.479 4.688 4.357 1.855.879 3.955 1.318 6.299 1.318s4.442-.439 6.299-1.318c1.855-.879 3.406-2.33 4.65-4.357 1.246-2.025 2.197-4.675 2.857-7.947.658-3.271.988-7.299.988-12.085v-24.316z" fill="#339152"/><path d="m472.236 309.866c0 8.01-.867 14.881-2.601 20.618-1.733 5.738-4.174 10.462-7.324 14.172-3.148 3.712-6.934 6.435-11.352 8.167-4.42 1.732-9.314 2.6-14.686 2.6s-10.268-.867-14.686-2.6c-4.419-1.732-8.215-4.455-11.389-8.167-3.175-3.71-5.64-8.434-7.397-14.172-1.758-5.737-2.637-12.608-2.637-20.618v-18.53c0-8.007.866-14.879 2.601-20.618 1.732-5.737 4.186-10.448 7.36-14.135s6.958-6.396 11.353-8.13c4.395-1.733 9.276-2.6 14.648-2.6 5.371 0 10.266.867 14.686 2.6 4.418 1.734 8.214 4.443 11.389 8.13 3.174 3.687 5.639 8.398 7.397 14.135 1.758 5.739 2.637 12.611 2.637 20.618v18.53zm-21.167-21.533c0-4.735-.33-8.716-.988-11.938-.66-3.223-1.637-5.823-2.93-7.801-1.295-1.977-2.869-3.406-4.725-4.284-1.856-.879-3.955-1.319-6.299-1.319s-4.432.44-6.262 1.319c-1.832.878-3.382 2.307-4.651 4.284-1.271 1.978-2.233 4.578-2.894 7.801-.658 3.222-.988 7.203-.988 11.938v24.316c0 4.786.34 8.814 1.025 12.085.684 3.272 1.659 5.922 2.93 7.947 1.27 2.027 2.831 3.479 4.688 4.357 1.855.879 3.955 1.318 6.299 1.318s4.441-.439 6.299-1.318c1.855-.879 3.406-2.33 4.65-4.357 1.246-2.025 2.197-4.675 2.857-7.947.658-3.271.988-7.299.988-12.085v-24.316z" fill="#339152"/><path clip-path="url(#q)" d="m284.998 139.4h80.316v290.22h-80.316z" fill="#1d1d1b" opacity=".2"/><path d="m274.998 139.4h80.316v290.22h-80.316z" fill="#918a64"/></svg>