<svg clip-rule="evenodd" fill-rule="evenodd" stroke-linejoin="round" stroke-miterlimit="2" viewBox="0 0 800 800" xmlns="http://www.w3.org/2000/svg"><path d="m0 0h841.9v595.3h-841.9z" fill="#fff" transform="scale(.950232 1.34386)"/><g fill="#e6e6e6"><path d="m617.5 124.1c68 23.1 131.7 86.9 134.8 169 2.9 82.8-35.6 160.5-147.3 199.2-113.9 39.7-404.3 49.5-463.9-61.2s-47.4-252.6 74.2-302.7c85.1-34.9 269.4-49.5 402.2-4.3z" fill-opacity=".3" fill-rule="nonzero" transform="translate(-21 102)"/><path d="m288.7 455.5h35.6v17.1h-35.6z" transform="matrix(-.863399 .504502 -.504502 -.863399 907.194 724.203)"/><path d="m157.3 297.1h17.1v35.6h-17.1z" transform="matrix(-.235098 .972001 -.972001 -.235098 733.993 186.741)"/><path d="m336.9 501.6h17.1v35.6h-17.1z" transform="matrix(-.347398 .937701 -.937701 -.347398 1287.11 231.706)"/><path d="m367.3 568.5h35.6v17.1h-35.6z" transform="matrix(-.719698 .694302 -.694302 -.719698 1269.68 666.431)"/><path d="m95.1 214.7h17.1v35.6h-17.1z" transform="matrix(-.619798 .784802 -.784802 -.619798 440.217 336.588)"/><path d="m-30.7 295.8h35.6v17.1h-35.6z" transform="matrix(-.437398 .899301 -.899301 -.437398 390.87 548.709)"/></g><g fill-rule="nonzero" transform="translate(-21 102)"><path d="m298.6 233.9s17.9 26.3-5.1 24.5-12.3-26.1-12.3-26.1z" fill="#ffd200"/><path d="m298.6 233.9s17.9 26.3-5.1 24.5-12.3-26.1-12.3-26.1z" fill="#24285b"/><g fill="#f4a28c"><path d="m296.5 232.5s1.8 8.8 1 15c-.4 2.5-2.5 4.3-5.1 3.9-3.1-.4-7-1.9-8.6-6.6l-3.7-7.6c-1.2-3.3-.2-6.8 2.5-8.9 4.7-4.1 13.1-1.2 13.9 4.2z"/><path d="m280.9 238.8-1.2 29.4 16.4-.5-5.8-21.4z"/><path d="m287.9 241.3s-.4-3.5-3.1-2.9-1.9 5.6 1.8 5.6z"/><path d="m297.5 238.2 2.9 3.1c.6.6.4 1.6-.2 1.9-.2.2-.4.2-.6.2l-3.3 1z"/></g><path d="m291.8 251c-2.1-.2-4.1-1.2-5.6-2.5 0 0 .8 5.3 7.4 9.9z" fill="#ce8172" fill-opacity=".31"/><path d="m297.8 221.6c2.5 1.9 4.1 4.9 4.1 8 0 2.7-1.2 5.6-5.8 6-9.5 1-12.6 1-12.6 1s10.5 25.9-8 23.9c-18.5-1.9-11.5-17.5-3.3-31.5 7.2-12.4 16.7-14.6 25.6-7.4z" fill="#24285b"/><path d="m557.1 207.4s-4.9 20.6-10.3 25.1l16 21.8 11.7-19.3s-8.2-9.5-5.6-28.2z" fill="#f4a28c"/><path d="m557.1 207.4s-4.9 20.6-10.3 25.1l16 21.8 11.7-19.3s-8.2-9.5-5.6-28.2z" fill-opacity=".09"/><path d="m551 189.6s-3.3 25.3 9.9 28 12.6-26.3 12.6-26.3 1.9-14.2-5.6-16.3-17.8-3.6-16.9 14.6z" fill="#f4a28c"/><path d="m550.6 195.5s-6.8-2.1-6.4 1.2c.2 3.5-1 8.2 7 6.4z" fill="#f4a28c"/><path d="m573 195.7s7-1.8 6.4 1.8c-.6 3.5.4 8.2-7.4 5.6z" fill="#f4a28c"/><path d="m550.6 195.5s3.1-3.7 6-12.6c0 0 18.5 6.2 24.5-5.8 0 0-5.8 1.6-11.7-4.9-5.8-6.4-31.7-8.6-22.4 22.6z" fill="#24285b"/><path d="m575.7 182.4s3.9 10.5-2.9 13.2l-1.6-13.6z" fill="#24285b"/><path d="m515 286.4-29.8-33.1c-26.3-29.2-33.3-70.7-17.9-106.7l17.7-41.5 12.8 5.1-9.5 41.9c-5.4 24.1 4.9 48.9 25.7 62.3l27.8 17.9z" fill="#61afff"/><path d="m515 286.4-29.8-33.1c-26.3-29.2-33.3-70.7-17.9-106.7l17.7-41.5 12.8 5.1-9.5 41.9c-5.4 24.1 4.9 48.9 25.7 62.3l27.8 17.9z" fill="#fff" fill-opacity=".46"/><path d="m498.2 110s3.9-17.9-2.9-22.8c-8-1.6-9.7 17.5-9.7 17.5z" fill="#f4a28c"/><path d="m492.8 527.5-1 12.5s-3.3 1.2-7.8 2.3c-6.8 1.8-16 3.7-20.4 1.8-7.2-3.1-3.9-11.3 4.5-10.9s13-8.8 13-8.8z" fill="#61afff"/><path d="m597 529.3s1.8 7.2-4.5 11.5c-5.3 3.7-7 8.8-1.2 11.1s21-8.4 21-8.4l-2.7-14.2z" fill="#61afff"/><path d="m483.4 266.8c-3.1 60 12.8 112.9 12.8 112.9l87.6 5.3 47.4-94.2c.4-.6.6-1.2 1-1.9 7.2-17.1-.8-36.8-17.9-43.9-27.6-11.7-56.9-18.1-86.9-18.7-23.3-.6-42.6 17.3-44 40.5z" fill="#61afff"/><path d="m583.8 384.8s-71.9-4.5-87.6-5.3c0 0-16.9 38.1-22.8 64.5-7.6 34.6 2.3 83.4 2.3 83.4l17.9 1s-.8-40.9 14-76.5c6.8-16.3 18.7-30.7 30.3-41.5 11.1 11.7 20 25.5 26.3 40.5l32.9 78.3h13z" fill="#24285b"/><path d="m621 310.6c-5.3 8.8-12.8 24.7-12.8 24.7s-4.7-9.9-18.1-33.5c-18.5-35.4-.4-50.3-.4-50.3s36.5 50.4 31.3 59.1z" fill-opacity=".08"/><path d="m604 292.2c35 27.4 76.4 101.4 76.4 101.4l13.8-5.6s-26.8-80-46-113.9c-7.6-13-19.5-23.5-33.8-29.6-16.5-7.4-35.4 9.1-28.6 25.3 2.9 7.3 8.3 14.9 18.2 22.4z" fill="#61afff"/><path d="m604 292.2c35 27.4 76.4 101.4 76.4 101.4l13.8-5.6s-26.8-80-46-113.9c-7.6-13-19.5-23.5-33.8-29.6-16.5-7.4-35.4 9.1-28.6 25.3 2.9 7.3 8.3 14.9 18.2 22.4z" fill="#fff" fill-opacity=".46"/><path d="m682.1 393c-3.5 14.6 3.3 16 9.1 14.4 5.8-1.4 2.1-19.1 2.1-19.1z" fill="#f4a28c"/><path d="m539.7 337.5c-12.1-49.3 3.3-110.6 3.3-110.6 11.1.4 22.2 2.1 32.9 5.3-18.8 43.3-36.2 105.3-36.2 105.3z" fill="#fff"/><path d="m555.5 223.6-4.1 36.8s12.1-33.8 13.8-35.2c5.6-.8 9.3 6.4 9.3 6.4s-19.8 29.6-24.7 41.5c-2.5-9.5-5.4-46.2-5.4-46.2z" fill="#24285b"/><path d="m277.6 277.7c11.9-14.8 35.6-11.9 43.1 5.3 2.3 5.8 3.7 11.9 3.9 18.1 1.6 37.4 20.8 57.5 38.5 51.1s26.3-37.7 26.3-37.7 14.4-10.3 17.7 0c3.1 10.1-10.1 10.1-10.1 10.1s-17.1 100.9-91.9 36.4c-47.5-40.4-39.7-68.3-27.5-83.3z" fill="#f4a28c"/><path d="m277.6 277.7c11.9-14.8 35.6-11.9 43.1 5.3 2.3 5.8 3.7 11.9 3.9 18.1 1.6 37.4 20.8 57.5 38.5 51.1s26.3-37.7 26.3-37.7 14.4-10.3 17.7 0c3.1 10.1-10.1 10.1-10.1 10.1s-17.1 100.9-91.9 36.4c-47.5-40.4-39.7-68.3-27.5-83.3z" fill-opacity=".08"/><path d="m280.9 264.2 7.2.4c8.4.4 16.3 2.7 23.5 7 14.8 8.8 37.4 25.7 34.2 47.2-4.8 31.7-28.8 60.2-28.8 60.2l-59-2.3c0-.2-49.7-115.2 22.9-112.5z" fill="#ffd200"/><path d="m261.1 397.1-16.2 51.9c-4.5 14.2-14.6 25.9-28 32.3l-23.9 11.4 1 7 35.8-7.8c16.9-5.1 30.9-16.9 38.7-32.9l25.3-51.8z" fill="#f4a28c"/><path d="m315 411.7 7.6 111.2-7 2.5-28.5-104z" fill="#f4a28c"/><path d="m322.6 522.9s1.6 6.6 6.6 8.6c5.1 2.1 2.5 9.3-5.1 4.9-2.3-1.4-4.5-2.9-6.6-4.7-1.9-1.6-4.3-2.5-6.6-2.9-1-.2-1.8-1-1.8-1.9-1-3.7 7.2-7 7.2-7z" fill="#ffd200"/><path d="m194.1 499.5s-5.1 3.9-4.9 8.9-7 5.6-6-2.3c.2-2.5.8-5.1 1.4-7.4s.6-4.7-.2-6.8c-.2-1 .2-1.8 1-2.3 2.7-2.3 8.8 3.5 8.8 3.5z" fill="#ffd200"/><path d="m255.8 371.6 63.7 3.3 10.1 88.4-103.1-4.3z" fill="#ffd200"/><path d="m287 339c19.1-40.3-12.6-63.1-12.6-63.1l-21.8 85.9 3.7 9.9h-.2l-29.3 87.3 29.6 1s.2-18.7 7.4-45.8c4.9-18.5 11.7-30.9 15.6-37-.4.1-8.6-4.2 7.6-38.2z" fill-opacity=".08"/><path d="m279.2 287c-1.6-16.1-21.6-22.8-32.5-10.9-6.6 7.2-11.9 17.9-12.1 33.7-.6 41-21.2 64.3-47.4 30.9-2.5-3.3-6.4-5.4-10.5-5.8-5.3-.4-11.9 0-12.5 4.5-1.2 8.8 5.6 9.1 10.3 8.6 2.5-.4 5.1.8 6.2 2.9 5.1 9.3 19.8 31.3 42.9 28 24.9-4 60.2-43.2 55.6-91.9z" fill="#f4a28c"/></g><circle cx="180" cy="201.8" fill="#ffd200" r="10.3"/><circle cx="673.8" cy="213" fill="#ffd200" r="15.2"/><path d="m385.2 117.4h2.2v27.6h-2.2z" fill="#e6e6e6"/><path d="m407.3 50.4c-2.2 0-4-1.8-4-4s1.8-4 4-4 4 1.8 4 4-1.8 4-4 4zm0-6.2c-1.2 0-2.1 1-2.1 2.1s1 2.1 2.1 2.1 2.1-1 2.1-2.1-1-2.1-2.1-2.1z" fill="#e6e6e6" fill-rule="nonzero" transform="translate(-21 102)"/><circle cx="386.3" cy="185.8" fill="#ffd200" r="38"/></svg>