<svg clip-rule="evenodd" fill-rule="evenodd" stroke-linejoin="round" stroke-miterlimit="2" viewBox="0 0 400 400" xmlns="http://www.w3.org/2000/svg"><path d="m0 0h406v306h-406z" fill="#fff" transform="scale(.985222 1.30719)"/><g fill-rule="nonzero" transform="translate(-3 47)"><path d="m135.1 195.1-8.2 13.3-12.5-3.3 1.8-16z" fill="#ffd200"/><path d="m232.9 59.1s.5 7.8-.9 12.9c-.6 2.1-2.7 3.3-4.8 2.7-2.6-.8-5.8-2.5-6.6-6.6l-2.2-6.8c-.6-2.9.7-5.9 3.2-7.4 4.5-3.1 11.3.5 11.3 5.2z" fill="#f4a28c"/><path d="m221.3 62-12.4 22.4 12.8 5.9 3.8-18.2z" fill="#f4a28c"/><path d="m217.6 57.8-.3 10c2.3 1 5 .1 6.4-2 1.5-2.1 1.5-4.9.1-7.1 3.9.7 7.8 1.1 11.8 1.2.8 0 2.6.4 2.7-3.1 0 0 1.4-5.7-2.5-7.1-3.9-1.5-18.5 0-18.2 8.1z" fill="#24285b"/><path d="m233 63.8 2.2 3.8-2.5.6z" fill="#f4a28c"/><path d="m130.1 227.6s-4.5 1.2-5.2 5.1-4.7 4.6-5.4 1c-.7-3.7 4.8-12.4 4.8-12.4l5.7.8z" fill="#61afff"/><path d="m168.7 195.1s4.8 36.5-38.7 26.3v6.7s10.7 8.9 28.3 5.1c6.5-1.5 12.6-4.5 17.8-8.7l17.5-13.9-2.4-11.9-15.3-7.2z" fill="#24285b"/></g><circle cx="300.8" cy="109" fill="#ffd200" r="30.1"/><circle cx="300.8" cy="109" fill-opacity=".08" r="30.1"/><path d="m201.9 128.8s29.4 39.4 52.2 52.1 66.5-55.3 66.5-55.3l-8.4-6.2-47.8 36.3s-27.5-61.8-48.4-61.1-23.2 22.9-14.1 34.2z" fill="#61afff" fill-rule="nonzero" transform="translate(-3 47)"/><path d="m201.9 128.8s29.4 39.4 52.2 52.1 66.5-55.3 66.5-55.3l-8.4-6.2-47.8 36.3s-27.5-61.8-48.4-61.1-23.2 22.9-14.1 34.2z" fill="#fff" fill-opacity=".46" fill-rule="nonzero" transform="translate(-3 47)"/><ellipse cx="193.8" cy="306.4" fill="#e6e6e6" fill-opacity=".45" rx="121.3" ry="17.4"/><g fill-rule="nonzero" transform="translate(-3 47)"><path d="m207.5 82.3 14.3 6.5c11.8 5.8 18.9 18.2 18 31.3-.5 7.8-2.2 11.5-4.7 22.6-2.9 13.3-2.7 27.3-14 35-8.5 5.8-19.7 15.1-22.2 25.5l-42.7-20.5c-.1.2-19-103.7 51.3-100.4z" fill="#61afff"/><path d="m210.1 98.3s23.8 22.7-5 50.2-18.9-38.1 5-50.2z" fill-opacity=".08"/><path d="m131.1 117.2h64.3c21 0 38.1 17 38.1 38.1v3.1c0 21-17 38.1-38.1 38.1h-64.3c-21 0-38.1-17-38.1-38.1v-3.1c0-21.1 17-38.1 38.1-38.1z" fill="#ffd200"/><path d="m142 196.5h26.8s-28.1-35.2-11.5-74.3c0 0-29.9-2.4-29.6-3.4.3-1.1 1.6 30.4 1.6 30.4z" fill-opacity=".08"/><path d="m185.1 83.1s-48.7 5.8-71.2 19.3 14.8 85.3 14.8 85.3l12.2-5.3-10.3-58.4s67.2 7 77.1-11.5-8.3-31.6-22.6-29.4z" fill="#61afff"/><path d="m185.1 83.1s-48.7 5.8-71.2 19.3 14.8 85.3 14.8 85.3l12.2-5.3-10.3-58.4s67.2 7 77.1-11.5-8.3-31.6-22.6-29.4z" fill="#fff" fill-opacity=".46"/><path d="m229.1 245.8s4.1 2.3 7.3 0 6.6 0 4.5 3-12.1 5.6-12.1 5.6l-3.5-4.5z" fill="#61afff"/><path d="m312.2 119.4s-.7-12.8 1.9-13.6 3.8 5.5 3.8 5.5 3-10.9 8.7-9.6-6 24-6 24z" fill="#f4a28c"/><path d="m129.4 187.1s-1 14.2 5.4 13.8c.8 0 1.5-.2 2.3-.4 5-1.8 7.6-7.3 5.8-12.3-.1-.1-.1-.3-.2-.4l-1.9-4.6z" fill="#f4a28c"/><path d="m225.6 152.6h6.2c6.6 0 12 5.4 12 12s-5.4 12-12 12h-6.2c-6.6 0-12-5.4-12-12s5.4-12 12-12z" fill="#ffd200"/><path d="m225.6 152.6h6.2c6.6 0 12 5.4 12 12s-5.4 12-12 12h-6.2c-6.6 0-12-5.4-12-12s5.4-12 12-12z" fill="#fff" fill-opacity=".35"/></g><circle cx="205.9" cy="192.6" fill="#24285b" r="4.7"/><circle cx="300.8" cy="103.5" fill="#ffd200" r="30.1"/><circle cx="300.8" cy="103.5" fill="#fff" fill-opacity=".46" r="20.3"/><path d="m190.5 199.2s29.3 10.6 40.4 45.6l-5.6 5.1s-14-23-46-40.8z" fill="#24285b" fill-rule="nonzero" transform="translate(-3 47)"/><path d="m173.8 134.4s-7.7-11.8-2.6-18.3 18.7 9.1 18.7 9.1z" fill="#ffd200" fill-rule="nonzero" transform="translate(-3 47)"/><ellipse cx="231.8" cy="211.6" fill-opacity=".08" rx="3.2" ry="5.3"/><ellipse cx="221.3" cy="211.6" fill-opacity=".08" rx="3.2" ry="5.3"/><path d="m183.3 195.5 8.2 13.4 12.4-3.3-1.7-16.1z" fill="#ffd200" fill-rule="nonzero" transform="translate(-3 47)"/><path d="m94.6 145.6s-14.8-4.5-27.2 2.5c0 0 17.6-2.5 25.5 8.6z" fill="#ffd200" fill-rule="nonzero" transform="translate(-3 47)"/><path d="m305.1 42c.7 0 .9.2.9.9v1.5c2.5.3 4.7 1.9 5.6 4.3.4.7.2 1.1-.6 1.5l-1.5.7c-.7.3-1 .2-1.4-.6-.6-1.6-2.2-2.5-3.9-2.4-2.6 0-3.8.8-3.8 2.5.1 1.1 1 1.9 2.1 2 .7.2 1.5.3 2.2.3 1.4.1 2.8.3 4.1.8.7.2 1.3.6 1.8 1 1.1 1.2 1.7 2.7 1.6 4.3 0 3.3-2.2 5.6-6.2 6.2v1.6c0 .7-.2 1-.9 1h-1.7c-.7 0-1-.2-1-1v-1.5c-2.8-.2-5.2-2.1-6.1-4.7-.2-.5 0-1.1.5-1.3.1 0 .1-.1.2-.1l1.5-.6c.8-.3 1.1-.1 1.4.7.6 1.7 2.3 2.8 4.1 2.6 2.8 0 4.2-.9 4.2-2.7 0-.9-.5-1.6-1.3-1.9-1-.3-2-.5-3-.6-1.4-.1-2.8-.4-4.1-.9-.7-.2-1.3-.6-1.8-1-1.2-1.1-1.8-2.6-1.8-4.2 0-3.3 2.1-5.5 6-6.1v-1.3c0-.7.3-.9 1-.9h1.9z" fill="#fff" fill-rule="nonzero" transform="translate(-3 47)"/></svg>