<svg enable-background="new 0 0 600 600" height="600" viewBox="0 0 600 600" width="600" xmlns="http://www.w3.org/2000/svg" xmlns:xlink="http://www.w3.org/1999/xlink"><clipPath id="a"><path d="m0 0h600v600h-600z"/></clipPath><clipPath id="b"><path d="m0 0h600v600h-600z"/></clipPath><clipPath id="c"><path d="m176.96 494.289h246.08v21.41h-246.08z"/></clipPath><g clip-path="url(#a)"><path clip-path="url(#b)" d="m900 300c0 331.369-268.631 600-600 600-331.37 0-600-268.631-600-600 0-331.37 268.63-600 600-600 331.369 0 600 268.63 600 600" fill="#ff5e5a"/><g clip-path="url(#b)" opacity=".2"><path clip-path="url(#c)" d="m176.96 494.289h246.08v21.41h-246.08z" fill="#1d1d1b"/></g><path clip-path="url(#b)" d="m267.89 355.849h64.22v85.63h-64.22z" fill="#ad9623"/><path clip-path="url(#b)" d="m225.07 441.478h149.86v42.811h-149.86z" fill="#fceca9"/><path clip-path="url(#b)" d="m374.93 141.769v184.78c0 16.149-13.149 29.3-29.3 29.3h-91.26c-16.16 0-29.3-13.15-29.3-29.3v-184.78z" fill="#fceca9"/><g fill="#ad9623"><path clip-path="url(#b)" d="m287.2 240.797h10.135c4.826 0 8.401-1.207 10.727-3.62 2.325-2.412 3.488-5.615 3.488-9.608 0-1.754-.264-3.389-.79-4.903s-1.327-2.807-2.402-3.883c-1.075-1.074-2.425-1.919-4.047-2.533-1.624-.614-3.532-.922-5.726-.922-1.755 0-3.411.253-4.968.757-1.558.505-2.918 1.217-4.081 2.139-1.163.921-2.084 2.052-2.764 3.389-.68 1.339-1.02 2.841-1.02 4.508h-19.019c0-3.949.823-7.535 2.468-10.76s3.883-5.966 6.713-8.226c2.829-2.259 6.153-4.015 9.97-5.265s7.897-1.876 12.241-1.876c4.825 0 9.223.582 13.195 1.744 3.97 1.163 7.38 2.896 10.233 5.2 2.852 2.303 5.067 5.155 6.646 8.555 1.58 3.4 2.369 7.338 2.369 11.813 0 2.063-.318 4.104-.954 6.12-.637 2.018-1.579 3.916-2.831 5.693-1.25 1.777-2.774 3.422-4.572 4.935-1.8 1.514-3.861 2.797-6.187 3.85 5.396 1.932 9.421 4.827 12.076 8.687 2.654 3.862 3.981 8.424 3.981 13.689 0 4.475-.866 8.468-2.6 11.977-1.733 3.511-4.112 6.461-7.14 8.852-3.027 2.392-6.614 4.212-10.761 5.462-4.146 1.25-8.633 1.876-13.458 1.876-4.081 0-8.073-.549-11.978-1.646-3.905-1.096-7.382-2.785-10.431-5.067-3.05-2.281-5.506-5.144-7.37-8.588-1.866-3.444-2.797-7.536-2.797-12.274h19.019c0 1.8.35 3.445 1.053 4.936.701 1.492 1.678 2.775 2.928 3.85 1.251 1.076 2.732 1.92 4.443 2.534 1.71.614 3.575.921 5.593.921 2.238 0 4.255-.307 6.055-.921 1.798-.614 3.323-1.503 4.573-2.666 1.251-1.162 2.205-2.544 2.863-4.146.658-1.601.987-3.389.987-5.363 0-2.544-.362-4.727-1.086-6.549-.725-1.819-1.767-3.3-3.126-4.442-1.359-1.14-3.018-1.984-4.969-2.533-1.953-.549-4.136-.823-6.548-.823h-10.131z"/><path clip-path="url(#b)" d="m258.927 463.24 4.882-10.57h5.285l-7.702 14.953v8.508h-4.914v-8.508l-7.702-14.953h5.301z"/><path clip-path="url(#b)" d="m285.353 465.963h-9.281v6.284h10.892v3.884h-15.726v-23.461h15.694v3.915h-10.86v5.592h9.281z"/><path clip-path="url(#b)" d="m303.045 471.297h-8.475l-1.612 4.834h-5.14l8.734-23.461h4.479l8.781 23.461h-5.14zm-7.17-3.916h5.865l-2.948-8.781z"/><path clip-path="url(#b)" d="m320.689 467.542h-3.852v8.589h-4.834v-23.461h8.718c1.354 0 2.567.153 3.642.459 1.074.307 1.981.758 2.723 1.354.741.597 1.311 1.335 1.708 2.216s.597 1.901.597 3.062c0 .859-.097 1.63-.29 2.313-.193.682-.473 1.289-.838 1.82-.365.532-.806.996-1.321 1.394s-1.096.741-1.74 1.031l5.074 9.588v.226h-5.188zm-3.851-3.915h3.899c.634 0 1.189-.083 1.668-.25.478-.166.875-.402 1.192-.709.316-.306.556-.671.717-1.096.161-.424.242-.899.242-1.425 0-1.107-.314-1.978-.943-2.611s-1.592-.951-2.892-.951h-3.884v7.042z"/><path clip-path="url(#b)" d="m345.229 469.976c0-.408-.059-.776-.177-1.104s-.347-.632-.685-.911c-.339-.279-.806-.553-1.402-.821s-1.367-.554-2.313-.854c-1.074-.344-2.086-.73-3.037-1.16-.95-.43-1.783-.937-2.497-1.522-.715-.585-1.279-1.26-1.692-2.022-.414-.763-.62-1.654-.62-2.675 0-.978.212-1.871.637-2.683.424-.81 1.02-1.501 1.788-2.07s1.681-1.013 2.739-1.329c1.058-.317 2.221-.476 3.487-.476 1.301 0 2.482.18 3.546.54 1.063.359 1.972.861 2.724 1.506s1.332 1.41 1.74 2.297c.407.886.612 1.855.612 2.908h-4.834c0-.494-.078-.951-.233-1.37-.156-.419-.396-.778-.718-1.079s-.725-.534-1.208-.701c-.483-.166-1.053-.25-1.708-.25-.634 0-1.185.07-1.651.21-.468.14-.854.333-1.16.58-.307.247-.538.537-.693.87-.156.333-.233.688-.233 1.063 0 .773.395 1.421 1.185 1.941.789.521 1.946 1.008 3.472 1.458 1.278.397 2.403.838 3.376 1.321.972.483 1.783 1.031 2.434 1.644.649.612 1.141 1.3 1.474 2.063s.5 1.628.5 2.595c0 1.031-.201 1.949-.604 2.755-.402.806-.976 1.485-1.716 2.039-.741.553-1.636.978-2.683 1.272-1.048.295-2.216.443-3.505.443-.773 0-1.547-.067-2.32-.201-.773-.135-1.513-.342-2.216-.621-.704-.279-1.356-.628-1.958-1.047s-1.125-.913-1.57-1.482c-.446-.569-.796-1.217-1.049-1.941-.252-.726-.378-1.528-.378-2.409h4.851c0 .709.112 1.311.338 1.805s.54.895.943 1.2c.402.307.889.529 1.458.669s1.203.209 1.901.209c.623 0 1.165-.066 1.627-.201.462-.134.844-.319 1.145-.556s.523-.519.669-.846c.142-.33.214-.681.214-1.057"/></g><path clip-path="url(#b)" d="m396.33 141.769v-21.41h-192.66v21.41h-74.93v10.7c0 1.06.11 26.32 9.71 51.93 12.44 33.18 34.9 51.96 65.22 54.74v67.411c0 27.96 22.74 50.699 50.7 50.699h91.26c27.96 0 50.7-22.739 50.7-50.699v-67.411c30.32-2.78 52.78-21.56 65.22-54.74 9.601-25.61 9.71-50.87 9.71-51.93v-10.7zm-192.66 95.81c-20.74-2.7-35.86-16.19-45-40.23-4.8-12.63-6.9-25.48-7.82-34.17h52.82zm171.26 88.97c0 16.149-13.149 29.3-29.3 29.3h-91.26c-16.16 0-29.3-13.15-29.3-29.3v-184.78h149.86zm66.58-129.671c-9.13 24.33-24.31 37.99-45.18 40.7v-74.4h52.83c-.89 8.551-2.95 21.151-7.65 33.7" fill="#e0b810"/><path clip-path="url(#b)" d="m192.96 484.288h214.08v21.41h-214.08z" fill="#e0b810"/><path clip-path="url(#b)" d="m193.5 319.389-15.5-20.001-15.5 20.001v-187h31z" fill="#352e4c"/><path clip-path="url(#b)" d="m437.5 319.389-15.5-20.001-15.5 20.001v-187h31z" fill="#352e4c"/></g></svg>