<?xml version="1.0" encoding="utf-8"?>
<!-- Generator: Adobe Illustrator 16.0.0, SVG Export Plug-In . SVG Version: 6.00 Build 0)  -->
<!DOCTYPE svg PUBLIC "-//W3C//DTD SVG 1.1//EN" "http://www.w3.org/Graphics/SVG/1.1/DTD/svg11.dtd">
<svg version="1.1" id="Capa_1" xmlns="http://www.w3.org/2000/svg" xmlns:xlink="http://www.w3.org/1999/xlink" x="0px" y="0px"
	 width="600px" height="600px" viewBox="0 0 600 600" enable-background="new 0 0 600 600" xml:space="preserve">
<g>
	<defs>
		<rect id="SVGID_1_" width="600" height="600"/>
	</defs>
	<clipPath id="SVGID_2_">
		<use xlink:href="#SVGID_1_"  overflow="visible"/>
	</clipPath>
	<g clip-path="url(#SVGID_2_)">
		<defs>
			<rect id="SVGID_3_" width="600" height="600"/>
		</defs>
		<clipPath id="SVGID_4_">
			<use xlink:href="#SVGID_3_"  overflow="visible"/>
		</clipPath>
		<path clip-path="url(#SVGID_4_)" fill="#FF5E5A" d="M900,300c0,331.369-268.631,600-600,600c-331.37,0-600-268.631-600-600
			c0-331.37,268.63-600,600-600C631.369-300,900-31.37,900,300"/>
		<g opacity="0.2" clip-path="url(#SVGID_4_)">
			<g>
				<defs>
					<rect id="SVGID_5_" x="176.96" y="494.289" width="246.08" height="21.41"/>
				</defs>
				<clipPath id="SVGID_6_">
					<use xlink:href="#SVGID_5_"  overflow="visible"/>
				</clipPath>
				<rect x="176.96" y="494.289" clip-path="url(#SVGID_6_)" fill="#1D1D1B" width="246.08" height="21.41"/>
			</g>
		</g>
		<rect x="267.89" y="355.849" clip-path="url(#SVGID_4_)" fill="#AD9623" width="64.22" height="85.63"/>
		<rect x="225.07" y="441.478" clip-path="url(#SVGID_4_)" fill="#FCECA9" width="149.86" height="42.811"/>
		<path clip-path="url(#SVGID_4_)" fill="#FCECA9" d="M374.93,141.769v184.78c0,16.149-13.149,29.3-29.3,29.3h-91.26
			c-16.16,0-29.3-13.15-29.3-29.3v-184.78H374.93z"/>
		<path clip-path="url(#SVGID_4_)" fill="#AD9623" d="M287.2,240.797h10.135c4.826,0,8.401-1.207,10.727-3.62
			c2.325-2.412,3.488-5.615,3.488-9.608c0-1.754-0.264-3.389-0.79-4.903c-0.526-1.514-1.327-2.807-2.402-3.883
			c-1.075-1.074-2.425-1.919-4.047-2.533c-1.624-0.614-3.532-0.922-5.726-0.922c-1.755,0-3.411,0.253-4.968,0.757
			c-1.558,0.505-2.918,1.217-4.081,2.139c-1.163,0.921-2.084,2.052-2.764,3.389c-0.68,1.339-1.02,2.841-1.02,4.508h-19.019
			c0-3.949,0.823-7.535,2.468-10.76s3.883-5.966,6.713-8.226c2.829-2.259,6.153-4.015,9.97-5.265s7.897-1.876,12.241-1.876
			c4.825,0,9.223,0.582,13.195,1.744c3.97,1.163,7.38,2.896,10.233,5.2c2.852,2.303,5.067,5.155,6.646,8.555
			c1.58,3.4,2.369,7.338,2.369,11.813c0,2.063-0.318,4.104-0.954,6.12c-0.637,2.018-1.579,3.916-2.831,5.693
			c-1.25,1.777-2.774,3.422-4.572,4.935c-1.8,1.514-3.861,2.797-6.187,3.85c5.396,1.932,9.421,4.827,12.076,8.687
			c2.654,3.862,3.981,8.424,3.981,13.689c0,4.475-0.866,8.468-2.6,11.977c-1.733,3.511-4.112,6.461-7.14,8.852
			c-3.027,2.392-6.614,4.212-10.761,5.462c-4.146,1.25-8.633,1.876-13.458,1.876c-4.081,0-8.073-0.549-11.978-1.646
			c-3.905-1.096-7.382-2.785-10.431-5.067c-3.05-2.281-5.506-5.144-7.37-8.588c-1.866-3.444-2.797-7.536-2.797-12.274h19.019
			c0,1.8,0.35,3.445,1.053,4.936c0.701,1.492,1.678,2.775,2.928,3.85c1.251,1.076,2.732,1.92,4.443,2.534
			c1.71,0.614,3.575,0.921,5.593,0.921c2.238,0,4.255-0.307,6.055-0.921c1.798-0.614,3.323-1.503,4.573-2.666
			c1.251-1.162,2.205-2.544,2.863-4.146c0.658-1.601,0.987-3.389,0.987-5.363c0-2.544-0.362-4.727-1.086-6.549
			c-0.725-1.819-1.767-3.3-3.126-4.442c-1.359-1.14-3.018-1.984-4.969-2.533c-1.953-0.549-4.136-0.823-6.548-0.823H287.2V240.797z"
			/>
		<polygon clip-path="url(#SVGID_4_)" fill="#AD9623" points="258.927,463.24 263.809,452.67 269.094,452.67 261.392,467.623 
			261.392,476.131 256.478,476.131 256.478,467.623 248.776,452.67 254.077,452.67 		"/>
		<polygon clip-path="url(#SVGID_4_)" fill="#AD9623" points="285.353,465.963 276.072,465.963 276.072,472.247 286.964,472.247 
			286.964,476.131 271.238,476.131 271.238,452.67 286.932,452.67 286.932,456.585 276.072,456.585 276.072,462.177 
			285.353,462.177 		"/>
		<path clip-path="url(#SVGID_4_)" fill="#AD9623" d="M303.045,471.297h-8.475l-1.612,4.834h-5.14l8.734-23.461h4.479l8.781,23.461
			h-5.14L303.045,471.297z M295.875,467.381h5.865l-2.948-8.781L295.875,467.381z"/>
		<path clip-path="url(#SVGID_4_)" fill="#AD9623" d="M320.689,467.542h-3.852v8.589h-4.834V452.67h8.718
			c1.354,0,2.567,0.153,3.642,0.459c1.074,0.307,1.981,0.758,2.723,1.354c0.741,0.597,1.311,1.335,1.708,2.216
			s0.597,1.901,0.597,3.062c0,0.859-0.097,1.63-0.29,2.313c-0.193,0.682-0.473,1.289-0.838,1.82
			c-0.365,0.532-0.806,0.996-1.321,1.394s-1.096,0.741-1.74,1.031l5.074,9.588v0.226h-5.188L320.689,467.542z M316.838,463.627
			h3.899c0.634,0,1.189-0.083,1.668-0.25c0.478-0.166,0.875-0.402,1.192-0.709c0.316-0.306,0.556-0.671,0.717-1.096
			c0.161-0.424,0.242-0.899,0.242-1.425c0-1.107-0.314-1.978-0.943-2.611s-1.592-0.951-2.892-0.951h-3.884V463.627z"/>
		<path clip-path="url(#SVGID_4_)" fill="#AD9623" d="M345.229,469.976c0-0.408-0.059-0.776-0.177-1.104
			c-0.118-0.328-0.347-0.632-0.685-0.911c-0.339-0.279-0.806-0.553-1.402-0.821c-0.596-0.268-1.367-0.554-2.313-0.854
			c-1.074-0.344-2.086-0.73-3.037-1.16c-0.95-0.43-1.783-0.937-2.497-1.522c-0.715-0.585-1.279-1.26-1.692-2.022
			c-0.414-0.763-0.62-1.654-0.62-2.675c0-0.978,0.212-1.871,0.637-2.683c0.424-0.81,1.02-1.501,1.788-2.07
			c0.768-0.569,1.681-1.013,2.739-1.329c1.058-0.317,2.221-0.476,3.487-0.476c1.301,0,2.482,0.18,3.546,0.54
			c1.063,0.359,1.972,0.861,2.724,1.506s1.332,1.41,1.74,2.297c0.407,0.886,0.612,1.855,0.612,2.908h-4.834
			c0-0.494-0.078-0.951-0.233-1.37c-0.156-0.419-0.396-0.778-0.718-1.079s-0.725-0.534-1.208-0.701
			c-0.483-0.166-1.053-0.25-1.708-0.25c-0.634,0-1.185,0.07-1.651,0.21c-0.468,0.14-0.854,0.333-1.16,0.58
			c-0.307,0.247-0.538,0.537-0.693,0.87c-0.156,0.333-0.233,0.688-0.233,1.063c0,0.773,0.395,1.421,1.185,1.941
			c0.789,0.521,1.946,1.008,3.472,1.458c1.278,0.397,2.403,0.838,3.376,1.321c0.972,0.483,1.783,1.031,2.434,1.644
			c0.649,0.612,1.141,1.3,1.474,2.063s0.5,1.628,0.5,2.595c0,1.031-0.201,1.949-0.604,2.755c-0.402,0.806-0.976,1.485-1.716,2.039
			c-0.741,0.553-1.636,0.978-2.683,1.272c-1.048,0.295-2.216,0.443-3.505,0.443c-0.773,0-1.547-0.067-2.32-0.201
			c-0.773-0.135-1.513-0.342-2.216-0.621c-0.704-0.279-1.356-0.628-1.958-1.047s-1.125-0.913-1.57-1.482
			c-0.446-0.569-0.796-1.217-1.049-1.941c-0.252-0.726-0.378-1.528-0.378-2.409h4.851c0,0.709,0.112,1.311,0.338,1.805
			s0.54,0.895,0.943,1.2c0.402,0.307,0.889,0.529,1.458,0.669s1.203,0.209,1.901,0.209c0.623,0,1.165-0.066,1.627-0.201
			c0.462-0.134,0.844-0.319,1.145-0.556s0.523-0.519,0.669-0.846C345.157,470.703,345.229,470.352,345.229,469.976"/>
		<path clip-path="url(#SVGID_4_)" fill="#E0B810" d="M396.33,141.769v-21.41H203.67v21.41h-74.93v10.7
			c0,1.06,0.11,26.32,9.71,51.93c12.44,33.18,34.9,51.96,65.22,54.74v67.411c0,27.96,22.74,50.699,50.7,50.699h91.26
			c27.96,0,50.7-22.739,50.7-50.699v-67.411c30.32-2.78,52.78-21.56,65.22-54.74c9.601-25.61,9.71-50.87,9.71-51.93v-10.7H396.33z
			 M203.67,237.579c-20.74-2.7-35.86-16.19-45-40.23c-4.8-12.63-6.9-25.48-7.82-34.17h52.82V237.579z M374.93,326.549
			c0,16.149-13.149,29.3-29.3,29.3h-91.26c-16.16,0-29.3-13.15-29.3-29.3v-184.78h149.86V326.549z M441.51,196.878
			c-9.13,24.33-24.31,37.99-45.18,40.7v-74.4h52.83C448.27,171.729,446.21,184.329,441.51,196.878"/>
		<rect x="192.96" y="484.288" clip-path="url(#SVGID_4_)" fill="#E0B810" width="214.08" height="21.41"/>
		<polygon clip-path="url(#SVGID_4_)" fill="#352E4C" points="193.5,319.389 178,299.388 162.5,319.389 162.5,132.389 
			193.5,132.389 		"/>
		<polygon clip-path="url(#SVGID_4_)" fill="#352E4C" points="437.5,319.389 422,299.388 406.5,319.389 406.5,132.389 
			437.5,132.389 		"/>
	</g>
</g>
</svg>
