<?xml version="1.0" encoding="UTF-8"?>
<!DOCTYPE svg  PUBLIC '-//W3C//DTD SVG 20010904//EN'  'http://www.w3.org/TR/2001/REC-SVG-20010904/DTD/svg10.dtd'>
<svg width="1159pt" height="322pt" version="1.0" viewBox="0 0 1159 322" xmlns="http://www.w3.org/2000/svg">
<metadata>Created by potrace 1.15, written by Peter Selinger 2001-2017</metadata>
<g transform="translate(0 322) scale(.1 -.1)" fill="#3a5269">
<path d="m3915 3204c-256-45-494-150-709-311-85-63-306-286-306-307 0-9 31-7 118 5 296 42 722 51 1257 24 448-22 764-27 954-17 177 10 190 13 191 53 0 22-172 189-270 261-139 102-89 97-508 55-335-34-1248-138-1332-152-32-6-33-5-15 8 52 37 231 140 325 187 139 70 240 113 385 166l120 43h-65c-36-1-101-7-145-15z"/>
<path d="m5630 2309c0-17-83-225-140-349-106-231-238-462-515-900-290-457-421-678-526-892l-43-87 17-36c9-20 24-38 34-42 33-13 258 49 386 106l62 28 117 259c136 301 302 683 484 1114l129 305 7-90c19-231-19-604-94-918-16-71-28-130-25-133 7-8 112 174 150 261 47 107 83 217 109 339 30 138 33 493 5 631-22 108-69 256-110 348-27 61-47 85-47 56z"/>
<path d="m0 1625v-595h245 245v275 275h260 260v65 65h-260-260v190 190h305 305v65 65h-550-550v-595z"/>
<path d="m1260 1625v-595h600 600v65 65h-350-350v230 230h250 250v65 65h-250-250v170 170h350 350v65 65h-600-600v-595z"/>
<path d="m3160 2216c0-2 99-295 220-652 121-356 220-648 220-649 0-2 37-5 83-9 45-4 89-9 98-12 13-3 46 62 154 303 76 170 156 346 178 393l40 85 122-850 80-12c44-6 96-12 116-12l36-1 382 699c209 384 381 702 381 705s-55 6-123 6h-123l-194-349c-107-193-195-349-197-348-1 2-21 151-43 332-22 182-43 340-46 353-4 22-5 22-166 20l-161-3-166-317c-91-174-169-314-172-310s-41 133-84 287-82 295-87 313l-9 32h-269c-149 0-270-2-270-4z"/>
<path d="m5980 1625v-595h595 595v65 65h-350-350v530 530h-245-245v-595z"/>
<path d="m7801 2193c-12-26-478-1124-488-1150-4-10 20-13 98-13h104l108 260h247 248l50-128 49-127 252-3c138-1 251 1 251 4 0 4-123 272-272 596l-272 588h-182-181l-12-27zm175-531 90-237-189-3c-105-1-192-1-194 2-6 5 191 485 197 479 3-2 46-111 96-241z"/>
<path d="m8870 1626v-596h250 250v239 238l183 7c389 15 563 74 642 218 26 47 30 63 30 138 0 68-5 94-23 132-45 91-151 160-302 194-63 14-148 18-552 21l-478 5v-596zm721 458c103-31 160-127 145-246-13-95-67-166-144-188-20-6-79-14-129-17l-93-6v237 236h83c47 0 107-7 138-16z"/>
<path d="m10835 2210c-160-22-319-94-378-172-86-112-74-256 30-368 73-79 201-142 400-199 275-78 365-152 306-252-35-59-171-96-308-84-229 20-317 110-274 281 6 25 9 47 7 49-9 9-223-28-230-39-13-18-9-99 7-152 40-134 178-209 439-235 287-29 537 26 667 148 67 63 89 112 89 201s-15 127-77 193c-89 95-227 160-484 229-285 76-372 146-294 239 66 77 334 92 472 25 77-37 98-72 97-162v-73l25 5c14 3 66 10 114 17l88 11-7 47c-21 148-119 238-301 276-87 19-298 27-388 15z"/>
<path d="m2646 2102c-36-116-66-268-72-375l-6-92 199-295c168-250 432-633 709-1027l65-92-73 41c-176 99-394 256-583 422-30 27-58 47-61 44-9-10 119-173 210-266 211-217 467-365 756-438 141-36 142-35 59 76-210 281-350 523-704 1220-247 486-424 813-460 849-11 11-17 1-39-67z"/>
</g>
</svg>
