<?xml version="1.0" encoding="UTF-8"?>
<svg viewBox="0 0 216 216" xmlns="http://www.w3.org/2000/svg">
<defs>
<style>.cls-1 {
        fill: #3d91e6;
      }

      .cls-2 {
        fill: #fff;
        fill-rule: evenodd;
      }</style>
</defs>
<rect class="cls-1" width="216" height="216"/>
<path class="cls-2" d="m176.46 108.47c0-41.655-34.967-75.014-76.106-70.261-31.282 3.613-56.566 29.795-60.056 62.179-4.589 42.591 27.631 78.79 67.864 78.79a66.428 66.428 0 0 0 40.8-14.041l20.469 21.284a9.606 9.606 0 0 0 13.92 0.031 10.448 10.448 0 0 0 0.03-14.41l-20.5-21.317a71.977 71.977 0 0 0 13.579-42.255zm-68.3 50.326c-26.806 0-48.613-22.578-48.613-50.326s21.807-50.33 48.613-50.33 48.609 22.578 48.609 50.33a51.275 51.275 0 0 1-8 27.579l-17.32-18.011-13.949 14.383 17.368 18.053a47.121 47.121 0 0 1-26.705 8.322zm12.028-52.42-13.945 14.384 6.734 7.244 13.948-14.382z"/>
</svg>
