<?xml version="1.0" encoding="utf-8"?>
<!-- Generator: Adobe Illustrator 16.0.0, SVG Export Plug-In . SVG Version: 6.00 Build 0)  -->
<!DOCTYPE svg PUBLIC "-//W3C//DTD SVG 1.1//EN" "http://www.w3.org/Graphics/SVG/1.1/DTD/svg11.dtd">
<svg version="1.1" id="Capa_1" xmlns="http://www.w3.org/2000/svg" xmlns:xlink="http://www.w3.org/1999/xlink" x="0px" y="0px"
	 width="158.61px" height="26.576px" viewBox="0 0 158.61 26.576" enable-background="new 0 0 158.61 26.576" xml:space="preserve">
<g>
	<path fill="#FFFFFF" d="M24.781,12.391c0-7.299-6.343-13.144-13.807-12.312C5.299,0.712,0.712,5.3,0.079,10.975
		C-0.754,18.438,5.092,24.78,12.391,24.78c2.773,0,5.336-0.915,7.403-2.46l3.713,3.73c0.696,0.699,1.827,0.701,2.526,0.005
		c0.698-0.696,0.701-1.826,0.005-2.525l-3.719-3.734C23.865,17.729,24.781,15.165,24.781,12.391 M12.391,21.21
		c-4.863,0-8.82-3.956-8.82-8.819s3.957-8.819,8.82-8.819c4.863,0,8.818,3.956,8.818,8.819c0,1.784-0.536,3.444-1.45,4.833
		l-3.142-3.156l-2.531,2.521l3.15,3.164C15.844,20.671,14.18,21.21,12.391,21.21"/>
	<polygon fill="#FFFFFF" points="14.573,12.024 12.043,14.544 13.264,15.813 15.795,13.293 	"/>
	<path fill="#FFFFFF" d="M42.929,0.137c0.547,0,1.014,0.194,1.401,0.581c0.387,0.387,0.581,0.854,0.581,1.401v13.772
		c0,2.415-0.854,4.476-2.563,6.185s-3.765,2.563-6.168,2.563c-2.415,0-4.477-0.854-6.185-2.563c-1.709-1.709-2.563-3.77-2.563-6.185
		V2.119c0-0.547,0.193-1.014,0.58-1.401c0.388-0.387,0.855-0.581,1.402-0.581c0.546,0,1.013,0.194,1.401,0.581
		c0.387,0.387,0.581,0.854,0.581,1.401v13.772c0,1.321,0.467,2.449,1.401,3.383c0.934,0.935,2.062,1.401,3.383,1.401
		c1.31,0,2.432-0.467,3.366-1.401c0.934-0.934,1.401-2.062,1.401-3.383V2.119c0-0.547,0.194-1.014,0.581-1.401
		C41.915,0.331,42.382,0.137,42.929,0.137"/>
	<path fill="#FFFFFF" d="M49.795,24.639c-0.558,0-1.031-0.199-1.418-0.599c-0.399-0.387-0.598-0.859-0.598-1.418V2.238
		c0-0.558,0.199-1.031,0.598-1.418c0.387-0.399,0.86-0.598,1.418-0.598c0.558,0,1.031,0.199,1.418,0.598
		c0.399,0.387,0.598,0.86,0.598,1.418v20.384c0,0.559-0.199,1.031-0.598,1.418C50.826,24.439,50.353,24.639,49.795,24.639"/>
	<path fill="#FFFFFF" d="M60.908,4.135h-5.075c-0.558,0-1.036-0.199-1.435-0.598c-0.387-0.387-0.581-0.86-0.581-1.418
		s0.194-1.031,0.581-1.418c0.399-0.399,0.877-0.598,1.435-0.598h14.199c0.547,0,1.02,0.199,1.418,0.598
		c0.388,0.387,0.581,0.86,0.581,1.418S71.838,3.15,71.45,3.537c-0.398,0.399-0.871,0.598-1.418,0.598H64.94v18.487
		c0,0.559-0.199,1.037-0.598,1.436c-0.387,0.387-0.86,0.581-1.418,0.581s-1.031-0.194-1.418-0.581
		c-0.399-0.398-0.598-0.877-0.598-1.436V4.135z"/>
	<path fill="#FFFFFF" d="M157.567,20.342L157.567,20.342c-0.576,0-1.042-0.467-1.042-1.042V1.127c0-0.575,0.466-1.042,1.042-1.042
		s1.042,0.467,1.042,1.042V19.3C158.609,19.875,158.144,20.342,157.567,20.342"/>
	<path fill="#FFFFFF" d="M158.584,23.622c0,0.561-0.455,1.017-1.017,1.017s-1.017-0.456-1.017-1.017
		c0-0.563,0.455-1.018,1.017-1.018S158.584,23.06,158.584,23.622"/>
	<path fill="#FFFFFF" d="M92.864,24.622c-0.304,0-0.598-0.14-0.791-0.389L76.449,4.03v19.592c0,0.552-0.447,1-1,1
		c-0.553,0-1-0.448-1-1V1.102c0-0.428,0.272-0.808,0.677-0.946c0.404-0.139,0.851-0.005,1.114,0.334l15.625,20.204V1.102
		c0-0.552,0.447-1,1-1c0.554,0,1,0.448,1,1v22.521c0,0.428-0.272,0.808-0.677,0.945C93.081,24.604,92.973,24.622,92.864,24.622"/>
	<path fill="#FFFFFF" d="M108.029,24.656c-6.784,0-12.304-5.521-12.304-12.304c0-6.784,5.52-12.304,12.304-12.304
		s12.305,5.52,12.305,12.304C120.334,19.136,114.813,24.656,108.029,24.656 M108.029,2.048c-5.682,0-10.304,4.622-10.304,10.304
		c0,5.681,4.622,10.304,10.304,10.304c5.683,0,10.305-4.623,10.305-10.304C118.334,6.67,113.712,2.048,108.029,2.048"/>
	<path fill="#FFFFFF" d="M152.387,0.104c-0.521-0.184-1.092,0.09-1.274,0.611l-7.001,19.894l-7.005-19.894
		c-0.001-0.002-0.002-0.004-0.003-0.006c-0.002-0.007-0.005-0.014-0.008-0.021c-0.003-0.009-0.007-0.018-0.01-0.026
		c-0.002-0.005-0.004-0.01-0.006-0.014c-0.005-0.011-0.01-0.022-0.016-0.032c0-0.002-0.001-0.004-0.002-0.005
		c-0.006-0.013-0.013-0.026-0.02-0.038c0-0.001,0-0.002-0.001-0.003c-0.016-0.029-0.033-0.057-0.051-0.084
		c-0.116-0.171-0.286-0.308-0.496-0.382c-0.138-0.048-0.279-0.065-0.415-0.053c-0.003,0-0.005,0-0.007,0
		c-0.015,0.002-0.027,0.003-0.04,0.005c-0.004,0-0.007,0.001-0.011,0.001c-0.014,0.002-0.027,0.004-0.041,0.007
		c-0.002,0-0.005,0.001-0.007,0.001c-0.014,0.003-0.027,0.006-0.043,0.009c-0.001,0.001-0.003,0.001-0.005,0.001
		c-0.298,0.073-0.557,0.282-0.684,0.581c0,0.001-0.001,0.002-0.001,0.004c-0.005,0.01-0.01,0.021-0.014,0.031
		c-0.002,0.006-0.004,0.011-0.006,0.017c-0.001,0.003-0.002,0.005-0.003,0.007l-7.001,19.894l-7.004-19.894
		c-0.183-0.52-0.757-0.794-1.275-0.611c-0.521,0.184-0.795,0.754-0.611,1.275l7.948,22.574c0.14,0.401,0.519,0.668,0.942,0.668
		c0.425,0,0.803-0.267,0.943-0.668l7.002-19.893l7.003,19.893c0.141,0.401,0.52,0.668,0.944,0.668c0.424,0,0.802-0.267,0.942-0.668
		l7.944-22.574C153.182,0.858,152.908,0.289,152.387,0.104"/>
</g>
</svg>
