<svg enable-background="new 0 0 158.61 26.576" height="26.576" viewBox="0 0 158.61 26.576" width="158.61" xmlns="http://www.w3.org/2000/svg"><g fill="#fff"><path d="m24.781 12.391c0-7.299-6.343-13.144-13.807-12.312-5.675.633-10.262 5.221-10.895 10.896-.833 7.463 5.013 13.805 12.312 13.805 2.773 0 5.336-.915 7.403-2.46l3.713 3.73c.696.699 1.827.701 2.526.005.698-.696.701-1.826.005-2.525l-3.719-3.734c1.546-2.067 2.462-4.631 2.462-7.405m-12.39 8.819c-4.863 0-8.82-3.956-8.82-8.819s3.957-8.819 8.82-8.819 8.818 3.956 8.818 8.819c0 1.784-.536 3.444-1.45 4.833l-3.142-3.156-2.531 2.521 3.15 3.164c-1.392.918-3.056 1.457-4.845 1.457"/><path d="m14.573 12.024-2.53 2.52 1.221 1.269 2.531-2.52z"/><path d="m42.929.137c.547 0 1.014.194 1.401.581s.581.854.581 1.401v13.772c0 2.415-.854 4.476-2.563 6.185s-3.765 2.563-6.168 2.563c-2.415 0-4.477-.854-6.185-2.563-1.709-1.709-2.563-3.77-2.563-6.185v-13.772c0-.547.193-1.014.58-1.401.388-.387.855-.581 1.402-.581.546 0 1.013.194 1.401.581.387.387.581.854.581 1.401v13.772c0 1.321.467 2.449 1.401 3.383.934.935 2.062 1.401 3.383 1.401 1.31 0 2.432-.467 3.366-1.401s1.401-2.062 1.401-3.383v-13.772c0-.547.194-1.014.581-1.401s.854-.581 1.401-.581"/><path d="m49.795 24.639c-.558 0-1.031-.199-1.418-.599-.399-.387-.598-.859-.598-1.418v-20.384c0-.558.199-1.031.598-1.418.387-.399.86-.598 1.418-.598s1.031.199 1.418.598c.399.387.598.86.598 1.418v20.384c0 .559-.199 1.031-.598 1.418-.387.399-.86.599-1.418.599"/><path d="m60.908 4.135h-5.075c-.558 0-1.036-.199-1.435-.598-.387-.387-.581-.86-.581-1.418s.194-1.031.581-1.418c.399-.399.877-.598 1.435-.598h14.199c.547 0 1.02.199 1.418.598.388.387.581.86.581 1.418s-.193 1.031-.581 1.418c-.398.399-.871.598-1.418.598h-5.092v18.487c0 .559-.199 1.037-.598 1.436-.387.387-.86.581-1.418.581s-1.031-.194-1.418-.581c-.399-.398-.598-.877-.598-1.436z"/><path d="m157.567 20.342c-.576 0-1.042-.467-1.042-1.042v-18.173c0-.575.466-1.042 1.042-1.042s1.042.467 1.042 1.042v18.173c0 .575-.465 1.042-1.042 1.042"/><path d="m158.584 23.622c0 .561-.455 1.017-1.017 1.017s-1.017-.456-1.017-1.017c0-.563.455-1.018 1.017-1.018s1.017.456 1.017 1.018"/><path d="m92.864 24.622c-.304 0-.598-.14-.791-.389l-15.624-20.203v19.592c0 .552-.447 1-1 1s-1-.448-1-1v-22.52c0-.428.272-.808.677-.946.404-.139.851-.005 1.114.334l15.625 20.204v-19.592c0-.552.447-1 1-1 .554 0 1 .448 1 1v22.521c0 .428-.272.808-.677.945-.107.036-.215.054-.324.054"/><path d="m108.029 24.656c-6.784 0-12.304-5.521-12.304-12.304 0-6.784 5.52-12.304 12.304-12.304s12.305 5.52 12.305 12.304-5.521 12.304-12.305 12.304m0-22.608c-5.682 0-10.304 4.622-10.304 10.304 0 5.681 4.622 10.304 10.304 10.304 5.683 0 10.305-4.623 10.305-10.304 0-5.682-4.622-10.304-10.305-10.304"/><path d="m152.387.104c-.521-.184-1.092.09-1.274.611l-7.001 19.894-7.005-19.894c-.001-.002-.002-.004-.003-.006-.002-.007-.005-.014-.008-.021-.003-.009-.007-.018-.01-.026-.002-.005-.004-.01-.006-.014-.005-.011-.01-.022-.016-.032 0-.002-.001-.004-.002-.005-.006-.013-.013-.026-.02-.038 0-.001 0-.002-.001-.003-.016-.029-.033-.057-.051-.084-.116-.171-.286-.308-.496-.382-.138-.048-.279-.065-.415-.053-.003 0-.005 0-.007 0-.015.002-.027.003-.04.005-.004 0-.007.001-.011.001-.014.002-.027.004-.041.007-.002 0-.005.001-.007.001-.014.003-.027.006-.043.009-.001.001-.003.001-.005.001-.298.073-.557.282-.684.581 0 .001-.001.002-.001.004-.005.01-.01.021-.014.031-.002.006-.004.011-.006.017-.001.003-.002.005-.003.007l-7.001 19.894-7.004-19.894c-.183-.52-.757-.794-1.275-.611-.521.184-.795.754-.611 1.275l7.948 22.574c.14.401.519.668.942.668.425 0 .803-.267.943-.668l7.002-19.893 7.003 19.893c.141.401.52.668.944.668s.802-.267.942-.668l7.944-22.574c.188-.521-.086-1.09-.607-1.275"/></g></svg>