<svg version="1.1" id="world" xmlns="http://www.w3.org/2000/svg" xmlns:xlink="http://www.w3.org/1999/xlink" x="0px" y="0px"
	 width="320px" height="164.07px" viewBox="0 0 320 164.07" enable-background="new 0 0 320 164.07" xml:space="preserve">
<pattern  x="-469" y="673.534" width="3" height="3" patternUnits="userSpaceOnUse" id="worldPattern" viewBox="0 -10 10 10" overflow="visible">
	<g>
		<polygon fill="none" points="0,-10 10,-10 10,0 0,0 		"/>
		<path d="M8.625-7.5c0,0.621-0.504,1.125-1.125,1.125S6.375-6.879,6.375-7.5S6.879-8.625,7.5-8.625S8.625-8.121,8.625-7.5"/>
		<path d="M8.625-2.5c0,0.621-0.504,1.125-1.125,1.125S6.375-1.879,6.375-2.5S6.879-3.625,7.5-3.625S8.625-3.121,8.625-2.5"/>
		<path d="M3.625-7.5c0,0.621-0.504,1.125-1.125,1.125S1.375-6.879,1.375-7.5S1.879-8.625,2.5-8.625S3.625-8.121,3.625-7.5"/>
		<path d="M3.625-2.5c0,0.621-0.504,1.125-1.125,1.125S1.375-1.879,1.375-2.5S1.879-3.625,2.5-3.625S3.625-3.121,3.625-2.5"/>
	</g>
</pattern>
<g id="worldGroup">
	<defs>
		<path id="worldVector" d="M0,22.98c1.851-2.558,5.344-1.51,7.625-3.246c-0.549-0.875-1.049-0.219-1.506-0.246
			c-0.686-0.04-1.319-0.213-1.3-1.005c0.018-0.754,0.692-1.029,1.325-1.052c0.701-0.026,1.408,0.127,2.113,0.208
			c0.56,0.064,1.261,0.057,1.222-0.632c-0.138-2.457,1.777-2.205,3.237-2.618c4.132-1.17,8.44-1.145,12.637-1.881
			c2.6-0.457,5.116-0.563,7.006,1.919c0.919,1.208,2.367,1.225,3.681,0.666c5.123-2.176,10.365-0.779,15.565-0.586
			c0.499,0.02,0.993,0.344,1.477,0.552c2.081,0.9,3.944,1.791,6.474,0.66c1.922-0.859,4.462-0.682,6.557,0.097
			c2.354,0.873,3.669,0.026,4.866-1.849c1.783-2.789,2.186-2.83,3.787-0.111c1.1,1.869,2.372,1.356,3.854,0.798
			c0.641-0.243,1.559-1.19,2.003-0.022c0.351,0.921-0.727,1.396-1.447,1.583c-1.964,0.509-4.182,1.087-5.602,2.14
			c-3.292,2.438-7.606,2.778-10.565,5.653c-1.465,1.421-1.328,3.038,0.295,4.304c1.024,0.799,2.243,1.077,3.466,1.302
			c1.417,0.259,2.68,0.464,1.877,2.476c-0.338,0.847,0.216,1.564,1.118,1.818c0.976,0.274,1.55-0.256,1.784-1.132
			c0.326-1.225,1.019-2.105,2.252-2.4c1.964-0.473,2.782-1.607,2.625-3.655c-0.101-1.307,2.941-4.564,4.406-4.621
			c1.992-0.077,3.962,0.197,4.611,2.666c0.494,1.881,1.712,1.105,2.711,0.577c1.971-1.041,2.807-0.506,2.7,1.711
			c-0.083,1.728,0.498,3.11,2.168,3.937c1.411,0.698,1.073,1.697,0.196,2.573c-1.581,1.581-3.469,2.364-5.771,2.281
			c-2.625-0.094-5.249,0.046-7.673,1.558c0.808,0.822,1.651,0.381,2.395,0.51c0.425,0.071,1.226,0.072,1.123,0.442
			c-1.143,4.142,2.325,1.168,3.499,2.417c-1.61,1.649-4.191,1.54-5.791,3.049c-0.076,0.072-0.352,0.004-0.491-0.076
			c-2.256-1.293-2.634-1.051-4.67,0.344c-5.884,4.025-9.995,10.106-16.16,13.785c-1.107,0.66-1.501,1.726-1.415,2.969
			c0.081,1.15,0.273,2.297,0.309,3.449c0.026,0.845-0.327,1.742-1.166,1.91c-1.117,0.227-1.107-0.884-1.337-1.601
			c-0.19-0.592-0.269-1.222-0.486-1.802c-0.961-2.569-3.517-3.37-5.724-1.734c-0.857,0.637-1.582,0.908-2.674,0.537
			c-3.01-1.027-6.749,0.72-7.872,3.629c-0.609,1.575-1.16,3.186-1.574,4.82c-0.555,2.195,0.231,3.844,2.359,4.758
			c2.109,0.904,3.837,0.492,5.006-1.572c0.656-1.156,1.427-2.293,2.9-1.566c1.542,0.76,0.571,2.074,0.174,3.031
			c-0.853,2.052-1.217,3.55,1.89,3.509c1.242-0.017,1.823,0.995,1.632,2.272c-0.685,4.567-0.65,3.786,2.386,7.961
			c-2.56-0.594-4.428-1.463-5.297-4.005c-0.594-1.735-2.088-2.538-3.865-3.301c-3.328-1.431-6.648-2.548-10.242-3.087
			c-2.026-0.303-3.568-1.933-5.26-3.078c-0.538-0.364-1.025-0.893-0.949-1.527c0.321-2.677-1.32-4.603-2.648-6.521
			c-1.617-2.333-2.024-5.24-3.9-7.958c-1.146,3.017,1.896,5.115,0.652,7.878c-1.624-2.026-2.157-4.226-2.31-6.504
			c-0.114-1.696-0.637-2.996-1.97-4.167c-2.509-2.203-2.778-7.236-0.755-9.93c1.122-1.492,2.063-3.143,3.313-4.517
			c3.933-4.324,1.842-9.44,1.914-14.237c0.02-1.343-1.604-2.151-2.829-2.572c-3.884-1.336-7.963-1.24-11.669,0.199
			C5.322,26.263,2.774,27.313,0,25.118C0,24.404,0,23.693,0,22.98z M78.027,164.07c-2.146-1.527-3.775-3.487-4.971-5.829
			c-0.367-0.72-0.942-1.453-0.533-2.24c1.173-2.266-0.278-3.976-1.25-5.665c-0.729-1.27-1.273-2.46-1.402-3.936
			c-0.66-7.518-1.484-15.024-1.076-22.594c0.076-1.4-0.69-2.313-1.846-3.001c-4.191-2.489-8.004-5.322-9.578-10.277
			c-0.263-0.828-0.762-1.63-1.311-2.314c-2.944-3.666-2.217-7.241-0.056-10.979c1.396-2.414,3.833-4.535,2.438-7.965
			c-0.467-1.15,3.97-5.598,5.272-5.515c1.532,0.1,1.196,1.745,2.062,2.813c0.727-2.793,2.266-3.141,4.406-1.684
			c0.62,0.424,1.368,0.354,2.077,0.22c1.635-0.306,2.685,0.644,4.031,1.395c3.15,1.754,5.706,4.476,9.238,5.586
			c2.414,0.76,3.493,2.602,3.662,5.032c0.041,0.594-0.297,1.521,0.521,1.562c3.119,0.156,5.265,2.906,8.452,2.946
			c2.974,0.037,5.378,1.763,7.709,3.388c1.72,1.2,1.274,2.959,0.252,4.258c-2.561,3.255-3.221,7.021-3.621,10.972
			c-0.421,4.162-1.816,7.641-6.78,8.207c-1.553,0.177-2.023,1.23-2.365,2.935c-0.708,3.532-2.058,6.961-4.591,9.727
			c-1.104,1.206-2.509,0.91-4.305,0.242c2.925,3.607,2.631,4.47-1.459,5.853c-0.474,0.16-0.933,0.371-0.892,0.826
			c0.165,1.847-1.021,2.202-2.762,2.149c1.053,1.769,1.672,3.325,0.328,4.894c-0.106,0.123-0.202,0.447-0.153,0.484
			c3.019,2.354,0.158,5.41,0.974,8.016c0.053,0.168,0.133,0.329,0.2,0.495C79.809,164.07,78.918,164.07,78.027,164.07z M101.008,0
			c4.713,1.032,9.469,1.376,14.268,0.817c1.064-0.125,2.088-0.315,3.166-0.052c5.092,1.249,10.239,0.941,15.374,0.396
			c1.468-0.156,2.849-0.02,4.186,0.491c1.121,0.429,1.398,1.188,0.243,1.895c-1.269,0.776-1.771,2.33-2.717,3.08
			c-2.47,1.959-5.648,3.088-6.199,6.801c-0.032,0.217-0.764,0.453-1.18,0.473c-4.823,0.228-8.93,2.673-13.324,4.229
			c-1.887,0.668-2.578,2.35-3.613,3.761c-1.803,2.457-3.057,2.488-4.985,0.101c-0.914-1.129-1.401-2.434-1.779-3.834
			c-0.476-1.764-0.691-3.141,1.815-3.296c1.186-0.071,1.482-1.03,1.358-2.177c-0.326-2.995-2.549-5.607-5.547-6.523
			c-0.801-0.244-1.812,0.02-2.495-1.01c0.968-0.684,2.06-0.279,3.034-0.46c0.926-0.174,1.993-0.169,2.202-1.923
			c-4.025,0.854-8.077,1.067-11.613,2.84c-2.576,1.291-4.855,1.957-7.531,0.725c-0.876-0.403-2.09-0.512-2.055-1.744
			c0.037-1.267,1.21-1.421,2.18-1.497C89.652,2.786,93.281,1.719,96.732,0C98.157,0,99.583,0,101.008,0z M271.665,75.091
			c-0.071-0.516-0.161-1.028-0.208-1.547c-0.095-1.059-0.462-1.979-1.598-2.188c-1.31-0.24-1.841,0.861-2.455,1.709
			c-0.704,0.973-0.444,1.827,0.403,2.585c1.607,1.441,2.943,3.104,3.921,5.029c1.029,2.028-0.038,4.193-2.814,6.135
			c-1.848,1.293-2.454-0.452-3.498-1.239c-1.157-0.873-1.689-3.127-3.307-2.631c-1.577,0.482-0.14,2.825-1.37,4.184
			c-0.935-1.107-0.542-2.368-0.783-3.492c-0.398-1.854,0.505-4.303-3.071-4.805c-1.524-0.213-2.733-3.336-3.899-5.25
			c-0.96-1.576-2.2-2.547-4.011-2.735c-0.503-0.053-1.219-0.077-1.518,0.214c-3.786,3.686-9.735,5.961-8.522,12.962
			c0.164,0.943,0.026,1.94-0.724,2.748c-1.42,1.531-2.8,1.446-3.364-0.531c-1.234-4.331-4.165-8.108-4.149-12.847
			c0.003-0.857-0.521-1.647-1.544-1.385c-1.748,0.449-2.704-0.655-3.6-1.738c-2.217-2.682-4.936-3.906-8.45-3.484
			c-2.194,0.265-4.241-0.313-5.976-1.793c-0.329-0.277-0.771-0.606-1.161-0.606c-3.128,0.001-5.521-1.7-8.229-3.709
			c0.227,2.626,0.963,4.663,2.183,6.454c1.179,1.731,3.095,1.599,4.986-0.373c1.102-1.148,1.737-1.463,2.382,0.297
			c0.236,0.646,0.62,1.42,1.168,1.739c2.863,1.677,1.462,2.964,0.129,4.98c-2.942,4.451-7.727,5.845-12,8.09
			c-1.942,1.021-3.396,0.188-4.108-1.952c-1.905-5.726-5.978-10.237-8.766-15.475c-0.571-1.07-1.524-1.717-3.076-1.129
			c3.038,5.457,4.251,11.803,8.965,16.276c0.38,0.359,0.788,0.827,0.901,1.311c1.163,5.002,5.004,4.469,8.539,3.901
			c2.798-0.45,2.635,0.795,1.983,2.569c-1.122,3.055-3.059,5.663-5.244,7.972c-2.4,2.535-4.394,5.367-6.618,8.024
			c-1.192,1.425-1.422,2.952-0.824,4.736c0.506,1.512,0.88,3.091,1.095,4.671c0.418,3.064-0.015,5.662-3.059,7.588
			c-2.152,1.362-3.872,3.512-2.934,6.569c0.121,0.396,0.143,1.034-0.089,1.292c-4.001,4.469-6.082,10.834-12.574,12.846
			c-0.928,0.287-1.925,0.352-2.846,0.653c-2.444,0.8-3.498-0.421-3.935-2.595c-0.341-1.692-1.006-3.224-2.118-4.555
			c-0.773-0.924-1.182-2.044-1.208-3.199c-0.078-3.416-1.417-6.418-3.013-9.307c-0.958-1.732-1.065-3.412-0.183-5.091
			c2.907-5.527,0.822-10.345-2.227-14.897c-0.971-1.449-1.547-2.558-1.015-4.338c0.787-2.631-0.101-3.982-2.681-4.797
			c-0.084-0.025-0.202-0.006-0.257-0.058c-4.595-4.31-9.377-1.14-14.026-0.226c-3.091,0.608-6.335-0.733-8.633-4.392
			c-1.041-1.655-1.977-3.306-3.504-4.647c-1.413-1.241-1.059-3.149-0.66-4.787c0.487-2.004,0.976-3.944,0.458-6.037
			c-0.314-1.269,0.301-2.461,0.85-3.578c2.394-4.879,6.961-8.117,9.673-12.771c1.496-2.568,4.228-2.099,6.613-2.437
			c3.688-0.522,7.39-0.968,11.05-1.643c1.706-0.314,2.747-0.352,2.086,1.788c-0.667,2.161,0.921,3.099,2.346,3.526
			c1.73,0.521,3.31,1.262,4.898,2.047c1.483,0.732,2.765,0.766,3.517-0.998c0.537-1.26,1.355-1.146,2.374-0.621
			c3.312,1.704,6.988,1.097,10.493,1.517c1.985,0.238,4.449-3.48,3.942-5.488c-0.252-1.001-1.041-1.134-1.863-1.16
			c-1.334-0.042-2.672-0.007-4.007-0.053c-3.032-0.105-4.027-0.944-4.54-3.998c-0.165-0.985-0.451-1.65-1.481-1.092
			c-0.723,0.39-2.657-0.42-1.932,1.587c0.416,1.15,0.137,2.107-0.806,2.47c-1.05,0.404-1.456-0.759-1.885-1.497
			c-1.547-2.656-2.942-5.411-5.83-6.964c-0.978-0.526-1.78-1.412-3.292-1.344c0.588,1.712,1.705,2.613,2.985,3.429
			c1.033,0.658,2.724,1.451,2.411,2.544c-0.406,1.417-1.35,3.035-3.438,3.65c0.14-1.344,2.213-1.554,1.332-2.979
			c-0.58-0.936-1.428-1.593-2.356-2.128c-1.305-0.753-2.744-1.288-3.68-2.583c-0.185-0.257-0.784-0.563-0.871-0.487
			c-1.574,1.404-4.063,0.425-5.456,1.975c-1.383,1.539-3.182,2.596-4.06,4.778c-1.021,2.538-5.774,3.239-8.021,1.625
			c-1.101-0.791-1.484-4.742-0.621-6.564c0.935-1.975,2.51-1.661,4.102-1.074c1.14,0.419,2.311,0.818,3.121-0.404
			c0.726-1.094,0.314-2.164-0.42-3.201c-1.092-1.539-0.268-3.653,1.551-3.715c2.237-0.074,3.588-1.566,4.992-2.821
			c3.052-2.727,6.288-3.629,10.443-3.052c1.951,0.271,4.661,0.534,6.541-2.182c0.824-1.189,1.516-4.028,4.26-3.601
			c0.358,0.055,0.83-0.43,0.735-0.943c-0.105-0.578-0.633-0.524-1.078-0.502c-0.709,0.037-1.446,0.239-2.121,0.11
			c-1.806-0.349-2.098-1.4-1.164-2.92c0.269-0.438,0.603-0.977,0.076-1.444c-0.466-0.415-1.016-0.209-1.506,0.005
			c-1.968,0.857-2.895,2.371-2.501,4.488c0.339,1.822-0.454,3.165-1.675,4.244c-1.344,1.188-2.774,1.674-3.937-0.399
			c-0.897-1.601-2.553-2.157-4.202-2.548c-0.716-0.169-1.444-0.076-1.526-1.065c-0.061-0.741-0.025-1.598,0.639-1.932
			c3.778-1.896,6.14-5.502,9.661-7.783c2.671-1.731,5.274-1.965,8.112-1.671c3.101,0.32,6.145,1.02,9.079,2.114
			c0.713,0.267,1.756,0.403,1.457,1.512c-0.218,0.808-1.029,0.818-1.79,0.758c-0.907-0.071-2.408-0.739-2.512,0.447
			c-0.105,1.2,1.453,1.856,2.604,2.291c0.735,0.279,1.381-0.294,1.905-0.753c1.917-1.684,4.242-2.567,6.543-3.536
			c1.191-0.501,2.403-0.365,3.586-0.541c3.517-0.522,6.878-1.106,10.333,0.55c1.051,0.504,2.321-0.305,1.337-2.031
			c-0.493-0.866-2.084-1.97-0.446-2.832c1.558-0.821,2.929,0.245,3.648,1.768c0.331,0.702,0.325,1.556,0.52,2.329
			c0.182,0.722,0.508,1.476,1.413,1.228c0.974-0.266,0.744-1.048,0.458-1.749c-0.3-0.734-0.607-1.466-0.648-2.438
			c0.344,0.399,0.7,0.792,1.031,1.202c0.397,0.492,0.822,1.099,1.511,0.867c0.917-0.311,0.671-1.129,0.512-1.821
			c-0.222-0.959-0.2-2.097,0.93-2.097c5.215,0,9.513-3.906,14.866-3.341c1.839,0.194,3.669,0.606,5.569,0.434
			c0.987-0.091,2.124,0.284,1.261,1.764c-0.75,1.285-0.072,1.604,1.05,1.562c3.799-0.143,7.559,1.256,11.403,0.139
			c1.359-0.396,2.811,0.056,4.153,0.655c2.668,1.193,5.601,0.833,8.39,1.329c0.251,0.045,0.564,0.018,0.787-0.098
			c5.723-2.961,11.398,0.348,17.115,0.229c3.93-0.082,8.178,2.391,11.767,1.539c6.434-1.521,11.954,1.954,18.002,1.713
			c1.647-0.066,3.239,0.637,4.304,2.351c-1.706,0.427-2.986-0.408-4.357-0.619c-1.071-0.164-2.391-0.448-2.779,0.802
			c-0.328,1.056,1.11,1.14,1.742,1.677c0.39,0.329,0.847,0.583,1.546,1.053c-1.408,0.806-2.688,1.376-3.599,2.461
			c-0.416,0.497-0.787,1.014-1.677,0.144c-0.984-0.961-1.946,0.248-2.593,0.947c-0.726,0.782-0.058,1.354,0.636,1.925
			c1.981,1.63,2.754,4.622,1.977,6.968c-0.401,1.212-1.078,1.087-1.745,0.361c-1.74-1.892-3.482-3.788-5.086-5.793
			c-0.83-1.039-0.321-2.212,0.292-3.251c0.504-0.854,0.495-1.749-0.034-2.528c-0.632-0.932-1.48,0.034-2.138-0.086
			c-2.361-0.431-3.832,0.125-4.286,2.723c-0.145,0.82-1.137,0.636-1.854,0.515c-1.492-0.252-3.028-0.35-4.472-0.768
			c-2.262-0.656-3.568,0.663-4.761,2.119c-0.813,0.993-1.145,2.284-0.535,3.517c0.596,1.204,1.838,1.475,2.999,1.251
			c6.212-1.192,8.691,6.317,6.354,10.899c-0.385,0.754-0.826,1.453-1.725,1.483c-2.315,0.078-2.526,2.013-3.009,3.525
			c-0.533,1.667,1.047,2.224,2.063,3.036c1.015,0.812,2.422,1.488,1.431,3.197c-0.413,0.713-0.947,1.353-1.851,1.349
			c-0.83-0.005-1.333-0.604-1.469-1.331c-0.395-2.126-2.883-2.588-3.508-4.548c-0.168-0.526-0.882-0.489-1.426-0.271
			c-0.513,0.205-1.002,0.334-1.462-0.155c-0.542-0.575-0.55-2.005-1.825-1.45c-1.273,0.554-1.981,1.821-2.547,2.993
			c-0.623,1.291,0.596,1.166,1.336,1.216c1.702,0.114,4.053-0.704,2.554,2.738c-0.56,1.284,1.293,2.366,2.189,3.438
			c2.954,3.534,3.184,6.207,0.729,9.367c-0.378,0.486-0.8,1.11-1.328,1.279c-3.404,1.099-5.813,3.265-7.085,6.748
			C272.086,75.302,271.875,75.195,271.665,75.091z M310.04,113.678c1.414,1.499,2.265,3.079,2.542,4.776
			c0.605,3.707,2.536,6.528,4.883,9.373c2.259,2.738,1.215,6.162-0.413,8.798c-2.675,4.327-6.2,7.985-10.988,10.153
			c-0.824,0.373-1.622,0.553-2.566,0.43c-4.047-0.529-4.479-1.028-5.173-6.629c-1.623,0.82-2.712,1.025-3.952-1.045
			c-1.594-2.662-4.621-1.301-6.776-0.582c-3.471,1.154-7.024,1.91-10.525,2.894c-1.782,0.501-2.652,0.21-2.437-1.992
			c0.319-3.259,0.08-6.546,0.518-9.832c0.352-2.632,1.449-4.521,3.947-5.054c4.632-0.986,7.626-4.162,10.636-7.36
			c1.117-1.185,2.004-2.014,3.437-0.396c0.815,0.917,1.366,0.399,2.021-0.523c1.331-1.876,3.099-3.105,5.627-2.909
			c1.481,0.117,2.144,0.556,1.709,2.141c-0.621,2.265,1.039,3.253,2.616,4.052c1.193,0.604,2.163-0.043,2.89-1.169
			C309.003,117.307,309.2,115.508,310.04,113.678z M320,111.466c-0.064,1.061-0.835,0.759-1.359,0.654
			c-1.555-0.305-2.588-1.502-3.809-2.369c-0.793-0.564-1.379-1.121-2.589-0.609c-2.832,1.198-4.868,0.186-6.193-2.771
			c-0.754-1.683-2.353-2.318-3.889-2.436c-2.463-0.188-2.229-2.479-3.244-3.727c-0.544-0.67,0.666-0.765,1.208-0.634
			c0.911,0.22,1.028,1.132,1.36,1.844c0.735,1.576,1.791,2.02,3.062,0.642c0.89-0.964,1.751-0.971,2.855-0.512
			c1.968,0.815,3.967,1.56,5.962,2.311c0.958,0.361,1.768,0.934,2.183,1.852c0.92,2.035,1.902,3.99,3.957,5.147
			C319.715,110.978,319.836,111.257,320,111.466z M82.602,10.068c1.65,0.106,3.334-0.802,5.161-0.128
			c2.514,0.928,4.787,1.993,5.769,4.748c0.376,1.057,1.232,1.967-0.533,2.789c-0.952,0.442,0.291,2.772-1.789,2.857
			c-0.451,3.681-2.564,1.353-3.805,0.874c-2.557-0.989-2.527-1.371-0.381-3.099c1.55-1.247,1.297-3.984-0.615-4.85
			c-1.427-0.645-3.032-1.191-4.648-0.74c-1.032,0.288-2.079,0.7-2.175-0.801c-0.08-1.258,0.873-1.848,2.126-1.805
			C81.976,9.924,82.236,10.004,82.602,10.068z M277.342,102.646c-2.13,0.382-3.433-0.818-4.009-3.01c-0.11-0.42-0.3-1.063-0.1-1.282
			c2.438-2.685,4.563-5.769,7.895-7.418c1.117-0.554,2.218,0.652,2.016,1.775c-0.483,2.684,0.633,5.608-1.664,8.071
			C279.839,102.542,280.101,102.788,277.342,102.646z M203.823,115.34c0.839,2.564,0.033,4.726-0.667,6.899
			c-0.649,2.016-1.966,3.788-2.178,5.963c-0.151,1.545-1.158,2.138-2.546,2.138c-1.439-0.001-1.929-1.076-2.175-2.27
			c-0.202-0.982-0.093-1.934,0.522-2.786c0.257-0.358,0.702-0.801,0.643-1.13C196.542,119.175,200.686,117.784,203.823,115.34z
			 M60.9,14.317c-0.783-0.293-1.63,0.102-2.501,0.165c-1.569,0.115-3.295,0.37-3.982-1.688c-0.272-0.817-1.002-0.894-1.687-1.093
			c-0.558-0.162-1.372-0.174-1.324-1.019c0.039-0.679,0.654-1.074,1.23-1.274c1.835-0.629,3.739-0.725,5.352,0.441
			c1.91,1.382,3.868,1.58,6.044,0.959c0.797-0.229,1.835-0.794,2.107,0.626c0.198,1.034-0.092,1.978-1.225,2.356
			C63.653,14.217,62.378,14.631,60.9,14.317z M259.17,92.642c0.244,0.124,0.435,0.169,0.549,0.288
			c2.963,3.081,6.811,5.342,8.683,9.438c0.576,1.261,1.282,2.632-0.229,3.514c-1.347,0.785-2.077-0.618-2.684-1.51
			c-2.243-3.284-4.396-6.631-6.572-9.963c-0.289-0.441-0.583-0.93-0.331-1.47C258.666,92.771,259.003,92.722,259.17,92.642z"/>
	</defs>
	<use xlink:href="#worldVector"  overflow="visible" fill="url(#worldPattern)"/>
	<clipPath id="worldVector_1_">
		<use xlink:href="#worldVector"  overflow="visible"/>
	</clipPath>
	<rect id="pattern" clip-path="url(#worldVector_1_)" fill="url(#worldPattern)" width="320" height="164.07"/>
</g>
</svg>
