<?xml version="1.0" encoding="UTF-8" standalone="no"?><!DOCTYPE svg PUBLIC "-//W3C//DTD SVG 1.1//EN" "http://www.w3.org/Graphics/SVG/1.1/DTD/svg11.dtd"><svg width="100%" height="100%" viewBox="0 0 135 40" version="1.1" xmlns="http://www.w3.org/2000/svg" xmlns:xlink="http://www.w3.org/1999/xlink" xml:space="preserve" xmlns:serif="http://www.serif.com/" style="fill-rule:evenodd;clip-rule:evenodd;stroke-linejoin:round;stroke-miterlimit:1.41421;"><g><g><g><path d="M124.218,0l-113.354,0c-0.413,0 -0.821,0 -1.234,0.002c-0.344,0.002 -0.687,0.008 -1.035,0.013c-0.757,0.008 -1.511,0.067 -2.258,0.176c-0.745,0.113 -1.467,0.324 -2.142,0.627c-0.673,0.306 -1.289,0.704 -1.824,1.179c-0.537,0.474 -0.986,1.021 -1.327,1.621c-0.343,0.599 -0.58,1.241 -0.704,1.903c-0.126,0.662 -0.193,1.332 -0.202,2.002c-0.011,0.307 -0.012,0.615 -0.017,0.921l0,23.115c0.005,0.31 0.006,0.611 0.017,0.921c0.009,0.671 0.076,1.341 0.202,2.002c0.123,0.663 0.361,1.306 0.704,1.905c0.341,0.598 0.79,1.143 1.327,1.614c0.533,0.477 1.149,0.875 1.824,1.179c0.675,0.304 1.397,0.517 2.142,0.63c0.747,0.109 1.501,0.168 2.258,0.177c0.348,0.007 0.691,0.011 1.035,0.011c0.413,0.002 0.821,0.002 1.234,0.002l113.354,0c0.405,0 0.816,0 1.221,-0.002c0.343,0 0.695,-0.004 1.039,-0.011c0.755,-0.008 1.508,-0.067 2.253,-0.177c0.748,-0.114 1.473,-0.327 2.15,-0.63c0.675,-0.304 1.29,-0.702 1.823,-1.179c0.536,-0.473 0.985,-1.018 1.331,-1.614c0.34,-0.6 0.575,-1.242 0.698,-1.905c0.125,-0.661 0.195,-1.331 0.209,-2.002c0.004,-0.31 0.004,-0.611 0.004,-0.921c0.009,-0.364 0.009,-0.725 0.009,-1.094l0,-20.929c0,-0.366 0,-0.729 -0.009,-1.092c0,-0.306 0,-0.614 -0.004,-0.921c-0.014,-0.671 -0.084,-1.34 -0.209,-2.002c-0.123,-0.662 -0.358,-1.304 -0.698,-1.903c-0.695,-1.203 -1.799,-2.182 -3.154,-2.8c-0.677,-0.302 -1.402,-0.514 -2.15,-0.627c-0.745,-0.11 -1.498,-0.169 -2.253,-0.176c-0.344,-0.005 -0.696,-0.011 -1.039,-0.013c-0.405,-0.002 -0.816,-0.002 -1.221,-0.002l0,0Z" style="fill:#a6a6a6;fill-rule:nonzero;"/><path d="M9.636,39.125c-0.343,0 -0.678,-0.004 -1.019,-0.011c-0.706,-0.008 -1.41,-0.062 -2.106,-0.163c-0.65,-0.099 -1.279,-0.284 -1.867,-0.548c-0.583,-0.261 -1.114,-0.605 -1.574,-1.016c-0.466,-0.407 -0.855,-0.879 -1.15,-1.397c-0.298,-0.521 -0.504,-1.08 -0.612,-1.657c-0.116,-0.62 -0.178,-1.247 -0.187,-1.875c-0.007,-0.211 -0.017,-0.913 -0.017,-0.913l0,-23.101c0,0 0.01,-0.691 0.017,-0.894c0.008,-0.628 0.071,-1.253 0.186,-1.872c0.108,-0.579 0.314,-1.139 0.613,-1.662c0.294,-0.518 0.68,-0.99 1.144,-1.398c0.463,-0.412 0.996,-0.757 1.58,-1.023c0.586,-0.263 1.214,-0.446 1.863,-0.544c0.698,-0.101 1.405,-0.156 2.113,-0.164l1.017,-0.012l115.796,0l1.029,0.013c0.702,0.007 1.402,0.061 2.094,0.162c0.655,0.099 1.29,0.284 1.883,0.548c1.169,0.535 2.121,1.381 2.721,2.42c0.294,0.52 0.497,1.076 0.603,1.649c0.117,0.624 0.183,1.255 0.196,1.887c0.003,0.283 0.003,0.588 0.003,0.89c0.009,0.375 0.009,0.732 0.009,1.092l0,20.929c0,0.363 0,0.718 -0.009,1.075c0,0.325 0,0.623 -0.004,0.93c-0.013,0.621 -0.078,1.24 -0.193,1.853c-0.105,0.581 -0.31,1.145 -0.608,1.67c-0.297,0.513 -0.683,0.98 -1.144,1.386c-0.461,0.414 -0.993,0.759 -1.577,1.022c-0.592,0.266 -1.226,0.452 -1.88,0.55c-0.696,0.101 -1.4,0.156 -2.106,0.163c-0.33,0.007 -0.675,0.011 -1.011,0.011l-1.221,0.002l-114.582,-0.002Z" style="fill-rule:nonzero;"/></g><g id="_Group_"><g id="_Group_3_" serif:id="_Group_3"><path id="_Path_" d="M32.437,20.301c0.022,-1.695 0.913,-3.265 2.356,-4.152c-0.915,-1.307 -2.396,-2.108 -3.991,-2.158c-1.679,-0.176 -3.307,1.005 -4.163,1.005c-0.872,0 -2.189,-0.988 -3.608,-0.958c-1.865,0.06 -3.566,1.097 -4.473,2.727c-1.934,3.349 -0.491,8.27 1.361,10.977c0.927,1.325 2.01,2.805 3.428,2.753c1.387,-0.058 1.905,-0.885 3.579,-0.885c1.659,0 2.145,0.885 3.591,0.852c1.489,-0.025 2.426,-1.332 3.321,-2.67c0.666,-0.944 1.178,-1.988 1.518,-3.092c-1.764,-0.746 -2.917,-2.484 -2.919,-4.399Z" style="fill:#fff;fill-rule:nonzero;"/><path id="_Path_2_" serif:id="_Path_2" d="M29.705,12.211c0.811,-0.974 1.212,-2.227 1.115,-3.491c-1.24,0.13 -2.386,0.723 -3.208,1.66c-0.812,0.924 -1.223,2.134 -1.144,3.361c1.256,0.013 2.45,-0.552 3.237,-1.53Z" style="fill:#fff;fill-rule:nonzero;"/></g><g><path d="M49.97,27.14l-4.733,0l-1.137,3.356l-2.005,0l4.484,-12.418l2.083,0l4.483,12.418l-2.039,0l-1.136,-3.356Zm-4.243,-1.549l3.752,0l-1.85,-5.447l-0.051,0l-1.851,5.447Z" style="fill:#fff;fill-rule:nonzero;"/><path d="M62.828,25.97c0,2.813 -1.506,4.621 -3.779,4.621c-1.172,0.061 -2.282,-0.556 -2.848,-1.584l-0.043,0l0,4.484l-1.859,0l0,-12.049l1.799,0l0,1.506l0.034,0c0.592,-1.022 1.702,-1.638 2.883,-1.6c2.298,0 3.813,1.816 3.813,4.622Zm-1.911,0c0,-1.833 -0.947,-3.038 -2.392,-3.038c-1.42,0 -2.375,1.23 -2.375,3.038c0,1.824 0.955,3.046 2.375,3.046c1.445,0 2.392,-1.197 2.392,-3.046Z" style="fill:#fff;fill-rule:nonzero;"/><path d="M72.792,25.97c0,2.813 -1.505,4.621 -3.778,4.621c-1.173,0.061 -2.282,-0.556 -2.848,-1.584l-0.043,0l0,4.484l-1.859,0l0,-12.049l1.799,0l0,1.506l0.034,0c0.592,-1.022 1.702,-1.638 2.883,-1.6c2.298,0 3.812,1.816 3.812,4.622Zm-1.91,0c0,-1.833 -0.947,-3.038 -2.392,-3.038c-1.42,0 -2.375,1.23 -2.375,3.038c0,1.824 0.955,3.046 2.375,3.046c1.445,0 2.392,-1.197 2.392,-3.046l0,0Z" style="fill:#fff;fill-rule:nonzero;"/><path d="M79.378,27.036c0.138,1.232 1.334,2.04 2.969,2.04c1.567,0 2.694,-0.808 2.694,-1.919c0,-0.964 -0.68,-1.541 -2.29,-1.936l-1.609,-0.388c-2.28,-0.551 -3.339,-1.617 -3.339,-3.348c0,-2.142 1.867,-3.614 4.519,-3.614c2.624,0 4.423,1.472 4.483,3.614l-1.876,0c-0.112,-1.239 -1.137,-1.987 -2.634,-1.987c-1.497,0 -2.521,0.757 -2.521,1.858c0,0.878 0.654,1.395 2.255,1.79l1.368,0.336c2.548,0.603 3.606,1.626 3.606,3.443c0,2.323 -1.85,3.778 -4.794,3.778c-2.753,0 -4.613,-1.421 -4.733,-3.667l1.902,0Z" style="fill:#fff;fill-rule:nonzero;"/><path d="M91.014,19.3l0,2.142l1.722,0l0,1.472l-1.722,0l0,4.991c0,0.776 0.345,1.137 1.102,1.137c0.204,-0.004 0.408,-0.018 0.611,-0.043l0,1.463c-0.34,0.063 -0.686,0.092 -1.032,0.086c-1.833,0 -2.548,-0.689 -2.548,-2.445l0,-5.189l-1.316,0l0,-1.472l1.316,0l0,-2.142l1.867,0Z" style="fill:#fff;fill-rule:nonzero;"/><path d="M93.733,25.97c0,-2.849 1.678,-4.639 4.294,-4.639c2.625,0 4.295,1.79 4.295,4.639c0,2.856 -1.661,4.638 -4.295,4.638c-2.633,0 -4.294,-1.782 -4.294,-4.638Zm6.695,0c0,-1.954 -0.895,-3.108 -2.401,-3.108c-1.506,0 -2.4,1.162 -2.4,3.108c0,1.962 0.894,3.106 2.4,3.106c1.506,0 2.401,-1.144 2.401,-3.106l0,0Z" style="fill:#fff;fill-rule:nonzero;"/><path d="M103.854,21.442l1.772,0l0,1.541l0.043,0c0.247,-0.988 1.16,-1.674 2.178,-1.635c0.214,-0.001 0.428,0.022 0.637,0.069l0,1.738c-0.27,-0.082 -0.552,-0.12 -0.835,-0.112c-0.025,-0.001 -0.051,-0.002 -0.076,-0.002c-1.027,0 -1.873,0.846 -1.873,1.873c0,0.071 0.004,0.142 0.012,0.212l0,5.37l-1.858,0l0,-9.054Z" style="fill:#fff;fill-rule:nonzero;"/><path d="M117.052,27.837c-0.25,1.643 -1.85,2.771 -3.898,2.771c-2.634,0 -4.269,-1.764 -4.269,-4.595c0,-2.84 1.644,-4.682 4.191,-4.682c2.505,0 4.08,1.721 4.08,4.466l0,0.637l-6.395,0l0,0.112c-0.006,0.069 -0.009,0.138 -0.009,0.208c0,1.293 1.064,2.358 2.358,2.358c0.029,0 0.058,-0.001 0.087,-0.002c0.899,0.085 1.753,-0.435 2.091,-1.273l1.764,0Zm-6.282,-2.702l4.526,0c0.003,-0.041 0.004,-0.081 0.004,-0.121c0,-1.195 -0.983,-2.178 -2.178,-2.178c-0.015,0 -0.031,0.001 -0.046,0.001c-0.005,0 -0.009,0 -0.014,0c-1.257,0 -2.292,1.035 -2.292,2.292c0,0.002 0,0.004 0,0.006l0,0Z" style="fill:#fff;fill-rule:nonzero;"/></g></g></g><g id="_Group_4_" serif:id="_Group_4"><path d="M45.494,8.731c0.063,-0.005 0.126,-0.007 0.189,-0.007c1.448,0 2.64,1.192 2.64,2.64c0,0.111 -0.007,0.222 -0.021,0.332c0,1.906 -1.03,3.002 -2.808,3.002l-2.155,0l0,-5.967l2.155,0Zm-1.228,5.123l1.125,0c0.037,0.002 0.074,0.003 0.112,0.003c1.029,0 1.875,-0.846 1.875,-1.876c0,-0.091 -0.006,-0.182 -0.02,-0.273c0.012,-0.085 0.018,-0.17 0.018,-0.256c0,-1.032 -0.849,-1.881 -1.881,-1.881c-0.035,0 -0.07,0.001 -0.104,0.003l-1.125,0l0,4.28Z" style="fill:#fff;fill-rule:nonzero;"/><path d="M49.349,12.444c-0.007,-0.067 -0.01,-0.135 -0.01,-0.203c0,-1.17 0.963,-2.133 2.133,-2.133c1.17,0 2.133,0.963 2.133,2.133c0,0.068 -0.003,0.136 -0.009,0.203c0.006,0.069 0.01,0.138 0.01,0.207c0,1.171 -0.963,2.134 -2.134,2.134c-1.17,0 -2.133,-0.963 -2.133,-2.134c0,-0.069 0.003,-0.138 0.01,-0.207Zm3.333,0c0,-0.976 -0.439,-1.547 -1.208,-1.547c-0.773,0 -1.207,0.571 -1.207,1.547c0,0.984 0.434,1.551 1.207,1.551c0.769,0 1.208,-0.571 1.208,-1.551l0,0Z" style="fill:#fff;fill-rule:nonzero;"/><path d="M59.241,14.698l-0.922,0l-0.93,-3.317l-0.071,0l-0.926,3.317l-0.913,0l-1.242,-4.503l0.902,0l0.806,3.436l0.067,0l0.926,-3.436l0.852,0l0.926,3.436l0.07,0l0.803,-3.436l0.889,0l-1.237,4.503Z" style="fill:#fff;fill-rule:nonzero;"/><path d="M61.522,10.195l0.855,0l0,0.715l0.066,0c0.231,-0.525 0.772,-0.849 1.344,-0.802c0.037,-0.003 0.073,-0.004 0.11,-0.004c0.803,0 1.464,0.661 1.464,1.464c0,0.072 -0.005,0.144 -0.015,0.215l0,2.915l-0.889,0l0,-2.692c0,-0.724 -0.314,-1.084 -0.972,-1.084c-0.016,0 -0.032,-0.001 -0.048,-0.001c-0.566,0 -1.033,0.467 -1.033,1.033c0,0.037 0.002,0.073 0.006,0.109l0,2.635l-0.889,0l0.001,-4.503Z" style="fill:#fff;fill-rule:nonzero;"/><rect x="66.762" y="8.437" width="0.889" height="6.261" style="fill:#fff;fill-rule:nonzero;"/><path d="M68.886,12.444c-0.007,-0.067 -0.01,-0.135 -0.01,-0.203c0,-1.17 0.963,-2.133 2.134,-2.133c1.17,0 2.133,0.963 2.133,2.133c0,0.068 -0.003,0.136 -0.01,0.203c0.007,0.069 0.01,0.138 0.01,0.207c0,1.17 -0.963,2.134 -2.133,2.134c-1.171,0 -2.134,-0.964 -2.134,-2.134c0,-0.069 0.003,-0.138 0.01,-0.207Zm3.333,0c0,-0.976 -0.439,-1.547 -1.208,-1.547c-0.773,0 -1.207,0.571 -1.207,1.547c0,0.984 0.434,1.551 1.207,1.551c0.769,0 1.208,-0.571 1.208,-1.551l0,0Z" style="fill:#fff;fill-rule:nonzero;"/><path d="M74.069,13.424c0,-0.81 0.603,-1.278 1.675,-1.344l1.219,-0.07l0,-0.389c0,-0.475 -0.314,-0.744 -0.921,-0.744c-0.497,0 -0.84,0.182 -0.939,0.5l-0.86,0c0.091,-0.773 0.818,-1.269 1.84,-1.269c1.128,0 1.765,0.562 1.765,1.513l0,3.077l-0.855,0l0,-0.633l-0.071,0c-0.29,0.461 -0.808,0.732 -1.352,0.707c-0.047,0.005 -0.094,0.007 -0.141,0.007c-0.744,0 -1.357,-0.61 -1.36,-1.355Zm2.894,-0.384l0,-0.377l-1.099,0.07c-0.62,0.042 -0.902,0.253 -0.902,0.65c0,0.405 0.352,0.641 0.835,0.641c0.036,0.004 0.072,0.005 0.107,0.005c0.556,0 1.022,-0.435 1.059,-0.989Z" style="fill:#fff;fill-rule:nonzero;"/><path d="M79.016,12.444c0,-1.423 0.732,-2.324 1.869,-2.324c0.574,-0.026 1.113,0.282 1.381,0.79l0.067,0l0,-2.473l0.888,0l0,6.261l-0.851,0l0,-0.712l-0.071,0c-0.288,0.504 -0.834,0.807 -1.414,0.786c-1.145,0 -1.869,-0.901 -1.869,-2.328Zm0.918,0c0,0.955 0.45,1.53 1.203,1.53c0.749,0 1.212,-0.583 1.212,-1.526c0,-0.938 -0.468,-1.53 -1.212,-1.53c-0.748,0 -1.203,0.579 -1.203,1.526l0,0Z" style="fill:#fff;fill-rule:nonzero;"/><path d="M87.005,8.863c0,-0.011 -0.001,-0.023 -0.001,-0.034c0,-0.316 0.26,-0.576 0.576,-0.576c0.316,0 0.576,0.26 0.576,0.576c0,0.316 -0.26,0.576 -0.575,0.576c-0.01,0 -0.019,0 -0.028,0c-0.299,0 -0.545,-0.243 -0.548,-0.542Zm0.132,1.332l0.886,0l0,4.503l-0.886,0l0,-4.503Z" style="fill:#fff;fill-rule:nonzero;"/><path d="M89.457,10.195l0.855,0l0,0.715l0.066,0c0.231,-0.525 0.772,-0.849 1.344,-0.802c0.037,-0.003 0.073,-0.004 0.11,-0.004c0.803,0 1.465,0.661 1.465,1.464c0,0.072 -0.006,0.144 -0.016,0.215l0,2.915l-0.889,0l0,-2.692c0,-0.724 -0.314,-1.084 -0.972,-1.084c-0.016,0 -0.032,-0.001 -0.048,-0.001c-0.566,0 -1.033,0.467 -1.033,1.033c0,0.037 0.002,0.073 0.006,0.109l0,2.635l-0.888,0l0,-4.503Z" style="fill:#fff;fill-rule:nonzero;"/><path d="M96.876,12.444c0,-1.423 0.731,-2.324 1.869,-2.324c0.573,-0.026 1.113,0.282 1.381,0.79l0.066,0l0,-2.473l0.889,0l0,6.261l-0.852,0l0,-0.712l-0.07,0c-0.288,0.504 -0.834,0.807 -1.414,0.786c-1.146,0 -1.869,-0.901 -1.869,-2.328Zm0.918,0c0,0.955 0.45,1.53 1.203,1.53c0.749,0 1.212,-0.583 1.212,-1.526c0,-0.938 -0.468,-1.53 -1.212,-1.53c-0.748,0 -1.204,0.579 -1.204,1.526l0.001,0Z" style="fill:#fff;fill-rule:nonzero;"/><path d="M106.346,13.482c-0.248,0.846 -1.075,1.398 -1.951,1.303c-0.018,0 -0.036,0 -0.054,0c-1.122,0 -2.045,-0.923 -2.045,-2.045c0,-0.093 0.006,-0.187 0.019,-0.28c-0.012,-0.091 -0.018,-0.183 -0.018,-0.275c0,-1.14 0.937,-2.077 2.076,-2.077c0.006,0 0.012,0 0.018,0c1.253,0 2.009,0.856 2.009,2.27l0,0.31l-3.18,0l0,0.05c-0.003,0.033 -0.004,0.066 -0.004,0.1c0,0.653 0.537,1.19 1.19,1.19c0.005,0 0.009,0 0.013,0c0.434,0.052 0.859,-0.164 1.072,-0.546l0.855,0Zm-3.126,-1.451l2.275,0c0.002,-0.027 0.003,-0.054 0.003,-0.081c0,-0.596 -0.491,-1.086 -1.087,-1.086c-0.008,0 -0.016,0 -0.025,0c-0.005,0 -0.009,0 -0.014,0c-0.632,0 -1.152,0.52 -1.152,1.152c0,0.005 0,0.01 0,0.015l0,0Z" style="fill:#fff;fill-rule:nonzero;"/></g></g></svg>